<?xml version="1.0" encoding="UTF-8" standalone="no"?>
<!-- Created with Inkscape (http://www.inkscape.org/) -->

<svg
   version="1.1"
   id="svg1"
   width="663.17084"
   height="523.34497"
   viewBox="0 0 663.17084 523.34497"
   xmlns="http://www.w3.org/2000/svg"
   xmlns:svg="http://www.w3.org/2000/svg">
  <defs
     id="defs1">
    <clipPath
       clipPathUnits="userSpaceOnUse"
       id="clipPath4">
      <path
         d="M 43.778125,37.54375 H 490.17812 v 332.64 H 43.778125 Z"
         id="path4" />
    </clipPath>
    <clipPath
       clipPathUnits="userSpaceOnUse"
       id="clipPath7">
      <path
         d="M 43.778125,37.54375 H 490.17812 v 332.64 H 43.778125 Z"
         id="path7" />
    </clipPath>
    <clipPath
       clipPathUnits="userSpaceOnUse"
       id="clipPath10">
      <path
         d="M 43.778125,37.54375 H 490.17812 v 332.64 H 43.778125 Z"
         id="path10" />
    </clipPath>
    <clipPath
       clipPathUnits="userSpaceOnUse"
       id="clipPath13">
      <path
         d="M 43.778125,37.54375 H 490.17812 v 332.64 H 43.778125 Z"
         id="path13" />
    </clipPath>
    <clipPath
       clipPathUnits="userSpaceOnUse"
       id="clipPath16">
      <path
         d="M 43.778125,37.54375 H 490.17812 v 332.64 H 43.778125 Z"
         id="path16" />
    </clipPath>
    <clipPath
       clipPathUnits="userSpaceOnUse"
       id="clipPath19">
      <path
         d="M 43.778125,37.54375 H 490.17812 v 332.64 H 43.778125 Z"
         id="path19" />
    </clipPath>
    <clipPath
       clipPathUnits="userSpaceOnUse"
       id="clipPath22">
      <path
         d="M 43.778125,37.54375 H 490.17812 v 332.64 H 43.778125 Z"
         id="path22" />
    </clipPath>
    <clipPath
       clipPathUnits="userSpaceOnUse"
       id="clipPath25">
      <path
         d="M 43.778125,37.54375 H 490.17812 v 332.64 H 43.778125 Z"
         id="path25" />
    </clipPath>
    <clipPath
       clipPathUnits="userSpaceOnUse"
       id="clipPath28">
      <path
         d="M 43.778125,37.54375 H 490.17812 v 332.64 H 43.778125 Z"
         id="path28" />
    </clipPath>
    <clipPath
       clipPathUnits="userSpaceOnUse"
       id="clipPath31">
      <path
         d="M 43.778125,37.54375 H 490.17812 v 332.64 H 43.778125 Z"
         id="path31" />
    </clipPath>
    <clipPath
       clipPathUnits="userSpaceOnUse"
       id="clipPath34">
      <path
         d="M 43.778125,37.54375 H 490.17812 v 332.64 H 43.778125 Z"
         id="path34" />
    </clipPath>
    <clipPath
       clipPathUnits="userSpaceOnUse"
       id="clipPath37">
      <path
         d="M 43.778125,37.54375 H 490.17812 v 332.64 H 43.778125 Z"
         id="path37" />
    </clipPath>
    <clipPath
       clipPathUnits="userSpaceOnUse"
       id="clipPath40">
      <path
         d="M 43.778125,37.54375 H 490.17812 v 332.64 H 43.778125 Z"
         id="path40" />
    </clipPath>
    <clipPath
       clipPathUnits="userSpaceOnUse"
       id="clipPath42">
      <path
         d="M 43.778125,37.54375 H 490.17812 v 332.64 H 43.778125 Z"
         id="path42" />
    </clipPath>
    <clipPath
       clipPathUnits="userSpaceOnUse"
       id="clipPath44">
      <path
         d="M 43.778125,37.54375 H 490.17812 v 332.64 H 43.778125 Z"
         id="path44" />
    </clipPath>
    <clipPath
       clipPathUnits="userSpaceOnUse"
       id="clipPath46">
      <path
         d="M 43.778125,37.54375 H 490.17812 v 332.64 H 43.778125 Z"
         id="path46" />
    </clipPath>
    <clipPath
       clipPathUnits="userSpaceOnUse"
       id="clipPath48">
      <path
         d="M 43.778125,37.54375 H 490.17812 v 332.64 H 43.778125 Z"
         id="path48" />
    </clipPath>
    <clipPath
       clipPathUnits="userSpaceOnUse"
       id="clipPath50">
      <path
         d="M 43.778125,37.54375 H 490.17812 v 332.64 H 43.778125 Z"
         id="path50" />
    </clipPath>
    <clipPath
       clipPathUnits="userSpaceOnUse"
       id="clipPath52">
      <path
         d="M 43.778125,37.54375 H 490.17812 v 332.64 H 43.778125 Z"
         id="path52" />
    </clipPath>
    <clipPath
       clipPathUnits="userSpaceOnUse"
       id="clipPath54">
      <path
         d="M 43.778125,37.54375 H 490.17812 v 332.64 H 43.778125 Z"
         id="path54" />
    </clipPath>
  </defs>
  <g
     id="g1">
    <path
       id="path1"
       d="M 0,0 H 497.37812 V 392.50875 H 0 Z"
       style="fill:#ffffff;fill-opacity:1;fill-rule:nonzero;stroke:none"
       transform="matrix(1.3333333,0,0,-1.3333333,0,523.345)" />
    <path
       id="path2"
       d="M 43.778125,37.54375 H 490.17812 v 332.64 H 43.778125 Z"
       style="fill:#ffffff;fill-opacity:1;fill-rule:nonzero;stroke:none"
       transform="matrix(1.3333333,0,0,-1.3333333,0,523.345)" />
    <path
       id="path3"
       d="m 64.069034,37.54375 v 332.64"
       style="fill:none;stroke:#b0b0b0;stroke-width:0.8;stroke-linecap:square;stroke-linejoin:round;stroke-miterlimit:10;stroke-dasharray:none;stroke-opacity:0.3"
       transform="matrix(1.3333333,0,0,-1.3333333,0,523.345)"
       clip-path="url(#clipPath4)" />
    <path
       id="path5"
       d="m 64.069034,37.54375 v -3.5"
       style="fill:#000000;fill-opacity:1;fill-rule:nonzero;stroke:#000000;stroke-width:0.8;stroke-linecap:butt;stroke-linejoin:round;stroke-miterlimit:10;stroke-dasharray:none;stroke-opacity:1"
       transform="matrix(1.3333333,0,0,-1.3333333,0,523.345)" />
    <text
       id="text5"
       xml:space="preserve"
       transform="matrix(1.3333333,0,0,1.3333333,74.821212,492.745)"><tspan
         id="tspan5"
         style="font-variant:normal;font-weight:normal;font-size:10px;font-family:'DejaVu Sans';writing-mode:lr-tb;fill:#000000;fill-opacity:1;fill-rule:nonzero;stroke:none"
         x="0"
         y="0">0.0</tspan></text>
    <path
       id="path6"
       d="m 145.23267,37.54375 v 332.64"
       style="fill:none;stroke:#b0b0b0;stroke-width:0.8;stroke-linecap:square;stroke-linejoin:round;stroke-miterlimit:10;stroke-dasharray:none;stroke-opacity:0.3"
       transform="matrix(1.3333333,0,0,-1.3333333,0,523.345)"
       clip-path="url(#clipPath7)" />
    <path
       id="path8"
       d="m 145.23267,37.54375 v -3.5"
       style="fill:#000000;fill-opacity:1;fill-rule:nonzero;stroke:#000000;stroke-width:0.8;stroke-linecap:butt;stroke-linejoin:round;stroke-miterlimit:10;stroke-dasharray:none;stroke-opacity:1"
       transform="matrix(1.3333333,0,0,-1.3333333,0,523.345)" />
    <text
       id="text8"
       xml:space="preserve"
       transform="matrix(1.3333333,0,0,1.3333333,183.03939,492.745)"><tspan
         id="tspan8"
         style="font-variant:normal;font-weight:normal;font-size:10px;font-family:'DejaVu Sans';writing-mode:lr-tb;fill:#000000;fill-opacity:1;fill-rule:nonzero;stroke:none"
         x="0"
         y="0">0.2</tspan></text>
    <path
       id="path9"
       d="m 226.39631,37.54375 v 332.64"
       style="fill:none;stroke:#b0b0b0;stroke-width:0.8;stroke-linecap:square;stroke-linejoin:round;stroke-miterlimit:10;stroke-dasharray:none;stroke-opacity:0.3"
       transform="matrix(1.3333333,0,0,-1.3333333,0,523.345)"
       clip-path="url(#clipPath10)" />
    <path
       id="path11"
       d="m 226.39631,37.54375 v -3.5"
       style="fill:#000000;fill-opacity:1;fill-rule:nonzero;stroke:#000000;stroke-width:0.8;stroke-linecap:butt;stroke-linejoin:round;stroke-miterlimit:10;stroke-dasharray:none;stroke-opacity:1"
       transform="matrix(1.3333333,0,0,-1.3333333,0,523.345)" />
    <text
       id="text11"
       xml:space="preserve"
       transform="matrix(1.3333333,0,0,1.3333333,291.25758,492.745)"><tspan
         id="tspan11"
         style="font-variant:normal;font-weight:normal;font-size:10px;font-family:'DejaVu Sans';writing-mode:lr-tb;fill:#000000;fill-opacity:1;fill-rule:nonzero;stroke:none"
         x="0"
         y="0">0.4</tspan></text>
    <path
       id="path12"
       d="m 307.55994,37.54375 v 332.64"
       style="fill:none;stroke:#b0b0b0;stroke-width:0.8;stroke-linecap:square;stroke-linejoin:round;stroke-miterlimit:10;stroke-dasharray:none;stroke-opacity:0.3"
       transform="matrix(1.3333333,0,0,-1.3333333,0,523.345)"
       clip-path="url(#clipPath13)" />
    <path
       id="path14"
       d="m 307.55994,37.54375 v -3.5"
       style="fill:#000000;fill-opacity:1;fill-rule:nonzero;stroke:#000000;stroke-width:0.8;stroke-linecap:butt;stroke-linejoin:round;stroke-miterlimit:10;stroke-dasharray:none;stroke-opacity:1"
       transform="matrix(1.3333333,0,0,-1.3333333,0,523.345)" />
    <text
       id="text14"
       xml:space="preserve"
       transform="matrix(1.3333333,0,0,1.3333333,399.47576,492.745)"><tspan
         id="tspan14"
         style="font-variant:normal;font-weight:normal;font-size:10px;font-family:'DejaVu Sans';writing-mode:lr-tb;fill:#000000;fill-opacity:1;fill-rule:nonzero;stroke:none"
         x="0"
         y="0">0.6</tspan></text>
    <path
       id="path15"
       d="m 388.72358,37.54375 v 332.64"
       style="fill:none;stroke:#b0b0b0;stroke-width:0.8;stroke-linecap:square;stroke-linejoin:round;stroke-miterlimit:10;stroke-dasharray:none;stroke-opacity:0.3"
       transform="matrix(1.3333333,0,0,-1.3333333,0,523.345)"
       clip-path="url(#clipPath16)" />
    <path
       id="path17"
       d="m 388.72358,37.54375 v -3.5"
       style="fill:#000000;fill-opacity:1;fill-rule:nonzero;stroke:#000000;stroke-width:0.8;stroke-linecap:butt;stroke-linejoin:round;stroke-miterlimit:10;stroke-dasharray:none;stroke-opacity:1"
       transform="matrix(1.3333333,0,0,-1.3333333,0,523.345)" />
    <text
       id="text17"
       xml:space="preserve"
       transform="matrix(1.3333333,0,0,1.3333333,507.69394,492.745)"><tspan
         id="tspan17"
         style="font-variant:normal;font-weight:normal;font-size:10px;font-family:'DejaVu Sans';writing-mode:lr-tb;fill:#000000;fill-opacity:1;fill-rule:nonzero;stroke:none"
         x="0"
         y="0">0.8</tspan></text>
    <path
       id="path18"
       d="m 469.88722,37.54375 v 332.64"
       style="fill:none;stroke:#b0b0b0;stroke-width:0.8;stroke-linecap:square;stroke-linejoin:round;stroke-miterlimit:10;stroke-dasharray:none;stroke-opacity:0.3"
       transform="matrix(1.3333333,0,0,-1.3333333,0,523.345)"
       clip-path="url(#clipPath19)" />
    <path
       id="path20"
       d="m 469.88722,37.54375 v -3.5"
       style="fill:#000000;fill-opacity:1;fill-rule:nonzero;stroke:#000000;stroke-width:0.8;stroke-linecap:butt;stroke-linejoin:round;stroke-miterlimit:10;stroke-dasharray:none;stroke-opacity:1"
       transform="matrix(1.3333333,0,0,-1.3333333,0,523.345)" />
    <text
       id="text20"
       xml:space="preserve"
       transform="matrix(1.3333333,0,0,1.3333333,615.91212,492.745)"><tspan
         id="tspan20"
         style="font-variant:normal;font-weight:normal;font-size:10px;font-family:'DejaVu Sans';writing-mode:lr-tb;fill:#000000;fill-opacity:1;fill-rule:nonzero;stroke:none"
         x="0"
         y="0">1.0</tspan></text>
    <text
       id="text21"
       xml:space="preserve"
       transform="matrix(1.3333333,0,0,1.3333333,336.10625,510.97417)"><tspan
         id="tspan21"
         style="font-variant:normal;font-weight:normal;font-size:10px;font-family:'DejaVu Sans';writing-mode:lr-tb;fill:#000000;fill-opacity:1;fill-rule:nonzero;stroke:none"
         x="0"
         dx="0 -0.4375"
         y="0">Recall</tspan></text>
    <path
       id="path21"
       d="M 43.778125,51.378832 H 490.17812"
       style="fill:none;stroke:#b0b0b0;stroke-width:0.8;stroke-linecap:square;stroke-linejoin:round;stroke-miterlimit:10;stroke-dasharray:none;stroke-opacity:0.3"
       transform="matrix(1.3333333,0,0,-1.3333333,0,523.345)"
       clip-path="url(#clipPath22)" />
    <path
       id="path23"
       d="m 43.778125,51.378832 h -3.5"
       style="fill:#000000;fill-opacity:1;fill-rule:nonzero;stroke:#000000;stroke-width:0.8;stroke-linecap:butt;stroke-linejoin:round;stroke-miterlimit:10;stroke-dasharray:none;stroke-opacity:1"
       transform="matrix(1.3333333,0,0,-1.3333333,0,523.345)" />
    <text
       id="text23"
       xml:space="preserve"
       transform="matrix(1.3333333,0,0,1.3333333,27.829167,459.90239)"><tspan
         id="tspan23"
         style="font-variant:normal;font-weight:normal;font-size:10px;font-family:'DejaVu Sans';writing-mode:lr-tb;fill:#000000;fill-opacity:1;fill-rule:nonzero;stroke:none"
         x="0"
         y="0">0.0</tspan></text>
    <path
       id="path24"
       d="M 43.778125,112.11582 H 490.17812"
       style="fill:none;stroke:#b0b0b0;stroke-width:0.8;stroke-linecap:square;stroke-linejoin:round;stroke-miterlimit:10;stroke-dasharray:none;stroke-opacity:0.3"
       transform="matrix(1.3333333,0,0,-1.3333333,0,523.345)"
       clip-path="url(#clipPath25)" />
    <path
       id="path26"
       d="m 43.778125,112.11582 h -3.5"
       style="fill:#000000;fill-opacity:1;fill-rule:nonzero;stroke:#000000;stroke-width:0.8;stroke-linecap:butt;stroke-linejoin:round;stroke-miterlimit:10;stroke-dasharray:none;stroke-opacity:1"
       transform="matrix(1.3333333,0,0,-1.3333333,0,523.345)" />
    <text
       id="text26"
       xml:space="preserve"
       transform="matrix(1.3333333,0,0,1.3333333,27.829167,378.91975)"><tspan
         id="tspan26"
         style="font-variant:normal;font-weight:normal;font-size:10px;font-family:'DejaVu Sans';writing-mode:lr-tb;fill:#000000;fill-opacity:1;fill-rule:nonzero;stroke:none"
         x="0"
         y="0">0.2</tspan></text>
    <path
       id="path27"
       d="M 43.778125,172.8528 H 490.17812"
       style="fill:none;stroke:#b0b0b0;stroke-width:0.8;stroke-linecap:square;stroke-linejoin:round;stroke-miterlimit:10;stroke-dasharray:none;stroke-opacity:0.3"
       transform="matrix(1.3333333,0,0,-1.3333333,0,523.345)"
       clip-path="url(#clipPath28)" />
    <path
       id="path29"
       d="m 43.778125,172.8528 h -3.5"
       style="fill:#000000;fill-opacity:1;fill-rule:nonzero;stroke:#000000;stroke-width:0.8;stroke-linecap:butt;stroke-linejoin:round;stroke-miterlimit:10;stroke-dasharray:none;stroke-opacity:1"
       transform="matrix(1.3333333,0,0,-1.3333333,0,523.345)" />
    <text
       id="text29"
       xml:space="preserve"
       transform="matrix(1.3333333,0,0,1.3333333,27.829167,297.9371)"><tspan
         id="tspan29"
         style="font-variant:normal;font-weight:normal;font-size:10px;font-family:'DejaVu Sans';writing-mode:lr-tb;fill:#000000;fill-opacity:1;fill-rule:nonzero;stroke:none"
         x="0"
         y="0">0.4</tspan></text>
    <path
       id="path30"
       d="M 43.778125,233.58978 H 490.17812"
       style="fill:none;stroke:#b0b0b0;stroke-width:0.8;stroke-linecap:square;stroke-linejoin:round;stroke-miterlimit:10;stroke-dasharray:none;stroke-opacity:0.3"
       transform="matrix(1.3333333,0,0,-1.3333333,0,523.345)"
       clip-path="url(#clipPath31)" />
    <path
       id="path32"
       d="m 43.778125,233.58978 h -3.5"
       style="fill:#000000;fill-opacity:1;fill-rule:nonzero;stroke:#000000;stroke-width:0.8;stroke-linecap:butt;stroke-linejoin:round;stroke-miterlimit:10;stroke-dasharray:none;stroke-opacity:1"
       transform="matrix(1.3333333,0,0,-1.3333333,0,523.345)" />
    <text
       id="text32"
       xml:space="preserve"
       transform="matrix(1.3333333,0,0,1.3333333,27.829167,216.95446)"><tspan
         id="tspan32"
         style="font-variant:normal;font-weight:normal;font-size:10px;font-family:'DejaVu Sans';writing-mode:lr-tb;fill:#000000;fill-opacity:1;fill-rule:nonzero;stroke:none"
         x="0"
         y="0">0.6</tspan></text>
    <path
       id="path33"
       d="M 43.778125,294.32677 H 490.17812"
       style="fill:none;stroke:#b0b0b0;stroke-width:0.8;stroke-linecap:square;stroke-linejoin:round;stroke-miterlimit:10;stroke-dasharray:none;stroke-opacity:0.3"
       transform="matrix(1.3333333,0,0,-1.3333333,0,523.345)"
       clip-path="url(#clipPath34)" />
    <path
       id="path35"
       d="m 43.778125,294.32677 h -3.5"
       style="fill:#000000;fill-opacity:1;fill-rule:nonzero;stroke:#000000;stroke-width:0.8;stroke-linecap:butt;stroke-linejoin:round;stroke-miterlimit:10;stroke-dasharray:none;stroke-opacity:1"
       transform="matrix(1.3333333,0,0,-1.3333333,0,523.345)" />
    <text
       id="text35"
       xml:space="preserve"
       transform="matrix(1.3333333,0,0,1.3333333,27.829167,135.97181)"><tspan
         id="tspan35"
         style="font-variant:normal;font-weight:normal;font-size:10px;font-family:'DejaVu Sans';writing-mode:lr-tb;fill:#000000;fill-opacity:1;fill-rule:nonzero;stroke:none"
         x="0"
         y="0">0.8</tspan></text>
    <path
       id="path36"
       d="M 43.778125,355.06375 H 490.17812"
       style="fill:none;stroke:#b0b0b0;stroke-width:0.8;stroke-linecap:square;stroke-linejoin:round;stroke-miterlimit:10;stroke-dasharray:none;stroke-opacity:0.3"
       transform="matrix(1.3333333,0,0,-1.3333333,0,523.345)"
       clip-path="url(#clipPath37)" />
    <path
       id="path38"
       d="m 43.778125,355.06375 h -3.5"
       style="fill:#000000;fill-opacity:1;fill-rule:nonzero;stroke:#000000;stroke-width:0.8;stroke-linecap:butt;stroke-linejoin:round;stroke-miterlimit:10;stroke-dasharray:none;stroke-opacity:1"
       transform="matrix(1.3333333,0,0,-1.3333333,0,523.345)" />
    <text
       id="text38"
       xml:space="preserve"
       transform="matrix(1.3333333,0,0,1.3333333,27.829167,54.989167)"><tspan
         id="tspan38"
         style="font-variant:normal;font-weight:normal;font-size:10px;font-family:'DejaVu Sans';writing-mode:lr-tb;fill:#000000;fill-opacity:1;fill-rule:nonzero;stroke:none"
         x="0"
         y="0">1.0</tspan></text>
    <text
       id="text39"
       xml:space="preserve"
       transform="matrix(0,-1.3333333,1.3333333,0,19.725,281.30792)"><tspan
         id="tspan39"
         style="font-variant:normal;font-weight:normal;font-size:10px;font-family:'DejaVu Sans';writing-mode:lr-tb;fill:#000000;fill-opacity:1;fill-rule:nonzero;stroke:none"
         x="0"
         dx="0 -0.171875 -0.21875"
         y="0">Precision</tspan></text>
    <path
       id="path39"
       d="m 469.88722,151.92316 v 82.03924 l -4.14101,-0.74754 v 51.95315 l -4.141,-0.55916 v 1.88089 l -4.141,-0.55752 v 1.92257 l -4.141,-0.55544 v 8.06565 l -4.141,-0.51464 v 2.11714 l -4.14101,-0.50961 v 28.83283 l -4.141,-0.29478 v 8.37603 l -4.141,-0.22363 v 2.9351 l -4.141,-0.19979 v 3.02665 l -4.141,-0.1737 v 12.91496 l -4.141,-0.0388 v 3.45096 H 64.069034 v 0"
       style="fill:none;stroke:#1f77b4;stroke-width:2;stroke-linecap:square;stroke-linejoin:round;stroke-miterlimit:10;stroke-dasharray:none;stroke-opacity:1"
       transform="matrix(1.3333333,0,0,-1.3333333,0,523.345)"
       clip-path="url(#clipPath40)" />
    <path
       id="path41"
       d="m 469.88722,113.10341 v 110.82367 l -8.11637,-1.50732 v 22.21311 l -4.05818,0.54489 v 7.96434 l -4.05818,-0.70291 v 56.93745 l -4.05818,-0.40792 v 22.50785 l -4.05819,-0.23125 v 14.42611 l -4.05818,-0.0978 v 6.25946 l -4.05818,-0.0347 v 3.26543 H 64.069034 v 0"
       style="fill:none;stroke:#ff7f0e;stroke-width:2;stroke-linecap:square;stroke-linejoin:round;stroke-miterlimit:10;stroke-dasharray:none;stroke-opacity:1"
       transform="matrix(1.3333333,0,0,-1.3333333,0,523.345)"
       clip-path="url(#clipPath42)" />
    <path
       id="path43"
       d="m 469.88722,84.626504 v 25.315826 l -4.1837,0.21423 v 3.78397 l -8.36738,-0.36914 v 16.88329 l -4.18369,0.0353 v 19.98599 l -4.1837,2.13112 v 113.68717 l -4.18369,2.68553 v 24.81415 l -8.36739,-1.09411 v 4.38766 l -4.18369,-0.53189 v 27.51984 l -8.36738,-0.64559 v 8.77584 l -4.1837,-0.24845 v 3.08328 l -16.73477,-0.92061 v 6.65273 l -8.36738,-0.34436 v 3.525 l -4.18369,-0.13717 v 3.65547 l -4.1837,-0.0961 v 3.79483 l -4.18369,-0.0506 v 3.94396 H 64.069034 v 0"
       style="fill:none;stroke:#2ca02c;stroke-width:2;stroke-linecap:square;stroke-linejoin:round;stroke-miterlimit:10;stroke-dasharray:none;stroke-opacity:1"
       transform="matrix(1.3333333,0,0,-1.3333333,0,523.345)"
       clip-path="url(#clipPath44)" />
    <path
       id="path45"
       d="m 469.88722,70.257034 -15.6084,43.480096 -3.90209,13.75514 v 6.48218 l -3.9021,5.45504 v 5.53778 4.95832 5.51311 4.16239 4.08386 1.28595 3.5777 2.83476 2.46922 1.01638 l -3.9021,1.32952 v 1.60712 1.64904 1.69264 0.57419 1.16378 1.18474 0.60041 3.08545 l -3.9021,2.45037 v 0.66425 0.67063 0.67711 1.37405 0.69712 0.70399 0.71097 2.17576 1.48732 0.75504 0.76279 0.77065 2.36038 2.4357 1.66745 2.56952 1.76034 0.89483 1.81984 2.80774 0.95743 1.94826 1.9941 1.01475 3.1176 1.0644 1.07737 1.0906 1.10405 1.11778 1.13174 1.14598 1.16049 1.17527 1.19034 2.42705 1.23732 1.2536 1.27021 1.28714 1.30442 1.32204 1.34004 1.35839 l -3.9021,0.66445 v 1.40103 1.42077 1.44092 1.4615 1.48253 1.50402 1.52597 1.54842 1.57135 1.59481 1.61879 1.64332 1.6684 1.69408 1.72033 1.74722 1.77474 1.8029 1.83175 1.86129 1.89156 l -3.90209,-0.56665 v 1.93378 1.966 1.99905 4.1006 2.10333 2.13991 2.17745 2.21599 2.25556 2.29621 2.33795 2.38085 2.42494 2.47026 2.51687 2.56482 2.61414 2.66489 l -3.9021,-0.26015 -3.9021,-0.2653 v 2.76624 2.82212 2.87972 l -3.9021,-0.19168 v 2.96771 3.03019 3.09466 3.16121 l -3.90209,-0.071 -3.9021,-0.0725 -347.286716,6.67439"
       style="fill:none;stroke:#d62728;stroke-width:2;stroke-linecap:square;stroke-linejoin:round;stroke-miterlimit:10;stroke-dasharray:none;stroke-opacity:1"
       transform="matrix(1.3333333,0,0,-1.3333333,0,523.345)"
       clip-path="url(#clipPath46)" />
    <path
       id="path47"
       d="m 469.88722,60.261242 v 1.677644 l -4.27177,0.09158 v 0.273119 l -8.54355,0.469623 v 2.375467 l -17.08708,0.407489 -4.27177,0.500772 v 4.820484 l -4.27177,1.295124 v 1.471337 l -4.27177,1.547882 -8.54354,1.367736 v 2.216993 l -4.27177,2.142272 v 14.534692 l -4.27177,3.596845 -4.27177,3.154459 v 71.87505 l -4.27177,0.96453 v 8.88205 l -4.27177,-0.21558 v 52.72602 l -4.27177,0.52723 v 41.44136 l -4.27177,-0.75155 v 55.18903 l -25.63062,-1.75428 -21.35885,-1.68838 -4.27177,-0.36663 v 4.02399 l -21.35886,-1.71923 -12.81531,-1.16683 v 4.64655 l -8.54354,-0.69813 v 4.96037 l -17.08708,-1.20629 -8.54354,-0.67411 -205.044976,17.86382 v 0"
       style="fill:none;stroke:#9467bd;stroke-width:2;stroke-linecap:square;stroke-linejoin:round;stroke-miterlimit:10;stroke-dasharray:none;stroke-opacity:1"
       transform="matrix(1.3333333,0,0,-1.3333333,0,523.345)"
       clip-path="url(#clipPath48)" />
    <path
       id="path49"
       d="m 469.88722,55.41467 v 0.13229 l -4.77434,0.09483 v 2.967636 l -4.77433,0.461152 v 0.671178 l -9.54866,1.468603 v 0.905479 l -4.77433,0.943184 v 34.950893 l -4.77433,4.962695 v 26.55315 l -4.77434,3.25315 v 2.8968 l -4.77433,1.67275 v 20.32009 l -4.77433,1.05937 v 41.55448 l -4.77433,-0.0384 v 5.02923 l -4.77433,-1.01899 v 17.37221 l -4.77433,-1.01861 v 94.68766 l -4.77433,20.04846 -28.64599,-1.66646 -23.87166,-1.62017 -14.323,-1.09555 v 4.5094 l -9.54866,-0.65308 -23.87166,-1.84052 -9.54866,-0.83344 -233.942246,22.91962 v 0"
       style="fill:none;stroke:#8c564b;stroke-width:2;stroke-linecap:square;stroke-linejoin:round;stroke-miterlimit:10;stroke-dasharray:none;stroke-opacity:1"
       transform="matrix(1.3333333,0,0,-1.3333333,0,523.345)"
       clip-path="url(#clipPath50)" />
    <path
       id="path51"
       d="m 469.88722,53.747259 v 0.222697 l -4.09918,0.101703 v 0.181255 l -4.09917,0.222789 -8.19835,0.266392 v 1.06499 l -4.09917,0.753519 v 1.170338 l -4.09918,1.530306 -4.09917,2.078016 v 60.238096 l -4.09917,4.49155 -4.09918,5.22701 v 6.03147 l -4.09917,2.6677 v 5.55781 l -8.19835,1.5527 v 4.35122 l -4.09917,1.94116 v 119.31054 l -4.09917,3.13308 v 50.14593 l -20.49587,-1.63349 v 3.10199 l -4.09918,-0.31733 v 3.20651 l -4.09917,-0.29081 v 3.31757 l -4.09917,-0.26135 v 3.43576 l -4.09918,-0.22861 v 3.56173 l -20.49586,-1.01228 v 3.88498 l -28.69422,-1.28628 v 4.39526 l -16.39669,-0.59372 -245.950416,9.79629 v 0"
       style="fill:none;stroke:#e377c2;stroke-width:2;stroke-linecap:square;stroke-linejoin:round;stroke-miterlimit:10;stroke-dasharray:none;stroke-opacity:1"
       transform="matrix(1.3333333,0,0,-1.3333333,0,523.345)"
       clip-path="url(#clipPath52)" />
    <path
       id="path53"
       d="m 469.88722,52.66375 v 5.1e-5 4.57e-4 0.0066 0.02487 0.07622 l -3.7927,0.161391 -3.79269,0.351016 -7.58539,0.606493 -15.17077,0.987968 v 1.843927 l -7.58539,3.065298 -11.37808,4.685468 v 10.132654 l -11.37808,12.94457 v 10.588389 8.621138 7.56921 5.11668 4.84912 3.84837 l -3.79269,6.05836 v 4.77826 1.71768 4.28242 4.36136 3.26543 2.69429 3.26031 3.47152 2.28624 2.87138 5.12442 1.07979 3.35825 2.34345 1.20488 3.11408 2.60172 1.33968 2.06028 0.7007 2.87543 2.23602 7.1528 3.41251 3.57032 1.84779 3.82836 0.98592 0.99787 3.06752 1.04792 4.32514 1.11594 l -3.79269,2.61267 v 1.17759 1.19329 2.43495 3.77837 1.29444 2.64358 4.10801 1.40903 l -3.7927,3.5801 v 1.49951 3.0677 1.56925 1.59358 3.26244 1.67005 1.69678 1.72415 3.53309 1.81034 1.84051 1.87145 3.83887 1.96907 2.00332 2.03847 2.07454 4.26123 11.35656 2.40111 2.44727 2.4948 l -3.79269,21.61113 -3.79269,-0.24318 v 3.05247 3.11956 3.18887 l -3.7927,-0.15165 v 3.29586 l -3.79269,-0.11899 -3.79269,-0.12177 -3.7927,-0.12463 v 3.4877 l -3.79269,-0.0871 -3.79269,-0.0892 -3.7927,-0.0914 -3.79269,-0.0937 -3.79269,-0.0961 -3.7927,-0.0986 -3.79269,-0.10113 v 3.89207 l -3.79269,-0.0533 -3.7927,-0.0547 -3.79269,-0.0562 -3.79269,-0.0578 -3.7927,-0.0594 -3.79269,-0.0611 -3.79269,-0.0629 -3.7927,-0.0647 -3.79269,-0.0666 -3.79269,-0.0687 -3.7927,-0.0708 -3.79269,-0.073 -3.79269,-0.0753 -3.7927,-0.0777 -3.79269,-0.0803 -3.79269,-0.083 -223.768906,5.06142"
       style="fill:none;stroke:#7f7f7f;stroke-width:2;stroke-linecap:square;stroke-linejoin:round;stroke-miterlimit:10;stroke-dasharray:none;stroke-opacity:1"
       transform="matrix(1.3333333,0,0,-1.3333333,0,523.345)"
       clip-path="url(#clipPath54)" />
    <path
       id="path55"
       d="m 43.778125,37.54375 v 332.64"
       style="fill:none;stroke:#000000;stroke-width:0.8;stroke-linecap:square;stroke-linejoin:miter;stroke-miterlimit:10;stroke-dasharray:none;stroke-opacity:1"
       transform="matrix(1.3333333,0,0,-1.3333333,0,523.345)" />
    <path
       id="path56"
       d="m 490.17812,37.54375 v 332.64"
       style="fill:none;stroke:#000000;stroke-width:0.8;stroke-linecap:square;stroke-linejoin:miter;stroke-miterlimit:10;stroke-dasharray:none;stroke-opacity:1"
       transform="matrix(1.3333333,0,0,-1.3333333,0,523.345)" />
    <path
       id="path57"
       d="M 43.778125,37.54375 H 490.17812"
       style="fill:none;stroke:#000000;stroke-width:0.8;stroke-linecap:square;stroke-linejoin:miter;stroke-miterlimit:10;stroke-dasharray:none;stroke-opacity:1"
       transform="matrix(1.3333333,0,0,-1.3333333,0,523.345)" />
    <path
       id="path58"
       d="M 43.778125,370.18375 H 490.17812"
       style="fill:none;stroke:#000000;stroke-width:0.8;stroke-linecap:square;stroke-linejoin:miter;stroke-miterlimit:10;stroke-dasharray:none;stroke-opacity:1"
       transform="matrix(1.3333333,0,0,-1.3333333,0,523.345)" />
    <text
       id="text58"
       xml:space="preserve"
       transform="matrix(1.3333333,0,0,1.3333333,345.58542,21.766667)"><tspan
         id="tspan58"
         style="font-variant:normal;font-weight:normal;font-size:12px;font-family:'DejaVu Sans';writing-mode:lr-tb;fill:#000000;fill-opacity:1;fill-rule:nonzero;stroke:none"
         x="0"
         y="0">PR</tspan></text>
    <path
       id="path59"
       d="M 50.778125,42.54375 H 219.95 c 1.33333,0 2,0.666667 2,2 v 116.375 c 0,1.33333 -0.66667,2 -2,2 H 50.778125 c -1.333333,0 -2,-0.66667 -2,-2 v -116.375 c 0,-1.333333 0.666667,-2 2,-2 z"
       style="fill:#ffffff;fill-opacity:0.8;fill-rule:nonzero;stroke:#cccccc;stroke-width:1;stroke-linecap:butt;stroke-linejoin:miter;stroke-miterlimit:10;stroke-dasharray:none;stroke-opacity:0.8"
       transform="matrix(1.3333333,0,0,-1.3333333,0,523.345)" />
    <path
       id="path60"
       d="m 52.778125,154.825 h 10 10"
       style="fill:none;stroke:#1f77b4;stroke-width:2;stroke-linecap:square;stroke-linejoin:round;stroke-miterlimit:10;stroke-dasharray:none;stroke-opacity:1"
       transform="matrix(1.3333333,0,0,-1.3333333,0,523.345)" />
    <text
       id="text60"
       xml:space="preserve"
       transform="matrix(1.3333333,0,0,1.3333333,107.70417,321.57833)"><tspan
         id="tspan60"
         style="font-variant:normal;font-weight:normal;font-size:10px;font-family:'DejaVu Sans';writing-mode:lr-tb;fill:#000000;fill-opacity:1;fill-rule:nonzero;stroke:none"
         x="0"
         y="0">PR AUC = 0.9820, IR = 2</tspan></text>
    <path
       id="path61"
       d="m 52.778125,140.15312 h 10 10"
       style="fill:none;stroke:#ff7f0e;stroke-width:2;stroke-linecap:square;stroke-linejoin:round;stroke-miterlimit:10;stroke-dasharray:none;stroke-opacity:1"
       transform="matrix(1.3333333,0,0,-1.3333333,0,523.345)" />
    <text
       id="text61"
       xml:space="preserve"
       transform="matrix(1.3333333,0,0,1.3333333,107.70417,341.14083)"><tspan
         id="tspan61"
         style="font-variant:normal;font-weight:normal;font-size:10px;font-family:'DejaVu Sans';writing-mode:lr-tb;fill:#000000;fill-opacity:1;fill-rule:nonzero;stroke:none"
         x="0"
         y="0">PR AUC = 0.9816, IR = 4</tspan></text>
    <path
       id="path62"
       d="m 52.778125,125.48125 h 10 10"
       style="fill:none;stroke:#2ca02c;stroke-width:2;stroke-linecap:square;stroke-linejoin:round;stroke-miterlimit:10;stroke-dasharray:none;stroke-opacity:1"
       transform="matrix(1.3333333,0,0,-1.3333333,0,523.345)" />
    <text
       id="text62"
       xml:space="preserve"
       transform="matrix(1.3333333,0,0,1.3333333,107.70417,360.70333)"><tspan
         id="tspan62"
         style="font-variant:normal;font-weight:normal;font-size:10px;font-family:'DejaVu Sans';writing-mode:lr-tb;fill:#000000;fill-opacity:1;fill-rule:nonzero;stroke:none"
         x="0"
         y="0">PR AUC = 0.9442, IR = 8</tspan></text>
    <path
       id="path63"
       d="m 52.778125,110.80937 h 10 10"
       style="fill:none;stroke:#d62728;stroke-width:2;stroke-linecap:square;stroke-linejoin:round;stroke-miterlimit:10;stroke-dasharray:none;stroke-opacity:1"
       transform="matrix(1.3333333,0,0,-1.3333333,0,523.345)" />
    <text
       id="text63"
       xml:space="preserve"
       transform="matrix(1.3333333,0,0,1.3333333,107.70417,380.26583)"><tspan
         id="tspan63"
         style="font-variant:normal;font-weight:normal;font-size:10px;font-family:'DejaVu Sans';writing-mode:lr-tb;fill:#000000;fill-opacity:1;fill-rule:nonzero;stroke:none"
         x="0"
         y="0">PR AUC = 0.9238, IR = 16</tspan></text>
    <path
       id="path64"
       d="m 52.778125,96.1375 h 10 10"
       style="fill:none;stroke:#9467bd;stroke-width:2;stroke-linecap:square;stroke-linejoin:round;stroke-miterlimit:10;stroke-dasharray:none;stroke-opacity:1"
       transform="matrix(1.3333333,0,0,-1.3333333,0,523.345)" />
    <text
       id="text64"
       xml:space="preserve"
       transform="matrix(1.3333333,0,0,1.3333333,107.70417,399.82833)"><tspan
         id="tspan64"
         style="font-variant:normal;font-weight:normal;font-size:10px;font-family:'DejaVu Sans';writing-mode:lr-tb;fill:#000000;fill-opacity:1;fill-rule:nonzero;stroke:none"
         x="0"
         y="0">PR AUC = 0.7979, IR = 32</tspan></text>
    <path
       id="path65"
       d="m 52.778125,81.465625 h 10 10"
       style="fill:none;stroke:#8c564b;stroke-width:2;stroke-linecap:square;stroke-linejoin:round;stroke-miterlimit:10;stroke-dasharray:none;stroke-opacity:1"
       transform="matrix(1.3333333,0,0,-1.3333333,0,523.345)" />
    <text
       id="text65"
       xml:space="preserve"
       transform="matrix(1.3333333,0,0,1.3333333,107.70417,419.39083)"><tspan
         id="tspan65"
         style="font-variant:normal;font-weight:normal;font-size:10px;font-family:'DejaVu Sans';writing-mode:lr-tb;fill:#000000;fill-opacity:1;fill-rule:nonzero;stroke:none"
         x="0"
         y="0">PR AUC = 0.8490, IR = 64</tspan></text>
    <path
       id="path66"
       d="m 52.778125,66.79375 h 10 10"
       style="fill:none;stroke:#e377c2;stroke-width:2;stroke-linecap:square;stroke-linejoin:round;stroke-miterlimit:10;stroke-dasharray:none;stroke-opacity:1"
       transform="matrix(1.3333333,0,0,-1.3333333,0,523.345)" />
    <text
       id="text66"
       xml:space="preserve"
       transform="matrix(1.3333333,0,0,1.3333333,107.70417,438.95333)"><tspan
         id="tspan66"
         style="font-variant:normal;font-weight:normal;font-size:10px;font-family:'DejaVu Sans';writing-mode:lr-tb;fill:#000000;fill-opacity:1;fill-rule:nonzero;stroke:none"
         x="0"
         y="0">PR AUC = 0.8599, IR = 128</tspan></text>
    <path
       id="path67"
       d="m 52.778125,52.121875 h 10 10"
       style="fill:none;stroke:#7f7f7f;stroke-width:2;stroke-linecap:square;stroke-linejoin:round;stroke-miterlimit:10;stroke-dasharray:none;stroke-opacity:1"
       transform="matrix(1.3333333,0,0,-1.3333333,0,523.345)" />
    <text
       id="text67"
       xml:space="preserve"
       transform="matrix(1.3333333,0,0,1.3333333,107.70417,458.51583)"><tspan
         id="tspan67"
         style="font-variant:normal;font-weight:normal;font-size:10px;font-family:'DejaVu Sans';writing-mode:lr-tb;fill:#000000;fill-opacity:1;fill-rule:nonzero;stroke:none"
         x="0"
         y="0">PR AUC = 0.8296, IR = 256</tspan></text>
  </g>
</svg>
