<?xml version="1.0" encoding="UTF-8" standalone="no"?>
<!-- Created with Inkscape (http://www.inkscape.org/) -->

<svg
   version="1.1"
   id="svg1"
   width="663.17084"
   height="523.34497"
   viewBox="0 0 663.17084 523.34497"
   xmlns="http://www.w3.org/2000/svg"
   xmlns:svg="http://www.w3.org/2000/svg">
  <defs
     id="defs1">
    <clipPath
       clipPathUnits="userSpaceOnUse"
       id="clipPath4">
      <path
         d="M 43.778125,37.54375 H 490.17812 v 332.64 H 43.778125 Z"
         id="path4" />
    </clipPath>
    <clipPath
       clipPathUnits="userSpaceOnUse"
       id="clipPath7">
      <path
         d="M 43.778125,37.54375 H 490.17812 v 332.64 H 43.778125 Z"
         id="path7" />
    </clipPath>
    <clipPath
       clipPathUnits="userSpaceOnUse"
       id="clipPath10">
      <path
         d="M 43.778125,37.54375 H 490.17812 v 332.64 H 43.778125 Z"
         id="path10" />
    </clipPath>
    <clipPath
       clipPathUnits="userSpaceOnUse"
       id="clipPath13">
      <path
         d="M 43.778125,37.54375 H 490.17812 v 332.64 H 43.778125 Z"
         id="path13" />
    </clipPath>
    <clipPath
       clipPathUnits="userSpaceOnUse"
       id="clipPath16">
      <path
         d="M 43.778125,37.54375 H 490.17812 v 332.64 H 43.778125 Z"
         id="path16" />
    </clipPath>
    <clipPath
       clipPathUnits="userSpaceOnUse"
       id="clipPath19">
      <path
         d="M 43.778125,37.54375 H 490.17812 v 332.64 H 43.778125 Z"
         id="path19" />
    </clipPath>
    <clipPath
       clipPathUnits="userSpaceOnUse"
       id="clipPath22">
      <path
         d="M 43.778125,37.54375 H 490.17812 v 332.64 H 43.778125 Z"
         id="path22" />
    </clipPath>
    <clipPath
       clipPathUnits="userSpaceOnUse"
       id="clipPath25">
      <path
         d="M 43.778125,37.54375 H 490.17812 v 332.64 H 43.778125 Z"
         id="path25" />
    </clipPath>
    <clipPath
       clipPathUnits="userSpaceOnUse"
       id="clipPath28">
      <path
         d="M 43.778125,37.54375 H 490.17812 v 332.64 H 43.778125 Z"
         id="path28" />
    </clipPath>
    <clipPath
       clipPathUnits="userSpaceOnUse"
       id="clipPath31">
      <path
         d="M 43.778125,37.54375 H 490.17812 v 332.64 H 43.778125 Z"
         id="path31" />
    </clipPath>
    <clipPath
       clipPathUnits="userSpaceOnUse"
       id="clipPath34">
      <path
         d="M 43.778125,37.54375 H 490.17812 v 332.64 H 43.778125 Z"
         id="path34" />
    </clipPath>
    <clipPath
       clipPathUnits="userSpaceOnUse"
       id="clipPath37">
      <path
         d="M 43.778125,37.54375 H 490.17812 v 332.64 H 43.778125 Z"
         id="path37" />
    </clipPath>
    <clipPath
       clipPathUnits="userSpaceOnUse"
       id="clipPath40">
      <path
         d="M 43.778125,37.54375 H 490.17812 v 332.64 H 43.778125 Z"
         id="path40" />
    </clipPath>
    <clipPath
       clipPathUnits="userSpaceOnUse"
       id="clipPath42">
      <path
         d="M 43.778125,37.54375 H 490.17812 v 332.64 H 43.778125 Z"
         id="path42" />
    </clipPath>
    <clipPath
       clipPathUnits="userSpaceOnUse"
       id="clipPath44">
      <path
         d="M 43.778125,37.54375 H 490.17812 v 332.64 H 43.778125 Z"
         id="path44" />
    </clipPath>
    <clipPath
       clipPathUnits="userSpaceOnUse"
       id="clipPath46">
      <path
         d="M 43.778125,37.54375 H 490.17812 v 332.64 H 43.778125 Z"
         id="path46" />
    </clipPath>
    <clipPath
       clipPathUnits="userSpaceOnUse"
       id="clipPath48">
      <path
         d="M 43.778125,37.54375 H 490.17812 v 332.64 H 43.778125 Z"
         id="path48" />
    </clipPath>
    <clipPath
       clipPathUnits="userSpaceOnUse"
       id="clipPath50">
      <path
         d="M 43.778125,37.54375 H 490.17812 v 332.64 H 43.778125 Z"
         id="path50" />
    </clipPath>
    <clipPath
       clipPathUnits="userSpaceOnUse"
       id="clipPath52">
      <path
         d="M 43.778125,37.54375 H 490.17812 v 332.64 H 43.778125 Z"
         id="path52" />
    </clipPath>
    <clipPath
       clipPathUnits="userSpaceOnUse"
       id="clipPath54">
      <path
         d="M 43.778125,37.54375 H 490.17812 v 332.64 H 43.778125 Z"
         id="path54" />
    </clipPath>
    <clipPath
       clipPathUnits="userSpaceOnUse"
       id="clipPath56">
      <path
         d="M 43.778125,37.54375 H 490.17812 v 332.64 H 43.778125 Z"
         id="path56" />
    </clipPath>
    <clipPath
       clipPathUnits="userSpaceOnUse"
       id="clipPath58">
      <path
         d="M 43.778125,37.54375 H 490.17812 v 332.64 H 43.778125 Z"
         id="path58" />
    </clipPath>
    <clipPath
       clipPathUnits="userSpaceOnUse"
       id="clipPath60">
      <path
         d="M 43.778125,37.54375 H 490.17812 v 332.64 H 43.778125 Z"
         id="path60" />
    </clipPath>
    <clipPath
       clipPathUnits="userSpaceOnUse"
       id="clipPath62">
      <path
         d="M 43.778125,37.54375 H 490.17812 v 332.64 H 43.778125 Z"
         id="path62" />
    </clipPath>
    <clipPath
       clipPathUnits="userSpaceOnUse"
       id="clipPath64">
      <path
         d="M 43.778125,37.54375 H 490.17812 v 332.64 H 43.778125 Z"
         id="path64" />
    </clipPath>
    <clipPath
       clipPathUnits="userSpaceOnUse"
       id="clipPath66">
      <path
         d="M 43.778125,37.54375 H 490.17812 v 332.64 H 43.778125 Z"
         id="path66" />
    </clipPath>
    <clipPath
       clipPathUnits="userSpaceOnUse"
       id="clipPath68">
      <path
         d="M 43.778125,37.54375 H 490.17812 v 332.64 H 43.778125 Z"
         id="path68" />
    </clipPath>
    <clipPath
       clipPathUnits="userSpaceOnUse"
       id="clipPath70">
      <path
         d="M 43.778125,37.54375 H 490.17812 v 332.64 H 43.778125 Z"
         id="path70" />
    </clipPath>
  </defs>
  <g
     id="g1">
    <path
       id="path1"
       d="M 0,0 H 497.37812 V 392.50875 H 0 Z"
       style="fill:#ffffff;fill-opacity:1;fill-rule:nonzero;stroke:none"
       transform="matrix(1.3333333,0,0,-1.3333333,0,523.345)" />
    <path
       id="path2"
       d="M 43.778125,37.54375 H 490.17812 v 332.64 H 43.778125 Z"
       style="fill:#ffffff;fill-opacity:1;fill-rule:nonzero;stroke:none"
       transform="matrix(1.3333333,0,0,-1.3333333,0,523.345)" />
    <path
       id="path3"
       d="m 64.069034,37.54375 v 332.64"
       style="fill:none;stroke:#b0b0b0;stroke-width:0.8;stroke-linecap:square;stroke-linejoin:round;stroke-miterlimit:10;stroke-dasharray:none;stroke-opacity:0.3"
       transform="matrix(1.3333333,0,0,-1.3333333,0,523.345)"
       clip-path="url(#clipPath4)" />
    <path
       id="path5"
       d="m 64.069034,37.54375 v -3.5"
       style="fill:#000000;fill-opacity:1;fill-rule:nonzero;stroke:#000000;stroke-width:0.8;stroke-linecap:butt;stroke-linejoin:round;stroke-miterlimit:10;stroke-dasharray:none;stroke-opacity:1"
       transform="matrix(1.3333333,0,0,-1.3333333,0,523.345)" />
    <text
       id="text5"
       xml:space="preserve"
       transform="matrix(1.3333333,0,0,1.3333333,74.821212,492.745)"><tspan
         id="tspan5"
         style="font-variant:normal;font-weight:normal;font-size:10px;font-family:'DejaVu Sans';writing-mode:lr-tb;fill:#000000;fill-opacity:1;fill-rule:nonzero;stroke:none"
         x="0"
         y="0">0.0</tspan></text>
    <path
       id="path6"
       d="m 145.23267,37.54375 v 332.64"
       style="fill:none;stroke:#b0b0b0;stroke-width:0.8;stroke-linecap:square;stroke-linejoin:round;stroke-miterlimit:10;stroke-dasharray:none;stroke-opacity:0.3"
       transform="matrix(1.3333333,0,0,-1.3333333,0,523.345)"
       clip-path="url(#clipPath7)" />
    <path
       id="path8"
       d="m 145.23267,37.54375 v -3.5"
       style="fill:#000000;fill-opacity:1;fill-rule:nonzero;stroke:#000000;stroke-width:0.8;stroke-linecap:butt;stroke-linejoin:round;stroke-miterlimit:10;stroke-dasharray:none;stroke-opacity:1"
       transform="matrix(1.3333333,0,0,-1.3333333,0,523.345)" />
    <text
       id="text8"
       xml:space="preserve"
       transform="matrix(1.3333333,0,0,1.3333333,183.03939,492.745)"><tspan
         id="tspan8"
         style="font-variant:normal;font-weight:normal;font-size:10px;font-family:'DejaVu Sans';writing-mode:lr-tb;fill:#000000;fill-opacity:1;fill-rule:nonzero;stroke:none"
         x="0"
         y="0">0.2</tspan></text>
    <path
       id="path9"
       d="m 226.39631,37.54375 v 332.64"
       style="fill:none;stroke:#b0b0b0;stroke-width:0.8;stroke-linecap:square;stroke-linejoin:round;stroke-miterlimit:10;stroke-dasharray:none;stroke-opacity:0.3"
       transform="matrix(1.3333333,0,0,-1.3333333,0,523.345)"
       clip-path="url(#clipPath10)" />
    <path
       id="path11"
       d="m 226.39631,37.54375 v -3.5"
       style="fill:#000000;fill-opacity:1;fill-rule:nonzero;stroke:#000000;stroke-width:0.8;stroke-linecap:butt;stroke-linejoin:round;stroke-miterlimit:10;stroke-dasharray:none;stroke-opacity:1"
       transform="matrix(1.3333333,0,0,-1.3333333,0,523.345)" />
    <text
       id="text11"
       xml:space="preserve"
       transform="matrix(1.3333333,0,0,1.3333333,291.25758,492.745)"><tspan
         id="tspan11"
         style="font-variant:normal;font-weight:normal;font-size:10px;font-family:'DejaVu Sans';writing-mode:lr-tb;fill:#000000;fill-opacity:1;fill-rule:nonzero;stroke:none"
         x="0"
         y="0">0.4</tspan></text>
    <path
       id="path12"
       d="m 307.55994,37.54375 v 332.64"
       style="fill:none;stroke:#b0b0b0;stroke-width:0.8;stroke-linecap:square;stroke-linejoin:round;stroke-miterlimit:10;stroke-dasharray:none;stroke-opacity:0.3"
       transform="matrix(1.3333333,0,0,-1.3333333,0,523.345)"
       clip-path="url(#clipPath13)" />
    <path
       id="path14"
       d="m 307.55994,37.54375 v -3.5"
       style="fill:#000000;fill-opacity:1;fill-rule:nonzero;stroke:#000000;stroke-width:0.8;stroke-linecap:butt;stroke-linejoin:round;stroke-miterlimit:10;stroke-dasharray:none;stroke-opacity:1"
       transform="matrix(1.3333333,0,0,-1.3333333,0,523.345)" />
    <text
       id="text14"
       xml:space="preserve"
       transform="matrix(1.3333333,0,0,1.3333333,399.47576,492.745)"><tspan
         id="tspan14"
         style="font-variant:normal;font-weight:normal;font-size:10px;font-family:'DejaVu Sans';writing-mode:lr-tb;fill:#000000;fill-opacity:1;fill-rule:nonzero;stroke:none"
         x="0"
         y="0">0.6</tspan></text>
    <path
       id="path15"
       d="m 388.72358,37.54375 v 332.64"
       style="fill:none;stroke:#b0b0b0;stroke-width:0.8;stroke-linecap:square;stroke-linejoin:round;stroke-miterlimit:10;stroke-dasharray:none;stroke-opacity:0.3"
       transform="matrix(1.3333333,0,0,-1.3333333,0,523.345)"
       clip-path="url(#clipPath16)" />
    <path
       id="path17"
       d="m 388.72358,37.54375 v -3.5"
       style="fill:#000000;fill-opacity:1;fill-rule:nonzero;stroke:#000000;stroke-width:0.8;stroke-linecap:butt;stroke-linejoin:round;stroke-miterlimit:10;stroke-dasharray:none;stroke-opacity:1"
       transform="matrix(1.3333333,0,0,-1.3333333,0,523.345)" />
    <text
       id="text17"
       xml:space="preserve"
       transform="matrix(1.3333333,0,0,1.3333333,507.69394,492.745)"><tspan
         id="tspan17"
         style="font-variant:normal;font-weight:normal;font-size:10px;font-family:'DejaVu Sans';writing-mode:lr-tb;fill:#000000;fill-opacity:1;fill-rule:nonzero;stroke:none"
         x="0"
         y="0">0.8</tspan></text>
    <path
       id="path18"
       d="m 469.88722,37.54375 v 332.64"
       style="fill:none;stroke:#b0b0b0;stroke-width:0.8;stroke-linecap:square;stroke-linejoin:round;stroke-miterlimit:10;stroke-dasharray:none;stroke-opacity:0.3"
       transform="matrix(1.3333333,0,0,-1.3333333,0,523.345)"
       clip-path="url(#clipPath19)" />
    <path
       id="path20"
       d="m 469.88722,37.54375 v -3.5"
       style="fill:#000000;fill-opacity:1;fill-rule:nonzero;stroke:#000000;stroke-width:0.8;stroke-linecap:butt;stroke-linejoin:round;stroke-miterlimit:10;stroke-dasharray:none;stroke-opacity:1"
       transform="matrix(1.3333333,0,0,-1.3333333,0,523.345)" />
    <text
       id="text20"
       xml:space="preserve"
       transform="matrix(1.3333333,0,0,1.3333333,615.91212,492.745)"><tspan
         id="tspan20"
         style="font-variant:normal;font-weight:normal;font-size:10px;font-family:'DejaVu Sans';writing-mode:lr-tb;fill:#000000;fill-opacity:1;fill-rule:nonzero;stroke:none"
         x="0"
         y="0">1.0</tspan></text>
    <text
       id="text21"
       xml:space="preserve"
       transform="matrix(1.3333333,0,0,1.3333333,293.97083,510.97417)"><tspan
         id="tspan21"
         style="font-variant:normal;font-weight:normal;font-size:10px;font-family:'DejaVu Sans';writing-mode:lr-tb;fill:#000000;fill-opacity:1;fill-rule:nonzero;stroke:none"
         x="0"
         dx="0 -0.90625 0 0 0 0 0 -0.34375 0 0 0 0 0 0 0 0 -0.21875"
         y="0">False Positive Rate</tspan></text>
    <path
       id="path21"
       d="M 43.778125,52.66375 H 490.17812"
       style="fill:none;stroke:#b0b0b0;stroke-width:0.8;stroke-linecap:square;stroke-linejoin:round;stroke-miterlimit:10;stroke-dasharray:none;stroke-opacity:0.3"
       transform="matrix(1.3333333,0,0,-1.3333333,0,523.345)"
       clip-path="url(#clipPath22)" />
    <path
       id="path23"
       d="m 43.778125,52.66375 h -3.5"
       style="fill:#000000;fill-opacity:1;fill-rule:nonzero;stroke:#000000;stroke-width:0.8;stroke-linecap:butt;stroke-linejoin:round;stroke-miterlimit:10;stroke-dasharray:none;stroke-opacity:1"
       transform="matrix(1.3333333,0,0,-1.3333333,0,523.345)" />
    <text
       id="text23"
       xml:space="preserve"
       transform="matrix(1.3333333,0,0,1.3333333,27.829167,458.18917)"><tspan
         id="tspan23"
         style="font-variant:normal;font-weight:normal;font-size:10px;font-family:'DejaVu Sans';writing-mode:lr-tb;fill:#000000;fill-opacity:1;fill-rule:nonzero;stroke:none"
         x="0"
         y="0">0.0</tspan></text>
    <path
       id="path24"
       d="M 43.778125,113.14375 H 490.17812"
       style="fill:none;stroke:#b0b0b0;stroke-width:0.8;stroke-linecap:square;stroke-linejoin:round;stroke-miterlimit:10;stroke-dasharray:none;stroke-opacity:0.3"
       transform="matrix(1.3333333,0,0,-1.3333333,0,523.345)"
       clip-path="url(#clipPath25)" />
    <path
       id="path26"
       d="m 43.778125,113.14375 h -3.5"
       style="fill:#000000;fill-opacity:1;fill-rule:nonzero;stroke:#000000;stroke-width:0.8;stroke-linecap:butt;stroke-linejoin:round;stroke-miterlimit:10;stroke-dasharray:none;stroke-opacity:1"
       transform="matrix(1.3333333,0,0,-1.3333333,0,523.345)" />
    <text
       id="text26"
       xml:space="preserve"
       transform="matrix(1.3333333,0,0,1.3333333,27.829167,377.54917)"><tspan
         id="tspan26"
         style="font-variant:normal;font-weight:normal;font-size:10px;font-family:'DejaVu Sans';writing-mode:lr-tb;fill:#000000;fill-opacity:1;fill-rule:nonzero;stroke:none"
         x="0"
         y="0">0.2</tspan></text>
    <path
       id="path27"
       d="M 43.778125,173.62375 H 490.17812"
       style="fill:none;stroke:#b0b0b0;stroke-width:0.8;stroke-linecap:square;stroke-linejoin:round;stroke-miterlimit:10;stroke-dasharray:none;stroke-opacity:0.3"
       transform="matrix(1.3333333,0,0,-1.3333333,0,523.345)"
       clip-path="url(#clipPath28)" />
    <path
       id="path29"
       d="m 43.778125,173.62375 h -3.5"
       style="fill:#000000;fill-opacity:1;fill-rule:nonzero;stroke:#000000;stroke-width:0.8;stroke-linecap:butt;stroke-linejoin:round;stroke-miterlimit:10;stroke-dasharray:none;stroke-opacity:1"
       transform="matrix(1.3333333,0,0,-1.3333333,0,523.345)" />
    <text
       id="text29"
       xml:space="preserve"
       transform="matrix(1.3333333,0,0,1.3333333,27.829167,296.90917)"><tspan
         id="tspan29"
         style="font-variant:normal;font-weight:normal;font-size:10px;font-family:'DejaVu Sans';writing-mode:lr-tb;fill:#000000;fill-opacity:1;fill-rule:nonzero;stroke:none"
         x="0"
         y="0">0.4</tspan></text>
    <path
       id="path30"
       d="M 43.778125,234.10375 H 490.17812"
       style="fill:none;stroke:#b0b0b0;stroke-width:0.8;stroke-linecap:square;stroke-linejoin:round;stroke-miterlimit:10;stroke-dasharray:none;stroke-opacity:0.3"
       transform="matrix(1.3333333,0,0,-1.3333333,0,523.345)"
       clip-path="url(#clipPath31)" />
    <path
       id="path32"
       d="m 43.778125,234.10375 h -3.5"
       style="fill:#000000;fill-opacity:1;fill-rule:nonzero;stroke:#000000;stroke-width:0.8;stroke-linecap:butt;stroke-linejoin:round;stroke-miterlimit:10;stroke-dasharray:none;stroke-opacity:1"
       transform="matrix(1.3333333,0,0,-1.3333333,0,523.345)" />
    <text
       id="text32"
       xml:space="preserve"
       transform="matrix(1.3333333,0,0,1.3333333,27.829167,216.26917)"><tspan
         id="tspan32"
         style="font-variant:normal;font-weight:normal;font-size:10px;font-family:'DejaVu Sans';writing-mode:lr-tb;fill:#000000;fill-opacity:1;fill-rule:nonzero;stroke:none"
         x="0"
         y="0">0.6</tspan></text>
    <path
       id="path33"
       d="M 43.778125,294.58375 H 490.17812"
       style="fill:none;stroke:#b0b0b0;stroke-width:0.8;stroke-linecap:square;stroke-linejoin:round;stroke-miterlimit:10;stroke-dasharray:none;stroke-opacity:0.3"
       transform="matrix(1.3333333,0,0,-1.3333333,0,523.345)"
       clip-path="url(#clipPath34)" />
    <path
       id="path35"
       d="m 43.778125,294.58375 h -3.5"
       style="fill:#000000;fill-opacity:1;fill-rule:nonzero;stroke:#000000;stroke-width:0.8;stroke-linecap:butt;stroke-linejoin:round;stroke-miterlimit:10;stroke-dasharray:none;stroke-opacity:1"
       transform="matrix(1.3333333,0,0,-1.3333333,0,523.345)" />
    <text
       id="text35"
       xml:space="preserve"
       transform="matrix(1.3333333,0,0,1.3333333,27.829167,135.62917)"><tspan
         id="tspan35"
         style="font-variant:normal;font-weight:normal;font-size:10px;font-family:'DejaVu Sans';writing-mode:lr-tb;fill:#000000;fill-opacity:1;fill-rule:nonzero;stroke:none"
         x="0"
         y="0">0.8</tspan></text>
    <path
       id="path36"
       d="M 43.778125,355.06375 H 490.17812"
       style="fill:none;stroke:#b0b0b0;stroke-width:0.8;stroke-linecap:square;stroke-linejoin:round;stroke-miterlimit:10;stroke-dasharray:none;stroke-opacity:0.3"
       transform="matrix(1.3333333,0,0,-1.3333333,0,523.345)"
       clip-path="url(#clipPath37)" />
    <path
       id="path38"
       d="m 43.778125,355.06375 h -3.5"
       style="fill:#000000;fill-opacity:1;fill-rule:nonzero;stroke:#000000;stroke-width:0.8;stroke-linecap:butt;stroke-linejoin:round;stroke-miterlimit:10;stroke-dasharray:none;stroke-opacity:1"
       transform="matrix(1.3333333,0,0,-1.3333333,0,523.345)" />
    <text
       id="text38"
       xml:space="preserve"
       transform="matrix(1.3333333,0,0,1.3333333,27.829167,54.989167)"><tspan
         id="tspan38"
         style="font-variant:normal;font-weight:normal;font-size:10px;font-family:'DejaVu Sans';writing-mode:lr-tb;fill:#000000;fill-opacity:1;fill-rule:nonzero;stroke:none"
         x="0"
         y="0">1.0</tspan></text>
    <text
       id="text39"
       xml:space="preserve"
       transform="matrix(0,-1.3333333,1.3333333,0,19.725,310.90167)"><tspan
         id="tspan39"
         style="font-variant:normal;font-weight:normal;font-size:10px;font-family:'DejaVu Sans';writing-mode:lr-tb;fill:#000000;fill-opacity:1;fill-rule:nonzero;stroke:none"
         x="0"
         dx="0 -1.46875 0 0 0 0 -0.34375 0 0 0 0 0 0 0 0 -0.21875"
         y="0">True Positive Rate</tspan></text>
    <path
       id="path39"
       d="m 64.069034,52.66375 v 120.34286 9.25714 3.08571 6.17143 3.08572 12.34285 15.42858 6.17142 6.17143 6.17143 3.08572 18.51428 6.17143 9.25714 6.17143 37.02857 h 2.049587 v 3.08572 h 8.198347 v 3.08571 h 2.049587 v 3.08572 h 2.049587 v 3.08571 h 6.14876 v 3.08571 h 18.446278 4.09918 2.04958 v 3.08572 h 2.04959 v 3.08571 h 8.19835 v 3.08572 h 2.04958 v 3.08571 h 2.04959 v 3.08572 h 14.34711 4.09917 55.33884 v 3.08571 h 2.04959 4.09917 14.34711 4.09918 2.04958 8.19835 26.64463 4.09917 6.14876 12.29752 4.09918 8.19834 4.09918 8.19834 4.09918 4.09917 4.09917 6.14876 4.09918 4.09917 6.14876 6.14876 4.09918 10.24793 4.09917 6.14876 4.09918 8.19835 4.09917 2.04958 12.29752 8.19835 4.09918 6.14876 4.09917 2.04959 4.09917 2.04959 4.09917 2.04959 4.09917 28.69422"
       style="fill:none;stroke:#1f77b4;stroke-width:2;stroke-linecap:square;stroke-linejoin:round;stroke-miterlimit:10;stroke-dasharray:none;stroke-opacity:1"
       transform="matrix(1.3333333,0,0,-1.3333333,0,523.345)"
       clip-path="url(#clipPath40)" />
    <path
       id="path41"
       d="m 64.069034,52.66375 405.818186,302.4"
       style="fill:none;stroke:#000000;stroke-width:1;stroke-linecap:butt;stroke-linejoin:round;stroke-miterlimit:10;stroke-dasharray:3.7, 1.6;stroke-dashoffset:0;stroke-opacity:1"
       transform="matrix(1.3333333,0,0,-1.3333333,0,523.345)"
       clip-path="url(#clipPath42)" />
    <path
       id="path43"
       d="m 64.069034,52.66375 v 278.208 h 1.035251 v 3.024 h 2.0705 v 3.024 h 5.176253 v 3.024 h 9.317254 v 3.024 h 33.128018 v 3.024 h 6.2115 l 1.03525,3.024 h 20.70501 v 6.048 h 327.13915 v 0"
       style="fill:none;stroke:#ff7f0e;stroke-width:2;stroke-linecap:square;stroke-linejoin:round;stroke-miterlimit:10;stroke-dasharray:none;stroke-opacity:1"
       transform="matrix(1.3333333,0,0,-1.3333333,0,523.345)"
       clip-path="url(#clipPath44)" />
    <path
       id="path45"
       d="m 64.069034,52.66375 405.818186,302.4"
       style="fill:none;stroke:#000000;stroke-width:1;stroke-linecap:butt;stroke-linejoin:round;stroke-miterlimit:10;stroke-dasharray:3.7, 1.6;stroke-dashoffset:0;stroke-opacity:1"
       transform="matrix(1.3333333,0,0,-1.3333333,0,523.345)"
       clip-path="url(#clipPath46)" />
    <path
       id="path47"
       d="m 64.069034,52.66375 v 236.93196 h 0.514345 v 3.11752 h 0.514345 v 3.11753 h 0.514345 v 3.11753 h 0.514345 v 6.23505 h 1.02869 v 12.4701 h 0.514345 v 3.11753 h 1.543035 v 6.23505 h 5.657794 v 3.11752 h 1.02869 v 6.23505 h 6.686485 l 1.02869,3.11753 h 75.094367 l 4.11476,3.11753 h 37.03284 l 1.54303,3.11752 h 50.40581 l 2.57172,6.23505 h 15.43035 l 3.08607,3.11753 h 196.99413 v 0"
       style="fill:none;stroke:#2ca02c;stroke-width:2;stroke-linecap:square;stroke-linejoin:round;stroke-miterlimit:10;stroke-dasharray:none;stroke-opacity:1"
       transform="matrix(1.3333333,0,0,-1.3333333,0,523.345)"
       clip-path="url(#clipPath48)" />
    <path
       id="path49"
       d="m 64.069034,52.66375 405.818186,302.4"
       style="fill:none;stroke:#000000;stroke-width:1;stroke-linecap:butt;stroke-linejoin:round;stroke-miterlimit:10;stroke-dasharray:3.7, 1.6;stroke-dashoffset:0;stroke-opacity:1"
       transform="matrix(1.3333333,0,0,-1.3333333,0,523.345)"
       clip-path="url(#clipPath50)" />
    <path
       id="path51"
       d="m 64.069034,52.66375 0.517295,258.78461 v 5.81539 h 1.034591 v 2.90769 h 0.775943 v 5.81539 h 3.621067 0.517296 0.775943 v 2.90769 h 5.431601 l 0.258647,2.90769 h 2.069181 0.517296 2.586476 0.775943 0.258648 1.034591 0.258647 0.775943 0.517296 0.258647 0.517296 0.775943 0.517295 1.551886 0.775943 0.517295 0.775943 0.775943 0.517296 0.775943 l 1.293238,2.90769 h 1.293238 0.258648 1.034591 0.258647 2.32783 l 1.03459,2.9077 h 0.51729 1.29324 1.55189 2.06918 0.77594 2.58648 2.84513 8.27672 5.17295 l 6.46619,2.90769 h 8.01808 l 23.53694,2.90769 305.72154,11.63077"
       style="fill:none;stroke:#d62728;stroke-width:2;stroke-linecap:square;stroke-linejoin:round;stroke-miterlimit:10;stroke-dasharray:none;stroke-opacity:1"
       transform="matrix(1.3333333,0,0,-1.3333333,0,523.345)"
       clip-path="url(#clipPath52)" />
    <path
       id="path53"
       d="m 64.069034,52.66375 405.818186,302.4"
       style="fill:none;stroke:#000000;stroke-width:1;stroke-linecap:butt;stroke-linejoin:round;stroke-miterlimit:10;stroke-dasharray:3.7, 1.6;stroke-dashoffset:0;stroke-opacity:1"
       transform="matrix(1.3333333,0,0,-1.3333333,0,523.345)"
       clip-path="url(#clipPath54)" />
    <path
       id="path55"
       d="m 64.069034,52.66375 0.386126,152.79158 v 6.36632 12.73263 h 0.128708 v 6.36631 h 0.128709 v 25.46526 h 0.128709 v 38.1979 h 2.574171 v 3.18316 h 2.188046 0.257418 0.514834 l 0.128709,3.18316 h 0.643542 0.257418 1.544503 0.257417 0.386126 0.514834 0.257417 0.514835 1.158377 0.514834 0.386126 0.128709 l 0.128708,3.18315 h 0.772252 0.386125 0.514835 l 0.386126,3.18316 h 0.772251 0.643543 1.544503 0.128709 0.90096 1.029669 0.90096 1.544503 1.930629 1.544503 1.415794 3.217715 1.415794 2.445464 4.376095 3.47513 8.75218 l 4.76222,3.18316 6.17801,3.18316 h 5.14835 6.69284 8.23735 7.72252 7.97993 l 9.78185,3.18315 h 10.4254 l 10.42539,6.36632 11.32636,3.18316 h 10.68281 l 12.61344,3.18316 h 11.9699 12.22732 11.71248 10.16798 11.19765 l 10.81152,3.18315 9.65314,6.36632 8.36606,6.36632 h 8.49477 7.72251 9.78186 10.68281 9.52443 8.23735 l 9.91057,3.18315 10.5541,3.18316 h 8.62348 l 6.56413,3.18316 h 8.75219 6.82155 6.04931 6.82155 5.53447 4.5048 3.73255 5.14834 4.76222 3.60384 2.9603 2.05934 1.5445 0.51483 1.54451 0.77225 1.02967 0.25742"
       style="fill:none;stroke:#9467bd;stroke-width:2;stroke-linecap:square;stroke-linejoin:round;stroke-miterlimit:10;stroke-dasharray:none;stroke-opacity:1"
       transform="matrix(1.3333333,0,0,-1.3333333,0,523.345)"
       clip-path="url(#clipPath56)" />
    <path
       id="path57"
       d="m 64.069034,52.66375 405.818186,302.4"
       style="fill:none;stroke:#000000;stroke-width:1;stroke-linecap:butt;stroke-linejoin:round;stroke-miterlimit:10;stroke-dasharray:3.7, 1.6;stroke-dashoffset:0;stroke-opacity:1"
       transform="matrix(1.3333333,0,0,-1.3333333,0,523.345)"
       clip-path="url(#clipPath58)" />
    <path
       id="path59"
       d="m 64.069034,52.66375 0.257213,174.32471 v 14.23058 10.67294 7.1153 h 0.0643 v 49.80706 l 0.385819,3.55764 h 0.128607 1.478976 0.19291 0.450123 0.128607 0.643033 v 3.55765 h 0.19291 0.128607 0.128606 0.128607 0.38582 v 3.55765 h 0.321516 l 0.0643,3.55765 h 0.128607 0.0643 0.128607 0.19291 0.128607 0.19291 0.192909 0.128607 0.257213 0.19291 0.0643 0.385819 0.128607 0.0643 0.128607 0.257213 0.19291 0.128607 0.257213 0.38582 0.257213 l 0.257213,3.55764 h 0.128607 0.19291 0.128606 0.257214 0.321516 0.514427 0.321516 0.77164 0.321516 0.38582 l 0.514427,3.55765 h 0.643033 l 0.964549,3.55765 h 1.671887 3.215165 2.572132 2.700739 l 3.536682,3.55764 h 4.887052 6.430332 6.36602 6.17312 7.45919 8.93815 10.48144 11.5103 12.41054 12.53914 13.05357 l 13.5037,3.55765 h 13.56799 l 15.56141,3.55765 17.23328,3.55765 h 16.91177 l 16.07583,3.55764 h 16.59025 15.69001 17.23329 17.5548 16.39734 15.75431 15.04698 12.53914 12.60345 9.90271 8.61665 7.00906 l 6.36602,3.55765 h 3.60099 3.47238 2.18631 1.47898 1.28606 0.51443 0.32152 0.19291"
       style="fill:none;stroke:#8c564b;stroke-width:2;stroke-linecap:square;stroke-linejoin:round;stroke-miterlimit:10;stroke-dasharray:none;stroke-opacity:1"
       transform="matrix(1.3333333,0,0,-1.3333333,0,523.345)"
       clip-path="url(#clipPath60)" />
    <path
       id="path61"
       d="m 64.069034,52.66375 405.818186,302.4"
       style="fill:none;stroke:#000000;stroke-width:1;stroke-linecap:butt;stroke-linejoin:round;stroke-miterlimit:10;stroke-dasharray:3.7, 1.6;stroke-dashoffset:0;stroke-opacity:1"
       transform="matrix(1.3333333,0,0,-1.3333333,0,523.345)"
       clip-path="url(#clipPath62)" />
    <path
       id="path63"
       d="m 64.069034,52.66375 0.06444,183.27273 v 12.21818 h 0.03222 v 21.38182 h 0.03222 v 15.27273 h 0.03222 v 3.05454 h 0.03222 v 3.05454 h 0.03222 v 3.05455 h 0.03222 v 3.05455 h 0.03222 v 15.27272 h 0.06444 0.128883 0.193323 0.06444 0.225544 l 0.06444,3.05455 h 0.161102 0.06444 0.289985 0.06444 0.193323 0.06444 0.09666 0.128883 0.06444 0.06444 0.09666 0.06444 0.03222 0.128883 0.128882 0.06444 0.09666 0.161103 0.193323 0.09666 0.161103 0.128882 0.03222 0.09666 0.322205 0.257765 0.193323 0.225545 0.322205 0.386647 0.06444 l 0.225544,3.05454 h 0.386647 l 0.289986,6.10909 h 0.225544 0.354426 l 0.386647,3.05455 h 0.773294 l 1.739911,6.10909 h 1.482147 3.157616 5.864145 11.728291 15.272549 19.46123 20.58895 l 25.03539,3.05455 29.32073,3.05454 h 32.70388 l 32.38169,3.05455 h 33.60606 32.86499 l 30.02958,6.10909 27.12972,3.05454 h 22.45775 l 17.72131,3.05455 h 14.30594 8.57068 5.76748 3.54426 1.99768 0.74107 0.22555"
       style="fill:none;stroke:#e377c2;stroke-width:2;stroke-linecap:square;stroke-linejoin:round;stroke-miterlimit:10;stroke-dasharray:none;stroke-opacity:1"
       transform="matrix(1.3333333,0,0,-1.3333333,0,523.345)"
       clip-path="url(#clipPath64)" />
    <path
       id="path65"
       d="m 64.069034,52.66375 405.818186,302.4"
       style="fill:none;stroke:#000000;stroke-width:1;stroke-linecap:butt;stroke-linejoin:round;stroke-miterlimit:10;stroke-dasharray:3.7, 1.6;stroke-dashoffset:0;stroke-opacity:1"
       transform="matrix(1.3333333,0,0,-1.3333333,0,523.345)"
       clip-path="url(#clipPath66)" />
    <path
       id="path67"
       d="m 64.069034,52.66375 0.01611,166.74392 v 45.2187 h 0.01612 v 19.78317 h 0.01611 v 8.47851 h 0.01612 v 2.82617 h 0.04835 v 2.82617 l 0.128923,2.82616 h 0.04835 0.08058 0.03223 0.06446 0.03223 0.04835 0.03223 0.04835 0.03223 0.03223 0.03223 0.01612 l 0.04835,2.82617 h 0.01611 0.04835 0.03223 0.01612 0.04835 0.03223 0.03223 l 0.04835,2.82617 h 0.01611 0.06446 0.01611 0.04835 0.03223 0.06446 0.03223 0.128923 0.145039 0.04835 0.06446 0.01611 0.04835 0.03223 0.06446 0.08058 0.03223 0.06446 0.09669 0.03223 0.161155 0.09669 0.08058 0.257847 0.112807 0.145039 0.2095 0.225616 0.09669 0.290078 l 0.467347,2.82617 h 0.306192 0.435116 0.531809 0.966924 1.482618 2.787965 l 7.445318,8.4785 h 15.325752 l 21.272338,8.47851 34.18078,5.65233 h 47.76607 l 62.17324,11.30468 68.97394,5.65233 64.02651,2.82617 42.15791,2.82617 h 21.7558 7.65481 2.07889 0.14504 0.0161"
       style="fill:none;stroke:#7f7f7f;stroke-width:2;stroke-linecap:square;stroke-linejoin:round;stroke-miterlimit:10;stroke-dasharray:none;stroke-opacity:1"
       transform="matrix(1.3333333,0,0,-1.3333333,0,523.345)"
       clip-path="url(#clipPath68)" />
    <path
       id="path69"
       d="m 64.069034,52.66375 405.818186,302.4"
       style="fill:none;stroke:#000000;stroke-width:1;stroke-linecap:butt;stroke-linejoin:round;stroke-miterlimit:10;stroke-dasharray:3.7, 1.6;stroke-dashoffset:0;stroke-opacity:1"
       transform="matrix(1.3333333,0,0,-1.3333333,0,523.345)"
       clip-path="url(#clipPath70)" />
    <path
       id="path71"
       d="m 43.778125,37.54375 v 332.64"
       style="fill:none;stroke:#000000;stroke-width:0.8;stroke-linecap:square;stroke-linejoin:miter;stroke-miterlimit:10;stroke-dasharray:none;stroke-opacity:1"
       transform="matrix(1.3333333,0,0,-1.3333333,0,523.345)" />
    <path
       id="path72"
       d="m 490.17812,37.54375 v 332.64"
       style="fill:none;stroke:#000000;stroke-width:0.8;stroke-linecap:square;stroke-linejoin:miter;stroke-miterlimit:10;stroke-dasharray:none;stroke-opacity:1"
       transform="matrix(1.3333333,0,0,-1.3333333,0,523.345)" />
    <path
       id="path73"
       d="M 43.778125,37.54375 H 490.17812"
       style="fill:none;stroke:#000000;stroke-width:0.8;stroke-linecap:square;stroke-linejoin:miter;stroke-miterlimit:10;stroke-dasharray:none;stroke-opacity:1"
       transform="matrix(1.3333333,0,0,-1.3333333,0,523.345)" />
    <path
       id="path74"
       d="M 43.778125,370.18375 H 490.17812"
       style="fill:none;stroke:#000000;stroke-width:0.8;stroke-linecap:square;stroke-linejoin:miter;stroke-miterlimit:10;stroke-dasharray:none;stroke-opacity:1"
       transform="matrix(1.3333333,0,0,-1.3333333,0,523.345)" />
    <text
       id="text74"
       xml:space="preserve"
       transform="matrix(1.3333333,0,0,1.3333333,338.52292,21.766667)"><tspan
         id="tspan74"
         style="font-variant:normal;font-weight:normal;font-size:12px;font-family:'DejaVu Sans';writing-mode:lr-tb;fill:#000000;fill-opacity:1;fill-rule:nonzero;stroke:none"
         x="0"
         y="0">ROC</tspan></text>
    <path
       id="path75"
       d="m 305.17812,42.54375 h 178 c 1.33334,0 2,0.666667 2,2 v 116.375 c 0,1.33333 -0.66666,2 -2,2 h -178 c -1.33333,0 -2,-0.66667 -2,-2 v -116.375 c 0,-1.333333 0.66667,-2 2,-2 z"
       style="fill:#ffffff;fill-opacity:0.8;fill-rule:nonzero;stroke:#cccccc;stroke-width:1;stroke-linecap:butt;stroke-linejoin:miter;stroke-miterlimit:10;stroke-dasharray:none;stroke-opacity:0.8"
       transform="matrix(1.3333333,0,0,-1.3333333,0,523.345)" />
    <path
       id="path76"
       d="m 307.17812,154.825 h 10 10"
       style="fill:none;stroke:#1f77b4;stroke-width:2;stroke-linecap:square;stroke-linejoin:round;stroke-miterlimit:10;stroke-dasharray:none;stroke-opacity:1"
       transform="matrix(1.3333333,0,0,-1.3333333,0,523.345)" />
    <text
       id="text76"
       xml:space="preserve"
       transform="matrix(1.3333333,0,0,1.3333333,446.90417,321.57833)"><tspan
         id="tspan76"
         style="font-variant:normal;font-weight:normal;font-size:10px;font-family:'DejaVu Sans';writing-mode:lr-tb;fill:#000000;fill-opacity:1;fill-rule:nonzero;stroke:none"
         x="0"
         y="0">ROC AUC = 0.9885, IR = 2</tspan></text>
    <path
       id="path77"
       d="m 307.17812,140.15312 h 10 10"
       style="fill:none;stroke:#ff7f0e;stroke-width:2;stroke-linecap:square;stroke-linejoin:round;stroke-miterlimit:10;stroke-dasharray:none;stroke-opacity:1"
       transform="matrix(1.3333333,0,0,-1.3333333,0,523.345)" />
    <text
       id="text77"
       xml:space="preserve"
       transform="matrix(1.3333333,0,0,1.3333333,446.90417,341.14083)"><tspan
         id="tspan77"
         style="font-variant:normal;font-weight:normal;font-size:10px;font-family:'DejaVu Sans';writing-mode:lr-tb;fill:#000000;fill-opacity:1;fill-rule:nonzero;stroke:none"
         x="0"
         y="0">ROC AUC = 0.9927, IR = 4</tspan></text>
    <path
       id="path78"
       d="m 307.17812,125.48125 h 10 10"
       style="fill:none;stroke:#2ca02c;stroke-width:2;stroke-linecap:square;stroke-linejoin:round;stroke-miterlimit:10;stroke-dasharray:none;stroke-opacity:1"
       transform="matrix(1.3333333,0,0,-1.3333333,0,523.345)" />
    <text
       id="text78"
       xml:space="preserve"
       transform="matrix(1.3333333,0,0,1.3333333,446.90417,360.70333)"><tspan
         id="tspan78"
         style="font-variant:normal;font-weight:normal;font-size:10px;font-family:'DejaVu Sans';writing-mode:lr-tb;fill:#000000;fill-opacity:1;fill-rule:nonzero;stroke:none"
         x="0"
         y="0">ROC AUC = 0.9770, IR = 8</tspan></text>
    <path
       id="path79"
       d="m 307.17812,110.80937 h 10 10"
       style="fill:none;stroke:#d62728;stroke-width:2;stroke-linecap:square;stroke-linejoin:round;stroke-miterlimit:10;stroke-dasharray:none;stroke-opacity:1"
       transform="matrix(1.3333333,0,0,-1.3333333,0,523.345)" />
    <text
       id="text79"
       xml:space="preserve"
       transform="matrix(1.3333333,0,0,1.3333333,446.90417,380.26583)"><tspan
         id="tspan79"
         style="font-variant:normal;font-weight:normal;font-size:10px;font-family:'DejaVu Sans';writing-mode:lr-tb;fill:#000000;fill-opacity:1;fill-rule:nonzero;stroke:none"
         x="0"
         y="0">ROC AUC = 0.9696, IR = 16</tspan></text>
    <path
       id="path80"
       d="m 307.17812,96.1375 h 10 10"
       style="fill:none;stroke:#9467bd;stroke-width:2;stroke-linecap:square;stroke-linejoin:round;stroke-miterlimit:10;stroke-dasharray:none;stroke-opacity:1"
       transform="matrix(1.3333333,0,0,-1.3333333,0,523.345)" />
    <text
       id="text80"
       xml:space="preserve"
       transform="matrix(1.3333333,0,0,1.3333333,446.90417,399.82833)"><tspan
         id="tspan80"
         style="font-variant:normal;font-weight:normal;font-size:10px;font-family:'DejaVu Sans';writing-mode:lr-tb;fill:#000000;fill-opacity:1;fill-rule:nonzero;stroke:none"
         x="0"
         y="0">ROC AUC = 0.9230, IR = 32</tspan></text>
    <path
       id="path81"
       d="m 307.17812,81.465625 h 10 10"
       style="fill:none;stroke:#8c564b;stroke-width:2;stroke-linecap:square;stroke-linejoin:round;stroke-miterlimit:10;stroke-dasharray:none;stroke-opacity:1"
       transform="matrix(1.3333333,0,0,-1.3333333,0,523.345)" />
    <text
       id="text81"
       xml:space="preserve"
       transform="matrix(1.3333333,0,0,1.3333333,446.90417,419.39083)"><tspan
         id="tspan81"
         style="font-variant:normal;font-weight:normal;font-size:10px;font-family:'DejaVu Sans';writing-mode:lr-tb;fill:#000000;fill-opacity:1;fill-rule:nonzero;stroke:none"
         x="0"
         y="0">ROC AUC = 0.9660, IR = 64</tspan></text>
    <path
       id="path82"
       d="m 307.17812,66.79375 h 10 10"
       style="fill:none;stroke:#e377c2;stroke-width:2;stroke-linecap:square;stroke-linejoin:round;stroke-miterlimit:10;stroke-dasharray:none;stroke-opacity:1"
       transform="matrix(1.3333333,0,0,-1.3333333,0,523.345)" />
    <text
       id="text82"
       xml:space="preserve"
       transform="matrix(1.3333333,0,0,1.3333333,446.90417,438.95333)"><tspan
         id="tspan82"
         style="font-variant:normal;font-weight:normal;font-size:10px;font-family:'DejaVu Sans';writing-mode:lr-tb;fill:#000000;fill-opacity:1;fill-rule:nonzero;stroke:none"
         x="0"
         y="0">ROC AUC = 0.9571, IR = 128</tspan></text>
    <path
       id="path83"
       d="m 307.17812,52.121875 h 10 10"
       style="fill:none;stroke:#7f7f7f;stroke-width:2;stroke-linecap:square;stroke-linejoin:round;stroke-miterlimit:10;stroke-dasharray:none;stroke-opacity:1"
       transform="matrix(1.3333333,0,0,-1.3333333,0,523.345)" />
    <text
       id="text83"
       xml:space="preserve"
       transform="matrix(1.3333333,0,0,1.3333333,446.90417,458.51583)"><tspan
         id="tspan83"
         style="font-variant:normal;font-weight:normal;font-size:10px;font-family:'DejaVu Sans';writing-mode:lr-tb;fill:#000000;fill-opacity:1;fill-rule:nonzero;stroke:none"
         x="0"
         y="0">ROC AUC = 0.9512, IR = 256</tspan></text>
  </g>
</svg>
