<?xml version="1.0" encoding="UTF-8" standalone="no"?>
<!-- Created with Inkscape (http://www.inkscape.org/) -->

<svg
   version="1.1"
   id="svg1"
   width="539.88086"
   height="434.64099"
   viewBox="0 0 539.88086 434.64099"
   xmlns="http://www.w3.org/2000/svg"
   xmlns:svg="http://www.w3.org/2000/svg">
  <defs
     id="defs1">
    <clipPath
       clipPathUnits="userSpaceOnUse"
       id="clipPath4">
      <path
         d="M 40.590625,37.54375 H 397.71062 v 266.112 H 40.590625 Z"
         id="path4" />
    </clipPath>
    <clipPath
       clipPathUnits="userSpaceOnUse"
       id="clipPath7">
      <path
         d="M 40.590625,37.54375 H 397.71062 v 266.112 H 40.590625 Z"
         id="path7" />
    </clipPath>
    <clipPath
       clipPathUnits="userSpaceOnUse"
       id="clipPath10">
      <path
         d="M 40.590625,37.54375 H 397.71062 v 266.112 H 40.590625 Z"
         id="path10" />
    </clipPath>
    <clipPath
       clipPathUnits="userSpaceOnUse"
       id="clipPath13">
      <path
         d="M 40.590625,37.54375 H 397.71062 v 266.112 H 40.590625 Z"
         id="path13" />
    </clipPath>
    <clipPath
       clipPathUnits="userSpaceOnUse"
       id="clipPath16">
      <path
         d="M 40.590625,37.54375 H 397.71062 v 266.112 H 40.590625 Z"
         id="path16" />
    </clipPath>
    <clipPath
       clipPathUnits="userSpaceOnUse"
       id="clipPath19">
      <path
         d="M 40.590625,37.54375 H 397.71062 v 266.112 H 40.590625 Z"
         id="path19" />
    </clipPath>
    <clipPath
       clipPathUnits="userSpaceOnUse"
       id="clipPath22">
      <path
         d="M 40.590625,37.54375 H 397.71062 v 266.112 H 40.590625 Z"
         id="path22" />
    </clipPath>
    <clipPath
       clipPathUnits="userSpaceOnUse"
       id="clipPath25">
      <path
         d="M 40.590625,37.54375 H 397.71062 v 266.112 H 40.590625 Z"
         id="path25" />
    </clipPath>
    <clipPath
       clipPathUnits="userSpaceOnUse"
       id="clipPath28">
      <path
         d="M 40.590625,37.54375 H 397.71062 v 266.112 H 40.590625 Z"
         id="path28" />
    </clipPath>
    <clipPath
       clipPathUnits="userSpaceOnUse"
       id="clipPath31">
      <path
         d="M 40.590625,37.54375 H 397.71062 v 266.112 H 40.590625 Z"
         id="path31" />
    </clipPath>
    <clipPath
       clipPathUnits="userSpaceOnUse"
       id="clipPath34">
      <path
         d="M 40.590625,37.54375 H 397.71062 v 266.112 H 40.590625 Z"
         id="path34" />
    </clipPath>
    <clipPath
       clipPathUnits="userSpaceOnUse"
       id="clipPath37">
      <path
         d="M 40.590625,37.54375 H 397.71062 v 266.112 H 40.590625 Z"
         id="path37" />
    </clipPath>
    <clipPath
       clipPathUnits="userSpaceOnUse"
       id="clipPath40">
      <path
         d="M 40.590625,37.54375 H 397.71062 v 266.112 H 40.590625 Z"
         id="path40" />
    </clipPath>
    <clipPath
       clipPathUnits="userSpaceOnUse"
       id="clipPath42">
      <path
         d="M 40.590625,37.54375 H 397.71062 v 266.112 H 40.590625 Z"
         id="path42" />
    </clipPath>
  </defs>
  <g
     id="g1">
    <path
       id="path1"
       d="M 0,0 H 404.91062 V 325.98075 H 0 Z"
       style="fill:#ffffff;fill-opacity:1;fill-rule:nonzero;stroke:none"
       transform="matrix(1.3333333,0,0,-1.3333333,0,434.641)" />
    <path
       id="path2"
       d="M 40.590625,37.54375 H 397.71062 v 266.112 H 40.590625 Z"
       style="fill:#ffffff;fill-opacity:1;fill-rule:nonzero;stroke:none"
       transform="matrix(1.3333333,0,0,-1.3333333,0,434.641)" />
    <path
       id="path3"
       d="m 75.281972,37.54375 v 266.112"
       style="fill:none;stroke:#b0b0b0;stroke-width:0.8;stroke-linecap:square;stroke-linejoin:round;stroke-miterlimit:10;stroke-dasharray:none;stroke-opacity:1"
       transform="matrix(1.3333333,0,0,-1.3333333,0,434.641)"
       clip-path="url(#clipPath4)" />
    <path
       id="path5"
       d="m 75.281972,37.54375 v -3.5"
       style="fill:#000000;fill-opacity:1;fill-rule:nonzero;stroke:#000000;stroke-width:0.8;stroke-linecap:butt;stroke-linejoin:round;stroke-miterlimit:10;stroke-dasharray:none;stroke-opacity:1"
       transform="matrix(1.3333333,0,0,-1.3333333,0,434.641)" />
    <text
       id="text5"
       xml:space="preserve"
       transform="matrix(1.3333333,0,0,1.3333333,91.896796,404.041)"><tspan
         id="tspan5"
         style="font-variant:normal;font-weight:normal;font-size:10px;font-family:'DejaVu Sans';writing-mode:lr-tb;fill:#000000;fill-opacity:1;fill-rule:nonzero;stroke:none"
         x="0"
         y="0">50</tspan></text>
    <path
       id="path6"
       d="m 129.57203,37.54375 v 266.112"
       style="fill:none;stroke:#b0b0b0;stroke-width:0.8;stroke-linecap:square;stroke-linejoin:round;stroke-miterlimit:10;stroke-dasharray:none;stroke-opacity:1"
       transform="matrix(1.3333333,0,0,-1.3333333,0,434.641)"
       clip-path="url(#clipPath7)" />
    <path
       id="path8"
       d="m 129.57203,37.54375 v -3.5"
       style="fill:#000000;fill-opacity:1;fill-rule:nonzero;stroke:#000000;stroke-width:0.8;stroke-linecap:butt;stroke-linejoin:round;stroke-miterlimit:10;stroke-dasharray:none;stroke-opacity:1"
       transform="matrix(1.3333333,0,0,-1.3333333,0,434.641)" />
    <text
       id="text8"
       xml:space="preserve"
       transform="matrix(1.3333333,0,0,1.3333333,160.04396,404.041)"><tspan
         id="tspan8"
         style="font-variant:normal;font-weight:normal;font-size:10px;font-family:'DejaVu Sans';writing-mode:lr-tb;fill:#000000;fill-opacity:1;fill-rule:nonzero;stroke:none"
         x="0"
         y="0">100</tspan></text>
    <path
       id="path9"
       d="m 183.86209,37.54375 v 266.112"
       style="fill:none;stroke:#b0b0b0;stroke-width:0.8;stroke-linecap:square;stroke-linejoin:round;stroke-miterlimit:10;stroke-dasharray:none;stroke-opacity:1"
       transform="matrix(1.3333333,0,0,-1.3333333,0,434.641)"
       clip-path="url(#clipPath10)" />
    <path
       id="path11"
       d="m 183.86209,37.54375 v -3.5"
       style="fill:#000000;fill-opacity:1;fill-rule:nonzero;stroke:#000000;stroke-width:0.8;stroke-linecap:butt;stroke-linejoin:round;stroke-miterlimit:10;stroke-dasharray:none;stroke-opacity:1"
       transform="matrix(1.3333333,0,0,-1.3333333,0,434.641)" />
    <text
       id="text11"
       xml:space="preserve"
       transform="matrix(1.3333333,0,0,1.3333333,232.4307,404.041)"><tspan
         id="tspan11"
         style="font-variant:normal;font-weight:normal;font-size:10px;font-family:'DejaVu Sans';writing-mode:lr-tb;fill:#000000;fill-opacity:1;fill-rule:nonzero;stroke:none"
         x="0"
         y="0">150</tspan></text>
    <path
       id="path12"
       d="m 238.15215,37.54375 v 266.112"
       style="fill:none;stroke:#b0b0b0;stroke-width:0.8;stroke-linecap:square;stroke-linejoin:round;stroke-miterlimit:10;stroke-dasharray:none;stroke-opacity:1"
       transform="matrix(1.3333333,0,0,-1.3333333,0,434.641)"
       clip-path="url(#clipPath13)" />
    <path
       id="path14"
       d="m 238.15215,37.54375 v -3.5"
       style="fill:#000000;fill-opacity:1;fill-rule:nonzero;stroke:#000000;stroke-width:0.8;stroke-linecap:butt;stroke-linejoin:round;stroke-miterlimit:10;stroke-dasharray:none;stroke-opacity:1"
       transform="matrix(1.3333333,0,0,-1.3333333,0,434.641)" />
    <text
       id="text14"
       xml:space="preserve"
       transform="matrix(1.3333333,0,0,1.3333333,304.81744,404.041)"><tspan
         id="tspan14"
         style="font-variant:normal;font-weight:normal;font-size:10px;font-family:'DejaVu Sans';writing-mode:lr-tb;fill:#000000;fill-opacity:1;fill-rule:nonzero;stroke:none"
         x="0"
         y="0">200</tspan></text>
    <path
       id="path15"
       d="m 292.4422,37.54375 v 266.112"
       style="fill:none;stroke:#b0b0b0;stroke-width:0.8;stroke-linecap:square;stroke-linejoin:round;stroke-miterlimit:10;stroke-dasharray:none;stroke-opacity:1"
       transform="matrix(1.3333333,0,0,-1.3333333,0,434.641)"
       clip-path="url(#clipPath16)" />
    <path
       id="path17"
       d="m 292.4422,37.54375 v -3.5"
       style="fill:#000000;fill-opacity:1;fill-rule:nonzero;stroke:#000000;stroke-width:0.8;stroke-linecap:butt;stroke-linejoin:round;stroke-miterlimit:10;stroke-dasharray:none;stroke-opacity:1"
       transform="matrix(1.3333333,0,0,-1.3333333,0,434.641)" />
    <text
       id="text17"
       xml:space="preserve"
       transform="matrix(1.3333333,0,0,1.3333333,377.20419,404.041)"><tspan
         id="tspan17"
         style="font-variant:normal;font-weight:normal;font-size:10px;font-family:'DejaVu Sans';writing-mode:lr-tb;fill:#000000;fill-opacity:1;fill-rule:nonzero;stroke:none"
         x="0"
         y="0">250</tspan></text>
    <path
       id="path18"
       d="m 346.73226,37.54375 v 266.112"
       style="fill:none;stroke:#b0b0b0;stroke-width:0.8;stroke-linecap:square;stroke-linejoin:round;stroke-miterlimit:10;stroke-dasharray:none;stroke-opacity:1"
       transform="matrix(1.3333333,0,0,-1.3333333,0,434.641)"
       clip-path="url(#clipPath19)" />
    <path
       id="path20"
       d="m 346.73226,37.54375 v -3.5"
       style="fill:#000000;fill-opacity:1;fill-rule:nonzero;stroke:#000000;stroke-width:0.8;stroke-linecap:butt;stroke-linejoin:round;stroke-miterlimit:10;stroke-dasharray:none;stroke-opacity:1"
       transform="matrix(1.3333333,0,0,-1.3333333,0,434.641)" />
    <text
       id="text20"
       xml:space="preserve"
       transform="matrix(1.3333333,0,0,1.3333333,449.59093,404.041)"><tspan
         id="tspan20"
         style="font-variant:normal;font-weight:normal;font-size:10px;font-family:'DejaVu Sans';writing-mode:lr-tb;fill:#000000;fill-opacity:1;fill-rule:nonzero;stroke:none"
         x="0"
         y="0">300</tspan></text>
    <text
       id="text21"
       xml:space="preserve"
       transform="matrix(1.3333333,0,0,1.3333333,222.9925,422.27017)"><tspan
         id="tspan21"
         style="font-variant:normal;font-weight:normal;font-size:10px;font-family:'DejaVu Sans';writing-mode:lr-tb;fill:#000000;fill-opacity:1;fill-rule:nonzero;stroke:none"
         x="0"
         y="0">Number of instances</tspan></text>
    <path
       id="path21"
       d="M 40.590625,44.492516 H 397.71062"
       style="fill:none;stroke:#b0b0b0;stroke-width:0.8;stroke-linecap:square;stroke-linejoin:round;stroke-miterlimit:10;stroke-dasharray:none;stroke-opacity:1"
       transform="matrix(1.3333333,0,0,-1.3333333,0,434.641)"
       clip-path="url(#clipPath22)" />
    <path
       id="path23"
       d="m 40.590625,44.492516 h -3.5"
       style="fill:#000000;fill-opacity:1;fill-rule:nonzero;stroke:#000000;stroke-width:0.8;stroke-linecap:butt;stroke-linejoin:round;stroke-miterlimit:10;stroke-dasharray:none;stroke-opacity:1"
       transform="matrix(1.3333333,0,0,-1.3333333,0,434.641)" />
    <text
       id="text23"
       xml:space="preserve"
       transform="matrix(1.3333333,0,0,1.3333333,36.308333,380.38015)"><tspan
         id="tspan23"
         style="font-variant:normal;font-weight:normal;font-size:10px;font-family:'DejaVu Sans';writing-mode:lr-tb;fill:#000000;fill-opacity:1;fill-rule:nonzero;stroke:none"
         x="0"
         y="0">0</tspan></text>
    <path
       id="path24"
       d="M 40.590625,95.964856 H 397.71062"
       style="fill:none;stroke:#b0b0b0;stroke-width:0.8;stroke-linecap:square;stroke-linejoin:round;stroke-miterlimit:10;stroke-dasharray:none;stroke-opacity:1"
       transform="matrix(1.3333333,0,0,-1.3333333,0,434.641)"
       clip-path="url(#clipPath25)" />
    <path
       id="path26"
       d="m 40.590625,95.964856 h -3.5"
       style="fill:#000000;fill-opacity:1;fill-rule:nonzero;stroke:#000000;stroke-width:0.8;stroke-linecap:butt;stroke-linejoin:round;stroke-miterlimit:10;stroke-dasharray:none;stroke-opacity:1"
       transform="matrix(1.3333333,0,0,-1.3333333,0,434.641)" />
    <text
       id="text26"
       xml:space="preserve"
       transform="matrix(1.3333333,0,0,1.3333333,27.829167,311.75036)"><tspan
         id="tspan26"
         style="font-variant:normal;font-weight:normal;font-size:10px;font-family:'DejaVu Sans';writing-mode:lr-tb;fill:#000000;fill-opacity:1;fill-rule:nonzero;stroke:none"
         x="0"
         y="0">10</tspan></text>
    <path
       id="path27"
       d="M 40.590625,147.4372 H 397.71062"
       style="fill:none;stroke:#b0b0b0;stroke-width:0.8;stroke-linecap:square;stroke-linejoin:round;stroke-miterlimit:10;stroke-dasharray:none;stroke-opacity:1"
       transform="matrix(1.3333333,0,0,-1.3333333,0,434.641)"
       clip-path="url(#clipPath28)" />
    <path
       id="path29"
       d="m 40.590625,147.4372 h -3.5"
       style="fill:#000000;fill-opacity:1;fill-rule:nonzero;stroke:#000000;stroke-width:0.8;stroke-linecap:butt;stroke-linejoin:round;stroke-miterlimit:10;stroke-dasharray:none;stroke-opacity:1"
       transform="matrix(1.3333333,0,0,-1.3333333,0,434.641)" />
    <text
       id="text29"
       xml:space="preserve"
       transform="matrix(1.3333333,0,0,1.3333333,27.829167,243.12057)"><tspan
         id="tspan29"
         style="font-variant:normal;font-weight:normal;font-size:10px;font-family:'DejaVu Sans';writing-mode:lr-tb;fill:#000000;fill-opacity:1;fill-rule:nonzero;stroke:none"
         x="0"
         y="0">20</tspan></text>
    <path
       id="path30"
       d="M 40.590625,198.90954 H 397.71062"
       style="fill:none;stroke:#b0b0b0;stroke-width:0.8;stroke-linecap:square;stroke-linejoin:round;stroke-miterlimit:10;stroke-dasharray:none;stroke-opacity:1"
       transform="matrix(1.3333333,0,0,-1.3333333,0,434.641)"
       clip-path="url(#clipPath31)" />
    <path
       id="path32"
       d="m 40.590625,198.90954 h -3.5"
       style="fill:#000000;fill-opacity:1;fill-rule:nonzero;stroke:#000000;stroke-width:0.8;stroke-linecap:butt;stroke-linejoin:round;stroke-miterlimit:10;stroke-dasharray:none;stroke-opacity:1"
       transform="matrix(1.3333333,0,0,-1.3333333,0,434.641)" />
    <text
       id="text32"
       xml:space="preserve"
       transform="matrix(1.3333333,0,0,1.3333333,27.829167,174.49078)"><tspan
         id="tspan32"
         style="font-variant:normal;font-weight:normal;font-size:10px;font-family:'DejaVu Sans';writing-mode:lr-tb;fill:#000000;fill-opacity:1;fill-rule:nonzero;stroke:none"
         x="0"
         y="0">30</tspan></text>
    <path
       id="path33"
       d="M 40.590625,250.38188 H 397.71062"
       style="fill:none;stroke:#b0b0b0;stroke-width:0.8;stroke-linecap:square;stroke-linejoin:round;stroke-miterlimit:10;stroke-dasharray:none;stroke-opacity:1"
       transform="matrix(1.3333333,0,0,-1.3333333,0,434.641)"
       clip-path="url(#clipPath34)" />
    <path
       id="path35"
       d="m 40.590625,250.38188 h -3.5"
       style="fill:#000000;fill-opacity:1;fill-rule:nonzero;stroke:#000000;stroke-width:0.8;stroke-linecap:butt;stroke-linejoin:round;stroke-miterlimit:10;stroke-dasharray:none;stroke-opacity:1"
       transform="matrix(1.3333333,0,0,-1.3333333,0,434.641)" />
    <text
       id="text35"
       xml:space="preserve"
       transform="matrix(1.3333333,0,0,1.3333333,27.829167,105.861)"><tspan
         id="tspan35"
         style="font-variant:normal;font-weight:normal;font-size:10px;font-family:'DejaVu Sans';writing-mode:lr-tb;fill:#000000;fill-opacity:1;fill-rule:nonzero;stroke:none"
         x="0"
         y="0">40</tspan></text>
    <path
       id="path36"
       d="M 40.590625,301.85422 H 397.71062"
       style="fill:none;stroke:#b0b0b0;stroke-width:0.8;stroke-linecap:square;stroke-linejoin:round;stroke-miterlimit:10;stroke-dasharray:none;stroke-opacity:1"
       transform="matrix(1.3333333,0,0,-1.3333333,0,434.641)"
       clip-path="url(#clipPath37)" />
    <path
       id="path38"
       d="m 40.590625,301.85422 h -3.5"
       style="fill:#000000;fill-opacity:1;fill-rule:nonzero;stroke:#000000;stroke-width:0.8;stroke-linecap:butt;stroke-linejoin:round;stroke-miterlimit:10;stroke-dasharray:none;stroke-opacity:1"
       transform="matrix(1.3333333,0,0,-1.3333333,0,434.641)" />
    <text
       id="text38"
       xml:space="preserve"
       transform="matrix(1.3333333,0,0,1.3333333,27.829167,37.231209)"><tspan
         id="tspan38"
         style="font-variant:normal;font-weight:normal;font-size:10px;font-family:'DejaVu Sans';writing-mode:lr-tb;fill:#000000;fill-opacity:1;fill-rule:nonzero;stroke:none"
         x="0"
         y="0">50</tspan></text>
    <text
       id="text39"
       xml:space="preserve"
       transform="matrix(0,-1.3333333,1.3333333,0,19.725,304.96633)"><tspan
         id="tspan39"
         style="font-variant:normal;font-weight:normal;font-size:10px;font-family:'DejaVu Sans';writing-mode:lr-tb;fill:#000000;fill-opacity:1;fill-rule:nonzero;stroke:none"
         x="0"
         y="0">Minority class instances used</tspan></text>
    <path
       id="path39"
       d="m 56.823352,49.63975 h 4.343205 l 2.171602,10.294468 h 1.085801 l 1.085802,5.147234 h 4.343204 l 1.085801,5.147234 h 1.085801 l 1.085802,5.147234 h 1.085801 l 4.343204,20.588936 h 1.085802 l 2.171602,10.294464 h 2.171602 l 3.257404,15.44171 h 4.343204 l 2.171603,10.29446 h 1.085801 l 1.085801,5.14724 h 3.257403 l 1.085803,5.14723 h 2.1716 l 1.0858,5.14724 h 19.54442 l 1.0858,5.14723 h 8.68641 l 1.0858,5.14723 h 56.46166 l 1.08581,5.14724 h 1.0858 l 2.1716,10.29447 h 1.0858 l 2.1716,10.29446 h 2.1716 l 1.08581,5.14724 h 3.2574 l 2.1716,10.29447 h 3.25741 l 1.0858,5.14723 h 3.2574 l 1.0858,5.14723 h 1.0858 l 1.0858,5.14724 h 5.42901 l 1.0858,5.14723 h 9.77221 l 1.0858,5.14724 h 9.77221 l 2.1716,10.29447 h 2.17161 l 3.2574,15.4417 h 11.94381 l 1.0858,5.14723 h 14.11542 l 1.0858,5.14724 h 32.57403 l 2.17161,10.29446 h 16.28701 l 1.08581,5.14724 h 9.77221 l 1.0858,5.14723 h 4.3432 l 1.0858,5.14724 h 22.80183 l 1.0858,5.14723 h 8.68641 v 0"
       style="fill:none;stroke:#1f77b4;stroke-width:1.5;stroke-linecap:square;stroke-linejoin:round;stroke-miterlimit:10;stroke-dasharray:none;stroke-opacity:1"
       transform="matrix(1.3333333,0,0,-1.3333333,0,434.641)"
       clip-path="url(#clipPath40)" />
    <path
       id="path41"
       d="m 56.823352,49.63975 h 76.006078 l 1.0858,5.147234 h 31.48824 l 1.0858,5.147234 h 20.63022 l 1.0858,5.147234 h 124.86713 l 1.08581,5.147234 h 17.37281 l 1.08581,5.147234 h 48.86105 v 0"
       style="fill:none;stroke:#ff7f0e;stroke-width:1.5;stroke-linecap:square;stroke-linejoin:round;stroke-miterlimit:10;stroke-dasharray:none;stroke-opacity:1"
       transform="matrix(1.3333333,0,0,-1.3333333,0,434.641)"
       clip-path="url(#clipPath42)" />
    <path
       id="path43"
       d="m 40.590625,37.54375 v 266.112"
       style="fill:none;stroke:#000000;stroke-width:0.8;stroke-linecap:square;stroke-linejoin:miter;stroke-miterlimit:10;stroke-dasharray:none;stroke-opacity:1"
       transform="matrix(1.3333333,0,0,-1.3333333,0,434.641)" />
    <path
       id="path44"
       d="m 397.71062,37.54375 v 266.112"
       style="fill:none;stroke:#000000;stroke-width:0.8;stroke-linecap:square;stroke-linejoin:miter;stroke-miterlimit:10;stroke-dasharray:none;stroke-opacity:1"
       transform="matrix(1.3333333,0,0,-1.3333333,0,434.641)" />
    <path
       id="path45"
       d="M 40.590625,37.54375 H 397.71062"
       style="fill:none;stroke:#000000;stroke-width:0.8;stroke-linecap:square;stroke-linejoin:miter;stroke-miterlimit:10;stroke-dasharray:none;stroke-opacity:1"
       transform="matrix(1.3333333,0,0,-1.3333333,0,434.641)" />
    <path
       id="path46"
       d="M 40.590625,303.65575 H 397.71062"
       style="fill:none;stroke:#000000;stroke-width:0.8;stroke-linecap:square;stroke-linejoin:miter;stroke-miterlimit:10;stroke-dasharray:none;stroke-opacity:1"
       transform="matrix(1.3333333,0,0,-1.3333333,0,434.641)" />
    <text
       id="text46"
       xml:space="preserve"
       transform="matrix(1.3333333,0,0,1.3333333,160.91958,21.766667)"><tspan
         id="tspan46"
         style="font-variant:normal;font-weight:normal;font-size:12px;font-family:'DejaVu Sans';writing-mode:lr-tb;fill:#000000;fill-opacity:1;fill-rule:nonzero;stroke:none"
         x="0"
         dx="0 0 -0.359375"
         y="0">IR: 32, minorities in dataset: 396</tspan></text>
    <path
       id="path47"
       d="M 47.590625,266.312 H 163.2625 c 1.33333,0 2,0.66667 2,2 v 28.34375 c 0,1.33333 -0.66667,2 -2,2 H 47.590625 c -1.333333,0 -2,-0.66667 -2,-2 V 268.312 c 0,-1.33333 0.666667,-2 2,-2 z"
       style="fill:#ffffff;fill-opacity:0.8;fill-rule:nonzero;stroke:#cccccc;stroke-width:1;stroke-linecap:butt;stroke-linejoin:miter;stroke-miterlimit:10;stroke-dasharray:none;stroke-opacity:0.8"
       transform="matrix(1.3333333,0,0,-1.3333333,0,434.641)" />
    <path
       id="path48"
       d="m 49.590625,290.562 h 10 10"
       style="fill:none;stroke:#1f77b4;stroke-width:1.5;stroke-linecap:square;stroke-linejoin:round;stroke-miterlimit:10;stroke-dasharray:none;stroke-opacity:1"
       transform="matrix(1.3333333,0,0,-1.3333333,0,434.641)" />
    <text
       id="text48"
       xml:space="preserve"
       transform="matrix(1.3333333,0,0,1.3333333,103.45417,51.891667)"><tspan
         id="tspan48"
         style="font-variant:normal;font-weight:normal;font-size:10px;font-family:'DejaVu Sans';writing-mode:lr-tb;fill:#000000;fill-opacity:1;fill-rule:nonzero;stroke:none"
         x="0"
         dx="0 -0.171875 0 0 0 0 0 0 -0.171875 0 0 -0.171875"
         y="0">Active Learning</tspan></text>
    <path
       id="path49"
       d="m 49.590625,275.89012 h 10 10"
       style="fill:none;stroke:#ff7f0e;stroke-width:1.5;stroke-linecap:square;stroke-linejoin:round;stroke-miterlimit:10;stroke-dasharray:none;stroke-opacity:1"
       transform="matrix(1.3333333,0,0,-1.3333333,0,434.641)" />
    <text
       id="text49"
       xml:space="preserve"
       transform="matrix(1.3333333,0,0,1.3333333,103.45417,71.454167)"><tspan
         id="tspan49"
         style="font-variant:normal;font-weight:normal;font-size:10px;font-family:'DejaVu Sans';writing-mode:lr-tb;fill:#000000;fill-opacity:1;fill-rule:nonzero;stroke:none"
         x="0"
         dx="0 -0.4375 0 0 0 0 0 0 0 -0.171875 0 0 -0.171875"
         y="0">Passive Learning</tspan></text>
  </g>
</svg>
