<?xml version="1.0" encoding="UTF-8" standalone="no"?>
<!-- Created with Inkscape (http://www.inkscape.org/) -->

<svg
   version="1.1"
   id="svg1"
   width="563.78418"
   height="434.64099"
   viewBox="0 0 563.78418 434.64099"
   xmlns="http://www.w3.org/2000/svg"
   xmlns:svg="http://www.w3.org/2000/svg">
  <defs
     id="defs1">
    <clipPath
       clipPathUnits="userSpaceOnUse"
       id="clipPath4">
      <path
         d="m 46.95,37.54375 h 357.12 v 266.112 H 46.95 Z"
         id="path4" />
    </clipPath>
    <clipPath
       clipPathUnits="userSpaceOnUse"
       id="clipPath7">
      <path
         d="m 46.95,37.54375 h 357.12 v 266.112 H 46.95 Z"
         id="path7" />
    </clipPath>
    <clipPath
       clipPathUnits="userSpaceOnUse"
       id="clipPath10">
      <path
         d="m 46.95,37.54375 h 357.12 v 266.112 H 46.95 Z"
         id="path10" />
    </clipPath>
    <clipPath
       clipPathUnits="userSpaceOnUse"
       id="clipPath13">
      <path
         d="m 46.95,37.54375 h 357.12 v 266.112 H 46.95 Z"
         id="path13" />
    </clipPath>
    <clipPath
       clipPathUnits="userSpaceOnUse"
       id="clipPath16">
      <path
         d="m 46.95,37.54375 h 357.12 v 266.112 H 46.95 Z"
         id="path16" />
    </clipPath>
    <clipPath
       clipPathUnits="userSpaceOnUse"
       id="clipPath19">
      <path
         d="m 46.95,37.54375 h 357.12 v 266.112 H 46.95 Z"
         id="path19" />
    </clipPath>
    <clipPath
       clipPathUnits="userSpaceOnUse"
       id="clipPath22">
      <path
         d="m 46.95,37.54375 h 357.12 v 266.112 H 46.95 Z"
         id="path22" />
    </clipPath>
    <clipPath
       clipPathUnits="userSpaceOnUse"
       id="clipPath25">
      <path
         d="m 46.95,37.54375 h 357.12 v 266.112 H 46.95 Z"
         id="path25" />
    </clipPath>
    <clipPath
       clipPathUnits="userSpaceOnUse"
       id="clipPath28">
      <path
         d="m 46.95,37.54375 h 357.12 v 266.112 H 46.95 Z"
         id="path28" />
    </clipPath>
    <clipPath
       clipPathUnits="userSpaceOnUse"
       id="clipPath31">
      <path
         d="m 46.95,37.54375 h 357.12 v 266.112 H 46.95 Z"
         id="path31" />
    </clipPath>
    <clipPath
       clipPathUnits="userSpaceOnUse"
       id="clipPath34">
      <path
         d="m 46.95,37.54375 h 357.12 v 266.112 H 46.95 Z"
         id="path34" />
    </clipPath>
    <clipPath
       clipPathUnits="userSpaceOnUse"
       id="clipPath37">
      <path
         d="m 46.95,37.54375 h 357.12 v 266.112 H 46.95 Z"
         id="path37" />
    </clipPath>
    <clipPath
       clipPathUnits="userSpaceOnUse"
       id="clipPath40">
      <path
         d="m 46.95,37.54375 h 357.12 v 266.112 H 46.95 Z"
         id="path40" />
    </clipPath>
    <clipPath
       clipPathUnits="userSpaceOnUse"
       id="clipPath43">
      <path
         d="m 46.95,37.54375 h 357.12 v 266.112 H 46.95 Z"
         id="path43" />
    </clipPath>
    <clipPath
       clipPathUnits="userSpaceOnUse"
       id="clipPath46">
      <path
         d="m 46.95,37.54375 h 357.12 v 266.112 H 46.95 Z"
         id="path46" />
    </clipPath>
    <clipPath
       clipPathUnits="userSpaceOnUse"
       id="clipPath49">
      <path
         d="m 46.95,37.54375 h 357.12 v 266.112 H 46.95 Z"
         id="path49" />
    </clipPath>
    <clipPath
       clipPathUnits="userSpaceOnUse"
       id="clipPath52">
      <path
         d="m 46.95,37.54375 h 357.12 v 266.112 H 46.95 Z"
         id="path52" />
    </clipPath>
    <clipPath
       clipPathUnits="userSpaceOnUse"
       id="clipPath55">
      <path
         d="m 46.95,37.54375 h 357.12 v 266.112 H 46.95 Z"
         id="path55" />
    </clipPath>
    <clipPath
       clipPathUnits="userSpaceOnUse"
       id="clipPath57">
      <path
         d="m 46.95,37.54375 h 357.12 v 266.112 H 46.95 Z"
         id="path57" />
    </clipPath>
  </defs>
  <g
     id="g1">
    <path
       id="path1"
       d="M 0,0 H 422.83813 V 325.98075 H 0 Z"
       style="fill:#ffffff;fill-opacity:1;fill-rule:nonzero;stroke:none"
       transform="matrix(1.3333333,0,0,-1.3333333,0,434.641)" />
    <path
       id="path2"
       d="m 46.95,37.54375 h 357.12 v 266.112 H 46.95 Z"
       style="fill:#ffffff;fill-opacity:1;fill-rule:nonzero;stroke:none"
       transform="matrix(1.3333333,0,0,-1.3333333,0,434.641)" />
    <path
       id="path3"
       d="m 62.355644,37.54375 v 266.112"
       style="fill:none;stroke:#b0b0b0;stroke-width:0.8;stroke-linecap:square;stroke-linejoin:round;stroke-miterlimit:10;stroke-dasharray:none;stroke-opacity:1"
       transform="matrix(1.3333333,0,0,-1.3333333,0,434.641)"
       clip-path="url(#clipPath4)" />
    <path
       id="path5"
       d="m 62.355644,37.54375 v -3.5"
       style="fill:#000000;fill-opacity:1;fill-rule:nonzero;stroke:#000000;stroke-width:0.8;stroke-linecap:butt;stroke-linejoin:round;stroke-miterlimit:10;stroke-dasharray:none;stroke-opacity:1"
       transform="matrix(1.3333333,0,0,-1.3333333,0,434.641)" />
    <text
       id="text5"
       xml:space="preserve"
       transform="matrix(1.3333333,0,0,1.3333333,78.901275,404.041)"><tspan
         id="tspan5"
         style="font-variant:normal;font-weight:normal;font-size:10px;font-family:'DejaVu Sans';writing-mode:lr-tb;fill:#000000;fill-opacity:1;fill-rule:nonzero;stroke:none"
         x="0"
         y="0">0</tspan></text>
    <path
       id="path6"
       d="m 111.00761,37.54375 v 266.112"
       style="fill:none;stroke:#b0b0b0;stroke-width:0.8;stroke-linecap:square;stroke-linejoin:round;stroke-miterlimit:10;stroke-dasharray:none;stroke-opacity:1"
       transform="matrix(1.3333333,0,0,-1.3333333,0,434.641)"
       clip-path="url(#clipPath7)" />
    <path
       id="path8"
       d="m 111.00761,37.54375 v -3.5"
       style="fill:#000000;fill-opacity:1;fill-rule:nonzero;stroke:#000000;stroke-width:0.8;stroke-linecap:butt;stroke-linejoin:round;stroke-miterlimit:10;stroke-dasharray:none;stroke-opacity:1"
       transform="matrix(1.3333333,0,0,-1.3333333,0,434.641)" />
    <text
       id="text8"
       xml:space="preserve"
       transform="matrix(1.3333333,0,0,1.3333333,131.05181,404.041)"><tspan
         id="tspan8"
         style="font-variant:normal;font-weight:normal;font-size:10px;font-family:'DejaVu Sans';writing-mode:lr-tb;fill:#000000;fill-opacity:1;fill-rule:nonzero;stroke:none"
         x="0"
         y="0">1000</tspan></text>
    <path
       id="path9"
       d="m 159.65957,37.54375 v 266.112"
       style="fill:none;stroke:#b0b0b0;stroke-width:0.8;stroke-linecap:square;stroke-linejoin:round;stroke-miterlimit:10;stroke-dasharray:none;stroke-opacity:1"
       transform="matrix(1.3333333,0,0,-1.3333333,0,434.641)"
       clip-path="url(#clipPath10)" />
    <path
       id="path11"
       d="m 159.65957,37.54375 v -3.5"
       style="fill:#000000;fill-opacity:1;fill-rule:nonzero;stroke:#000000;stroke-width:0.8;stroke-linecap:butt;stroke-linejoin:round;stroke-miterlimit:10;stroke-dasharray:none;stroke-opacity:1"
       transform="matrix(1.3333333,0,0,-1.3333333,0,434.641)" />
    <text
       id="text11"
       xml:space="preserve"
       transform="matrix(1.3333333,0,0,1.3333333,195.92109,404.041)"><tspan
         id="tspan11"
         style="font-variant:normal;font-weight:normal;font-size:10px;font-family:'DejaVu Sans';writing-mode:lr-tb;fill:#000000;fill-opacity:1;fill-rule:nonzero;stroke:none"
         x="0"
         y="0">2000</tspan></text>
    <path
       id="path12"
       d="m 208.31153,37.54375 v 266.112"
       style="fill:none;stroke:#b0b0b0;stroke-width:0.8;stroke-linecap:square;stroke-linejoin:round;stroke-miterlimit:10;stroke-dasharray:none;stroke-opacity:1"
       transform="matrix(1.3333333,0,0,-1.3333333,0,434.641)"
       clip-path="url(#clipPath13)" />
    <path
       id="path14"
       d="m 208.31153,37.54375 v -3.5"
       style="fill:#000000;fill-opacity:1;fill-rule:nonzero;stroke:#000000;stroke-width:0.8;stroke-linecap:butt;stroke-linejoin:round;stroke-miterlimit:10;stroke-dasharray:none;stroke-opacity:1"
       transform="matrix(1.3333333,0,0,-1.3333333,0,434.641)" />
    <text
       id="text14"
       xml:space="preserve"
       transform="matrix(1.3333333,0,0,1.3333333,260.79038,404.041)"><tspan
         id="tspan14"
         style="font-variant:normal;font-weight:normal;font-size:10px;font-family:'DejaVu Sans';writing-mode:lr-tb;fill:#000000;fill-opacity:1;fill-rule:nonzero;stroke:none"
         x="0"
         y="0">3000</tspan></text>
    <path
       id="path15"
       d="m 256.96349,37.54375 v 266.112"
       style="fill:none;stroke:#b0b0b0;stroke-width:0.8;stroke-linecap:square;stroke-linejoin:round;stroke-miterlimit:10;stroke-dasharray:none;stroke-opacity:1"
       transform="matrix(1.3333333,0,0,-1.3333333,0,434.641)"
       clip-path="url(#clipPath16)" />
    <path
       id="path17"
       d="m 256.96349,37.54375 v -3.5"
       style="fill:#000000;fill-opacity:1;fill-rule:nonzero;stroke:#000000;stroke-width:0.8;stroke-linecap:butt;stroke-linejoin:round;stroke-miterlimit:10;stroke-dasharray:none;stroke-opacity:1"
       transform="matrix(1.3333333,0,0,-1.3333333,0,434.641)" />
    <text
       id="text17"
       xml:space="preserve"
       transform="matrix(1.3333333,0,0,1.3333333,325.65966,404.041)"><tspan
         id="tspan17"
         style="font-variant:normal;font-weight:normal;font-size:10px;font-family:'DejaVu Sans';writing-mode:lr-tb;fill:#000000;fill-opacity:1;fill-rule:nonzero;stroke:none"
         x="0"
         y="0">4000</tspan></text>
    <path
       id="path18"
       d="m 305.61546,37.54375 v 266.112"
       style="fill:none;stroke:#b0b0b0;stroke-width:0.8;stroke-linecap:square;stroke-linejoin:round;stroke-miterlimit:10;stroke-dasharray:none;stroke-opacity:1"
       transform="matrix(1.3333333,0,0,-1.3333333,0,434.641)"
       clip-path="url(#clipPath19)" />
    <path
       id="path20"
       d="m 305.61546,37.54375 v -3.5"
       style="fill:#000000;fill-opacity:1;fill-rule:nonzero;stroke:#000000;stroke-width:0.8;stroke-linecap:butt;stroke-linejoin:round;stroke-miterlimit:10;stroke-dasharray:none;stroke-opacity:1"
       transform="matrix(1.3333333,0,0,-1.3333333,0,434.641)" />
    <text
       id="text20"
       xml:space="preserve"
       transform="matrix(1.3333333,0,0,1.3333333,390.52894,404.041)"><tspan
         id="tspan20"
         style="font-variant:normal;font-weight:normal;font-size:10px;font-family:'DejaVu Sans';writing-mode:lr-tb;fill:#000000;fill-opacity:1;fill-rule:nonzero;stroke:none"
         x="0"
         y="0">5000</tspan></text>
    <path
       id="path21"
       d="m 354.26742,37.54375 v 266.112"
       style="fill:none;stroke:#b0b0b0;stroke-width:0.8;stroke-linecap:square;stroke-linejoin:round;stroke-miterlimit:10;stroke-dasharray:none;stroke-opacity:1"
       transform="matrix(1.3333333,0,0,-1.3333333,0,434.641)"
       clip-path="url(#clipPath22)" />
    <path
       id="path23"
       d="m 354.26742,37.54375 v -3.5"
       style="fill:#000000;fill-opacity:1;fill-rule:nonzero;stroke:#000000;stroke-width:0.8;stroke-linecap:butt;stroke-linejoin:round;stroke-miterlimit:10;stroke-dasharray:none;stroke-opacity:1"
       transform="matrix(1.3333333,0,0,-1.3333333,0,434.641)" />
    <text
       id="text23"
       xml:space="preserve"
       transform="matrix(1.3333333,0,0,1.3333333,455.39822,404.041)"><tspan
         id="tspan23"
         style="font-variant:normal;font-weight:normal;font-size:10px;font-family:'DejaVu Sans';writing-mode:lr-tb;fill:#000000;fill-opacity:1;fill-rule:nonzero;stroke:none"
         x="0"
         y="0">6000</tspan></text>
    <path
       id="path24"
       d="m 402.91938,37.54375 v 266.112"
       style="fill:none;stroke:#b0b0b0;stroke-width:0.8;stroke-linecap:square;stroke-linejoin:round;stroke-miterlimit:10;stroke-dasharray:none;stroke-opacity:1"
       transform="matrix(1.3333333,0,0,-1.3333333,0,434.641)"
       clip-path="url(#clipPath25)" />
    <path
       id="path26"
       d="m 402.91938,37.54375 v -3.5"
       style="fill:#000000;fill-opacity:1;fill-rule:nonzero;stroke:#000000;stroke-width:0.8;stroke-linecap:butt;stroke-linejoin:round;stroke-miterlimit:10;stroke-dasharray:none;stroke-opacity:1"
       transform="matrix(1.3333333,0,0,-1.3333333,0,434.641)" />
    <text
       id="text26"
       xml:space="preserve"
       transform="matrix(1.3333333,0,0,1.3333333,520.26751,404.041)"><tspan
         id="tspan26"
         style="font-variant:normal;font-weight:normal;font-size:10px;font-family:'DejaVu Sans';writing-mode:lr-tb;fill:#000000;fill-opacity:1;fill-rule:nonzero;stroke:none"
         x="0"
         y="0">7000</tspan></text>
    <text
       id="text27"
       xml:space="preserve"
       transform="matrix(1.3333333,0,0,1.3333333,231.47167,422.27017)"><tspan
         id="tspan27"
         style="font-variant:normal;font-weight:normal;font-size:10px;font-family:'DejaVu Sans';writing-mode:lr-tb;fill:#000000;fill-opacity:1;fill-rule:nonzero;stroke:none"
         x="0"
         y="0">Number of instances</tspan></text>
    <path
       id="path27"
       d="M 46.95,49.014634 H 404.07"
       style="fill:none;stroke:#b0b0b0;stroke-width:0.8;stroke-linecap:square;stroke-linejoin:round;stroke-miterlimit:10;stroke-dasharray:none;stroke-opacity:1"
       transform="matrix(1.3333333,0,0,-1.3333333,0,434.641)"
       clip-path="url(#clipPath28)" />
    <path
       id="path29"
       d="m 46.95,49.014634 h -3.5"
       style="fill:#000000;fill-opacity:1;fill-rule:nonzero;stroke:#000000;stroke-width:0.8;stroke-linecap:butt;stroke-linejoin:round;stroke-miterlimit:10;stroke-dasharray:none;stroke-opacity:1"
       transform="matrix(1.3333333,0,0,-1.3333333,0,434.641)" />
    <text
       id="text29"
       xml:space="preserve"
       transform="matrix(1.3333333,0,0,1.3333333,44.7875,374.35066)"><tspan
         id="tspan29"
         style="font-variant:normal;font-weight:normal;font-size:10px;font-family:'DejaVu Sans';writing-mode:lr-tb;fill:#000000;fill-opacity:1;fill-rule:nonzero;stroke:none"
         x="0"
         y="0">0</tspan></text>
    <path
       id="path30"
       d="M 46.95,80.270448 H 404.07"
       style="fill:none;stroke:#b0b0b0;stroke-width:0.8;stroke-linecap:square;stroke-linejoin:round;stroke-miterlimit:10;stroke-dasharray:none;stroke-opacity:1"
       transform="matrix(1.3333333,0,0,-1.3333333,0,434.641)"
       clip-path="url(#clipPath31)" />
    <path
       id="path32"
       d="m 46.95,80.270448 h -3.5"
       style="fill:#000000;fill-opacity:1;fill-rule:nonzero;stroke:#000000;stroke-width:0.8;stroke-linecap:butt;stroke-linejoin:round;stroke-miterlimit:10;stroke-dasharray:none;stroke-opacity:1"
       transform="matrix(1.3333333,0,0,-1.3333333,0,434.641)" />
    <text
       id="text32"
       xml:space="preserve"
       transform="matrix(1.3333333,0,0,1.3333333,36.308333,332.67624)"><tspan
         id="tspan32"
         style="font-variant:normal;font-weight:normal;font-size:10px;font-family:'DejaVu Sans';writing-mode:lr-tb;fill:#000000;fill-opacity:1;fill-rule:nonzero;stroke:none"
         x="0"
         y="0">50</tspan></text>
    <path
       id="path33"
       d="M 46.95,111.52626 H 404.07"
       style="fill:none;stroke:#b0b0b0;stroke-width:0.8;stroke-linecap:square;stroke-linejoin:round;stroke-miterlimit:10;stroke-dasharray:none;stroke-opacity:1"
       transform="matrix(1.3333333,0,0,-1.3333333,0,434.641)"
       clip-path="url(#clipPath34)" />
    <path
       id="path35"
       d="m 46.95,111.52626 h -3.5"
       style="fill:#000000;fill-opacity:1;fill-rule:nonzero;stroke:#000000;stroke-width:0.8;stroke-linecap:butt;stroke-linejoin:round;stroke-miterlimit:10;stroke-dasharray:none;stroke-opacity:1"
       transform="matrix(1.3333333,0,0,-1.3333333,0,434.641)" />
    <text
       id="text35"
       xml:space="preserve"
       transform="matrix(1.3333333,0,0,1.3333333,27.829167,291.00182)"><tspan
         id="tspan35"
         style="font-variant:normal;font-weight:normal;font-size:10px;font-family:'DejaVu Sans';writing-mode:lr-tb;fill:#000000;fill-opacity:1;fill-rule:nonzero;stroke:none"
         x="0"
         y="0">100</tspan></text>
    <path
       id="path36"
       d="M 46.95,142.78208 H 404.07"
       style="fill:none;stroke:#b0b0b0;stroke-width:0.8;stroke-linecap:square;stroke-linejoin:round;stroke-miterlimit:10;stroke-dasharray:none;stroke-opacity:1"
       transform="matrix(1.3333333,0,0,-1.3333333,0,434.641)"
       clip-path="url(#clipPath37)" />
    <path
       id="path38"
       d="m 46.95,142.78208 h -3.5"
       style="fill:#000000;fill-opacity:1;fill-rule:nonzero;stroke:#000000;stroke-width:0.8;stroke-linecap:butt;stroke-linejoin:round;stroke-miterlimit:10;stroke-dasharray:none;stroke-opacity:1"
       transform="matrix(1.3333333,0,0,-1.3333333,0,434.641)" />
    <text
       id="text38"
       xml:space="preserve"
       transform="matrix(1.3333333,0,0,1.3333333,27.829167,249.3274)"><tspan
         id="tspan38"
         style="font-variant:normal;font-weight:normal;font-size:10px;font-family:'DejaVu Sans';writing-mode:lr-tb;fill:#000000;fill-opacity:1;fill-rule:nonzero;stroke:none"
         x="0"
         y="0">150</tspan></text>
    <path
       id="path39"
       d="M 46.95,174.03789 H 404.07"
       style="fill:none;stroke:#b0b0b0;stroke-width:0.8;stroke-linecap:square;stroke-linejoin:round;stroke-miterlimit:10;stroke-dasharray:none;stroke-opacity:1"
       transform="matrix(1.3333333,0,0,-1.3333333,0,434.641)"
       clip-path="url(#clipPath40)" />
    <path
       id="path41"
       d="m 46.95,174.03789 h -3.5"
       style="fill:#000000;fill-opacity:1;fill-rule:nonzero;stroke:#000000;stroke-width:0.8;stroke-linecap:butt;stroke-linejoin:round;stroke-miterlimit:10;stroke-dasharray:none;stroke-opacity:1"
       transform="matrix(1.3333333,0,0,-1.3333333,0,434.641)" />
    <text
       id="text41"
       xml:space="preserve"
       transform="matrix(1.3333333,0,0,1.3333333,27.829167,207.65298)"><tspan
         id="tspan41"
         style="font-variant:normal;font-weight:normal;font-size:10px;font-family:'DejaVu Sans';writing-mode:lr-tb;fill:#000000;fill-opacity:1;fill-rule:nonzero;stroke:none"
         x="0"
         y="0">200</tspan></text>
    <path
       id="path42"
       d="M 46.95,205.2937 H 404.07"
       style="fill:none;stroke:#b0b0b0;stroke-width:0.8;stroke-linecap:square;stroke-linejoin:round;stroke-miterlimit:10;stroke-dasharray:none;stroke-opacity:1"
       transform="matrix(1.3333333,0,0,-1.3333333,0,434.641)"
       clip-path="url(#clipPath43)" />
    <path
       id="path44"
       d="m 46.95,205.2937 h -3.5"
       style="fill:#000000;fill-opacity:1;fill-rule:nonzero;stroke:#000000;stroke-width:0.8;stroke-linecap:butt;stroke-linejoin:round;stroke-miterlimit:10;stroke-dasharray:none;stroke-opacity:1"
       transform="matrix(1.3333333,0,0,-1.3333333,0,434.641)" />
    <text
       id="text44"
       xml:space="preserve"
       transform="matrix(1.3333333,0,0,1.3333333,27.829167,165.97856)"><tspan
         id="tspan44"
         style="font-variant:normal;font-weight:normal;font-size:10px;font-family:'DejaVu Sans';writing-mode:lr-tb;fill:#000000;fill-opacity:1;fill-rule:nonzero;stroke:none"
         x="0"
         y="0">250</tspan></text>
    <path
       id="path45"
       d="M 46.95,236.54952 H 404.07"
       style="fill:none;stroke:#b0b0b0;stroke-width:0.8;stroke-linecap:square;stroke-linejoin:round;stroke-miterlimit:10;stroke-dasharray:none;stroke-opacity:1"
       transform="matrix(1.3333333,0,0,-1.3333333,0,434.641)"
       clip-path="url(#clipPath46)" />
    <path
       id="path47"
       d="m 46.95,236.54952 h -3.5"
       style="fill:#000000;fill-opacity:1;fill-rule:nonzero;stroke:#000000;stroke-width:0.8;stroke-linecap:butt;stroke-linejoin:round;stroke-miterlimit:10;stroke-dasharray:none;stroke-opacity:1"
       transform="matrix(1.3333333,0,0,-1.3333333,0,434.641)" />
    <text
       id="text47"
       xml:space="preserve"
       transform="matrix(1.3333333,0,0,1.3333333,27.829167,124.30414)"><tspan
         id="tspan47"
         style="font-variant:normal;font-weight:normal;font-size:10px;font-family:'DejaVu Sans';writing-mode:lr-tb;fill:#000000;fill-opacity:1;fill-rule:nonzero;stroke:none"
         x="0"
         y="0">300</tspan></text>
    <path
       id="path48"
       d="M 46.95,267.80533 H 404.07"
       style="fill:none;stroke:#b0b0b0;stroke-width:0.8;stroke-linecap:square;stroke-linejoin:round;stroke-miterlimit:10;stroke-dasharray:none;stroke-opacity:1"
       transform="matrix(1.3333333,0,0,-1.3333333,0,434.641)"
       clip-path="url(#clipPath49)" />
    <path
       id="path50"
       d="m 46.95,267.80533 h -3.5"
       style="fill:#000000;fill-opacity:1;fill-rule:nonzero;stroke:#000000;stroke-width:0.8;stroke-linecap:butt;stroke-linejoin:round;stroke-miterlimit:10;stroke-dasharray:none;stroke-opacity:1"
       transform="matrix(1.3333333,0,0,-1.3333333,0,434.641)" />
    <text
       id="text50"
       xml:space="preserve"
       transform="matrix(1.3333333,0,0,1.3333333,27.829167,82.629725)"><tspan
         id="tspan50"
         style="font-variant:normal;font-weight:normal;font-size:10px;font-family:'DejaVu Sans';writing-mode:lr-tb;fill:#000000;fill-opacity:1;fill-rule:nonzero;stroke:none"
         x="0"
         y="0">350</tspan></text>
    <path
       id="path51"
       d="M 46.95,299.06114 H 404.07"
       style="fill:none;stroke:#b0b0b0;stroke-width:0.8;stroke-linecap:square;stroke-linejoin:round;stroke-miterlimit:10;stroke-dasharray:none;stroke-opacity:1"
       transform="matrix(1.3333333,0,0,-1.3333333,0,434.641)"
       clip-path="url(#clipPath52)" />
    <path
       id="path53"
       d="m 46.95,299.06114 h -3.5"
       style="fill:#000000;fill-opacity:1;fill-rule:nonzero;stroke:#000000;stroke-width:0.8;stroke-linecap:butt;stroke-linejoin:round;stroke-miterlimit:10;stroke-dasharray:none;stroke-opacity:1"
       transform="matrix(1.3333333,0,0,-1.3333333,0,434.641)" />
    <text
       id="text53"
       xml:space="preserve"
       transform="matrix(1.3333333,0,0,1.3333333,27.829167,40.955306)"><tspan
         id="tspan53"
         style="font-variant:normal;font-weight:normal;font-size:10px;font-family:'DejaVu Sans';writing-mode:lr-tb;fill:#000000;fill-opacity:1;fill-rule:nonzero;stroke:none"
         x="0"
         y="0">400</tspan></text>
    <text
       id="text54"
       xml:space="preserve"
       transform="matrix(0,-1.3333333,1.3333333,0,19.725,304.96633)"><tspan
         id="tspan54"
         style="font-variant:normal;font-weight:normal;font-size:10px;font-family:'DejaVu Sans';writing-mode:lr-tb;fill:#000000;fill-opacity:1;fill-rule:nonzero;stroke:none"
         x="0"
         y="0">Minority class instances used</tspan></text>
    <path
       id="path54"
       d="m 63.182727,49.63975 h 0.389216 l 0.583824,6.251163 h 0.04865 l 0.194608,1.250232 h 0.04865 l 0.24326,1.875349 h 0.04865 l 0.583824,6.251163 h 0.145956 l 0.291911,2.500465 h 0.0973 l 0.24326,1.875349 h 0.0973 l 0.24326,1.875349 h 0.0973 l 0.194608,1.250232 h 0.04865 l 0.194608,1.250233 h 0.194608 l 0.194608,1.250232 h 0.145956 l 0.145956,0.625117 h 0.04865 l 0.291912,2.500465 h 0.194607 l 0.291912,2.500465 h 0.145956 l 0.145956,0.625116 h 0.04865 l 0.145956,0.625117 h 0.0973 l 0.194608,1.250232 h 0.04865 l 0.145955,0.625116 h 0.04865 l 0.145956,0.625117 h 0.437868 l 0.145956,0.625116 h 0.291912 l 0.340563,3.125581 h 0.04865 l 0.194608,1.250233 h 0.194608 l 0.145956,0.625116 h 0.729779 l 0.194608,1.250233 h 0.924387 l 0.194608,1.250232 h 0.04865 l 0.145956,0.625117 h 1.216299 l 0.145956,0.625116 h 1.070343 l 0.145956,0.625116 h 0.04865 l 0.145956,0.625116 h 0.291912 l 0.145956,0.625117 h 1.021691 l 0.145956,0.625116 h 0.535171 l 0.145956,0.625116 h 0.194608 l 0.145956,0.625116 h 0.0973 l 0.194608,1.250233 h 0.437867 l 0.145956,0.625116 h 1.994731 l 0.194608,1.250238 h 0.340563 l 0.145956,0.62511 h 2.286642 l 0.145956,0.62512 h 0.583824 l 0.194608,1.25023 h 0.145956 l 0.145956,0.62512 h 0.145955 l 0.194608,1.25023 h 0.583824 l 0.194608,1.25023 h 0.243259 l 0.145956,0.62512 h 0.72978 l 0.145956,0.62511 h 0.973039 l 0.145956,0.62512 h 1.556863 l 0.145956,0.62512 h 0.632475 l 0.145956,0.62511 h 0.194608 l 0.145956,0.62512 h 0.583823 l 0.145956,0.62512 h 0.535172 l 0.145956,0.62511 h 0.04865 l 0.145955,0.62512 h 0.535172 l 0.145956,0.62511 h 0.04865 l 0.145956,0.62512 h 0.0973 l 0.145956,0.62512 h 0.340563 l 0.145956,0.62511 h 0.389216 l 0.145956,0.62512 h 0.291912 l 0.145955,0.62512 h 3.356981 l 0.14596,0.62511 h 2.04338 l 0.14596,0.62512 h 1.4109 l 0.14596,0.62511 h 0.48652 l 0.14596,0.62512 h 0.48652 l 0.14595,0.62512 h 0.97304 l 0.14596,0.62511 h 0.72978 l 0.14595,0.62512 h 1.41091 l 0.14595,0.62512 h 0.19461 l 0.14596,0.62511 h 1.02169 l 0.14595,0.62512 h 1.0217 l 0.14595,0.62511 h 2.87047 l 0.14595,0.62512 h 0.34057 l 0.19461,1.25023 h 2.38394 l 0.14596,0.62512 h 5.25441 l 0.19461,1.25023 h 0.97304 l 0.1946,1.25024 h 0.77844 l 0.14595,0.62511 h 0.48652 l 0.14596,0.62512 h 5.49767 l 0.19461,1.25023 h 0.1946 l 0.14596,0.62512 h 5.30306 l 0.14596,0.62511 h 0.43787 l 0.14595,0.62512 h 2.77317 l 0.14595,0.62511 h 1.3136 l 0.14596,0.62512 h 1.65417 l 0.14595,0.62512 h 0.24326 l 0.14596,0.62511 h 1.02169 l 0.14596,0.62512 h 2.23799 l 0.14595,0.62512 h 1.80012 l 0.14596,0.62511 h 2.96777 l 0.14596,0.62512 h 0.58382 l 0.14595,0.62511 h 2.96777 l 0.14596,0.62512 h 2.23799 l 0.14596,0.62512 h 0.14595 l 0.14596,0.62511 h 0.92439 l 0.14595,0.62512 h 1.07034 l 0.14596,0.62512 h 1.36226 l 0.14595,0.62511 h 3.35699 l 0.14595,0.62512 h 0.0487 l 0.14596,0.62512 h 1.55686 l 0.14596,0.62511 h 0.38922 l 0.14595,0.62512 h 3.06507 l 0.14596,0.62511 h 2.72451 l 0.14596,0.62512 h 0.34056 l 0.14596,0.62512 h 0.72978 l 0.14595,0.62511 h 3.06507 l 0.14596,0.62512 h 1.50821 l 0.14596,0.62512 h 0.0487 l 0.14596,0.62511 h 0.0487 l 0.14595,0.62512 h 0.77843 l 0.14596,0.62511 h 0.77843 l 0.19461,1.25024 h 0.63248 l 0.1946,1.25023 h 0.14596 l 0.14595,0.62512 h 0.0487 l 0.1946,1.25023 h 0.87574 l 0.14596,0.62511 h 1.36225 l 0.19461,1.25024 h 1.55686 l 0.14596,0.62511 h 1.26495 l 0.14595,0.62512 h 1.119 l 0.14596,0.62512 h 4.57328 l 0.14596,0.62511 h 1.36225 l 0.14596,0.62512 h 1.50821 l 0.14595,0.62511 h 5.30307 l 0.14595,0.62512 h 2.14069 l 0.14596,0.62512 h 0.53517 l 0.14595,0.62511 h 0.63248 l 0.14595,0.62512 h 0.14596 l 0.14596,0.62512 h 12.4549 l 0.14595,0.62511 h 0.92439 l 0.14596,0.62512 h 1.84877 l 0.14596,0.62511 h 0.82708 l 0.14596,0.62512 h 2.18934 l 0.14595,0.62512 h 1.02169 l 0.14596,0.62511 h 0.34056 l 0.14596,0.62512 h 0.19461 l 0.14595,0.62512 h 2.91912 l 0.14596,0.62511 h 0.48652 l 0.14595,0.62512 h 2.67586 l 0.14595,0.62512 h 3.21103 l 0.14596,0.62511 h 1.70282 l 0.14595,0.62512 h 1.36226 l 0.14596,0.62511 h 2.43259 l 0.14596,0.62512 h 0.77843 l 0.14596,0.62512 h 0.34056 l 0.14596,0.62511 h 0.53517 l 0.14595,0.62512 h 0.87574 l 0.14596,0.62512 h 0.63247 l 0.19461,1.25023 h 2.4326 l 0.14595,0.62511 h 0.68113 l 0.24326,1.87535 h 0.34056 l 0.14596,0.62512 h 0.43787 l 0.14595,0.62512 h 1.119 l 0.14595,0.62511 h 3.69755 l 0.14596,0.62512 h 0.24326 l 0.14595,0.62511 h 1.84878 l 0.14596,0.62512 h 0.1946 l 0.14596,0.62512 h 0.97304 l 0.14596,0.62511 h 0.38921 l 0.14596,0.62512 h 0.14595 l 0.19461,1.25023 h 0.82708 l 0.14596,0.62512 h 1.07034 l 0.14596,0.62511 h 0.29191 l 0.14596,0.62512 h 2.09203 l 0.14596,0.62512 h 1.02169 l 0.14595,0.62511 h 2.77317 l 0.14595,0.62512 h 6.2761 l 0.14596,0.62512 h 2.09203 l 0.14596,0.62511 h 0.48652 l 0.14596,0.62512 h 0.1946 l 0.14596,0.62511 h 0.14595 l 0.14596,0.62512 h 1.07034 l 0.14596,0.62512 h 0.34056 l 0.14596,0.62511 h 2.14069 l 0.1946,1.25024 h 0.53518 l 0.14595,0.62511 h 0.38922 l 0.14595,0.62512 h 1.65417 l 0.14596,0.62512 h 7.20049 l 0.14595,0.62511 h 0.24326 l 0.14596,0.62512 h 1.60551 l 0.14596,0.62511 h 1.3136 l 0.14596,0.62512 h 1.94608 l 0.14595,0.62512 h 1.16765 l 0.14595,0.62511 h 0.43787 l 0.14596,0.62512 h 0.19461 l 0.14595,0.62512 h 6.2761 l 0.14596,0.62511 h 1.89743 l 0.14595,0.62512 h 4.8652 l 0.14596,0.62511 h 1.07034 l 0.19461,1.25024 h 0.0973 l 0.14596,0.62511 h 0.29191 l 0.14595,0.62512 h 1.41091 l 0.14596,0.62512 h 1.11899 l 0.14596,0.62511 h 0.68112 l 0.14596,0.62512 h 0.77843 l 0.19461,1.25023 h 7.3951 l 0.14596,0.62512 h 1.60551 l 0.14595,0.62511 h 0.34057 l 0.14595,0.62512 h 0.77844 l 0.14595,0.62512 h 3.25968 l 0.19461,1.25023 h 1.55686 l 0.14596,0.62512 h 1.36225 l 0.14596,0.62511 h 1.45956 l 0.14596,0.62512 h 0.0973 l 0.24326,1.87535 h 2.4326 l 0.14595,0.62511 h 1.94608 l 0.14596,0.62512 h 0.34056 l 0.14596,0.62512 h 0.0973 l 0.14596,0.62511 h 2.96777 l 0.14595,0.62512 h 2.52991 l 0.14595,0.62511 h 2.62721 l 0.14595,0.62512 h 0.14596 l 0.14595,0.62512 h 0.68113 l 0.14596,0.62511 h 0.24326 l 0.14595,0.62512 h 0.24326 l 0.14596,0.62512 h 3.60024 l 0.14596,0.62511 h 0.68113 l 0.14595,0.62512 h 1.94608 l 0.14596,0.62511 h 0.14595 l 0.14596,0.62512 h 1.16765 l 0.14595,0.62512 h 0.92439 l 0.14596,0.62511 h 1.02169 l 0.14595,0.62512 h 2.38395 l 0.14595,0.62512 h 1.84878 l 0.14596,0.62511 h 0.38921 l 0.24326,1.87535 h 0.43787 l 0.14595,0.62512 h 0.38922 l 0.24326,1.87535 h 0.43787 l 0.19461,1.25023 h 0.34056 l 0.14596,0.62511 h 0.1946 l 0.14596,0.62512 h 0.0487 l 0.19461,1.25023 h 0.34056 l 0.14596,0.62512 h 0.38921 l 0.14596,0.62512 h 1.26495 l 0.14596,0.62511 h 0.43786 l 0.14596,0.62512 h 1.26495 l 3.98946,51.25953 v 0"
       style="fill:none;stroke:#1f77b4;stroke-width:1.5;stroke-linecap:square;stroke-linejoin:round;stroke-miterlimit:10;stroke-dasharray:none;stroke-opacity:1"
       transform="matrix(1.3333333,0,0,-1.3333333,0,434.641)"
       clip-path="url(#clipPath55)" />
    <path
       id="path56"
       d="m 63.182727,49.63975 h 0.875736 l 0.145955,0.625116 h 1.167648 l 0.194607,1.250233 h 1.362255 l 0.145956,0.625116 h 0.0973 l 0.194608,1.250233 h 0.535172 l 0.145956,0.625116 h 1.654166 l 0.145956,0.625116 H 72.5239 l 0.145956,0.625117 h 6.178799 l 0.194608,1.250232 h 0.583824 l 0.145955,0.625116 h 0.778432 l 0.194608,1.250233 h 0.729779 l 0.145956,0.625116 h 0.291912 l 0.194608,1.250233 h 0.145956 l 0.145955,0.625116 h 0.48652 l 0.145956,0.625116 h 0.04865 l 0.145956,0.625117 h 0.194608 l 0.145956,0.625116 h 0.194607 l 0.145956,0.625116 h 0.875736 l 0.145955,0.625116 h 0.48652 l 0.145956,0.625117 h 0.535172 l 0.145955,0.625116 h 0.145956 l 0.145956,0.625116 h 1.800123 l 0.145956,0.625117 h 0.535171 l 0.145956,0.625116 h 0.535172 l 0.145956,0.625116 h 1.264951 l 0.145956,0.625116 h 1.070343 l 0.145956,0.625117 h 0.486519 l 0.145956,0.625116 h 1.848775 l 0.145956,0.625116 h 0.875735 l 0.145956,0.625116 h 0.0973 l 0.145956,0.625117 h 0.875735 l 0.24326,1.875349 h 0.24326 l 0.145956,0.625116 h 1.946078 l 0.194605,1.250232 h 0.14596 l 0.14596,0.625117 h 1.5082 l 0.14596,0.625116 h 0.0973 l 0.14596,0.625116 h 0.34057 l 0.14595,0.625117 h 1.84878 l 0.14595,0.625116 h 1.02169 l 0.14596,0.625116 h 1.84877 l 0.14596,0.625116 h 0.29191 l 0.14596,0.625117 h 0.0486 l 0.24326,1.875349 h 0.58382 l 0.19461,1.250232 h 4.47598 l 0.14596,0.625116 h 0.58382 l 0.14596,0.625117 h 0.97303 l 0.19461,1.250232 h 0.19461 l 0.19461,1.250233 h 3.01642 l 0.14596,0.625116 h 0.29191 l 0.14595,0.625116 h 0.72978 l 0.14596,0.625117 h 2.4326 l 0.19461,1.250232 h 1.94607 l 0.14596,0.625116 h 0.38922 l 0.14595,0.625117 h 1.45956 l 0.19461,1.250232 h 0.38921 l 0.19461,1.250233 h 0.0487 l 0.14596,0.625116 h 0.14595 l 0.14596,0.625116 h 0.43787 l 0.14595,0.625117 h 0.29192 l 0.14595,0.625116 h 0.24326 l 0.14596,0.625116 h 0.0973 l 0.14596,0.625116 h 0.58382 l 0.14596,0.625117 h 2.6272 l 0.14596,0.625116 h 1.2163 l 0.14595,0.625116 h 0.24326 l 0.24326,1.875348 h 0.53517 l 0.14596,0.62512 h 0.72978 l 0.14596,0.62511 h 0.0973 l 0.14596,0.62512 h 0.14595 l 0.19461,1.25023 h 0.68113 l 0.14595,0.62512 h 0.97304 l 0.14596,0.62512 h 0.34056 l 0.24326,1.87534 h 0.0486 l 0.14596,0.62512 h 0.29191 l 0.14596,0.62512 h 0.0973 l 0.14596,0.62511 h 0.0487 l 0.19461,1.25024 h 0.82708 l 0.14596,0.62511 h 0.43786 l 0.14596,0.62512 h 0.0486 l 0.14596,0.62511 h 0.14595 l 0.19461,1.25024 h 2.09204 l 0.14595,0.62511 h 0.34056 l 0.14596,0.62512 h 0.34056 l 0.14596,0.62512 h 0.0487 l 0.19461,1.25023 h 1.119 l 0.14595,0.62511 h 0.43787 l 0.14595,0.62512 h 0.38922 l 0.14596,0.62512 h 1.07034 l 0.14596,0.62511 h 0.0486 l 0.14595,0.62512 h 0.97304 l 0.14596,0.62512 h 0.14595 l 0.14596,0.62511 h 0.38922 l 0.14595,0.62512 h 0.53517 l 0.14596,0.62511 h 2.82181 l 0.19461,1.25024 h 0.14596 l 0.14595,0.62511 h 1.31361 l 0.14595,0.62512 h 0.0487 l 0.14596,0.62512 h 1.41091 l 0.14595,0.62511 h 0.53517 l 0.14596,0.62512 h 0.34056 l 0.14596,0.62512 h 0.48652 l 0.14595,0.62511 h 0.29192 l 0.14595,0.62512 h 0.0973 l 0.14595,0.62511 h 0.38922 l 0.14595,0.62512 h 1.2163 l 0.14596,0.62512 h 1.07034 l 0.14596,0.62511 h 0.38921 l 0.14596,0.62512 h 1.02169 l 0.14596,0.62511 h 0.72978 l 0.14595,0.62512 h 1.3136 l 0.14596,0.62512 h 1.3136 l 0.14596,0.62511 h 0.68113 l 0.1946,1.25024 h 0.92439 l 0.14596,0.62511 h 0.0487 l 0.14596,0.62512 h 0.43786 l 0.14596,0.62511 h 0.38922 l 0.24325,1.87535 h 1.99474 l 0.14595,0.62512 h 1.2163 l 0.14596,0.62512 h 0.87573 l 0.14596,0.62511 h 0.24326 l 0.19461,1.25024 h 0.63247 l 0.14596,0.62511 h 0.72978 l 0.14595,0.62512 h 0.87574 l 0.14595,0.62511 h 1.119 l 0.14595,0.62512 h 0.24326 l 0.19461,1.25023 h 2.28664 l 0.14596,0.62512 h 0.68113 l 0.14595,0.62512 h 1.60552 l 0.14595,0.62511 h 0.34057 l 0.19461,1.25023 h 1.16764 l 0.14596,0.62512 h 2.4326 l 0.14595,0.62512 h 0.82709 l 0.1946,1.25023 h 0.24326 l 0.14596,0.62512 h 0.34056 l 0.14596,0.62511 h 0.0973 l 0.19461,1.25023 h 0.0487 l 0.14596,0.62512 h 1.2163 l 0.14595,0.62512 h 2.57856 l 0.24326,1.87535 h 2.23799 l 0.14595,0.62511 h 0.24326 l 0.19461,1.25023 h 1.84878 l 0.14595,0.62512 h 0.0973 l 0.14595,0.62512 h 0.48652 l 0.14596,0.62511 h 3.01642 l 0.14595,0.62512 h 2.04339 l 0.14595,0.62512 h 2.96777 l 0.19461,1.25023 h 0.38922 l 0.1946,1.25023 h 1.89743 l 0.14596,0.62512 h 0.1946 l 0.14596,0.62511 h 2.4326 l 0.14595,0.62512 h 0.38922 l 0.14596,0.62512 h 3.55159 l 0.14595,0.62511 h 0.68113 l 0.24326,1.87535 h 0.29191 l 0.14596,0.62512 h 0.48652 l 0.14596,0.62511 h 1.60551 l 0.14596,0.62512 h 0.63247 l 0.14596,0.62512 h 0.53517 l 0.14595,0.62511 h 1.07035 l 0.14595,0.62512 h 3.50295 l 0.14595,0.62512 h 0.0973 l 0.14595,0.62511 h 1.07034 l 0.14596,0.62512 h 0.0487 l 0.14596,0.62511 h 0.72978 l 0.14595,0.62512 h 0.43787 l 0.14596,0.62512 h 0.48652 l 0.1946,1.25023 h 0.14596 l 0.14596,0.62512 h 2.67585 l 0.14596,0.62511 h 1.41091 l 0.14595,0.62512 h 3.69755 l 0.14596,0.62511 h 0.92439 l 0.14595,0.62512 h 0.14596 l 0.14595,0.62512 h 0.38922 l 0.14595,0.62511 h 2.48125 l 0.14596,0.62512 h 1.50821 l 0.14596,0.62512 h 0.14595 l 0.14596,0.62511 h 0.63247 l 0.14596,0.62512 h 4.91385 l 0.19461,1.25023 h 0.14595 l 0.24326,1.87535 h 0.48652 l 0.14596,0.62512 h 0.0973 l 0.19461,1.25023 h 0.38921 l 0.19461,1.25023 h 1.55687 l 0.14595,0.62512 h 0.0973 l 0.14595,0.62511 h 0.24326 l 0.14596,0.62512 h 0.24326 l 0.1946,1.25023 h 0.38922 l 0.19461,1.25024 h 0.0487 l 0.14596,0.62511 h 0.14595 l 0.14596,0.62512 h 0.43787 l 0.14595,0.62511 h 0.43787 l 0.14595,0.62512 h 0.29192 l 0.14595,0.62512 h 0.0487 l 0.14596,0.62511 h 0.29191 l 0.14596,0.62512 h 0.19461 l 0.14595,0.62512 h 1.2163 l 0.14596,0.62511 h 0.63247 l 0.14596,0.62512 h 1.36225 l 0.14596,0.62511 h 1.50821 l 0.14596,0.62512 h 0.14595 l 0.14596,0.62512 h 1.36225 l 0.14596,0.62511 h 0.43787 l 0.14595,0.62512 h 0.14596 l 0.14595,0.62512 h 2.04339 l 0.1946,1.25023 h 0.19461 l 0.19461,1.25023 h 1.99473 l 0.14596,0.62512 h 0.14595 l 0.14596,0.62511 h 0.34056 l 0.14596,0.62512 h 0.58382 l 0.19461,1.25023 h 0.43787 l 0.14595,0.62512 h 1.50821 l 0.14596,0.62512 h 1.3136 l 0.19461,1.25023 h 0.77843 l 0.14596,0.62511 h 0.58382 l 0.14596,0.62512 h 0.24326 l 0.14595,0.62512 h 0.29191 l 0.14596,0.62511 h 1.75147 l 0.14596,0.62512 h 0.14595 l 0.19461,1.25023 h 0.48652 l 0.14596,0.62512 h 0.0487 l 0.14595,0.62511 h 2.96777 l 0.14596,0.62512 h 1.02169 l 0.19461,1.25023 h 1.45956 l 0.14595,0.62512 h 0.34057 l 0.14595,0.62512 h 0.63248 l 0.14595,0.62511 h 5.54633 l 0.14595,0.62512 h 0.34057 l 0.14595,0.62511 h 1.07035 l 0.1946,1.25024 h 0.0487 l 0.14595,0.62511 h 0.38922 l 0.19461,1.25024 h 2.57855 l 0.14596,0.62511 h 1.70281 l 0.14596,0.62512 h 0.0487 l 0.14596,0.62511 h 0.77843 l 0.14596,0.62512 h 1.26495 l 0.24326,1.87535 h 0.24326 l 0.14595,0.62512 h 0.53517 l 0.14596,0.62511 h 1.84877 l 0.14596,0.62512 h 0.24326 l 0.14596,0.62511 h 1.55686 l 0.14595,0.62512 h 0.38922 l 0.14596,0.62512 h 0.97303 l 0.14596,0.62511 h 0.24326 l 0.14596,0.62512 h 1.65416 l 0.14596,0.62512 h 1.80012 l 0.14596,0.62511 h 0.92438 l 0.19461,1.25023 h 0.68113 l 0.14596,0.62512 h 0.48652 l 0.14595,0.62512 h 0.92439 l 0.19461,1.25023 h 0.72978 l 0.14595,0.62512 h 0.0973 l 0.14595,0.62511 h 0.48652 l 0.14596,0.62512 h 0.14595 l 0.24326,1.87535 h 1.0217 l 0.14595,0.62511 h 0.0973 l 0.14595,0.62512 h 1.80012 l 0.14596,0.62512 h 0.0487 l 0.14596,0.62511 h 2.14068 l 0.14596,0.62512 h 1.55686 l 0.14596,0.62512 h 0.19461 l 0.14595,0.62511 h 0.19461 l 0.14595,0.62512 h 0.58383 l 0.14595,0.62511 h 1.36226 l 0.14595,0.62512 h 1.16765 l 0.19461,1.25023 h 0.48652 l 0.19461,1.25024 h 1.50821 l 0.24326,1.87534 h 0.63247 l 0.14596,0.62512 h 0.68113 l 0.14595,0.62512 h 0.38922 l 0.14595,0.62511 h 0.0487 l 0.14595,0.62512 h 0.72978 l 0.19461,1.25023 h 1.26495 l 0.14596,0.62512 h 0.82708 l 0.14596,0.62512 h 0.14595 l 0.14596,0.62511 h 0.48652 l 0.14595,0.62512 h 0.24326 l 0.14596,0.62511 h 2.18934 l 0.14595,0.62512 h 0.14596 l 0.19461,1.25023 h 1.84877 l 0.19461,1.25023 h 0.48652 l 0.14595,0.62512 h 1.36226 l 0.14596,0.62512 h 0.97303 l 0.14596,0.62511 h 0.43787 l 0.14595,0.62512 h 0.58383 l 0.14595,0.62512 h 0.0973 l 0.19461,1.25023 h 0.87573 l 0.14596,0.62511 h 1.3136 l 0.14596,0.62512 h 1.36225 l 0.14596,0.62512 h 1.94607 l 0.14596,0.62511 h 1.75147 l 0.14596,0.62512 h 0.72978 l 0.14595,0.62512 h 0.97304 l 0.14596,0.62511 h 0.0973 l 0.14596,0.62512 h 2.33529 l 0.19461,1.25023 h 0.0487 l 0.14596,0.62512 h 0.72978 l 0.14595,0.62511 h 0.14596 l 0.14596,0.62512 h 0.87573 l 0.14596,0.62512 h 0.97304 l 0.14595,0.62511 h 0.38922 l 0.1946,1.25024 h 0.14596 l 0.14596,0.62511 h 0.0487 l 0.14595,0.62512 h 0.24326 l 0.19461,1.25023 h 0.19461 l 0.14596,0.62512 h 1.36225 l 0.14596,0.62511 h 0.24326 l 0.14595,0.62512 h 0.48652 l 0.14596,0.62512 h 1.07034 l 0.14596,0.62511 h 0.63247 l 0.14596,0.62512 h 0.63247 l 0.14596,0.62512 h 1.50821 l 0.14596,0.62511 h 0.58382 l 0.14596,0.62512 h 0.38921 l 0.19461,1.25023 h 0.82708 v 0"
       style="fill:none;stroke:#ff7f0e;stroke-width:1.5;stroke-linecap:square;stroke-linejoin:round;stroke-miterlimit:10;stroke-dasharray:none;stroke-opacity:1"
       transform="matrix(1.3333333,0,0,-1.3333333,0,434.641)"
       clip-path="url(#clipPath57)" />
    <path
       id="path58"
       d="m 46.95,37.54375 v 266.112"
       style="fill:none;stroke:#000000;stroke-width:0.8;stroke-linecap:square;stroke-linejoin:miter;stroke-miterlimit:10;stroke-dasharray:none;stroke-opacity:1"
       transform="matrix(1.3333333,0,0,-1.3333333,0,434.641)" />
    <path
       id="path59"
       d="m 404.07,37.54375 v 266.112"
       style="fill:none;stroke:#000000;stroke-width:0.8;stroke-linecap:square;stroke-linejoin:miter;stroke-miterlimit:10;stroke-dasharray:none;stroke-opacity:1"
       transform="matrix(1.3333333,0,0,-1.3333333,0,434.641)" />
    <path
       id="path60"
       d="M 46.95,37.54375 H 404.07"
       style="fill:none;stroke:#000000;stroke-width:0.8;stroke-linecap:square;stroke-linejoin:miter;stroke-miterlimit:10;stroke-dasharray:none;stroke-opacity:1"
       transform="matrix(1.3333333,0,0,-1.3333333,0,434.641)" />
    <path
       id="path61"
       d="M 46.95,303.65575 H 404.07"
       style="fill:none;stroke:#000000;stroke-width:0.8;stroke-linecap:square;stroke-linejoin:miter;stroke-miterlimit:10;stroke-dasharray:none;stroke-opacity:1"
       transform="matrix(1.3333333,0,0,-1.3333333,0,434.641)" />
    <text
       id="text61"
       xml:space="preserve"
       transform="matrix(1.3333333,0,0,1.3333333,169.39875,21.766667)"><tspan
         id="tspan61"
         style="font-variant:normal;font-weight:normal;font-size:12px;font-family:'DejaVu Sans';writing-mode:lr-tb;fill:#000000;fill-opacity:1;fill-rule:nonzero;stroke:none"
         x="0"
         dx="0 0 -0.359375"
         y="0">IR: 16, minorities in dataset: 387</tspan></text>
    <path
       id="path62"
       d="m 53.95,266.312 h 115.67187 c 1.33334,0 2,0.66667 2,2 v 28.34375 c 0,1.33333 -0.66666,2 -2,2 H 53.95 c -1.333333,0 -2,-0.66667 -2,-2 V 268.312 c 0,-1.33333 0.666667,-2 2,-2 z"
       style="fill:#ffffff;fill-opacity:0.8;fill-rule:nonzero;stroke:#cccccc;stroke-width:1;stroke-linecap:butt;stroke-linejoin:miter;stroke-miterlimit:10;stroke-dasharray:none;stroke-opacity:0.8"
       transform="matrix(1.3333333,0,0,-1.3333333,0,434.641)" />
    <path
       id="path63"
       d="m 55.95,290.562 h 10 10"
       style="fill:none;stroke:#1f77b4;stroke-width:1.5;stroke-linecap:square;stroke-linejoin:round;stroke-miterlimit:10;stroke-dasharray:none;stroke-opacity:1"
       transform="matrix(1.3333333,0,0,-1.3333333,0,434.641)" />
    <text
       id="text63"
       xml:space="preserve"
       transform="matrix(1.3333333,0,0,1.3333333,111.93333,51.891667)"><tspan
         id="tspan63"
         style="font-variant:normal;font-weight:normal;font-size:10px;font-family:'DejaVu Sans';writing-mode:lr-tb;fill:#000000;fill-opacity:1;fill-rule:nonzero;stroke:none"
         x="0"
         dx="0 -0.171875 0 0 0 0 0 0 -0.171875 0 0 -0.171875"
         y="0">Active Learning</tspan></text>
    <path
       id="path64"
       d="m 55.95,275.89012 h 10 10"
       style="fill:none;stroke:#ff7f0e;stroke-width:1.5;stroke-linecap:square;stroke-linejoin:round;stroke-miterlimit:10;stroke-dasharray:none;stroke-opacity:1"
       transform="matrix(1.3333333,0,0,-1.3333333,0,434.641)" />
    <text
       id="text64"
       xml:space="preserve"
       transform="matrix(1.3333333,0,0,1.3333333,111.93333,71.454167)"><tspan
         id="tspan64"
         style="font-variant:normal;font-weight:normal;font-size:10px;font-family:'DejaVu Sans';writing-mode:lr-tb;fill:#000000;fill-opacity:1;fill-rule:nonzero;stroke:none"
         x="0"
         dx="0 -0.4375 0 0 0 0 0 0 0 -0.171875 0 0 -0.171875"
         y="0">Passive Learning</tspan></text>
  </g>
</svg>
