<?xml version="1.0" encoding="UTF-8" standalone="no"?>
<!-- Created with Inkscape (http://www.inkscape.org/) -->

<svg
   version="1.1"
   id="svg1"
   width="548.35999"
   height="434.64099"
   viewBox="0 0 548.35999 434.64099"
   xmlns="http://www.w3.org/2000/svg"
   xmlns:svg="http://www.w3.org/2000/svg">
  <defs
     id="defs1">
    <clipPath
       clipPathUnits="userSpaceOnUse"
       id="clipPath4">
      <path
         d="m 46.95,37.54375 h 357.12 v 266.112 H 46.95 Z"
         id="path4" />
    </clipPath>
    <clipPath
       clipPathUnits="userSpaceOnUse"
       id="clipPath7">
      <path
         d="m 46.95,37.54375 h 357.12 v 266.112 H 46.95 Z"
         id="path7" />
    </clipPath>
    <clipPath
       clipPathUnits="userSpaceOnUse"
       id="clipPath10">
      <path
         d="m 46.95,37.54375 h 357.12 v 266.112 H 46.95 Z"
         id="path10" />
    </clipPath>
    <clipPath
       clipPathUnits="userSpaceOnUse"
       id="clipPath13">
      <path
         d="m 46.95,37.54375 h 357.12 v 266.112 H 46.95 Z"
         id="path13" />
    </clipPath>
    <clipPath
       clipPathUnits="userSpaceOnUse"
       id="clipPath16">
      <path
         d="m 46.95,37.54375 h 357.12 v 266.112 H 46.95 Z"
         id="path16" />
    </clipPath>
    <clipPath
       clipPathUnits="userSpaceOnUse"
       id="clipPath19">
      <path
         d="m 46.95,37.54375 h 357.12 v 266.112 H 46.95 Z"
         id="path19" />
    </clipPath>
    <clipPath
       clipPathUnits="userSpaceOnUse"
       id="clipPath22">
      <path
         d="m 46.95,37.54375 h 357.12 v 266.112 H 46.95 Z"
         id="path22" />
    </clipPath>
    <clipPath
       clipPathUnits="userSpaceOnUse"
       id="clipPath25">
      <path
         d="m 46.95,37.54375 h 357.12 v 266.112 H 46.95 Z"
         id="path25" />
    </clipPath>
    <clipPath
       clipPathUnits="userSpaceOnUse"
       id="clipPath28">
      <path
         d="m 46.95,37.54375 h 357.12 v 266.112 H 46.95 Z"
         id="path28" />
    </clipPath>
    <clipPath
       clipPathUnits="userSpaceOnUse"
       id="clipPath31">
      <path
         d="m 46.95,37.54375 h 357.12 v 266.112 H 46.95 Z"
         id="path31" />
    </clipPath>
    <clipPath
       clipPathUnits="userSpaceOnUse"
       id="clipPath34">
      <path
         d="m 46.95,37.54375 h 357.12 v 266.112 H 46.95 Z"
         id="path34" />
    </clipPath>
    <clipPath
       clipPathUnits="userSpaceOnUse"
       id="clipPath37">
      <path
         d="m 46.95,37.54375 h 357.12 v 266.112 H 46.95 Z"
         id="path37" />
    </clipPath>
    <clipPath
       clipPathUnits="userSpaceOnUse"
       id="clipPath40">
      <path
         d="m 46.95,37.54375 h 357.12 v 266.112 H 46.95 Z"
         id="path40" />
    </clipPath>
    <clipPath
       clipPathUnits="userSpaceOnUse"
       id="clipPath43">
      <path
         d="m 46.95,37.54375 h 357.12 v 266.112 H 46.95 Z"
         id="path43" />
    </clipPath>
    <clipPath
       clipPathUnits="userSpaceOnUse"
       id="clipPath45">
      <path
         d="m 46.95,37.54375 h 357.12 v 266.112 H 46.95 Z"
         id="path45" />
    </clipPath>
  </defs>
  <g
     id="g1">
    <path
       id="path1"
       d="M 0,0 H 411.27 V 325.98075 H 0 Z"
       style="fill:#ffffff;fill-opacity:1;fill-rule:nonzero;stroke:none"
       transform="matrix(1.3333333,0,0,-1.3333333,0,434.641)" />
    <path
       id="path2"
       d="m 46.95,37.54375 h 357.12 v 266.112 H 46.95 Z"
       style="fill:#ffffff;fill-opacity:1;fill-rule:nonzero;stroke:none"
       transform="matrix(1.3333333,0,0,-1.3333333,0,434.641)" />
    <path
       id="path3"
       d="m 109.37606,37.54375 v 266.112"
       style="fill:none;stroke:#b0b0b0;stroke-width:0.8;stroke-linecap:square;stroke-linejoin:round;stroke-miterlimit:10;stroke-dasharray:none;stroke-opacity:1"
       transform="matrix(1.3333333,0,0,-1.3333333,0,434.641)"
       clip-path="url(#clipPath4)" />
    <path
       id="path5"
       d="m 109.37606,37.54375 v -3.5"
       style="fill:#000000;fill-opacity:1;fill-rule:nonzero;stroke:#000000;stroke-width:0.8;stroke-linecap:butt;stroke-linejoin:round;stroke-miterlimit:10;stroke-dasharray:none;stroke-opacity:1"
       transform="matrix(1.3333333,0,0,-1.3333333,0,434.641)" />
    <text
       id="text5"
       xml:space="preserve"
       transform="matrix(1.3333333,0,0,1.3333333,133.116,404.041)"><tspan
         id="tspan5"
         style="font-variant:normal;font-weight:normal;font-size:10px;font-family:'DejaVu Sans';writing-mode:lr-tb;fill:#000000;fill-opacity:1;fill-rule:nonzero;stroke:none"
         x="0"
         y="0">200</tspan></text>
    <path
       id="path6"
       d="m 174.43709,37.54375 v 266.112"
       style="fill:none;stroke:#b0b0b0;stroke-width:0.8;stroke-linecap:square;stroke-linejoin:round;stroke-miterlimit:10;stroke-dasharray:none;stroke-opacity:1"
       transform="matrix(1.3333333,0,0,-1.3333333,0,434.641)"
       clip-path="url(#clipPath7)" />
    <path
       id="path8"
       d="m 174.43709,37.54375 v -3.5"
       style="fill:#000000;fill-opacity:1;fill-rule:nonzero;stroke:#000000;stroke-width:0.8;stroke-linecap:butt;stroke-linejoin:round;stroke-miterlimit:10;stroke-dasharray:none;stroke-opacity:1"
       transform="matrix(1.3333333,0,0,-1.3333333,0,434.641)" />
    <text
       id="text8"
       xml:space="preserve"
       transform="matrix(1.3333333,0,0,1.3333333,219.86404,404.041)"><tspan
         id="tspan8"
         style="font-variant:normal;font-weight:normal;font-size:10px;font-family:'DejaVu Sans';writing-mode:lr-tb;fill:#000000;fill-opacity:1;fill-rule:nonzero;stroke:none"
         x="0"
         y="0">300</tspan></text>
    <path
       id="path9"
       d="m 239.49812,37.54375 v 266.112"
       style="fill:none;stroke:#b0b0b0;stroke-width:0.8;stroke-linecap:square;stroke-linejoin:round;stroke-miterlimit:10;stroke-dasharray:none;stroke-opacity:1"
       transform="matrix(1.3333333,0,0,-1.3333333,0,434.641)"
       clip-path="url(#clipPath10)" />
    <path
       id="path11"
       d="m 239.49812,37.54375 v -3.5"
       style="fill:#000000;fill-opacity:1;fill-rule:nonzero;stroke:#000000;stroke-width:0.8;stroke-linecap:butt;stroke-linejoin:round;stroke-miterlimit:10;stroke-dasharray:none;stroke-opacity:1"
       transform="matrix(1.3333333,0,0,-1.3333333,0,434.641)" />
    <text
       id="text11"
       xml:space="preserve"
       transform="matrix(1.3333333,0,0,1.3333333,306.61208,404.041)"><tspan
         id="tspan11"
         style="font-variant:normal;font-weight:normal;font-size:10px;font-family:'DejaVu Sans';writing-mode:lr-tb;fill:#000000;fill-opacity:1;fill-rule:nonzero;stroke:none"
         x="0"
         y="0">400</tspan></text>
    <path
       id="path12"
       d="m 304.55915,37.54375 v 266.112"
       style="fill:none;stroke:#b0b0b0;stroke-width:0.8;stroke-linecap:square;stroke-linejoin:round;stroke-miterlimit:10;stroke-dasharray:none;stroke-opacity:1"
       transform="matrix(1.3333333,0,0,-1.3333333,0,434.641)"
       clip-path="url(#clipPath13)" />
    <path
       id="path14"
       d="m 304.55915,37.54375 v -3.5"
       style="fill:#000000;fill-opacity:1;fill-rule:nonzero;stroke:#000000;stroke-width:0.8;stroke-linecap:butt;stroke-linejoin:round;stroke-miterlimit:10;stroke-dasharray:none;stroke-opacity:1"
       transform="matrix(1.3333333,0,0,-1.3333333,0,434.641)" />
    <text
       id="text14"
       xml:space="preserve"
       transform="matrix(1.3333333,0,0,1.3333333,393.36012,404.041)"><tspan
         id="tspan14"
         style="font-variant:normal;font-weight:normal;font-size:10px;font-family:'DejaVu Sans';writing-mode:lr-tb;fill:#000000;fill-opacity:1;fill-rule:nonzero;stroke:none"
         x="0"
         y="0">500</tspan></text>
    <path
       id="path15"
       d="m 369.62018,37.54375 v 266.112"
       style="fill:none;stroke:#b0b0b0;stroke-width:0.8;stroke-linecap:square;stroke-linejoin:round;stroke-miterlimit:10;stroke-dasharray:none;stroke-opacity:1"
       transform="matrix(1.3333333,0,0,-1.3333333,0,434.641)"
       clip-path="url(#clipPath16)" />
    <path
       id="path17"
       d="m 369.62018,37.54375 v -3.5"
       style="fill:#000000;fill-opacity:1;fill-rule:nonzero;stroke:#000000;stroke-width:0.8;stroke-linecap:butt;stroke-linejoin:round;stroke-miterlimit:10;stroke-dasharray:none;stroke-opacity:1"
       transform="matrix(1.3333333,0,0,-1.3333333,0,434.641)" />
    <text
       id="text17"
       xml:space="preserve"
       transform="matrix(1.3333333,0,0,1.3333333,480.10816,404.041)"><tspan
         id="tspan17"
         style="font-variant:normal;font-weight:normal;font-size:10px;font-family:'DejaVu Sans';writing-mode:lr-tb;fill:#000000;fill-opacity:1;fill-rule:nonzero;stroke:none"
         x="0"
         y="0">600</tspan></text>
    <text
       id="text18"
       xml:space="preserve"
       transform="matrix(1.3333333,0,0,1.3333333,231.47167,422.27017)"><tspan
         id="tspan18"
         style="font-variant:normal;font-weight:normal;font-size:10px;font-family:'DejaVu Sans';writing-mode:lr-tb;fill:#000000;fill-opacity:1;fill-rule:nonzero;stroke:none"
         x="0"
         y="0">Number of instances</tspan></text>
    <path
       id="path18"
       d="M 46.95,47.948002 H 404.07"
       style="fill:none;stroke:#b0b0b0;stroke-width:0.8;stroke-linecap:square;stroke-linejoin:round;stroke-miterlimit:10;stroke-dasharray:none;stroke-opacity:1"
       transform="matrix(1.3333333,0,0,-1.3333333,0,434.641)"
       clip-path="url(#clipPath19)" />
    <path
       id="path20"
       d="m 46.95,47.948002 h -3.5"
       style="fill:#000000;fill-opacity:1;fill-rule:nonzero;stroke:#000000;stroke-width:0.8;stroke-linecap:butt;stroke-linejoin:round;stroke-miterlimit:10;stroke-dasharray:none;stroke-opacity:1"
       transform="matrix(1.3333333,0,0,-1.3333333,0,434.641)" />
    <text
       id="text20"
       xml:space="preserve"
       transform="matrix(1.3333333,0,0,1.3333333,44.7875,375.77283)"><tspan
         id="tspan20"
         style="font-variant:normal;font-weight:normal;font-size:10px;font-family:'DejaVu Sans';writing-mode:lr-tb;fill:#000000;fill-opacity:1;fill-rule:nonzero;stroke:none"
         x="0"
         y="0">0</tspan></text>
    <path
       id="path21"
       d="M 46.95,81.782967 H 404.07"
       style="fill:none;stroke:#b0b0b0;stroke-width:0.8;stroke-linecap:square;stroke-linejoin:round;stroke-miterlimit:10;stroke-dasharray:none;stroke-opacity:1"
       transform="matrix(1.3333333,0,0,-1.3333333,0,434.641)"
       clip-path="url(#clipPath22)" />
    <path
       id="path23"
       d="m 46.95,81.782967 h -3.5"
       style="fill:#000000;fill-opacity:1;fill-rule:nonzero;stroke:#000000;stroke-width:0.8;stroke-linecap:butt;stroke-linejoin:round;stroke-miterlimit:10;stroke-dasharray:none;stroke-opacity:1"
       transform="matrix(1.3333333,0,0,-1.3333333,0,434.641)" />
    <text
       id="text23"
       xml:space="preserve"
       transform="matrix(1.3333333,0,0,1.3333333,36.308333,330.65954)"><tspan
         id="tspan23"
         style="font-variant:normal;font-weight:normal;font-size:10px;font-family:'DejaVu Sans';writing-mode:lr-tb;fill:#000000;fill-opacity:1;fill-rule:nonzero;stroke:none"
         x="0"
         y="0">20</tspan></text>
    <path
       id="path24"
       d="M 46.95,115.61793 H 404.07"
       style="fill:none;stroke:#b0b0b0;stroke-width:0.8;stroke-linecap:square;stroke-linejoin:round;stroke-miterlimit:10;stroke-dasharray:none;stroke-opacity:1"
       transform="matrix(1.3333333,0,0,-1.3333333,0,434.641)"
       clip-path="url(#clipPath25)" />
    <path
       id="path26"
       d="m 46.95,115.61793 h -3.5"
       style="fill:#000000;fill-opacity:1;fill-rule:nonzero;stroke:#000000;stroke-width:0.8;stroke-linecap:butt;stroke-linejoin:round;stroke-miterlimit:10;stroke-dasharray:none;stroke-opacity:1"
       transform="matrix(1.3333333,0,0,-1.3333333,0,434.641)" />
    <text
       id="text26"
       xml:space="preserve"
       transform="matrix(1.3333333,0,0,1.3333333,36.308333,285.54626)"><tspan
         id="tspan26"
         style="font-variant:normal;font-weight:normal;font-size:10px;font-family:'DejaVu Sans';writing-mode:lr-tb;fill:#000000;fill-opacity:1;fill-rule:nonzero;stroke:none"
         x="0"
         y="0">40</tspan></text>
    <path
       id="path27"
       d="M 46.95,149.4529 H 404.07"
       style="fill:none;stroke:#b0b0b0;stroke-width:0.8;stroke-linecap:square;stroke-linejoin:round;stroke-miterlimit:10;stroke-dasharray:none;stroke-opacity:1"
       transform="matrix(1.3333333,0,0,-1.3333333,0,434.641)"
       clip-path="url(#clipPath28)" />
    <path
       id="path29"
       d="m 46.95,149.4529 h -3.5"
       style="fill:#000000;fill-opacity:1;fill-rule:nonzero;stroke:#000000;stroke-width:0.8;stroke-linecap:butt;stroke-linejoin:round;stroke-miterlimit:10;stroke-dasharray:none;stroke-opacity:1"
       transform="matrix(1.3333333,0,0,-1.3333333,0,434.641)" />
    <text
       id="text29"
       xml:space="preserve"
       transform="matrix(1.3333333,0,0,1.3333333,36.308333,240.43297)"><tspan
         id="tspan29"
         style="font-variant:normal;font-weight:normal;font-size:10px;font-family:'DejaVu Sans';writing-mode:lr-tb;fill:#000000;fill-opacity:1;fill-rule:nonzero;stroke:none"
         x="0"
         y="0">60</tspan></text>
    <path
       id="path30"
       d="M 46.95,183.28786 H 404.07"
       style="fill:none;stroke:#b0b0b0;stroke-width:0.8;stroke-linecap:square;stroke-linejoin:round;stroke-miterlimit:10;stroke-dasharray:none;stroke-opacity:1"
       transform="matrix(1.3333333,0,0,-1.3333333,0,434.641)"
       clip-path="url(#clipPath31)" />
    <path
       id="path32"
       d="m 46.95,183.28786 h -3.5"
       style="fill:#000000;fill-opacity:1;fill-rule:nonzero;stroke:#000000;stroke-width:0.8;stroke-linecap:butt;stroke-linejoin:round;stroke-miterlimit:10;stroke-dasharray:none;stroke-opacity:1"
       transform="matrix(1.3333333,0,0,-1.3333333,0,434.641)" />
    <text
       id="text32"
       xml:space="preserve"
       transform="matrix(1.3333333,0,0,1.3333333,36.308333,195.31968)"><tspan
         id="tspan32"
         style="font-variant:normal;font-weight:normal;font-size:10px;font-family:'DejaVu Sans';writing-mode:lr-tb;fill:#000000;fill-opacity:1;fill-rule:nonzero;stroke:none"
         x="0"
         y="0">80</tspan></text>
    <path
       id="path33"
       d="M 46.95,217.12283 H 404.07"
       style="fill:none;stroke:#b0b0b0;stroke-width:0.8;stroke-linecap:square;stroke-linejoin:round;stroke-miterlimit:10;stroke-dasharray:none;stroke-opacity:1"
       transform="matrix(1.3333333,0,0,-1.3333333,0,434.641)"
       clip-path="url(#clipPath34)" />
    <path
       id="path35"
       d="m 46.95,217.12283 h -3.5"
       style="fill:#000000;fill-opacity:1;fill-rule:nonzero;stroke:#000000;stroke-width:0.8;stroke-linecap:butt;stroke-linejoin:round;stroke-miterlimit:10;stroke-dasharray:none;stroke-opacity:1"
       transform="matrix(1.3333333,0,0,-1.3333333,0,434.641)" />
    <text
       id="text35"
       xml:space="preserve"
       transform="matrix(1.3333333,0,0,1.3333333,27.829167,150.2064)"><tspan
         id="tspan35"
         style="font-variant:normal;font-weight:normal;font-size:10px;font-family:'DejaVu Sans';writing-mode:lr-tb;fill:#000000;fill-opacity:1;fill-rule:nonzero;stroke:none"
         x="0"
         y="0">100</tspan></text>
    <path
       id="path36"
       d="M 46.95,250.95779 H 404.07"
       style="fill:none;stroke:#b0b0b0;stroke-width:0.8;stroke-linecap:square;stroke-linejoin:round;stroke-miterlimit:10;stroke-dasharray:none;stroke-opacity:1"
       transform="matrix(1.3333333,0,0,-1.3333333,0,434.641)"
       clip-path="url(#clipPath37)" />
    <path
       id="path38"
       d="m 46.95,250.95779 h -3.5"
       style="fill:#000000;fill-opacity:1;fill-rule:nonzero;stroke:#000000;stroke-width:0.8;stroke-linecap:butt;stroke-linejoin:round;stroke-miterlimit:10;stroke-dasharray:none;stroke-opacity:1"
       transform="matrix(1.3333333,0,0,-1.3333333,0,434.641)" />
    <text
       id="text38"
       xml:space="preserve"
       transform="matrix(1.3333333,0,0,1.3333333,27.829167,105.09311)"><tspan
         id="tspan38"
         style="font-variant:normal;font-weight:normal;font-size:10px;font-family:'DejaVu Sans';writing-mode:lr-tb;fill:#000000;fill-opacity:1;fill-rule:nonzero;stroke:none"
         x="0"
         y="0">120</tspan></text>
    <path
       id="path39"
       d="M 46.95,284.79276 H 404.07"
       style="fill:none;stroke:#b0b0b0;stroke-width:0.8;stroke-linecap:square;stroke-linejoin:round;stroke-miterlimit:10;stroke-dasharray:none;stroke-opacity:1"
       transform="matrix(1.3333333,0,0,-1.3333333,0,434.641)"
       clip-path="url(#clipPath40)" />
    <path
       id="path41"
       d="m 46.95,284.79276 h -3.5"
       style="fill:#000000;fill-opacity:1;fill-rule:nonzero;stroke:#000000;stroke-width:0.8;stroke-linecap:butt;stroke-linejoin:round;stroke-miterlimit:10;stroke-dasharray:none;stroke-opacity:1"
       transform="matrix(1.3333333,0,0,-1.3333333,0,434.641)" />
    <text
       id="text41"
       xml:space="preserve"
       transform="matrix(1.3333333,0,0,1.3333333,27.829167,59.979824)"><tspan
         id="tspan41"
         style="font-variant:normal;font-weight:normal;font-size:10px;font-family:'DejaVu Sans';writing-mode:lr-tb;fill:#000000;fill-opacity:1;fill-rule:nonzero;stroke:none"
         x="0"
         y="0">140</tspan></text>
    <text
       id="text42"
       xml:space="preserve"
       transform="matrix(0,-1.3333333,1.3333333,0,19.725,304.96633)"><tspan
         id="tspan42"
         style="font-variant:normal;font-weight:normal;font-size:10px;font-family:'DejaVu Sans';writing-mode:lr-tb;fill:#000000;fill-opacity:1;fill-rule:nonzero;stroke:none"
         x="0"
         y="0">Minority class instances used</tspan></text>
    <path
       id="path42"
       d="m 63.182727,49.63975 2.602442,6.766993 h 0.65061 l 0.65061,1.691748 h 0.65061 l 1.301221,3.383497 h 1.301221 l 7.807323,20.300979 h 0.650611 l 2.602441,6.766993 h 0.65061 l 0.650611,1.691748 h 0.65061 l 1.301221,3.383497 h 0.65061 l 1.951831,5.075244 h 0.65061 l 1.301221,3.383501 h 0.65061 l 3.903662,10.15049 h 1.951831 l 0.65061,1.69174 h 0.65061 l 0.650611,1.69175 h 0.65061 l 0.65061,1.69175 h 1.301226 l 1.30122,3.3835 h 1.30122 l 0.65061,1.69175 h 0.65061 l 3.90366,10.15048 h 1.30122 l 0.65061,1.69175 h 1.30122 l 0.65061,1.69175 h 2.60244 l 0.65061,1.69175 h 1.95183 l 1.95183,5.07524 h 0.65061 l 1.95184,5.07525 h 0.65061 l 0.65061,1.69175 h 1.95183 l 0.65061,1.69174 h 0.65061 l 5.85549,15.22574 h 2.60244 l 0.65061,1.69175 h 1.95183 l 1.30122,3.38349 h 1.95183 l 0.65061,1.69175 h 3.25306 l 0.65061,1.69175 h 1.30122 l 1.95183,5.07524 h 1.30122 l 0.65061,1.69175 h 0.65061 l 1.95183,5.07525 h 0.65061 l 3.90366,10.15049 h 0.65061 l 3.25305,8.45874 h 0.65061 l 1.30122,3.3835 h 1.95184 l 0.65061,1.69174 h 3.90366 l 0.65061,1.69175 h 1.30122 l 0.65061,1.69175 h 0.65061 l 1.30122,3.3835 h 1.95183 l 1.30122,3.38349 h 1.95183 l 3.25305,8.45874 h 11.06038 l 0.65061,1.69175 h 1.95183 l 0.65061,1.69175 h 0.65061 l 0.65061,1.69175 h 7.80733 l 0.65061,1.69175 h 1.95183 l 0.65061,1.69175 h 6.5061 l 0.65061,1.69174 h 1.30122 l 0.65061,1.69175 h 1.95183 l 0.65061,1.69175 h 3.90366 l 1.95184,5.07524 h 4.55427 l 0.65061,1.69175 h 2.60244 l 0.65061,1.69175 h 0.65061 l 0.65061,1.69175 h 0.65061 l 1.30122,3.3835 h 7.80732 l 0.65062,1.69174 h 6.5061 l 0.65061,1.69175 h 3.25305 l 0.65061,1.69175 h 0.65061 l 0.65061,1.69175 h 2.60244 l 0.65061,1.69175 h 6.50611 l 0.65061,1.69175 h 5.20488 l 0.65061,1.69174 h 0.65061 l 0.65061,1.69175 h 6.5061 l 0.65061,1.69175 h 8.45794 l 0.65061,1.69175 h 1.95183 l 0.65061,1.69175 h 0.65061 l 0.65061,1.69175 h 3.25305 l 0.65061,1.69174 h 4.55427 l 0.65061,1.69175 h 3.25305 l 0.65062,1.69175 h 1.30122 l 0.65061,1.69175 h 6.5061 l 0.65061,1.69175 h 12.3616 l 0.65061,1.69174 h 22.12075 l 0.65061,1.69175 h 11.06037 l 0.65061,1.69175 H 383.283 l 0.65061,1.69175 h 3.90366 v 0"
       style="fill:none;stroke:#1f77b4;stroke-width:1.5;stroke-linecap:square;stroke-linejoin:round;stroke-miterlimit:10;stroke-dasharray:none;stroke-opacity:1"
       transform="matrix(1.3333333,0,0,-1.3333333,0,434.641)"
       clip-path="url(#clipPath43)" />
    <path
       id="path44"
       d="m 63.182727,49.63975 h 23.421971 l 0.650611,1.691748 h 13.012211 l 0.65061,1.691749 h 67.01286 l 0.65061,1.691748 h 33.18112 l 0.65061,1.691748 h 115.80864 l 0.65061,1.691748 h 68.96469 v 0"
       style="fill:none;stroke:#ff7f0e;stroke-width:1.5;stroke-linecap:square;stroke-linejoin:round;stroke-miterlimit:10;stroke-dasharray:none;stroke-opacity:1"
       transform="matrix(1.3333333,0,0,-1.3333333,0,434.641)"
       clip-path="url(#clipPath45)" />
    <path
       id="path46"
       d="m 46.95,37.54375 v 266.112"
       style="fill:none;stroke:#000000;stroke-width:0.8;stroke-linecap:square;stroke-linejoin:miter;stroke-miterlimit:10;stroke-dasharray:none;stroke-opacity:1"
       transform="matrix(1.3333333,0,0,-1.3333333,0,434.641)" />
    <path
       id="path47"
       d="m 404.07,37.54375 v 266.112"
       style="fill:none;stroke:#000000;stroke-width:0.8;stroke-linecap:square;stroke-linejoin:miter;stroke-miterlimit:10;stroke-dasharray:none;stroke-opacity:1"
       transform="matrix(1.3333333,0,0,-1.3333333,0,434.641)" />
    <path
       id="path48"
       d="M 46.95,37.54375 H 404.07"
       style="fill:none;stroke:#000000;stroke-width:0.8;stroke-linecap:square;stroke-linejoin:miter;stroke-miterlimit:10;stroke-dasharray:none;stroke-opacity:1"
       transform="matrix(1.3333333,0,0,-1.3333333,0,434.641)" />
    <path
       id="path49"
       d="M 46.95,303.65575 H 404.07"
       style="fill:none;stroke:#000000;stroke-width:0.8;stroke-linecap:square;stroke-linejoin:miter;stroke-miterlimit:10;stroke-dasharray:none;stroke-opacity:1"
       transform="matrix(1.3333333,0,0,-1.3333333,0,434.641)" />
    <text
       id="text49"
       xml:space="preserve"
       transform="matrix(1.3333333,0,0,1.3333333,164.305,21.766667)"><tspan
         id="tspan49"
         style="font-variant:normal;font-weight:normal;font-size:12px;font-family:'DejaVu Sans';writing-mode:lr-tb;fill:#000000;fill-opacity:1;fill-rule:nonzero;stroke:none"
         x="0"
         dx="0 0 -0.359375"
         y="0">IR: 128, minorities in dataset: 392</tspan></text>
    <path
       id="path50"
       d="m 53.95,266.312 h 115.67187 c 1.33334,0 2,0.66667 2,2 v 28.34375 c 0,1.33333 -0.66666,2 -2,2 H 53.95 c -1.333333,0 -2,-0.66667 -2,-2 V 268.312 c 0,-1.33333 0.666667,-2 2,-2 z"
       style="fill:#ffffff;fill-opacity:0.8;fill-rule:nonzero;stroke:#cccccc;stroke-width:1;stroke-linecap:butt;stroke-linejoin:miter;stroke-miterlimit:10;stroke-dasharray:none;stroke-opacity:0.8"
       transform="matrix(1.3333333,0,0,-1.3333333,0,434.641)" />
    <path
       id="path51"
       d="m 55.95,290.562 h 10 10"
       style="fill:none;stroke:#1f77b4;stroke-width:1.5;stroke-linecap:square;stroke-linejoin:round;stroke-miterlimit:10;stroke-dasharray:none;stroke-opacity:1"
       transform="matrix(1.3333333,0,0,-1.3333333,0,434.641)" />
    <text
       id="text51"
       xml:space="preserve"
       transform="matrix(1.3333333,0,0,1.3333333,111.93333,51.891667)"><tspan
         id="tspan51"
         style="font-variant:normal;font-weight:normal;font-size:10px;font-family:'DejaVu Sans';writing-mode:lr-tb;fill:#000000;fill-opacity:1;fill-rule:nonzero;stroke:none"
         x="0"
         dx="0 -0.171875 0 0 0 0 0 0 -0.171875 0 0 -0.171875"
         y="0">Active Learning</tspan></text>
    <path
       id="path52"
       d="m 55.95,275.89012 h 10 10"
       style="fill:none;stroke:#ff7f0e;stroke-width:1.5;stroke-linecap:square;stroke-linejoin:round;stroke-miterlimit:10;stroke-dasharray:none;stroke-opacity:1"
       transform="matrix(1.3333333,0,0,-1.3333333,0,434.641)" />
    <text
       id="text52"
       xml:space="preserve"
       transform="matrix(1.3333333,0,0,1.3333333,111.93333,71.454167)"><tspan
         id="tspan52"
         style="font-variant:normal;font-weight:normal;font-size:10px;font-family:'DejaVu Sans';writing-mode:lr-tb;fill:#000000;fill-opacity:1;fill-rule:nonzero;stroke:none"
         x="0"
         dx="0 -0.4375 0 0 0 0 0 0 0 -0.171875 0 0 -0.171875"
         y="0">Passive Learning</tspan></text>
  </g>
</svg>
