<?xml version="1.0" encoding="UTF-8" standalone="no"?>
<!-- Created with Inkscape (http://www.inkscape.org/) -->

<svg
   version="1.1"
   id="svg1"
   width="548.35999"
   height="434.64099"
   viewBox="0 0 548.35999 434.64099"
   xmlns="http://www.w3.org/2000/svg"
   xmlns:svg="http://www.w3.org/2000/svg">
  <defs
     id="defs1">
    <clipPath
       clipPathUnits="userSpaceOnUse"
       id="clipPath4">
      <path
         d="m 46.95,37.54375 h 357.12 v 266.112 H 46.95 Z"
         id="path4" />
    </clipPath>
    <clipPath
       clipPathUnits="userSpaceOnUse"
       id="clipPath7">
      <path
         d="m 46.95,37.54375 h 357.12 v 266.112 H 46.95 Z"
         id="path7" />
    </clipPath>
    <clipPath
       clipPathUnits="userSpaceOnUse"
       id="clipPath10">
      <path
         d="m 46.95,37.54375 h 357.12 v 266.112 H 46.95 Z"
         id="path10" />
    </clipPath>
    <clipPath
       clipPathUnits="userSpaceOnUse"
       id="clipPath13">
      <path
         d="m 46.95,37.54375 h 357.12 v 266.112 H 46.95 Z"
         id="path13" />
    </clipPath>
    <clipPath
       clipPathUnits="userSpaceOnUse"
       id="clipPath16">
      <path
         d="m 46.95,37.54375 h 357.12 v 266.112 H 46.95 Z"
         id="path16" />
    </clipPath>
    <clipPath
       clipPathUnits="userSpaceOnUse"
       id="clipPath19">
      <path
         d="m 46.95,37.54375 h 357.12 v 266.112 H 46.95 Z"
         id="path19" />
    </clipPath>
    <clipPath
       clipPathUnits="userSpaceOnUse"
       id="clipPath22">
      <path
         d="m 46.95,37.54375 h 357.12 v 266.112 H 46.95 Z"
         id="path22" />
    </clipPath>
    <clipPath
       clipPathUnits="userSpaceOnUse"
       id="clipPath25">
      <path
         d="m 46.95,37.54375 h 357.12 v 266.112 H 46.95 Z"
         id="path25" />
    </clipPath>
    <clipPath
       clipPathUnits="userSpaceOnUse"
       id="clipPath28">
      <path
         d="m 46.95,37.54375 h 357.12 v 266.112 H 46.95 Z"
         id="path28" />
    </clipPath>
    <clipPath
       clipPathUnits="userSpaceOnUse"
       id="clipPath31">
      <path
         d="m 46.95,37.54375 h 357.12 v 266.112 H 46.95 Z"
         id="path31" />
    </clipPath>
    <clipPath
       clipPathUnits="userSpaceOnUse"
       id="clipPath34">
      <path
         d="m 46.95,37.54375 h 357.12 v 266.112 H 46.95 Z"
         id="path34" />
    </clipPath>
    <clipPath
       clipPathUnits="userSpaceOnUse"
       id="clipPath37">
      <path
         d="m 46.95,37.54375 h 357.12 v 266.112 H 46.95 Z"
         id="path37" />
    </clipPath>
    <clipPath
       clipPathUnits="userSpaceOnUse"
       id="clipPath40">
      <path
         d="m 46.95,37.54375 h 357.12 v 266.112 H 46.95 Z"
         id="path40" />
    </clipPath>
    <clipPath
       clipPathUnits="userSpaceOnUse"
       id="clipPath43">
      <path
         d="m 46.95,37.54375 h 357.12 v 266.112 H 46.95 Z"
         id="path43" />
    </clipPath>
    <clipPath
       clipPathUnits="userSpaceOnUse"
       id="clipPath46">
      <path
         d="m 46.95,37.54375 h 357.12 v 266.112 H 46.95 Z"
         id="path46" />
    </clipPath>
    <clipPath
       clipPathUnits="userSpaceOnUse"
       id="clipPath49">
      <path
         d="m 46.95,37.54375 h 357.12 v 266.112 H 46.95 Z"
         id="path49" />
    </clipPath>
    <clipPath
       clipPathUnits="userSpaceOnUse"
       id="clipPath52">
      <path
         d="m 46.95,37.54375 h 357.12 v 266.112 H 46.95 Z"
         id="path52" />
    </clipPath>
    <clipPath
       clipPathUnits="userSpaceOnUse"
       id="clipPath55">
      <path
         d="m 46.95,37.54375 h 357.12 v 266.112 H 46.95 Z"
         id="path55" />
    </clipPath>
    <clipPath
       clipPathUnits="userSpaceOnUse"
       id="clipPath57">
      <path
         d="m 46.95,37.54375 h 357.12 v 266.112 H 46.95 Z"
         id="path57" />
    </clipPath>
  </defs>
  <g
     id="g1">
    <path
       id="path1"
       d="M 0,0 H 411.27 V 325.98075 H 0 Z"
       style="fill:#ffffff;fill-opacity:1;fill-rule:nonzero;stroke:none"
       transform="matrix(1.3333333,0,0,-1.3333333,0,434.641)" />
    <path
       id="path2"
       d="m 46.95,37.54375 h 357.12 v 266.112 H 46.95 Z"
       style="fill:#ffffff;fill-opacity:1;fill-rule:nonzero;stroke:none"
       transform="matrix(1.3333333,0,0,-1.3333333,0,434.641)" />
    <path
       id="path3"
       d="m 62.355465,37.54375 v 266.112"
       style="fill:none;stroke:#b0b0b0;stroke-width:0.8;stroke-linecap:square;stroke-linejoin:round;stroke-miterlimit:10;stroke-dasharray:none;stroke-opacity:1"
       transform="matrix(1.3333333,0,0,-1.3333333,0,434.641)"
       clip-path="url(#clipPath4)" />
    <path
       id="path5"
       d="m 62.355465,37.54375 v -3.5"
       style="fill:#000000;fill-opacity:1;fill-rule:nonzero;stroke:#000000;stroke-width:0.8;stroke-linecap:butt;stroke-linejoin:round;stroke-miterlimit:10;stroke-dasharray:none;stroke-opacity:1"
       transform="matrix(1.3333333,0,0,-1.3333333,0,434.641)" />
    <text
       id="text5"
       xml:space="preserve"
       transform="matrix(1.3333333,0,0,1.3333333,78.901036,404.041)"><tspan
         id="tspan5"
         style="font-variant:normal;font-weight:normal;font-size:10px;font-family:'DejaVu Sans';writing-mode:lr-tb;fill:#000000;fill-opacity:1;fill-rule:nonzero;stroke:none"
         x="0"
         y="0">0</tspan></text>
    <path
       id="path6"
       d="m 108.31449,37.54375 v 266.112"
       style="fill:none;stroke:#b0b0b0;stroke-width:0.8;stroke-linecap:square;stroke-linejoin:round;stroke-miterlimit:10;stroke-dasharray:none;stroke-opacity:1"
       transform="matrix(1.3333333,0,0,-1.3333333,0,434.641)"
       clip-path="url(#clipPath7)" />
    <path
       id="path8"
       d="m 108.31449,37.54375 v -3.5"
       style="fill:#000000;fill-opacity:1;fill-rule:nonzero;stroke:#000000;stroke-width:0.8;stroke-linecap:butt;stroke-linejoin:round;stroke-miterlimit:10;stroke-dasharray:none;stroke-opacity:1"
       transform="matrix(1.3333333,0,0,-1.3333333,0,434.641)" />
    <text
       id="text8"
       xml:space="preserve"
       transform="matrix(1.3333333,0,0,1.3333333,131.70057,404.041)"><tspan
         id="tspan8"
         style="font-variant:normal;font-weight:normal;font-size:10px;font-family:'DejaVu Sans';writing-mode:lr-tb;fill:#000000;fill-opacity:1;fill-rule:nonzero;stroke:none"
         x="0"
         y="0">500</tspan></text>
    <path
       id="path9"
       d="m 154.27351,37.54375 v 266.112"
       style="fill:none;stroke:#b0b0b0;stroke-width:0.8;stroke-linecap:square;stroke-linejoin:round;stroke-miterlimit:10;stroke-dasharray:none;stroke-opacity:1"
       transform="matrix(1.3333333,0,0,-1.3333333,0,434.641)"
       clip-path="url(#clipPath10)" />
    <path
       id="path11"
       d="m 154.27351,37.54375 v -3.5"
       style="fill:#000000;fill-opacity:1;fill-rule:nonzero;stroke:#000000;stroke-width:0.8;stroke-linecap:butt;stroke-linejoin:round;stroke-miterlimit:10;stroke-dasharray:none;stroke-opacity:1"
       transform="matrix(1.3333333,0,0,-1.3333333,0,434.641)" />
    <text
       id="text11"
       xml:space="preserve"
       transform="matrix(1.3333333,0,0,1.3333333,188.73968,404.041)"><tspan
         id="tspan11"
         style="font-variant:normal;font-weight:normal;font-size:10px;font-family:'DejaVu Sans';writing-mode:lr-tb;fill:#000000;fill-opacity:1;fill-rule:nonzero;stroke:none"
         x="0"
         y="0">1000</tspan></text>
    <path
       id="path12"
       d="m 200.23254,37.54375 v 266.112"
       style="fill:none;stroke:#b0b0b0;stroke-width:0.8;stroke-linecap:square;stroke-linejoin:round;stroke-miterlimit:10;stroke-dasharray:none;stroke-opacity:1"
       transform="matrix(1.3333333,0,0,-1.3333333,0,434.641)"
       clip-path="url(#clipPath13)" />
    <path
       id="path14"
       d="m 200.23254,37.54375 v -3.5"
       style="fill:#000000;fill-opacity:1;fill-rule:nonzero;stroke:#000000;stroke-width:0.8;stroke-linecap:butt;stroke-linejoin:round;stroke-miterlimit:10;stroke-dasharray:none;stroke-opacity:1"
       transform="matrix(1.3333333,0,0,-1.3333333,0,434.641)" />
    <text
       id="text14"
       xml:space="preserve"
       transform="matrix(1.3333333,0,0,1.3333333,250.01838,404.041)"><tspan
         id="tspan14"
         style="font-variant:normal;font-weight:normal;font-size:10px;font-family:'DejaVu Sans';writing-mode:lr-tb;fill:#000000;fill-opacity:1;fill-rule:nonzero;stroke:none"
         x="0"
         y="0">1500</tspan></text>
    <path
       id="path15"
       d="m 246.19156,37.54375 v 266.112"
       style="fill:none;stroke:#b0b0b0;stroke-width:0.8;stroke-linecap:square;stroke-linejoin:round;stroke-miterlimit:10;stroke-dasharray:none;stroke-opacity:1"
       transform="matrix(1.3333333,0,0,-1.3333333,0,434.641)"
       clip-path="url(#clipPath16)" />
    <path
       id="path17"
       d="m 246.19156,37.54375 v -3.5"
       style="fill:#000000;fill-opacity:1;fill-rule:nonzero;stroke:#000000;stroke-width:0.8;stroke-linecap:butt;stroke-linejoin:round;stroke-miterlimit:10;stroke-dasharray:none;stroke-opacity:1"
       transform="matrix(1.3333333,0,0,-1.3333333,0,434.641)" />
    <text
       id="text17"
       xml:space="preserve"
       transform="matrix(1.3333333,0,0,1.3333333,311.29708,404.041)"><tspan
         id="tspan17"
         style="font-variant:normal;font-weight:normal;font-size:10px;font-family:'DejaVu Sans';writing-mode:lr-tb;fill:#000000;fill-opacity:1;fill-rule:nonzero;stroke:none"
         x="0"
         y="0">2000</tspan></text>
    <path
       id="path18"
       d="m 292.15059,37.54375 v 266.112"
       style="fill:none;stroke:#b0b0b0;stroke-width:0.8;stroke-linecap:square;stroke-linejoin:round;stroke-miterlimit:10;stroke-dasharray:none;stroke-opacity:1"
       transform="matrix(1.3333333,0,0,-1.3333333,0,434.641)"
       clip-path="url(#clipPath19)" />
    <path
       id="path20"
       d="m 292.15059,37.54375 v -3.5"
       style="fill:#000000;fill-opacity:1;fill-rule:nonzero;stroke:#000000;stroke-width:0.8;stroke-linecap:butt;stroke-linejoin:round;stroke-miterlimit:10;stroke-dasharray:none;stroke-opacity:1"
       transform="matrix(1.3333333,0,0,-1.3333333,0,434.641)" />
    <text
       id="text20"
       xml:space="preserve"
       transform="matrix(1.3333333,0,0,1.3333333,372.57578,404.041)"><tspan
         id="tspan20"
         style="font-variant:normal;font-weight:normal;font-size:10px;font-family:'DejaVu Sans';writing-mode:lr-tb;fill:#000000;fill-opacity:1;fill-rule:nonzero;stroke:none"
         x="0"
         y="0">2500</tspan></text>
    <path
       id="path21"
       d="m 338.10961,37.54375 v 266.112"
       style="fill:none;stroke:#b0b0b0;stroke-width:0.8;stroke-linecap:square;stroke-linejoin:round;stroke-miterlimit:10;stroke-dasharray:none;stroke-opacity:1"
       transform="matrix(1.3333333,0,0,-1.3333333,0,434.641)"
       clip-path="url(#clipPath22)" />
    <path
       id="path23"
       d="m 338.10961,37.54375 v -3.5"
       style="fill:#000000;fill-opacity:1;fill-rule:nonzero;stroke:#000000;stroke-width:0.8;stroke-linecap:butt;stroke-linejoin:round;stroke-miterlimit:10;stroke-dasharray:none;stroke-opacity:1"
       transform="matrix(1.3333333,0,0,-1.3333333,0,434.641)" />
    <text
       id="text23"
       xml:space="preserve"
       transform="matrix(1.3333333,0,0,1.3333333,433.85448,404.041)"><tspan
         id="tspan23"
         style="font-variant:normal;font-weight:normal;font-size:10px;font-family:'DejaVu Sans';writing-mode:lr-tb;fill:#000000;fill-opacity:1;fill-rule:nonzero;stroke:none"
         x="0"
         y="0">3000</tspan></text>
    <path
       id="path24"
       d="m 384.06863,37.54375 v 266.112"
       style="fill:none;stroke:#b0b0b0;stroke-width:0.8;stroke-linecap:square;stroke-linejoin:round;stroke-miterlimit:10;stroke-dasharray:none;stroke-opacity:1"
       transform="matrix(1.3333333,0,0,-1.3333333,0,434.641)"
       clip-path="url(#clipPath25)" />
    <path
       id="path26"
       d="m 384.06863,37.54375 v -3.5"
       style="fill:#000000;fill-opacity:1;fill-rule:nonzero;stroke:#000000;stroke-width:0.8;stroke-linecap:butt;stroke-linejoin:round;stroke-miterlimit:10;stroke-dasharray:none;stroke-opacity:1"
       transform="matrix(1.3333333,0,0,-1.3333333,0,434.641)" />
    <text
       id="text26"
       xml:space="preserve"
       transform="matrix(1.3333333,0,0,1.3333333,495.13318,404.041)"><tspan
         id="tspan26"
         style="font-variant:normal;font-weight:normal;font-size:10px;font-family:'DejaVu Sans';writing-mode:lr-tb;fill:#000000;fill-opacity:1;fill-rule:nonzero;stroke:none"
         x="0"
         y="0">3500</tspan></text>
    <text
       id="text27"
       xml:space="preserve"
       transform="matrix(1.3333333,0,0,1.3333333,231.47167,422.27017)"><tspan
         id="tspan27"
         style="font-variant:normal;font-weight:normal;font-size:10px;font-family:'DejaVu Sans';writing-mode:lr-tb;fill:#000000;fill-opacity:1;fill-rule:nonzero;stroke:none"
         x="0"
         y="0">Number of instances</tspan></text>
    <path
       id="path27"
       d="M 46.95,49.02574 H 404.07"
       style="fill:none;stroke:#b0b0b0;stroke-width:0.8;stroke-linecap:square;stroke-linejoin:round;stroke-miterlimit:10;stroke-dasharray:none;stroke-opacity:1"
       transform="matrix(1.3333333,0,0,-1.3333333,0,434.641)"
       clip-path="url(#clipPath28)" />
    <path
       id="path29"
       d="m 46.95,49.02574 h -3.5"
       style="fill:#000000;fill-opacity:1;fill-rule:nonzero;stroke:#000000;stroke-width:0.8;stroke-linecap:butt;stroke-linejoin:round;stroke-miterlimit:10;stroke-dasharray:none;stroke-opacity:1"
       transform="matrix(1.3333333,0,0,-1.3333333,0,434.641)" />
    <text
       id="text29"
       xml:space="preserve"
       transform="matrix(1.3333333,0,0,1.3333333,44.7875,374.33585)"><tspan
         id="tspan29"
         style="font-variant:normal;font-weight:normal;font-size:10px;font-family:'DejaVu Sans';writing-mode:lr-tb;fill:#000000;fill-opacity:1;fill-rule:nonzero;stroke:none"
         x="0"
         y="0">0</tspan></text>
    <path
       id="path30"
       d="M 46.95,79.726247 H 404.07"
       style="fill:none;stroke:#b0b0b0;stroke-width:0.8;stroke-linecap:square;stroke-linejoin:round;stroke-miterlimit:10;stroke-dasharray:none;stroke-opacity:1"
       transform="matrix(1.3333333,0,0,-1.3333333,0,434.641)"
       clip-path="url(#clipPath31)" />
    <path
       id="path32"
       d="m 46.95,79.726247 h -3.5"
       style="fill:#000000;fill-opacity:1;fill-rule:nonzero;stroke:#000000;stroke-width:0.8;stroke-linecap:butt;stroke-linejoin:round;stroke-miterlimit:10;stroke-dasharray:none;stroke-opacity:1"
       transform="matrix(1.3333333,0,0,-1.3333333,0,434.641)" />
    <text
       id="text32"
       xml:space="preserve"
       transform="matrix(1.3333333,0,0,1.3333333,36.308333,333.40184)"><tspan
         id="tspan32"
         style="font-variant:normal;font-weight:normal;font-size:10px;font-family:'DejaVu Sans';writing-mode:lr-tb;fill:#000000;fill-opacity:1;fill-rule:nonzero;stroke:none"
         x="0"
         y="0">50</tspan></text>
    <path
       id="path33"
       d="M 46.95,110.42676 H 404.07"
       style="fill:none;stroke:#b0b0b0;stroke-width:0.8;stroke-linecap:square;stroke-linejoin:round;stroke-miterlimit:10;stroke-dasharray:none;stroke-opacity:1"
       transform="matrix(1.3333333,0,0,-1.3333333,0,434.641)"
       clip-path="url(#clipPath34)" />
    <path
       id="path35"
       d="m 46.95,110.42676 h -3.5"
       style="fill:#000000;fill-opacity:1;fill-rule:nonzero;stroke:#000000;stroke-width:0.8;stroke-linecap:butt;stroke-linejoin:round;stroke-miterlimit:10;stroke-dasharray:none;stroke-opacity:1"
       transform="matrix(1.3333333,0,0,-1.3333333,0,434.641)" />
    <text
       id="text35"
       xml:space="preserve"
       transform="matrix(1.3333333,0,0,1.3333333,27.829167,292.46783)"><tspan
         id="tspan35"
         style="font-variant:normal;font-weight:normal;font-size:10px;font-family:'DejaVu Sans';writing-mode:lr-tb;fill:#000000;fill-opacity:1;fill-rule:nonzero;stroke:none"
         x="0"
         y="0">100</tspan></text>
    <path
       id="path36"
       d="M 46.95,141.12726 H 404.07"
       style="fill:none;stroke:#b0b0b0;stroke-width:0.8;stroke-linecap:square;stroke-linejoin:round;stroke-miterlimit:10;stroke-dasharray:none;stroke-opacity:1"
       transform="matrix(1.3333333,0,0,-1.3333333,0,434.641)"
       clip-path="url(#clipPath37)" />
    <path
       id="path38"
       d="m 46.95,141.12726 h -3.5"
       style="fill:#000000;fill-opacity:1;fill-rule:nonzero;stroke:#000000;stroke-width:0.8;stroke-linecap:butt;stroke-linejoin:round;stroke-miterlimit:10;stroke-dasharray:none;stroke-opacity:1"
       transform="matrix(1.3333333,0,0,-1.3333333,0,434.641)" />
    <text
       id="text38"
       xml:space="preserve"
       transform="matrix(1.3333333,0,0,1.3333333,27.829167,251.53382)"><tspan
         id="tspan38"
         style="font-variant:normal;font-weight:normal;font-size:10px;font-family:'DejaVu Sans';writing-mode:lr-tb;fill:#000000;fill-opacity:1;fill-rule:nonzero;stroke:none"
         x="0"
         y="0">150</tspan></text>
    <path
       id="path39"
       d="M 46.95,171.82777 H 404.07"
       style="fill:none;stroke:#b0b0b0;stroke-width:0.8;stroke-linecap:square;stroke-linejoin:round;stroke-miterlimit:10;stroke-dasharray:none;stroke-opacity:1"
       transform="matrix(1.3333333,0,0,-1.3333333,0,434.641)"
       clip-path="url(#clipPath40)" />
    <path
       id="path41"
       d="m 46.95,171.82777 h -3.5"
       style="fill:#000000;fill-opacity:1;fill-rule:nonzero;stroke:#000000;stroke-width:0.8;stroke-linecap:butt;stroke-linejoin:round;stroke-miterlimit:10;stroke-dasharray:none;stroke-opacity:1"
       transform="matrix(1.3333333,0,0,-1.3333333,0,434.641)" />
    <text
       id="text41"
       xml:space="preserve"
       transform="matrix(1.3333333,0,0,1.3333333,27.829167,210.59981)"><tspan
         id="tspan41"
         style="font-variant:normal;font-weight:normal;font-size:10px;font-family:'DejaVu Sans';writing-mode:lr-tb;fill:#000000;fill-opacity:1;fill-rule:nonzero;stroke:none"
         x="0"
         y="0">200</tspan></text>
    <path
       id="path42"
       d="M 46.95,202.52828 H 404.07"
       style="fill:none;stroke:#b0b0b0;stroke-width:0.8;stroke-linecap:square;stroke-linejoin:round;stroke-miterlimit:10;stroke-dasharray:none;stroke-opacity:1"
       transform="matrix(1.3333333,0,0,-1.3333333,0,434.641)"
       clip-path="url(#clipPath43)" />
    <path
       id="path44"
       d="m 46.95,202.52828 h -3.5"
       style="fill:#000000;fill-opacity:1;fill-rule:nonzero;stroke:#000000;stroke-width:0.8;stroke-linecap:butt;stroke-linejoin:round;stroke-miterlimit:10;stroke-dasharray:none;stroke-opacity:1"
       transform="matrix(1.3333333,0,0,-1.3333333,0,434.641)" />
    <text
       id="text44"
       xml:space="preserve"
       transform="matrix(1.3333333,0,0,1.3333333,27.829167,169.6658)"><tspan
         id="tspan44"
         style="font-variant:normal;font-weight:normal;font-size:10px;font-family:'DejaVu Sans';writing-mode:lr-tb;fill:#000000;fill-opacity:1;fill-rule:nonzero;stroke:none"
         x="0"
         y="0">250</tspan></text>
    <path
       id="path45"
       d="M 46.95,233.22879 H 404.07"
       style="fill:none;stroke:#b0b0b0;stroke-width:0.8;stroke-linecap:square;stroke-linejoin:round;stroke-miterlimit:10;stroke-dasharray:none;stroke-opacity:1"
       transform="matrix(1.3333333,0,0,-1.3333333,0,434.641)"
       clip-path="url(#clipPath46)" />
    <path
       id="path47"
       d="m 46.95,233.22879 h -3.5"
       style="fill:#000000;fill-opacity:1;fill-rule:nonzero;stroke:#000000;stroke-width:0.8;stroke-linecap:butt;stroke-linejoin:round;stroke-miterlimit:10;stroke-dasharray:none;stroke-opacity:1"
       transform="matrix(1.3333333,0,0,-1.3333333,0,434.641)" />
    <text
       id="text47"
       xml:space="preserve"
       transform="matrix(1.3333333,0,0,1.3333333,27.829167,128.73179)"><tspan
         id="tspan47"
         style="font-variant:normal;font-weight:normal;font-size:10px;font-family:'DejaVu Sans';writing-mode:lr-tb;fill:#000000;fill-opacity:1;fill-rule:nonzero;stroke:none"
         x="0"
         y="0">300</tspan></text>
    <path
       id="path48"
       d="M 46.95,263.92929 H 404.07"
       style="fill:none;stroke:#b0b0b0;stroke-width:0.8;stroke-linecap:square;stroke-linejoin:round;stroke-miterlimit:10;stroke-dasharray:none;stroke-opacity:1"
       transform="matrix(1.3333333,0,0,-1.3333333,0,434.641)"
       clip-path="url(#clipPath49)" />
    <path
       id="path50"
       d="m 46.95,263.92929 h -3.5"
       style="fill:#000000;fill-opacity:1;fill-rule:nonzero;stroke:#000000;stroke-width:0.8;stroke-linecap:butt;stroke-linejoin:round;stroke-miterlimit:10;stroke-dasharray:none;stroke-opacity:1"
       transform="matrix(1.3333333,0,0,-1.3333333,0,434.641)" />
    <text
       id="text50"
       xml:space="preserve"
       transform="matrix(1.3333333,0,0,1.3333333,27.829167,87.797776)"><tspan
         id="tspan50"
         style="font-variant:normal;font-weight:normal;font-size:10px;font-family:'DejaVu Sans';writing-mode:lr-tb;fill:#000000;fill-opacity:1;fill-rule:nonzero;stroke:none"
         x="0"
         y="0">350</tspan></text>
    <path
       id="path51"
       d="M 46.95,294.6298 H 404.07"
       style="fill:none;stroke:#b0b0b0;stroke-width:0.8;stroke-linecap:square;stroke-linejoin:round;stroke-miterlimit:10;stroke-dasharray:none;stroke-opacity:1"
       transform="matrix(1.3333333,0,0,-1.3333333,0,434.641)"
       clip-path="url(#clipPath52)" />
    <path
       id="path53"
       d="m 46.95,294.6298 h -3.5"
       style="fill:#000000;fill-opacity:1;fill-rule:nonzero;stroke:#000000;stroke-width:0.8;stroke-linecap:butt;stroke-linejoin:round;stroke-miterlimit:10;stroke-dasharray:none;stroke-opacity:1"
       transform="matrix(1.3333333,0,0,-1.3333333,0,434.641)" />
    <text
       id="text53"
       xml:space="preserve"
       transform="matrix(1.3333333,0,0,1.3333333,27.829167,46.863766)"><tspan
         id="tspan53"
         style="font-variant:normal;font-weight:normal;font-size:10px;font-family:'DejaVu Sans';writing-mode:lr-tb;fill:#000000;fill-opacity:1;fill-rule:nonzero;stroke:none"
         x="0"
         y="0">400</tspan></text>
    <text
       id="text54"
       xml:space="preserve"
       transform="matrix(0,-1.3333333,1.3333333,0,19.725,304.96633)"><tspan
         id="tspan54"
         style="font-variant:normal;font-weight:normal;font-size:10px;font-family:'DejaVu Sans';writing-mode:lr-tb;fill:#000000;fill-opacity:1;fill-rule:nonzero;stroke:none"
         x="0"
         y="0">Minority class instances used</tspan></text>
    <path
       id="path54"
       d="m 63.182727,49.63975 h 0.643427 l 0.367672,1.84203 h 0.09192 l 0.45959,2.456041 h 0.09192 l 0.275754,1.22802 h 0.367672 l 0.551509,3.070051 h 0.643426 l 0.551508,3.070051 h 0.183836 l 0.551509,3.070051 h 0.275754 l 0.275754,1.22802 h 0.183836 l 0.367672,1.84203 h 0.367673 l 0.367672,1.842031 h 0.183836 l 0.183836,0.61401 h 0.09192 l 0.183836,0.61401 h 0.367672 l 0.367672,1.842031 h 0.183837 l 0.275754,1.22802 h 0.09192 l 0.183836,0.61401 h 0.275754 l 0.367672,1.842031 h 3.033296 l 0.275754,1.22802 h 1.103016 l 0.183837,0.61401 h 0.09192 l 0.183836,0.61401 h 0.45959 l 0.275754,1.22802 h 3.033296 l 0.275754,1.228021 h 0.367672 l 0.183836,0.61401 h 0.367672 l 0.183836,0.61401 h 1.286853 l 0.183836,0.61401 h 1.746443 l 0.183836,0.61401 h 0.183836 l 0.183836,0.614011 h 0.183836 l 0.183837,0.61401 h 0.09192 l 0.183836,0.61401 h 0.183836 l 0.183836,0.61401 h 0.91918 l 0.183836,0.61401 h 0.183837 l 0.183836,0.61401 h 0.367672 l 0.183836,0.61401 h 0.45959 l 0.183836,0.614011 h 1.470689 l 0.183836,0.61401 h 1.286853 l 0.183836,0.61401 h 0.09192 l 0.183836,0.61401 h 0.827262 l 0.275755,1.22802 h 1.562606 l 0.183837,0.614011 h 0.183836 l 0.183836,0.61401 h 0.09192 l 0.183836,0.61401 h 1.654525 l 0.183836,0.61401 h 0.09192 l 0.183836,0.61401 h 0.91918 l 0.275756,1.22802 h 0.18384 l 0.18383,0.614011 h 1.28686 l 0.18383,0.61401 h 0.45959 l 0.18384,0.61401 h 1.65452 l 0.18384,0.61401 h 0.91918 l 0.18384,0.61401 h 0.73534 l 0.18384,0.61401 h 0.36767 l 0.18383,0.61401 h 2.66563 l 0.18383,0.614008 h 0.91918 l 0.18384,0.61401 h 0.36767 l 0.18384,0.61401 h 0.82726 l 0.18384,0.61401 h 1.93028 l 0.18383,0.61401 h 1.0111 l 0.18384,0.61401 h 0.73534 l 0.18384,0.61401 h 2.38987 l 0.27575,1.22802 h 0.73535 l 0.18383,0.61401 h 3.21713 l 0.18384,0.61401 h 0.55151 l 0.27575,1.22802 h 0.27576 l 0.18383,0.61402 h 0.0919 l 0.18384,0.614 h 1.19493 l 0.18384,0.61401 h 3.95247 l 0.27576,1.22803 h 1.10301 l 0.18384,0.614 h 1.47069 l 0.18383,0.61402 h 1.65453 l 0.18383,0.61401 h 1.28686 l 0.18383,0.61401 h 1.93028 l 0.18384,0.61401 h 1.10302 l 0.18383,0.61401 h 0.36767 l 0.18384,0.61401 h 0.18384 l 0.18383,0.61401 h 2.11412 l 0.18383,0.61401 h 1.65453 l 0.18383,0.61401 h 0.64343 l 0.18384,0.61401 h 1.19493 l 0.18384,0.61401 h 0.82726 l 0.18384,0.61401 h 3.03329 l 0.18384,0.61401 h 1.0111 l 0.18383,0.61401 h 2.38987 l 0.18384,0.61401 h 2.38987 l 0.18383,0.61401 h 2.84946 l 0.18384,0.61401 h 1.28685 l 0.27575,1.22802 h 1.0111 l 0.18384,0.61401 h 1.0111 l 0.18383,0.61401 h 5.79084 l 0.27576,1.22802 h 2.11411 l 0.18384,0.61401 h 3.67672 l 0.18383,0.61401 h 0.64343 l 0.18384,0.61401 h 2.75754 l 0.18383,0.61401 h 0.27576 l 0.18383,0.61401 h 1.47069 l 0.18384,0.61401 h 0.73534 l 0.18384,0.61401 h 1.65452 l 0.18384,0.61401 h 4.22823 l 0.18384,0.61401 h 0.18383 l 0.18384,0.61401 h 1.65452 l 0.18384,0.61401 h 0.91918 l 0.18384,0.61401 h 0.36767 l 0.18384,0.61401 h 0.73534 l 0.18384,0.61401 h 2.29795 l 0.18383,0.61401 h 2.29795 l 0.18384,0.61401 h 4.77974 l 0.27575,1.22802 h 5.88276 l 0.18383,0.61401 h 1.0111 l 0.18384,0.61401 h 1.28685 l 0.18384,0.61401 h 1.74644 l 0.18384,0.61401 h 0.82726 l 0.18384,0.61401 h 2.29795 l 0.18383,0.61401 h 0.27576 l 0.18383,0.61401 h 0.45959 l 0.18384,0.61401 h 0.64343 l 0.27575,1.22802 h 0.18384 l 0.18383,0.61401 h 0.91918 l 0.18384,0.61401 h 1.28685 l 0.18384,0.61401 h 0.64342 l 0.18384,0.61401 h 0.73534 l 0.18384,0.61401 h 1.0111 l 0.18383,0.61401 h 0.18384 l 0.18384,0.61401 h 6.06659 l 0.18383,0.61401 h 2.38987 l 0.18384,0.61401 h 3.49289 l 0.27575,1.22802 h 1.28685 l 0.18384,0.61402 h 1.83836 l 0.18384,0.61401 h 0.82726 l 0.18383,0.614 h 3.76864 l 0.27576,1.22803 h 1.5626 l 0.18384,0.61401 h 0.73535 l 0.18383,0.61401 h 0.82726 l 0.18384,0.61401 h 1.28685 l 0.18384,0.61401 h 4.77974 l 0.18383,0.61401 h 2.38987 l 0.18384,0.61401 h 1.37877 l 0.18384,0.61401 h 1.19493 l 0.18384,0.61401 h 0.45959 l 0.18383,0.61401 h 2.11412 l 0.27575,1.22802 h 1.56261 l 0.18383,0.61401 h 0.36768 l 0.18383,0.61401 h 0.27576 l 0.18383,0.61401 h 2.38987 l 0.18384,0.61401 h 0.82726 l 0.18384,0.61401 h 2.29795 l 0.18383,0.61401 h 5.51509 l 0.18383,0.61401 h 6.43427 l 0.18383,0.61401 h 0.36767 l 0.18384,0.61401 h 2.0222 l 0.18383,0.61401 h 1.65453 l 0.27575,1.22802 h 1.0111 l 0.18384,0.61401 h 1.93028 l 0.18383,0.61401 h 0.91918 l 0.18384,0.61401 h 0.91918 l 0.18384,0.61401 h 0.55151 l 0.18383,0.61401 h 5.05549 l 0.27576,1.22802 h 0.55151 l 0.18383,0.61401 h 3.67672 l 0.18384,0.61401 h 2.0222 l 0.18383,0.61401 h 3.40097 l 0.18384,0.61401 h 1.65452 l 0.18384,0.61401 h 1.37877 l 0.18383,0.61401 h 0.36768 l 0.18383,0.61401 h 1.19494 l 0.27575,1.22802 h 3.30905 l 0.18384,0.61401 h 0.91918 l 0.18383,0.61401 h 0.18384 l 0.27575,1.22802 h 0.18384 l 0.36767,1.84203 h 3.95248 l 0.18383,0.61401 h 0.36768 l 0.18383,0.61401 h 0.27576 l 0.18383,0.61401 h 0.64343 l 0.18384,0.61401 h 3.12521 l 0.18384,0.61401 h 0.36767 l 0.18383,0.61401 h 0.27576 l 0.18383,0.61401 h 2.0222 l 0.18384,0.61401 h 0.0919 l 0.18384,0.61401 h 1.47069 l 0.18384,0.61401 h 0.64342 l 0.27576,1.22802 h 1.37877 l 0.27575,1.22802 h 1.37877 l 0.27576,1.22802 h 2.02219 l 0.27576,1.22802 h 3.95247 l 0.27576,1.22803 h 0.0919 l 0.27575,1.22802 h 0.0919 l 0.27575,1.22802 h 0.64343 l 0.18383,0.61401 h 0.55151 l 0.18384,0.61401 h 0.27575 l 0.18384,0.61401 h 1.65452 l 0.18384,0.61401 h 0.73534 l 0.27576,1.22802 h 0.0919 l 0.18383,0.61401 h 0.27576 l 0.36767,1.84203 h 0.18383 l 0.18384,0.61401 h 0.45959 l 0.18384,0.61401 h 0.18383 l 0.18384,0.61401 h 0.91918 l 0.18384,0.61401 h 0.64342 l 0.18384,0.61401 h 0.0919 l 0.18383,0.61401 h 0.18384 l 0.27575,1.22802 h 0.36768 l 0.18383,0.61401 h 0.18384 l 0.18383,0.61401 h 0.73535 l 0.18383,0.61401 h 0.18384 l 0.45959,2.45604 h 0.18384 l 0.18383,0.61401 h 1.10302 l 0.18384,0.61401 h 0.0919 l 0.18384,0.61401 h 0.0919 l 1.10301,6.75411 h 0.0919 l 0.64343,3.68406 h 0.18383 l 0.27576,1.22802 h 0.18383 l 0.36768,1.84203 h 0.0919 l 0.18384,0.61401 h 0.0919 l 0.27575,1.22802 h 0.55151 l 0.36767,1.84203 h 1.19494 l 0.18383,0.61401 h 0.36768 l 0.64342,3.68407 h 0.27576 l 0.18383,0.61401 h 0.27576 l 0.36767,1.84203 h 0.55151 l 0.27575,1.22802 h 0.18384 l 0.27575,1.22802 h 0.82726 l 0.27576,1.22802 h 0.0919 l 0.45959,2.45604 h 0.0919 l 0.18384,0.61401 h 0.45959 l 0.18384,0.61401 h 0.82726 l 0.27576,1.22802 h 0.0919 l 0.27576,1.22802 h 0.18383 l 0.91918,5.52609 h 0.64343 l 0.18384,0.61401 h 0.0919 l 5.69892,38.06863 v 0"
       style="fill:none;stroke:#1f77b4;stroke-width:1.5;stroke-linecap:square;stroke-linejoin:round;stroke-miterlimit:10;stroke-dasharray:none;stroke-opacity:1"
       transform="matrix(1.3333333,0,0,-1.3333333,0,434.641)"
       clip-path="url(#clipPath55)" />
    <path
       id="path56"
       d="m 63.182727,49.63975 h 0.735345 l 0.183836,0.61401 h 1.930279 l 0.183836,0.61401 h 0.275754 l 0.183836,0.61401 h 0.919181 l 0.183836,0.614011 h 0.45959 l 0.183836,0.61401 h 1.470689 l 0.183836,0.61401 h 0.551508 l 0.183836,0.61401 h 0.275754 l 0.275755,1.22802 h 1.011098 l 0.183836,0.614011 h 0.275754 l 0.183836,0.61401 h 2.114116 l 0.183836,0.61401 h 0.367672 l 0.183836,0.61401 h 1.286853 l 0.183836,0.61401 h 0.183836 l 0.183836,0.61401 h 0.275754 l 0.183836,0.61401 h 1.103017 l 0.275754,1.228021 h 0.09192 l 0.183836,0.61401 h 0.367672 l 0.183836,0.61401 h 0.09192 l 0.183836,0.61401 h 0.183836 l 0.275755,1.228021 h 1.746443 l 0.183836,0.61401 h 0.45959 l 0.275754,1.22802 h 1.011099 l 0.183836,0.61401 h 0.275754 l 0.183836,0.61401 h 0.275754 l 0.183836,0.61401 h 0.735345 l 0.275754,1.228021 h 3.033295 l 0.183836,0.61401 h 1.011099 l 0.183836,0.61401 h 1.286853 l 0.183836,0.61401 h 0.275754 l 0.183836,0.61401 h 0.643426 l 0.183836,0.61401 h 1.194935 l 0.183836,0.614011 h 1.286853 l 0.183836,0.61401 h 0.91918 l 0.275755,1.22802 h 1.103016 l 0.183836,0.61401 h 1.838358 l 0.18384,0.61401 h 0.0919 l 0.18384,0.614011 h 0.18384 l 0.18383,0.61401 h 0.55151 l 0.18384,0.61401 h 0.36767 l 0.18383,0.61401 h 0.18384 l 0.18384,0.61401 h 0.45959 l 0.18383,0.61401 h 0.0919 l 0.18384,0.61401 h 0.45959 l 0.18383,0.614011 h 2.66563 l 0.27575,1.22802 h 0.82726 l 0.18384,0.61401 h 1.19493 l 0.27576,1.22802 h 0.45959 l 0.18383,0.614011 h 2.11412 l 0.18384,0.61401 h 0.36767 l 0.18383,0.61401 h 0.55151 l 0.27576,1.22802 h 0.0919 l 0.18384,0.61401 h 0.91918 l 0.18384,0.61401 h 2.29795 l 0.27575,1.228021 h 0.0919 l 0.18384,0.61401 h 2.48178 l 0.18384,0.61401 h 1.47069 l 0.27575,1.22802 h 0.64343 l 0.18384,0.614011 h 1.28685 l 0.18383,0.61401 h 0.45959 l 0.27576,1.22802 h 0.27575 l 0.18384,0.61401 h 0.18384 l 0.18383,0.61401 h 0.82726 l 0.18384,0.61401 h 0.18383 l 0.18384,0.614011 h 0.55151 l 0.36767,1.84203 h 0.27576 l 0.18383,0.61401 h 0.0919 l 0.18384,0.61401 h 0.0919 l 0.18384,0.61401 h 0.18384 l 0.18383,0.614008 h 0.27576 l 0.18383,0.61401 h 0.45959 l 0.18384,0.61401 h 0.0919 l 0.18383,0.61401 h 0.0919 l 0.18384,0.61401 h 0.0919 l 0.18383,0.61401 h 0.64343 l 0.18383,0.61401 h 0.0919 l 0.27576,1.22802 h 0.36767 l 0.18383,0.61401 h 1.10302 l 0.18384,0.61401 h 1.47069 l 0.18383,0.61401 h 0.45959 l 0.18384,0.61401 h 1.10301 l 0.18384,0.61402 h 0.82726 l 0.18384,0.614 h 0.36767 l 0.27576,1.22803 h 1.19493 l 0.18384,0.61401 h 0.0919 l 0.18384,0.614 h 0.18384 l 0.27575,1.22803 h 0.0919 l 0.18383,0.61401 h 0.82727 l 0.27575,1.22802 h 1.47069 l 0.18384,0.61401 h 0.73534 l 0.18384,0.61401 h 0.36767 l 0.27575,1.22802 h 0.55151 l 0.18384,0.61401 h 0.18383 l 0.18384,0.61401 h 0.27575 l 0.18384,0.61401 h 2.0222 l 0.36767,1.84203 h 0.73534 l 0.18384,0.61401 h 1.83836 l 0.18384,0.61401 h 1.0111 l 0.18383,0.61401 h 0.18384 l 0.18383,0.61401 h 0.0919 l 0.18384,0.61401 h 0.55151 l 0.18383,0.61401 h 0.82726 l 0.27576,1.22802 h 0.64342 l 0.27576,1.22802 h 0.36767 l 0.18384,0.61401 h 0.0919 l 0.18383,0.61401 h 0.27576 l 0.18383,0.61401 h 0.55151 l 0.18384,0.61401 h 0.82726 l 0.18383,0.61401 h 0.82727 l 0.18383,0.61401 h 0.64343 l 0.18384,0.61401 h 0.0919 l 0.27576,1.22802 h 1.37877 l 0.18383,0.61401 h 0.82727 l 0.18383,0.61401 h 0.18384 l 0.18384,0.61401 h 0.18383 l 0.18384,0.61401 h 0.45959 l 0.18383,0.61401 h 1.0111 l 0.27576,1.22802 h 0.0919 l 0.18384,0.61401 h 2.84946 l 0.18384,0.61401 h 0.0919 l 0.18384,0.61401 h 2.11412 l 0.18383,0.61401 h 1.83836 l 0.18384,0.61401 h 0.64343 l 0.18383,0.61401 h 0.36767 l 0.18384,0.61401 h 3.21713 l 0.18384,0.61401 h 0.91918 l 0.18383,0.61401 h 0.45959 l 0.18384,0.61401 h 0.55151 l 0.18383,0.61401 h 2.66563 l 0.27575,1.22802 h 0.82726 l 0.27576,1.22802 h 1.10302 l 0.18383,0.61401 h 0.0919 l 0.27575,1.22802 h 0.55151 l 0.18384,0.61401 h 0.0919 l 0.18383,0.61401 h 0.36767 l 0.18384,0.61401 h 0.45959 l 0.18384,0.61402 h 1.10301 l 0.18384,0.61401 h 0.91918 l 0.18384,0.614 h 0.18383 l 0.18384,0.61401 h 0.36767 l 0.18384,0.61402 h 0.18383 l 0.18384,0.61401 h 0.73534 l 0.18384,0.61401 h 0.0919 l 0.18383,0.61401 h 1.0111 l 0.18384,0.61401 h 1.65452 l 0.18384,0.61401 h 0.27575 l 0.18384,0.61401 h 0.36767 l 0.27576,1.22802 h 0.18383 l 0.18384,0.61401 h 2.02219 l 0.18384,0.61401 h 0.27575 l 0.18384,0.61401 h 0.64343 l 0.27575,1.22802 h 0.0919 l 0.18384,0.61401 h 0.36767 l 0.36767,1.84203 h 1.65452 l 0.18384,0.61401 h 1.47069 l 0.18384,0.61401 h 0.18383 l 0.27576,1.22802 h 0.36767 l 0.18383,0.61401 h 0.64343 l 0.18384,0.61401 h 4.32014 l 0.18384,0.61401 h 0.0919 l 0.18384,0.61401 h 0.18383 l 0.18384,0.61401 h 2.94137 l 0.18384,0.61401 h 0.64343 l 0.18383,0.61401 h 1.19494 l 0.18383,0.61401 h 0.27576 l 0.18383,0.61401 h 1.93028 l 0.18384,0.61401 h 2.11411 l 0.18384,0.61401 h 0.18384 l 0.18383,0.61401 h 1.93028 l 0.18384,0.61401 h 0.64342 l 0.18384,0.61401 h 1.0111 l 0.18384,0.61401 h 0.36767 l 0.18383,0.61401 h 0.0919 l 0.27576,1.22802 h 0.0919 l 0.18384,0.61401 h 0.0919 l 0.18383,0.61401 h 2.38987 l 0.27576,1.22802 h 0.45959 l 0.18383,0.61401 h 0.45959 l 0.18384,0.61401 h 0.91918 l 0.18384,0.61401 h 0.0919 l 0.18384,0.61401 h 0.18384 l 0.27575,1.22802 h 0.0919 l 0.18383,0.61401 h 0.4596 l 0.18383,0.61401 h 0.18384 l 0.18383,0.61401 h 0.73535 l 0.18383,0.61401 h 0.0919 l 0.18384,0.61401 h 1.0111 l 0.27575,1.22802 h 2.38987 l 0.18384,0.61401 h 1.01109 l 0.18384,0.61401 h 0.0919 l 0.18384,0.61401 h 1.19493 l 0.18384,0.61401 h 0.27575 l 0.18384,0.61401 h 1.5626 l 0.18384,0.61401 h 0.36767 l 0.27576,1.22802 h 0.45959 l 0.18383,0.61401 h 2.84946 l 0.18384,0.61402 h 0.64342 l 0.18384,0.61401 h 0.45959 l 0.18384,0.61401 h 0.27575 l 0.18384,0.61401 h 0.91918 l 0.27575,1.22802 h 0.18384 l 0.27575,1.22802 h 0.0919 l 0.27575,1.22802 h 0.36768 l 0.27575,1.22802 h 0.64343 l 0.18383,0.61401 h 1.28685 l 0.27576,1.22802 h 0.27575 l 0.18384,0.61401 h 0.55151 l 0.18383,0.61401 h 0.36768 l 0.18383,0.61401 H 265.31 l 0.18384,0.61401 h 1.10302 l 0.27575,1.22802 h 2.94138 l 0.18383,0.61401 h 0.18384 l 0.18384,0.61401 h 1.19493 l 0.18384,0.61401 h 0.36767 l 0.18384,0.61401 h 0.27575 l 0.18384,0.61401 h 0.0919 l 0.18383,0.61401 h 0.91918 l 0.18384,0.61401 h 0.0919 l 0.18384,0.61401 h 1.10302 l 0.27575,1.22802 h 0.0919 l 0.27575,1.22802 h 0.18384 l 0.18384,0.61401 h 0.73534 l 0.18384,0.61401 h 1.10301 l 0.18384,0.61401 h 2.11412 l 0.18383,0.61401 h 0.27575 l 0.36768,1.84203 h 0.36767 l 0.18384,0.61401 h 1.19493 l 0.36767,1.84203 h 1.83836 l 0.36768,1.84203 h 0.64342 l 0.18384,0.61401 h 2.94138 l 0.18383,0.61401 h 0.64343 l 0.18383,0.61401 h 1.83836 l 0.18384,0.61401 h 0.91918 l 0.18384,0.61401 h 2.20603 l 0.18384,0.61401 h 2.29795 l 0.18383,0.61401 h 0.36768 l 0.18383,0.61401 h 0.64343 l 0.27575,1.22802 h 0.91918 l 0.18384,0.61401 h 2.20603 l 0.18384,0.61401 h 0.18383 l 0.18384,0.61401 h 0.0919 l 0.18384,0.61401 h 0.45958 l 0.18384,0.61401 h 0.64343 l 0.18383,0.61401 h 0.73535 l 0.18383,0.61401 h 0.27576 l 0.18383,0.61401 h 0.82727 l 0.27575,1.22803 h 0.0919 l 0.18383,0.61401 h 0.55151 l 0.18384,0.61401 h 0.27575 l 0.18384,0.61401 h 0.45959 l 0.18384,0.61401 h 0.91918 l 0.18383,0.61401 h 0.36767 l 0.36768,1.84203 h 1.37877 l 0.18383,0.61401 h 3.67673 l 0.27575,1.22802 h 1.10302 l 0.18383,0.61401 h 0.27576 l 0.18383,0.61401 h 0.27576 l 0.18383,0.61401 h 2.11412 l 0.18383,0.61401 h 0.82727 l 0.18383,0.61401 h 0.73535 l 0.18383,0.61401 h 1.0111 l 0.27576,1.22802 h 1.01109 l 0.18384,0.61401 h 1.28685 l 0.27576,1.22802 h 0.18383 l 0.18384,0.61401 h 1.0111 l 0.27575,1.22802 h 0.55151 l 0.18384,0.61401 h 0.18383 l 0.18384,0.61401 h 0.18383 l 0.18384,0.61401 h 0.45959 l 0.18384,0.61401 h 0.82726 l 0.27575,1.22802 h 0.64343 l 0.18384,0.61401 h 0.82726 l 0.18383,0.61401 h 0.18384 l 0.18384,0.61401 h 1.19493 l 0.18384,0.61401 h 1.28685 l 0.27575,1.22802 h 0.64343 l 0.18384,0.61401 h 0.18383 l 0.18384,0.61401 h 0.36767 l 0.18384,0.61401 h 1.10301 l 0.27576,1.22802 h 0.91918 l 0.18383,0.61401 h 0.64343 l 0.18384,0.61401 h 2.66562 l 0.27575,1.22802 h 0.45959 l 0.18384,0.61401 h 0.91918 l 0.18384,0.61401 h 0.45959 l 0.27575,1.22802 h 0.0919 l 0.18384,0.61401 h 0.82726 l 0.27575,1.22802 h 0.55151 l 0.18384,0.61401 h 0.18383 l 0.18384,0.61401 h 0.0919 l 0.18383,0.61401 h 0.36768 l 0.18383,0.61401 h 0.27576 l 0.18383,0.61401 h 0.91918 l 0.18384,0.61401 h 1.74644 l 0.18384,0.61401 h 3.5848 l 0.18384,0.61401 h 0.64342 l 0.18384,0.61401 h 0.0919 l 0.18383,0.61401 h 0.82727 l 0.27575,1.22803 h 0.18384 l 0.18383,0.61401 h 0.64343 l 0.18384,0.61401 h 0.64342 l 0.18384,0.61401 h 0.27575 l 0.18384,0.61401 h 2.38987 l 0.18383,0.61401 h 0.0919 l 0.18384,0.61401 h 0.18383 l 0.18384,0.61401 h 2.0222 l 0.18383,0.61401 h 0.0919 l 0.18384,0.61401 h 2.5737 l 0.27576,1.22802 h 0.45959 l 0.18383,0.61401 h 1.56261 l 0.18384,0.61401 h 0.18383 l 0.18384,0.61401 h 1.37877 l 0.18383,0.61401 h 0.36768 l 0.18383,0.61401 h 0.45959 l 0.18384,0.61401 h 0.64343 l 0.18383,0.61401 h 0.36767 l 0.18384,0.61401 h 0.73534 l 0.18384,0.61401 h 0.18384 l 0.18383,0.61401 h 1.19494 l 0.18383,0.61401 h 0.82727 l 0.18383,0.61401 h 0.0919 l 0.27575,1.22802 h 0.27576 l 0.18383,0.61401 h 0.0919 l 0.18384,0.61401 h 0.73534 l 0.18384,0.61401 h 0.36767 l 0.18384,0.61401 h 2.11411 v 0"
       style="fill:none;stroke:#ff7f0e;stroke-width:1.5;stroke-linecap:square;stroke-linejoin:round;stroke-miterlimit:10;stroke-dasharray:none;stroke-opacity:1"
       transform="matrix(1.3333333,0,0,-1.3333333,0,434.641)"
       clip-path="url(#clipPath57)" />
    <path
       id="path58"
       d="m 46.95,37.54375 v 266.112"
       style="fill:none;stroke:#000000;stroke-width:0.8;stroke-linecap:square;stroke-linejoin:miter;stroke-miterlimit:10;stroke-dasharray:none;stroke-opacity:1"
       transform="matrix(1.3333333,0,0,-1.3333333,0,434.641)" />
    <path
       id="path59"
       d="m 404.07,37.54375 v 266.112"
       style="fill:none;stroke:#000000;stroke-width:0.8;stroke-linecap:square;stroke-linejoin:miter;stroke-miterlimit:10;stroke-dasharray:none;stroke-opacity:1"
       transform="matrix(1.3333333,0,0,-1.3333333,0,434.641)" />
    <path
       id="path60"
       d="M 46.95,37.54375 H 404.07"
       style="fill:none;stroke:#000000;stroke-width:0.8;stroke-linecap:square;stroke-linejoin:miter;stroke-miterlimit:10;stroke-dasharray:none;stroke-opacity:1"
       transform="matrix(1.3333333,0,0,-1.3333333,0,434.641)" />
    <path
       id="path61"
       d="M 46.95,303.65575 H 404.07"
       style="fill:none;stroke:#000000;stroke-width:0.8;stroke-linecap:square;stroke-linejoin:miter;stroke-miterlimit:10;stroke-dasharray:none;stroke-opacity:1"
       transform="matrix(1.3333333,0,0,-1.3333333,0,434.641)" />
    <text
       id="text61"
       xml:space="preserve"
       transform="matrix(1.3333333,0,0,1.3333333,174.4925,21.766667)"><tspan
         id="tspan61"
         style="font-variant:normal;font-weight:normal;font-size:12px;font-family:'DejaVu Sans';writing-mode:lr-tb;fill:#000000;fill-opacity:1;fill-rule:nonzero;stroke:none"
         x="0"
         dx="0 0 -0.359375"
         y="0">IR: 8, minorities in dataset: 394</tspan></text>
    <path
       id="path62"
       d="m 53.95,266.312 h 115.67187 c 1.33334,0 2,0.66667 2,2 v 28.34375 c 0,1.33333 -0.66666,2 -2,2 H 53.95 c -1.333333,0 -2,-0.66667 -2,-2 V 268.312 c 0,-1.33333 0.666667,-2 2,-2 z"
       style="fill:#ffffff;fill-opacity:0.8;fill-rule:nonzero;stroke:#cccccc;stroke-width:1;stroke-linecap:butt;stroke-linejoin:miter;stroke-miterlimit:10;stroke-dasharray:none;stroke-opacity:0.8"
       transform="matrix(1.3333333,0,0,-1.3333333,0,434.641)" />
    <path
       id="path63"
       d="m 55.95,290.562 h 10 10"
       style="fill:none;stroke:#1f77b4;stroke-width:1.5;stroke-linecap:square;stroke-linejoin:round;stroke-miterlimit:10;stroke-dasharray:none;stroke-opacity:1"
       transform="matrix(1.3333333,0,0,-1.3333333,0,434.641)" />
    <text
       id="text63"
       xml:space="preserve"
       transform="matrix(1.3333333,0,0,1.3333333,111.93333,51.891667)"><tspan
         id="tspan63"
         style="font-variant:normal;font-weight:normal;font-size:10px;font-family:'DejaVu Sans';writing-mode:lr-tb;fill:#000000;fill-opacity:1;fill-rule:nonzero;stroke:none"
         x="0"
         dx="0 -0.171875 0 0 0 0 0 0 -0.171875 0 0 -0.171875"
         y="0">Active Learning</tspan></text>
    <path
       id="path64"
       d="m 55.95,275.89012 h 10 10"
       style="fill:none;stroke:#ff7f0e;stroke-width:1.5;stroke-linecap:square;stroke-linejoin:round;stroke-miterlimit:10;stroke-dasharray:none;stroke-opacity:1"
       transform="matrix(1.3333333,0,0,-1.3333333,0,434.641)" />
    <text
       id="text64"
       xml:space="preserve"
       transform="matrix(1.3333333,0,0,1.3333333,111.93333,71.454167)"><tspan
         id="tspan64"
         style="font-variant:normal;font-weight:normal;font-size:10px;font-family:'DejaVu Sans';writing-mode:lr-tb;fill:#000000;fill-opacity:1;fill-rule:nonzero;stroke:none"
         x="0"
         dx="0 -0.4375 0 0 0 0 0 0 0 -0.171875 0 0 -0.171875"
         y="0">Passive Learning</tspan></text>
  </g>
</svg>
