<?xml version="1.0" encoding="UTF-8" standalone="no"?>
<!-- Created with Inkscape (http://www.inkscape.org/) -->

<svg
   version="1.1"
   id="svg1"
   width="550.95544"
   height="434.64099"
   viewBox="0 0 550.95544 434.64099"
   xmlns="http://www.w3.org/2000/svg"
   xmlns:svg="http://www.w3.org/2000/svg">
  <defs
     id="defs1">
    <clipPath
       clipPathUnits="userSpaceOnUse"
       id="clipPath4">
      <path
         d="m 46.95,37.54375 h 357.12 v 266.112 H 46.95 Z"
         id="path4" />
    </clipPath>
    <clipPath
       clipPathUnits="userSpaceOnUse"
       id="clipPath7">
      <path
         d="m 46.95,37.54375 h 357.12 v 266.112 H 46.95 Z"
         id="path7" />
    </clipPath>
    <clipPath
       clipPathUnits="userSpaceOnUse"
       id="clipPath10">
      <path
         d="m 46.95,37.54375 h 357.12 v 266.112 H 46.95 Z"
         id="path10" />
    </clipPath>
    <clipPath
       clipPathUnits="userSpaceOnUse"
       id="clipPath13">
      <path
         d="m 46.95,37.54375 h 357.12 v 266.112 H 46.95 Z"
         id="path13" />
    </clipPath>
    <clipPath
       clipPathUnits="userSpaceOnUse"
       id="clipPath16">
      <path
         d="m 46.95,37.54375 h 357.12 v 266.112 H 46.95 Z"
         id="path16" />
    </clipPath>
    <clipPath
       clipPathUnits="userSpaceOnUse"
       id="clipPath19">
      <path
         d="m 46.95,37.54375 h 357.12 v 266.112 H 46.95 Z"
         id="path19" />
    </clipPath>
    <clipPath
       clipPathUnits="userSpaceOnUse"
       id="clipPath22">
      <path
         d="m 46.95,37.54375 h 357.12 v 266.112 H 46.95 Z"
         id="path22" />
    </clipPath>
    <clipPath
       clipPathUnits="userSpaceOnUse"
       id="clipPath25">
      <path
         d="m 46.95,37.54375 h 357.12 v 266.112 H 46.95 Z"
         id="path25" />
    </clipPath>
    <clipPath
       clipPathUnits="userSpaceOnUse"
       id="clipPath28">
      <path
         d="m 46.95,37.54375 h 357.12 v 266.112 H 46.95 Z"
         id="path28" />
    </clipPath>
    <clipPath
       clipPathUnits="userSpaceOnUse"
       id="clipPath31">
      <path
         d="m 46.95,37.54375 h 357.12 v 266.112 H 46.95 Z"
         id="path31" />
    </clipPath>
    <clipPath
       clipPathUnits="userSpaceOnUse"
       id="clipPath34">
      <path
         d="m 46.95,37.54375 h 357.12 v 266.112 H 46.95 Z"
         id="path34" />
    </clipPath>
    <clipPath
       clipPathUnits="userSpaceOnUse"
       id="clipPath37">
      <path
         d="m 46.95,37.54375 h 357.12 v 266.112 H 46.95 Z"
         id="path37" />
    </clipPath>
    <clipPath
       clipPathUnits="userSpaceOnUse"
       id="clipPath40">
      <path
         d="m 46.95,37.54375 h 357.12 v 266.112 H 46.95 Z"
         id="path40" />
    </clipPath>
    <clipPath
       clipPathUnits="userSpaceOnUse"
       id="clipPath43">
      <path
         d="m 46.95,37.54375 h 357.12 v 266.112 H 46.95 Z"
         id="path43" />
    </clipPath>
    <clipPath
       clipPathUnits="userSpaceOnUse"
       id="clipPath46">
      <path
         d="m 46.95,37.54375 h 357.12 v 266.112 H 46.95 Z"
         id="path46" />
    </clipPath>
    <clipPath
       clipPathUnits="userSpaceOnUse"
       id="clipPath49">
      <path
         d="m 46.95,37.54375 h 357.12 v 266.112 H 46.95 Z"
         id="path49" />
    </clipPath>
    <clipPath
       clipPathUnits="userSpaceOnUse"
       id="clipPath52">
      <path
         d="m 46.95,37.54375 h 357.12 v 266.112 H 46.95 Z"
         id="path52" />
    </clipPath>
    <clipPath
       clipPathUnits="userSpaceOnUse"
       id="clipPath55">
      <path
         d="m 46.95,37.54375 h 357.12 v 266.112 H 46.95 Z"
         id="path55" />
    </clipPath>
    <clipPath
       clipPathUnits="userSpaceOnUse"
       id="clipPath58">
      <path
         d="m 46.95,37.54375 h 357.12 v 266.112 H 46.95 Z"
         id="path58" />
    </clipPath>
    <clipPath
       clipPathUnits="userSpaceOnUse"
       id="clipPath60">
      <path
         d="m 46.95,37.54375 h 357.12 v 266.112 H 46.95 Z"
         id="path60" />
    </clipPath>
  </defs>
  <g
     id="g1">
    <path
       id="path1"
       d="M 0,0 H 413.21657 V 325.98075 H 0 Z"
       style="fill:#ffffff;fill-opacity:1;fill-rule:nonzero;stroke:none"
       transform="matrix(1.3333333,0,0,-1.3333333,0,434.641)" />
    <path
       id="path2"
       d="m 46.95,37.54375 h 357.12 v 266.112 H 46.95 Z"
       style="fill:#ffffff;fill-opacity:1;fill-rule:nonzero;stroke:none"
       transform="matrix(1.3333333,0,0,-1.3333333,0,434.641)" />
    <path
       id="path3"
       d="m 62.355371,37.54375 v 266.112"
       style="fill:none;stroke:#b0b0b0;stroke-width:0.8;stroke-linecap:square;stroke-linejoin:round;stroke-miterlimit:10;stroke-dasharray:none;stroke-opacity:1"
       transform="matrix(1.3333333,0,0,-1.3333333,0,434.641)"
       clip-path="url(#clipPath4)" />
    <path
       id="path5"
       d="m 62.355371,37.54375 v -3.5"
       style="fill:#000000;fill-opacity:1;fill-rule:nonzero;stroke:#000000;stroke-width:0.8;stroke-linecap:butt;stroke-linejoin:round;stroke-miterlimit:10;stroke-dasharray:none;stroke-opacity:1"
       transform="matrix(1.3333333,0,0,-1.3333333,0,434.641)" />
    <text
       id="text5"
       xml:space="preserve"
       transform="matrix(1.3333333,0,0,1.3333333,78.900912,404.041)"><tspan
         id="tspan5"
         style="font-variant:normal;font-weight:normal;font-size:10px;font-family:'DejaVu Sans';writing-mode:lr-tb;fill:#000000;fill-opacity:1;fill-rule:nonzero;stroke:none"
         x="0"
         y="0">0</tspan></text>
    <path
       id="path6"
       d="m 103.72318,37.54375 v 266.112"
       style="fill:none;stroke:#b0b0b0;stroke-width:0.8;stroke-linecap:square;stroke-linejoin:round;stroke-miterlimit:10;stroke-dasharray:none;stroke-opacity:1"
       transform="matrix(1.3333333,0,0,-1.3333333,0,434.641)"
       clip-path="url(#clipPath7)" />
    <path
       id="path8"
       d="m 103.72318,37.54375 v -3.5"
       style="fill:#000000;fill-opacity:1;fill-rule:nonzero;stroke:#000000;stroke-width:0.8;stroke-linecap:butt;stroke-linejoin:round;stroke-miterlimit:10;stroke-dasharray:none;stroke-opacity:1"
       transform="matrix(1.3333333,0,0,-1.3333333,0,434.641)" />
    <text
       id="text8"
       xml:space="preserve"
       transform="matrix(1.3333333,0,0,1.3333333,125.57882,404.041)"><tspan
         id="tspan8"
         style="font-variant:normal;font-weight:normal;font-size:10px;font-family:'DejaVu Sans';writing-mode:lr-tb;fill:#000000;fill-opacity:1;fill-rule:nonzero;stroke:none"
         x="0"
         y="0">250</tspan></text>
    <path
       id="path9"
       d="m 145.09098,37.54375 v 266.112"
       style="fill:none;stroke:#b0b0b0;stroke-width:0.8;stroke-linecap:square;stroke-linejoin:round;stroke-miterlimit:10;stroke-dasharray:none;stroke-opacity:1"
       transform="matrix(1.3333333,0,0,-1.3333333,0,434.641)"
       clip-path="url(#clipPath10)" />
    <path
       id="path11"
       d="m 145.09098,37.54375 v -3.5"
       style="fill:#000000;fill-opacity:1;fill-rule:nonzero;stroke:#000000;stroke-width:0.8;stroke-linecap:butt;stroke-linejoin:round;stroke-miterlimit:10;stroke-dasharray:none;stroke-opacity:1"
       transform="matrix(1.3333333,0,0,-1.3333333,0,434.641)" />
    <text
       id="text11"
       xml:space="preserve"
       transform="matrix(1.3333333,0,0,1.3333333,180.7359,404.041)"><tspan
         id="tspan11"
         style="font-variant:normal;font-weight:normal;font-size:10px;font-family:'DejaVu Sans';writing-mode:lr-tb;fill:#000000;fill-opacity:1;fill-rule:nonzero;stroke:none"
         x="0"
         y="0">500</tspan></text>
    <path
       id="path12"
       d="m 186.45879,37.54375 v 266.112"
       style="fill:none;stroke:#b0b0b0;stroke-width:0.8;stroke-linecap:square;stroke-linejoin:round;stroke-miterlimit:10;stroke-dasharray:none;stroke-opacity:1"
       transform="matrix(1.3333333,0,0,-1.3333333,0,434.641)"
       clip-path="url(#clipPath13)" />
    <path
       id="path14"
       d="m 186.45879,37.54375 v -3.5"
       style="fill:#000000;fill-opacity:1;fill-rule:nonzero;stroke:#000000;stroke-width:0.8;stroke-linecap:butt;stroke-linejoin:round;stroke-miterlimit:10;stroke-dasharray:none;stroke-opacity:1"
       transform="matrix(1.3333333,0,0,-1.3333333,0,434.641)" />
    <text
       id="text14"
       xml:space="preserve"
       transform="matrix(1.3333333,0,0,1.3333333,235.89297,404.041)"><tspan
         id="tspan14"
         style="font-variant:normal;font-weight:normal;font-size:10px;font-family:'DejaVu Sans';writing-mode:lr-tb;fill:#000000;fill-opacity:1;fill-rule:nonzero;stroke:none"
         x="0"
         y="0">750</tspan></text>
    <path
       id="path15"
       d="m 227.8266,37.54375 v 266.112"
       style="fill:none;stroke:#b0b0b0;stroke-width:0.8;stroke-linecap:square;stroke-linejoin:round;stroke-miterlimit:10;stroke-dasharray:none;stroke-opacity:1"
       transform="matrix(1.3333333,0,0,-1.3333333,0,434.641)"
       clip-path="url(#clipPath16)" />
    <path
       id="path17"
       d="m 227.8266,37.54375 v -3.5"
       style="fill:#000000;fill-opacity:1;fill-rule:nonzero;stroke:#000000;stroke-width:0.8;stroke-linecap:butt;stroke-linejoin:round;stroke-miterlimit:10;stroke-dasharray:none;stroke-opacity:1"
       transform="matrix(1.3333333,0,0,-1.3333333,0,434.641)" />
    <text
       id="text17"
       xml:space="preserve"
       transform="matrix(1.3333333,0,0,1.3333333,286.81046,404.041)"><tspan
         id="tspan17"
         style="font-variant:normal;font-weight:normal;font-size:10px;font-family:'DejaVu Sans';writing-mode:lr-tb;fill:#000000;fill-opacity:1;fill-rule:nonzero;stroke:none"
         x="0"
         y="0">1000</tspan></text>
    <path
       id="path18"
       d="m 269.1944,37.54375 v 266.112"
       style="fill:none;stroke:#b0b0b0;stroke-width:0.8;stroke-linecap:square;stroke-linejoin:round;stroke-miterlimit:10;stroke-dasharray:none;stroke-opacity:1"
       transform="matrix(1.3333333,0,0,-1.3333333,0,434.641)"
       clip-path="url(#clipPath19)" />
    <path
       id="path20"
       d="m 269.1944,37.54375 v -3.5"
       style="fill:#000000;fill-opacity:1;fill-rule:nonzero;stroke:#000000;stroke-width:0.8;stroke-linecap:butt;stroke-linejoin:round;stroke-miterlimit:10;stroke-dasharray:none;stroke-opacity:1"
       transform="matrix(1.3333333,0,0,-1.3333333,0,434.641)" />
    <text
       id="text20"
       xml:space="preserve"
       transform="matrix(1.3333333,0,0,1.3333333,341.96754,404.041)"><tspan
         id="tspan20"
         style="font-variant:normal;font-weight:normal;font-size:10px;font-family:'DejaVu Sans';writing-mode:lr-tb;fill:#000000;fill-opacity:1;fill-rule:nonzero;stroke:none"
         x="0"
         y="0">1250</tspan></text>
    <path
       id="path21"
       d="m 310.56221,37.54375 v 266.112"
       style="fill:none;stroke:#b0b0b0;stroke-width:0.8;stroke-linecap:square;stroke-linejoin:round;stroke-miterlimit:10;stroke-dasharray:none;stroke-opacity:1"
       transform="matrix(1.3333333,0,0,-1.3333333,0,434.641)"
       clip-path="url(#clipPath22)" />
    <path
       id="path23"
       d="m 310.56221,37.54375 v -3.5"
       style="fill:#000000;fill-opacity:1;fill-rule:nonzero;stroke:#000000;stroke-width:0.8;stroke-linecap:butt;stroke-linejoin:round;stroke-miterlimit:10;stroke-dasharray:none;stroke-opacity:1"
       transform="matrix(1.3333333,0,0,-1.3333333,0,434.641)" />
    <text
       id="text23"
       xml:space="preserve"
       transform="matrix(1.3333333,0,0,1.3333333,397.12461,404.041)"><tspan
         id="tspan23"
         style="font-variant:normal;font-weight:normal;font-size:10px;font-family:'DejaVu Sans';writing-mode:lr-tb;fill:#000000;fill-opacity:1;fill-rule:nonzero;stroke:none"
         x="0"
         y="0">1500</tspan></text>
    <path
       id="path24"
       d="m 351.93002,37.54375 v 266.112"
       style="fill:none;stroke:#b0b0b0;stroke-width:0.8;stroke-linecap:square;stroke-linejoin:round;stroke-miterlimit:10;stroke-dasharray:none;stroke-opacity:1"
       transform="matrix(1.3333333,0,0,-1.3333333,0,434.641)"
       clip-path="url(#clipPath25)" />
    <path
       id="path26"
       d="m 351.93002,37.54375 v -3.5"
       style="fill:#000000;fill-opacity:1;fill-rule:nonzero;stroke:#000000;stroke-width:0.8;stroke-linecap:butt;stroke-linejoin:round;stroke-miterlimit:10;stroke-dasharray:none;stroke-opacity:1"
       transform="matrix(1.3333333,0,0,-1.3333333,0,434.641)" />
    <text
       id="text26"
       xml:space="preserve"
       transform="matrix(1.3333333,0,0,1.3333333,452.28169,404.041)"><tspan
         id="tspan26"
         style="font-variant:normal;font-weight:normal;font-size:10px;font-family:'DejaVu Sans';writing-mode:lr-tb;fill:#000000;fill-opacity:1;fill-rule:nonzero;stroke:none"
         x="0"
         y="0">1750</tspan></text>
    <path
       id="path27"
       d="m 393.29782,37.54375 v 266.112"
       style="fill:none;stroke:#b0b0b0;stroke-width:0.8;stroke-linecap:square;stroke-linejoin:round;stroke-miterlimit:10;stroke-dasharray:none;stroke-opacity:1"
       transform="matrix(1.3333333,0,0,-1.3333333,0,434.641)"
       clip-path="url(#clipPath28)" />
    <path
       id="path29"
       d="m 393.29782,37.54375 v -3.5"
       style="fill:#000000;fill-opacity:1;fill-rule:nonzero;stroke:#000000;stroke-width:0.8;stroke-linecap:butt;stroke-linejoin:round;stroke-miterlimit:10;stroke-dasharray:none;stroke-opacity:1"
       transform="matrix(1.3333333,0,0,-1.3333333,0,434.641)" />
    <text
       id="text29"
       xml:space="preserve"
       transform="matrix(1.3333333,0,0,1.3333333,507.43876,404.041)"><tspan
         id="tspan29"
         style="font-variant:normal;font-weight:normal;font-size:10px;font-family:'DejaVu Sans';writing-mode:lr-tb;fill:#000000;fill-opacity:1;fill-rule:nonzero;stroke:none"
         x="0"
         y="0">2000</tspan></text>
    <text
       id="text30"
       xml:space="preserve"
       transform="matrix(1.3333333,0,0,1.3333333,231.47167,422.27017)"><tspan
         id="tspan30"
         style="font-variant:normal;font-weight:normal;font-size:10px;font-family:'DejaVu Sans';writing-mode:lr-tb;fill:#000000;fill-opacity:1;fill-rule:nonzero;stroke:none"
         x="0"
         y="0">Number of instances</tspan></text>
    <path
       id="path30"
       d="M 46.95,49.021029 H 404.07"
       style="fill:none;stroke:#b0b0b0;stroke-width:0.8;stroke-linecap:square;stroke-linejoin:round;stroke-miterlimit:10;stroke-dasharray:none;stroke-opacity:1"
       transform="matrix(1.3333333,0,0,-1.3333333,0,434.641)"
       clip-path="url(#clipPath31)" />
    <path
       id="path32"
       d="m 46.95,49.021029 h -3.5"
       style="fill:#000000;fill-opacity:1;fill-rule:nonzero;stroke:#000000;stroke-width:0.8;stroke-linecap:butt;stroke-linejoin:round;stroke-miterlimit:10;stroke-dasharray:none;stroke-opacity:1"
       transform="matrix(1.3333333,0,0,-1.3333333,0,434.641)" />
    <text
       id="text32"
       xml:space="preserve"
       transform="matrix(1.3333333,0,0,1.3333333,44.7875,374.34213)"><tspan
         id="tspan32"
         style="font-variant:normal;font-weight:normal;font-size:10px;font-family:'DejaVu Sans';writing-mode:lr-tb;fill:#000000;fill-opacity:1;fill-rule:nonzero;stroke:none"
         x="0"
         y="0">0</tspan></text>
    <path
       id="path33"
       d="M 46.95,79.95709 H 404.07"
       style="fill:none;stroke:#b0b0b0;stroke-width:0.8;stroke-linecap:square;stroke-linejoin:round;stroke-miterlimit:10;stroke-dasharray:none;stroke-opacity:1"
       transform="matrix(1.3333333,0,0,-1.3333333,0,434.641)"
       clip-path="url(#clipPath34)" />
    <path
       id="path35"
       d="m 46.95,79.95709 h -3.5"
       style="fill:#000000;fill-opacity:1;fill-rule:nonzero;stroke:#000000;stroke-width:0.8;stroke-linecap:butt;stroke-linejoin:round;stroke-miterlimit:10;stroke-dasharray:none;stroke-opacity:1"
       transform="matrix(1.3333333,0,0,-1.3333333,0,434.641)" />
    <text
       id="text35"
       xml:space="preserve"
       transform="matrix(1.3333333,0,0,1.3333333,36.308333,333.09405)"><tspan
         id="tspan35"
         style="font-variant:normal;font-weight:normal;font-size:10px;font-family:'DejaVu Sans';writing-mode:lr-tb;fill:#000000;fill-opacity:1;fill-rule:nonzero;stroke:none"
         x="0"
         y="0">50</tspan></text>
    <path
       id="path36"
       d="M 46.95,110.89315 H 404.07"
       style="fill:none;stroke:#b0b0b0;stroke-width:0.8;stroke-linecap:square;stroke-linejoin:round;stroke-miterlimit:10;stroke-dasharray:none;stroke-opacity:1"
       transform="matrix(1.3333333,0,0,-1.3333333,0,434.641)"
       clip-path="url(#clipPath37)" />
    <path
       id="path38"
       d="m 46.95,110.89315 h -3.5"
       style="fill:#000000;fill-opacity:1;fill-rule:nonzero;stroke:#000000;stroke-width:0.8;stroke-linecap:butt;stroke-linejoin:round;stroke-miterlimit:10;stroke-dasharray:none;stroke-opacity:1"
       transform="matrix(1.3333333,0,0,-1.3333333,0,434.641)" />
    <text
       id="text38"
       xml:space="preserve"
       transform="matrix(1.3333333,0,0,1.3333333,27.829167,291.84596)"><tspan
         id="tspan38"
         style="font-variant:normal;font-weight:normal;font-size:10px;font-family:'DejaVu Sans';writing-mode:lr-tb;fill:#000000;fill-opacity:1;fill-rule:nonzero;stroke:none"
         x="0"
         y="0">100</tspan></text>
    <path
       id="path39"
       d="M 46.95,141.82921 H 404.07"
       style="fill:none;stroke:#b0b0b0;stroke-width:0.8;stroke-linecap:square;stroke-linejoin:round;stroke-miterlimit:10;stroke-dasharray:none;stroke-opacity:1"
       transform="matrix(1.3333333,0,0,-1.3333333,0,434.641)"
       clip-path="url(#clipPath40)" />
    <path
       id="path41"
       d="m 46.95,141.82921 h -3.5"
       style="fill:#000000;fill-opacity:1;fill-rule:nonzero;stroke:#000000;stroke-width:0.8;stroke-linecap:butt;stroke-linejoin:round;stroke-miterlimit:10;stroke-dasharray:none;stroke-opacity:1"
       transform="matrix(1.3333333,0,0,-1.3333333,0,434.641)" />
    <text
       id="text41"
       xml:space="preserve"
       transform="matrix(1.3333333,0,0,1.3333333,27.829167,250.59788)"><tspan
         id="tspan41"
         style="font-variant:normal;font-weight:normal;font-size:10px;font-family:'DejaVu Sans';writing-mode:lr-tb;fill:#000000;fill-opacity:1;fill-rule:nonzero;stroke:none"
         x="0"
         y="0">150</tspan></text>
    <path
       id="path42"
       d="M 46.95,172.76527 H 404.07"
       style="fill:none;stroke:#b0b0b0;stroke-width:0.8;stroke-linecap:square;stroke-linejoin:round;stroke-miterlimit:10;stroke-dasharray:none;stroke-opacity:1"
       transform="matrix(1.3333333,0,0,-1.3333333,0,434.641)"
       clip-path="url(#clipPath43)" />
    <path
       id="path44"
       d="m 46.95,172.76527 h -3.5"
       style="fill:#000000;fill-opacity:1;fill-rule:nonzero;stroke:#000000;stroke-width:0.8;stroke-linecap:butt;stroke-linejoin:round;stroke-miterlimit:10;stroke-dasharray:none;stroke-opacity:1"
       transform="matrix(1.3333333,0,0,-1.3333333,0,434.641)" />
    <text
       id="text44"
       xml:space="preserve"
       transform="matrix(1.3333333,0,0,1.3333333,27.829167,209.3498)"><tspan
         id="tspan44"
         style="font-variant:normal;font-weight:normal;font-size:10px;font-family:'DejaVu Sans';writing-mode:lr-tb;fill:#000000;fill-opacity:1;fill-rule:nonzero;stroke:none"
         x="0"
         y="0">200</tspan></text>
    <path
       id="path45"
       d="M 46.95,203.70134 H 404.07"
       style="fill:none;stroke:#b0b0b0;stroke-width:0.8;stroke-linecap:square;stroke-linejoin:round;stroke-miterlimit:10;stroke-dasharray:none;stroke-opacity:1"
       transform="matrix(1.3333333,0,0,-1.3333333,0,434.641)"
       clip-path="url(#clipPath46)" />
    <path
       id="path47"
       d="m 46.95,203.70134 h -3.5"
       style="fill:#000000;fill-opacity:1;fill-rule:nonzero;stroke:#000000;stroke-width:0.8;stroke-linecap:butt;stroke-linejoin:round;stroke-miterlimit:10;stroke-dasharray:none;stroke-opacity:1"
       transform="matrix(1.3333333,0,0,-1.3333333,0,434.641)" />
    <text
       id="text47"
       xml:space="preserve"
       transform="matrix(1.3333333,0,0,1.3333333,27.829167,168.10172)"><tspan
         id="tspan47"
         style="font-variant:normal;font-weight:normal;font-size:10px;font-family:'DejaVu Sans';writing-mode:lr-tb;fill:#000000;fill-opacity:1;fill-rule:nonzero;stroke:none"
         x="0"
         y="0">250</tspan></text>
    <path
       id="path48"
       d="M 46.95,234.6374 H 404.07"
       style="fill:none;stroke:#b0b0b0;stroke-width:0.8;stroke-linecap:square;stroke-linejoin:round;stroke-miterlimit:10;stroke-dasharray:none;stroke-opacity:1"
       transform="matrix(1.3333333,0,0,-1.3333333,0,434.641)"
       clip-path="url(#clipPath49)" />
    <path
       id="path50"
       d="m 46.95,234.6374 h -3.5"
       style="fill:#000000;fill-opacity:1;fill-rule:nonzero;stroke:#000000;stroke-width:0.8;stroke-linecap:butt;stroke-linejoin:round;stroke-miterlimit:10;stroke-dasharray:none;stroke-opacity:1"
       transform="matrix(1.3333333,0,0,-1.3333333,0,434.641)" />
    <text
       id="text50"
       xml:space="preserve"
       transform="matrix(1.3333333,0,0,1.3333333,27.829167,126.85364)"><tspan
         id="tspan50"
         style="font-variant:normal;font-weight:normal;font-size:10px;font-family:'DejaVu Sans';writing-mode:lr-tb;fill:#000000;fill-opacity:1;fill-rule:nonzero;stroke:none"
         x="0"
         y="0">300</tspan></text>
    <path
       id="path51"
       d="M 46.95,265.57346 H 404.07"
       style="fill:none;stroke:#b0b0b0;stroke-width:0.8;stroke-linecap:square;stroke-linejoin:round;stroke-miterlimit:10;stroke-dasharray:none;stroke-opacity:1"
       transform="matrix(1.3333333,0,0,-1.3333333,0,434.641)"
       clip-path="url(#clipPath52)" />
    <path
       id="path53"
       d="m 46.95,265.57346 h -3.5"
       style="fill:#000000;fill-opacity:1;fill-rule:nonzero;stroke:#000000;stroke-width:0.8;stroke-linecap:butt;stroke-linejoin:round;stroke-miterlimit:10;stroke-dasharray:none;stroke-opacity:1"
       transform="matrix(1.3333333,0,0,-1.3333333,0,434.641)" />
    <text
       id="text53"
       xml:space="preserve"
       transform="matrix(1.3333333,0,0,1.3333333,27.829167,85.605555)"><tspan
         id="tspan53"
         style="font-variant:normal;font-weight:normal;font-size:10px;font-family:'DejaVu Sans';writing-mode:lr-tb;fill:#000000;fill-opacity:1;fill-rule:nonzero;stroke:none"
         x="0"
         y="0">350</tspan></text>
    <path
       id="path54"
       d="M 46.95,296.50952 H 404.07"
       style="fill:none;stroke:#b0b0b0;stroke-width:0.8;stroke-linecap:square;stroke-linejoin:round;stroke-miterlimit:10;stroke-dasharray:none;stroke-opacity:1"
       transform="matrix(1.3333333,0,0,-1.3333333,0,434.641)"
       clip-path="url(#clipPath55)" />
    <path
       id="path56"
       d="m 46.95,296.50952 h -3.5"
       style="fill:#000000;fill-opacity:1;fill-rule:nonzero;stroke:#000000;stroke-width:0.8;stroke-linecap:butt;stroke-linejoin:round;stroke-miterlimit:10;stroke-dasharray:none;stroke-opacity:1"
       transform="matrix(1.3333333,0,0,-1.3333333,0,434.641)" />
    <text
       id="text56"
       xml:space="preserve"
       transform="matrix(1.3333333,0,0,1.3333333,27.829167,44.357474)"><tspan
         id="tspan56"
         style="font-variant:normal;font-weight:normal;font-size:10px;font-family:'DejaVu Sans';writing-mode:lr-tb;fill:#000000;fill-opacity:1;fill-rule:nonzero;stroke:none"
         x="0"
         y="0">400</tspan></text>
    <text
       id="text57"
       xml:space="preserve"
       transform="matrix(0,-1.3333333,1.3333333,0,19.725,304.96633)"><tspan
         id="tspan57"
         style="font-variant:normal;font-weight:normal;font-size:10px;font-family:'DejaVu Sans';writing-mode:lr-tb;fill:#000000;fill-opacity:1;fill-rule:nonzero;stroke:none"
         x="0"
         y="0">Minority class instances used</tspan></text>
    <path
       id="path57"
       d="m 63.182727,49.63975 h 6.949792 l 0.827356,3.093606 h 0.165471 l 0.165471,0.618721 h 0.165472 l 0.165471,0.618722 h 0.330942 l 0.330943,1.237442 h 0.165471 l 0.165471,0.618721 h 0.330943 l 0.165471,0.618722 h 0.165471 l 0.496414,1.856163 h 0.330942 l 0.165471,0.618721 h 0.165472 l 1.323769,4.94977 h 0.165472 l 0.330942,1.237443 h 0.330943 l 0.661884,2.474885 h 0.165472 l 0.165471,0.618721 h 0.165471 l 0.992828,3.712327 h 0.827356 l 0.165471,0.618721 h 0.330942 l 0.165472,0.618722 h 0.165471 l 0.165471,0.618721 h 0.496414 l 0.496413,1.856164 h 0.165472 l 0.165471,0.618721 h 0.496413 l 0.165472,0.618721 h 0.330942 l 0.165471,0.618721 h 0.165472 l 0.165471,0.618721 h 0.330942 l 0.165472,0.618722 h 0.661884 l 0.165472,0.618721 h 0.165471 l 0.330942,1.237442 h 0.165472 l 0.165471,0.618722 h 0.496413 l 0.165472,0.618721 h 0.330942 l 0.496414,1.856164 h 0.330942 l 0.165471,0.618721 h 0.165472 l 0.165471,0.618721 h 0.165471 l 0.165471,0.618721 h 0.165472 l 0.165471,0.618721 h 0.496414 l 0.165471,0.618722 h 0.165471 l 0.165471,0.618721 h 0.330943 l 0.165471,0.618721 h 0.165471 l 0.330943,1.237443 h 2.482068 l 0.165471,0.618721 h 0.661885 l 0.165471,0.618721 h 0.661885 l 0.165471,0.618721 h 0.827357 l 0.165471,0.618721 h 1.158298 l 0.330943,1.237443 h 0.827356 l 0.330942,1.237442 h 1.32377 l 0.330942,1.237443 h 0.16547 l 0.16547,0.618721 h 1.1583 l 0.16547,0.618721 h 0.33095 l 0.33094,1.237443 h 0.33094 l 0.16547,0.618721 h 0.49642 l 0.16547,0.618721 h 1.48924 l 0.16547,0.618721 h 0.99283 l 0.16547,0.618721 h 1.65471 l 0.16547,0.61872 h 1.48924 l 0.33094,1.23744 h 0.16547 l 0.16548,0.61873 h 2.64754 l 0.16547,0.61872 h 0.82735 l 0.16548,0.61872 h 0.82735 l 0.16547,0.61872 h 0.33095 l 0.16547,0.61872 h 1.48924 l 0.16547,0.61872 h 0.49641 l 0.16547,0.61872 h 0.99283 l 0.16547,0.61872 h 3.4749 l 0.16547,0.61873 h 0.99283 l 0.16547,0.61872 h 2.15112 l 0.16547,0.61872 h 0.16548 l 0.16547,0.61872 h 2.48206 l 0.16548,0.61872 h 0.49641 l 0.33094,1.23744 h 3.14396 l 0.16547,0.61872 h 1.65471 l 0.16547,0.61873 h 0.99283 l 0.16547,0.61872 h 0.33094 l 0.16547,0.61872 h 2.81301 l 0.16547,0.61872 h 1.1583 l 0.16547,0.61872 h 1.32377 l 0.16548,0.61872 h 1.15829 l 0.16548,0.61872 h 3.14395 l 0.16547,0.61872 h 1.98565 l 0.16548,0.61872 h 0.66188 l 0.16547,0.61873 h 2.3166 l 0.16547,0.61872 h 6.94979 l 0.16547,0.61872 h 0.49642 l 0.16547,0.61872 h 0.16547 l 0.33094,1.23744 h 2.15113 l 0.16547,0.61872 h 5.79149 l 0.16547,0.61872 h 3.14396 l 0.16547,0.61873 h 1.1583 l 0.16547,0.61872 h 3.30942 l 0.16547,0.61872 h 2.97848 l 0.16548,0.61872 h 0.33094 l 0.16547,0.61872 h 0.16547 l 0.16547,0.61872 h 1.32377 l 0.16547,0.61872 h 1.82019 l 0.16547,0.61873 h 1.98565 l 0.16547,0.61872 h 1.65472 l 0.16547,0.61872 h 1.65471 l 0.16547,0.61872 h 2.97848 l 0.16547,0.61872 h 1.98566 l 0.16547,0.61872 h 2.64754 l 0.16547,0.61872 h 4.13678 l 0.16547,0.61872 h 6.12244 l 0.16547,0.61872 h 1.1583 l 0.16547,0.61873 h 0.99283 l 0.16547,0.61872 h 0.33094 l 0.49641,1.85616 h 4.30226 l 0.33094,1.23744 h 3.80584 l 0.16547,0.61872 h 4.79866 l 0.16547,0.61873 h 3.97131 l 0.16548,0.61872 h 1.98565 l 0.16547,0.61872 h 2.81301 l 0.16547,0.61872 h 0.16547 l 0.16548,0.61872 h 4.79866 l 0.16547,0.61872 h 1.48924 l 0.16547,0.61872 h 1.65472 l 0.16547,0.61872 h 1.32377 l 0.16547,0.61872 h 0.82736 l 0.16547,0.61873 h 0.16547 l 0.16547,0.61872 h 0.66188 l 0.33095,1.23744 h 4.63319 l 0.16547,0.61872 h 1.98566 l 0.16547,0.61872 h 0.82735 l 0.16548,0.61872 h 1.32376 l 0.16548,0.61872 h 3.64036 l 0.49642,1.85617 h 0.16547 l 0.33094,1.23744 h 1.82018 l 0.16548,0.61872 h 0.49641 l 0.16547,0.61872 h 1.32377 l 0.16547,0.61872 h 2.64754 l 0.16547,0.61873 h 1.82019 l 0.16547,0.61872 h 0.16547 l 0.16547,0.61872 h 5.79149 l 0.16547,0.61872 h 1.1583 l 0.16547,0.61872 h 3.14396 l 0.16547,0.61872 h 2.97848 l 0.16547,0.61872 h 0.66189 l 0.16547,0.61872 h 0.33094 l 0.16547,0.61873 h 0.82736 l 0.16547,0.61872 h 4.63319 l 0.16547,0.61872 h 0.33095 l 0.16547,0.61872 h 3.47489 l 0.16547,0.61872 h 0.99283 l 0.16547,0.61872 h 0.49642 l 0.16547,0.61872 h 1.82018 l 0.16547,0.61872 h 0.33094 l 0.16548,0.61873 h 4.13678 l 0.49641,1.85616 h 0.16547 l 0.16547,0.61872 h 3.80584 l 0.16547,0.61872 h 2.3166 l 0.16547,0.61872 h 2.81301 l 0.16547,0.61872 h 5.12961 l 0.16547,0.61873 h 0.33094 l 0.16548,0.61872 h 0.16547 l 0.16547,0.61872 h 1.32377 l 0.16547,0.61872 h 0.82736 l 0.16547,0.61872 h 0.66188 l 0.16547,0.61872 h 1.32377 l 0.16547,0.61872 h 1.82019 l 0.16547,0.61872 h 1.65471 l 0.16547,0.61873 h 0.49642 l 0.16547,0.61872 h 0.16547 l 0.16547,0.61872 h 1.65471 l 0.16547,0.61872 h 0.33095 l 0.33094,1.23744 h 2.48207 l 0.16547,0.61872 h 3.47489 l 0.16547,0.61872 h 0.82736 l 0.16547,0.61872 h 0.49642 l 0.16547,0.61873 h 2.31659 l 0.33095,1.23744 h 0.33094 l 0.16547,0.61872 h 0.49641 l 0.16547,0.61872 h 0.16548 l 0.16547,0.61872 h 0.16547 l 0.16547,0.61872 h 0.66188 l 0.16548,0.61872 h 0.33094 l 0.16547,0.61873 h 0.66188 l 0.16548,0.61872 h 0.82735 l 0.16547,0.61872 h 0.82736 l 0.16547,0.61872 h 0.66189 l 0.16547,0.61872 h 0.33094 l 0.49641,1.85616 h 0.16547 l 0.16547,0.61873 h 0.16548 l 0.33094,1.23744 h 0.33094 l 0.16547,0.61872 h 0.82736 l 0.33094,1.23744 h 0.33094 l 0.16547,0.61872 h 0.49642 l 0.33094,1.23745 h 0.16547 l 0.16547,0.61872 h 0.16547 l 0.66189,2.47488 h 0.16547 l 0.16547,0.61872 h 0.16547 l 0.16548,0.61872 h 0.16547 l 0.16547,0.61873 h 0.16547 l 0.16547,0.61872 h 0.49641 l 0.33095,1.23744 h 0.82735 l 0.16547,0.61872 h 0.16547 l 0.16548,0.61872 h 0.66188 l 0.49641,1.85617 h 0.33095 l 0.16547,0.61872 h 0.33094 l 0.16547,0.61872 h 0.16547 l 0.16547,0.61872 h 0.49642 l 0.33094,1.23744 h 0.33094 l 0.49642,1.85616 h 0.33094 l 0.16547,0.61873 h 0.16547 l 0.49641,1.85616 h 0.33095 l 0.49641,1.85616 h 0.16547 l 0.49642,1.85617 h 0.33094 l 0.16547,0.61872 h 0.16547 l 0.16547,0.61872 h 0.16547 l 0.16547,0.61872 h 0.16548 l 19.85654,74.24655 v 0"
       style="fill:none;stroke:#1f77b4;stroke-width:1.5;stroke-linecap:square;stroke-linejoin:round;stroke-miterlimit:10;stroke-dasharray:none;stroke-opacity:1"
       transform="matrix(1.3333333,0,0,-1.3333333,0,434.641)"
       clip-path="url(#clipPath58)" />
    <path
       id="path59"
       d="m 63.182727,49.63975 h 0.165471 l 0.165472,0.618721 h 0.330942 l 0.165471,0.618721 h 0.496414 l 0.165471,0.618722 h 0.165472 l 0.165471,0.618721 h 0.165471 l 0.330942,1.237442 h 0.496414 l 0.165471,0.618722 h 0.827356 l 0.165472,0.618721 h 0.992827 l 0.165471,0.618721 h 0.992828 l 0.165471,0.618721 h 2.151126 l 0.165471,0.618722 h 1.32377 l 0.165471,0.618721 h 0.661885 l 0.165471,0.618721 h 0.165471 l 0.165472,0.618721 h 3.143953 l 0.330942,1.237443 h 2.151126 l 0.165472,0.618721 h 0.165471 l 0.165471,0.618721 h 0.992827 l 0.330943,1.237443 h 0.496413 l 0.165472,0.618721 h 0.330942 l 0.165471,0.618721 h 0.330943 l 0.165471,0.618721 h 0.165471 l 0.165472,0.618721 h 0.827356 l 0.165471,0.618722 h 0.661885 l 0.165471,0.618721 h 2.482068 l 0.165472,0.618721 h 0.661885 l 0.165471,0.618721 h 0.827356 l 0.165471,0.618722 h 0.661885 l 0.165471,0.618721 h 0.496414 l 0.165471,0.618721 h 0.661885 l 0.165471,0.618721 h 1.158299 l 0.165471,0.618722 h 0.330943 l 0.165471,0.618721 h 1.654712 l 0.165471,0.618721 h 0.165471 l 0.165472,0.618721 h 0.165471 l 0.496414,1.856164 H 97.2698 l 0.165471,0.618721 h 2.482068 l 0.330941,1.237443 h 0.33094 l 0.33095,1.237442 h 1.1583 l 0.16547,0.618721 h 0.33094 l 0.16547,0.618721 h 0.99283 l 0.16547,0.618722 h 0.33094 l 0.16547,0.618721 h 0.49642 l 0.16547,0.618721 h 0.99282 l 0.16548,0.618721 h 0.82735 l 0.16547,0.618722 h 0.66189 l 0.16547,0.618721 h 0.49641 l 0.16547,0.618721 h 1.48924 l 0.16548,0.618721 h 0.16547 l 0.49641,1.856164 h 0.49642 l 0.16547,0.618721 h 0.16547 l 0.16547,0.618721 h 0.33094 l 0.16547,0.618722 h 0.49642 l 0.16547,0.618721 h 1.32377 l 0.16547,0.618721 h 1.65471 l 0.16547,0.618721 h 0.33095 l 0.16547,0.618722 h 0.33094 l 0.16547,0.618721 h 2.64754 l 0.33094,1.237442 h 0.16547 l 0.33095,1.237443 h 0.49641 l 0.16547,0.618721 h 0.82736 l 0.16547,0.618721 h 0.66188 l 0.16547,0.618721 h 0.99283 l 0.16547,0.618722 h 1.32377 l 0.16547,0.618721 h 1.48924 l 0.16548,0.618721 h 0.99282 l 0.16547,0.618721 h 0.16547 l 0.16548,0.618722 h 0.49641 l 0.33094,1.237442 h 0.16547 l 0.16547,0.618721 h 0.99283 l 0.33094,1.237442 h 3.4749 l 0.16547,0.61872 h 0.16547 l 0.16547,0.61872 h 0.33095 l 0.33094,1.23745 h 0.33094 l 0.16547,0.61872 h 0.49642 l 0.16547,0.61872 h 0.66188 l 0.16547,0.61872 h 0.33095 l 0.33094,1.23744 h 0.16547 l 0.33094,1.23744 h 0.99283 l 0.16547,0.61873 h 0.49641 l 0.33095,1.23744 h 0.49641 l 0.16547,0.61872 h 0.99283 l 0.16547,0.61872 h 0.16547 l 0.16547,0.61872 h 0.49642 l 0.16547,0.61872 h 1.32377 l 0.16547,0.61872 h 0.49641 l 0.16547,0.61873 h 0.16548 l 0.16547,0.61872 h 0.16547 l 0.16547,0.61872 h 0.49641 l 0.16547,0.61872 h 1.98566 l 0.33094,1.23744 h 0.49641 l 0.16548,0.61872 h 0.66188 l 0.33094,1.23744 h 0.16547 l 0.33095,1.23745 h 1.82018 l 0.16547,0.61872 h 0.66189 l 0.16547,0.61872 h 0.33094 l 0.16547,0.61872 h 0.49641 l 0.16548,0.61872 h 0.16547 l 0.16547,0.61872 h 0.49641 l 0.16547,0.61872 h 1.1583 l 0.16547,0.61873 h 0.66189 l 0.33094,1.23744 h 0.16547 l 0.16547,0.61872 h 0.49642 l 0.16547,0.61872 h 0.33094 l 0.16547,0.61872 h 0.49642 l 0.16547,0.61872 h 0.66188 l 0.16547,0.61873 h 0.16547 l 0.16547,0.61872 h 3.4749 l 0.16547,0.61872 h 0.16547 l 0.16547,0.61872 h 0.49642 l 0.16547,0.61872 h 1.65471 l 0.16547,0.61872 h 0.49642 l 0.16547,0.61872 h 1.48924 l 0.16547,0.61872 h 0.82736 l 0.16547,0.61872 h 0.82735 l 0.16548,0.61873 h 0.49641 l 0.33094,1.23744 h 0.16547 l 0.16547,0.61872 h 1.98566 l 0.16547,0.61872 h 1.48924 l 0.16547,0.61872 h 1.82018 l 0.16548,0.61872 h 1.48924 l 0.16547,0.61872 h 1.1583 l 0.16547,0.61873 h 0.49641 l 0.16547,0.61872 h 0.49642 l 0.33094,1.23744 h 0.33094 l 0.33094,1.23744 h 0.16548 l 0.16547,0.61872 h 0.16547 l 0.16547,0.61872 h 0.33094 l 0.16547,0.61872 h 1.32377 l 0.33094,1.23745 h 0.82736 l 0.16547,0.61872 h 1.32377 l 0.16547,0.61872 h 0.16547 l 0.16548,0.61872 h 0.33094 l 0.16547,0.61872 h 1.1583 l 0.16547,0.61872 h 0.82736 l 0.16547,0.61872 h 0.16547 l 0.16547,0.61873 h 0.33094 l 0.49642,1.85616 h 1.15829 l 0.16547,0.61872 h 0.99283 l 0.16547,0.61872 h 0.49642 l 0.16547,0.61872 h 1.32377 l 0.16547,0.61872 h 0.16547 l 0.16547,0.61873 h 1.65471 l 0.16548,0.61872 h 2.15112 l 0.16547,0.61872 h 0.33095 l 0.16547,0.61872 h 1.98565 l 0.16547,0.61872 h 0.49642 l 0.16547,0.61872 h 0.82735 l 0.16547,0.61872 h 1.32377 l 0.16548,0.61872 h 0.33094 l 0.16547,0.61873 h 0.82736 l 0.16547,0.61872 h 1.48924 l 0.16547,0.61872 h 0.99283 l 0.33094,1.23744 h 2.64754 l 0.16547,0.61872 h 0.99283 l 0.16547,0.61872 h 1.48924 l 0.16547,0.61872 h 0.49641 l 0.16548,0.61873 h 1.82018 l 0.33094,1.23744 h 1.82018 l 0.16548,0.61872 H 225.51 l 0.49641,1.85616 h 0.66189 l 0.33094,1.23745 h 0.16547 l 0.16547,0.61872 h 2.97849 l 0.16547,0.61872 h 1.1583 l 0.16547,0.61872 h 3.97131 l 0.16547,0.61872 h 1.1583 l 0.33094,1.23744 h 0.49641 l 0.33094,1.23745 h 0.16548 l 0.16547,0.61872 h 0.66188 l 0.33094,1.23744 h 0.33095 l 0.33094,1.23744 h 0.49641 l 0.16547,0.61872 h 0.99283 l 0.16547,0.61872 h 1.65471 l 0.16548,0.61872 h 1.32377 l 0.16547,0.61873 h 0.33094 l 0.49641,1.85616 h 0.16547 l 0.49642,1.85616 h 0.66188 l 0.16547,0.61872 h 1.98566 l 0.33094,1.23745 h 0.16547 l 0.33094,1.23744 h 1.1583 l 0.16547,0.61872 h 0.49642 l 0.16547,0.61872 h 0.16547 l 0.16547,0.61872 h 0.16547 l 0.33095,1.23745 h 0.49641 l 0.16547,0.61872 h 0.66189 l 0.16547,0.61872 h 0.49641 l 0.33094,1.23744 h 0.66189 l 0.16547,0.61872 h 2.3166 l 0.16547,0.61872 h 0.49641 l 0.33094,1.23745 h 0.16547 l 0.16548,0.61872 h 0.49641 l 0.16547,0.61872 h 0.49641 l 0.33095,1.23744 h 0.16547 l 0.33094,1.23744 h 0.33094 l 0.16547,0.61872 h 0.49642 l 0.16547,0.61873 h 0.33094 l 0.16547,0.61872 h 1.1583 l 0.16547,0.61872 h 0.99283 l 0.16547,0.61872 h 0.49641 l 0.16548,0.61872 h 0.16547 l 0.16547,0.61872 h 0.16547 l 0.16547,0.61872 h 1.98566 l 0.16547,0.61872 h 0.16547 l 0.16547,0.61873 h 0.99283 l 0.16547,0.61872 h 0.66188 l 0.33095,1.23744 h 0.99282 l 0.16547,0.61872 h 0.16548 l 0.16547,0.61872 h 0.82735 l 0.16547,0.61872 h 0.33095 l 0.16547,0.61872 h 0.16547 l 0.16547,0.61872 h 0.16547 l 0.16547,0.61873 h 0.49642 l 0.16547,0.61872 h 1.1583 l 0.16547,0.61872 h 1.48924 l 0.16547,0.61872 h 0.66188 l 0.33095,1.23744 h 1.1583 l 0.33094,1.23744 h 0.49641 l 0.16547,0.61873 h 0.66189 l 0.16547,0.61872 h 1.32377 l 0.16547,0.61872 h 0.33094 l 0.16547,0.61872 h 0.82736 l 0.16547,0.61872 h 1.82018 l 0.16548,0.61872 h 0.49641 l 0.16547,0.61872 h 1.1583 l 0.16547,0.61872 h 0.99283 l 0.16547,0.61873 h 0.33094 l 0.16547,0.61872 h 0.33094 l 0.16548,0.61872 h 3.97131 l 0.16547,0.61872 h 0.99283 l 0.33094,1.23744 h 0.33094 l 0.16547,0.61872 h 0.33094 l 0.49642,1.85617 h 0.49641 l 0.16547,0.61872 h 0.16547 l 0.16547,0.61872 h 0.99283 l 0.16547,0.61872 h 1.1583 l 0.16547,0.61872 h 0.16547 l 0.16547,0.61872 h 0.66189 l 0.49641,1.85617 h 0.33095 l 0.16547,0.61872 h 0.66188 l 0.33094,1.23744 h 0.16548 l 0.16547,0.61872 h 0.16547 l 0.33094,1.23744 h 1.1583 l 0.16547,0.61873 h 0.49641 l 0.33095,1.23744 h 2.48206 l 0.33095,1.23744 h 0.49641 l 0.16547,0.61872 h 0.49642 l 0.16547,0.61872 h 1.48924 l 0.16547,0.61872 h 0.66188 l 0.16548,0.61873 h 2.48206 l 0.16547,0.61872 h 0.16548 l 0.16547,0.61872 h 1.1583 l 0.16547,0.61872 h 0.33094 l 0.16547,0.61872 h 3.80584 l 0.16547,0.61872 h 1.1583 l 0.66188,2.47489 h 0.33095 l 0.16547,0.61872 h 0.99282 l 0.16548,0.61872 h 0.16547 l 0.16547,0.61872 h 0.99283 l 0.33094,1.23744 h 0.49641 l 0.16547,0.61872 h 0.33095 l 0.33094,1.23745 h 0.33094 l 0.16547,0.61872 h 0.16547 l 0.16547,0.61872 h 0.16548 l 0.16547,0.61872 h 2.64754 l 0.33094,1.23744 h 0.66188 l 0.16547,0.61872 h 0.66189 l 0.16547,0.61872 h 0.49641 l 0.16548,0.61873 h 0.66188 l 0.16547,0.61872 h 0.16547 l 0.16547,0.61872 h 0.82736 l 0.16547,0.61872 h 0.16547 l 0.16547,0.61872 h 0.16548 l 0.16547,0.61872 h 0.33094 l 0.16547,0.61872 h 1.32377 l 0.16547,0.61872 h 0.66189 l 0.16547,0.61873 h 0.49641 l 0.16547,0.61872 h 0.16547 l 0.33095,1.23744 h 0.66188 l 0.16547,0.61872 h 0.33094 l 0.16548,0.61872 h 0.33094 l 0.16547,0.61872 h 0.82736 l 0.16547,0.61872 h 0.16547 l 0.16547,0.61873 h 0.66188 l 0.16548,0.61872 h 0.66188 l 0.16547,0.61872 h 2.81301 l 0.33094,1.23744 h 0.49642 l 0.16547,0.61872 h 0.82736 l 0.16547,0.61872 h 0.49641 l 0.33094,1.23745 h 0.49642 l 0.16547,0.61872 h 0.49641 l 0.16547,0.61872 h 3.14396 l 0.33094,1.23744 h 1.1583 l 0.16547,0.61872 h 0.66188 l 0.33095,1.23744 h 0.99282 l 0.16547,0.61873 h 0.16548 l 0.16547,0.61872 h 0.16547 l 0.16547,0.61872 h 0.99283 l 0.16547,0.61872 h 0.82735 l 0.16548,0.61872 h 1.15829 l 0.16548,0.61872 h 0.16547 l 0.16547,0.61872 h 0.49641 l 0.16547,0.61872 h 0.33095 l 0.16547,0.61872 h 0.82735 l 0.16547,0.61873 h 0.66189 l 0.49641,1.85616 h 1.48924 l 0.16547,0.61872 h 0.99283 l 0.33094,1.23744 h 2.48207 l 0.16547,0.61872 h 0.66189 l 0.33094,1.23745 h 2.97848 l 0.16547,0.61872 h 2.97849 l 0.16547,0.61872 h 0.33094 l 0.33094,1.23744 h 1.48924 l 0.16548,0.61872 h 0.16547 l 0.16547,0.61873 h 0.33094 l 0.16547,0.61872 h 0.49642 l 0.16547,0.61872 h 0.16547 l 0.16547,0.61872 h 0.16547 l 0.16547,0.61872 h 0.16547 v 0"
       style="fill:none;stroke:#ff7f0e;stroke-width:1.5;stroke-linecap:square;stroke-linejoin:round;stroke-miterlimit:10;stroke-dasharray:none;stroke-opacity:1"
       transform="matrix(1.3333333,0,0,-1.3333333,0,434.641)"
       clip-path="url(#clipPath60)" />
    <path
       id="path61"
       d="m 46.95,37.54375 v 266.112"
       style="fill:none;stroke:#000000;stroke-width:0.8;stroke-linecap:square;stroke-linejoin:miter;stroke-miterlimit:10;stroke-dasharray:none;stroke-opacity:1"
       transform="matrix(1.3333333,0,0,-1.3333333,0,434.641)" />
    <path
       id="path62"
       d="m 404.07,37.54375 v 266.112"
       style="fill:none;stroke:#000000;stroke-width:0.8;stroke-linecap:square;stroke-linejoin:miter;stroke-miterlimit:10;stroke-dasharray:none;stroke-opacity:1"
       transform="matrix(1.3333333,0,0,-1.3333333,0,434.641)" />
    <path
       id="path63"
       d="M 46.95,37.54375 H 404.07"
       style="fill:none;stroke:#000000;stroke-width:0.8;stroke-linecap:square;stroke-linejoin:miter;stroke-miterlimit:10;stroke-dasharray:none;stroke-opacity:1"
       transform="matrix(1.3333333,0,0,-1.3333333,0,434.641)" />
    <path
       id="path64"
       d="M 46.95,303.65575 H 404.07"
       style="fill:none;stroke:#000000;stroke-width:0.8;stroke-linecap:square;stroke-linejoin:miter;stroke-miterlimit:10;stroke-dasharray:none;stroke-opacity:1"
       transform="matrix(1.3333333,0,0,-1.3333333,0,434.641)" />
    <text
       id="text64"
       xml:space="preserve"
       transform="matrix(1.3333333,0,0,1.3333333,174.4925,21.766667)"><tspan
         id="tspan64"
         style="font-variant:normal;font-weight:normal;font-size:12px;font-family:'DejaVu Sans';writing-mode:lr-tb;fill:#000000;fill-opacity:1;fill-rule:nonzero;stroke:none"
         x="0"
         dx="0 0 -0.359375"
         y="0">IR: 4, minorities in dataset: 391</tspan></text>
    <path
       id="path65"
       d="m 53.95,266.312 h 115.67187 c 1.33334,0 2,0.66667 2,2 v 28.34375 c 0,1.33333 -0.66666,2 -2,2 H 53.95 c -1.333333,0 -2,-0.66667 -2,-2 V 268.312 c 0,-1.33333 0.666667,-2 2,-2 z"
       style="fill:#ffffff;fill-opacity:0.8;fill-rule:nonzero;stroke:#cccccc;stroke-width:1;stroke-linecap:butt;stroke-linejoin:miter;stroke-miterlimit:10;stroke-dasharray:none;stroke-opacity:0.8"
       transform="matrix(1.3333333,0,0,-1.3333333,0,434.641)" />
    <path
       id="path66"
       d="m 55.95,290.562 h 10 10"
       style="fill:none;stroke:#1f77b4;stroke-width:1.5;stroke-linecap:square;stroke-linejoin:round;stroke-miterlimit:10;stroke-dasharray:none;stroke-opacity:1"
       transform="matrix(1.3333333,0,0,-1.3333333,0,434.641)" />
    <text
       id="text66"
       xml:space="preserve"
       transform="matrix(1.3333333,0,0,1.3333333,111.93333,51.891667)"><tspan
         id="tspan66"
         style="font-variant:normal;font-weight:normal;font-size:10px;font-family:'DejaVu Sans';writing-mode:lr-tb;fill:#000000;fill-opacity:1;fill-rule:nonzero;stroke:none"
         x="0"
         dx="0 -0.171875 0 0 0 0 0 0 -0.171875 0 0 -0.171875"
         y="0">Active Learning</tspan></text>
    <path
       id="path67"
       d="m 55.95,275.89012 h 10 10"
       style="fill:none;stroke:#ff7f0e;stroke-width:1.5;stroke-linecap:square;stroke-linejoin:round;stroke-miterlimit:10;stroke-dasharray:none;stroke-opacity:1"
       transform="matrix(1.3333333,0,0,-1.3333333,0,434.641)" />
    <text
       id="text67"
       xml:space="preserve"
       transform="matrix(1.3333333,0,0,1.3333333,111.93333,71.454167)"><tspan
         id="tspan67"
         style="font-variant:normal;font-weight:normal;font-size:10px;font-family:'DejaVu Sans';writing-mode:lr-tb;fill:#000000;fill-opacity:1;fill-rule:nonzero;stroke:none"
         x="0"
         dx="0 -0.4375 0 0 0 0 0 0 0 -0.171875 0 0 -0.171875"
         y="0">Passive Learning</tspan></text>
  </g>
</svg>
