<?xml version="1.0" encoding="UTF-8" standalone="no"?>
<!-- Created with Inkscape (http://www.inkscape.org/) -->

<svg
   version="1.1"
   id="svg1"
   width="551.40454"
   height="434.64099"
   viewBox="0 0 551.40454 434.64099"
   xmlns="http://www.w3.org/2000/svg"
   xmlns:svg="http://www.w3.org/2000/svg">
  <defs
     id="defs1">
    <clipPath
       clipPathUnits="userSpaceOnUse"
       id="clipPath4">
      <path
         d="m 46.95,37.54375 h 357.12 v 266.112 H 46.95 Z"
         id="path4" />
    </clipPath>
    <clipPath
       clipPathUnits="userSpaceOnUse"
       id="clipPath7">
      <path
         d="m 46.95,37.54375 h 357.12 v 266.112 H 46.95 Z"
         id="path7" />
    </clipPath>
    <clipPath
       clipPathUnits="userSpaceOnUse"
       id="clipPath10">
      <path
         d="m 46.95,37.54375 h 357.12 v 266.112 H 46.95 Z"
         id="path10" />
    </clipPath>
    <clipPath
       clipPathUnits="userSpaceOnUse"
       id="clipPath13">
      <path
         d="m 46.95,37.54375 h 357.12 v 266.112 H 46.95 Z"
         id="path13" />
    </clipPath>
    <clipPath
       clipPathUnits="userSpaceOnUse"
       id="clipPath16">
      <path
         d="m 46.95,37.54375 h 357.12 v 266.112 H 46.95 Z"
         id="path16" />
    </clipPath>
    <clipPath
       clipPathUnits="userSpaceOnUse"
       id="clipPath19">
      <path
         d="m 46.95,37.54375 h 357.12 v 266.112 H 46.95 Z"
         id="path19" />
    </clipPath>
    <clipPath
       clipPathUnits="userSpaceOnUse"
       id="clipPath22">
      <path
         d="m 46.95,37.54375 h 357.12 v 266.112 H 46.95 Z"
         id="path22" />
    </clipPath>
    <clipPath
       clipPathUnits="userSpaceOnUse"
       id="clipPath25">
      <path
         d="m 46.95,37.54375 h 357.12 v 266.112 H 46.95 Z"
         id="path25" />
    </clipPath>
    <clipPath
       clipPathUnits="userSpaceOnUse"
       id="clipPath28">
      <path
         d="m 46.95,37.54375 h 357.12 v 266.112 H 46.95 Z"
         id="path28" />
    </clipPath>
    <clipPath
       clipPathUnits="userSpaceOnUse"
       id="clipPath31">
      <path
         d="m 46.95,37.54375 h 357.12 v 266.112 H 46.95 Z"
         id="path31" />
    </clipPath>
    <clipPath
       clipPathUnits="userSpaceOnUse"
       id="clipPath34">
      <path
         d="m 46.95,37.54375 h 357.12 v 266.112 H 46.95 Z"
         id="path34" />
    </clipPath>
    <clipPath
       clipPathUnits="userSpaceOnUse"
       id="clipPath37">
      <path
         d="m 46.95,37.54375 h 357.12 v 266.112 H 46.95 Z"
         id="path37" />
    </clipPath>
    <clipPath
       clipPathUnits="userSpaceOnUse"
       id="clipPath40">
      <path
         d="m 46.95,37.54375 h 357.12 v 266.112 H 46.95 Z"
         id="path40" />
    </clipPath>
    <clipPath
       clipPathUnits="userSpaceOnUse"
       id="clipPath43">
      <path
         d="m 46.95,37.54375 h 357.12 v 266.112 H 46.95 Z"
         id="path43" />
    </clipPath>
    <clipPath
       clipPathUnits="userSpaceOnUse"
       id="clipPath46">
      <path
         d="m 46.95,37.54375 h 357.12 v 266.112 H 46.95 Z"
         id="path46" />
    </clipPath>
    <clipPath
       clipPathUnits="userSpaceOnUse"
       id="clipPath49">
      <path
         d="m 46.95,37.54375 h 357.12 v 266.112 H 46.95 Z"
         id="path49" />
    </clipPath>
    <clipPath
       clipPathUnits="userSpaceOnUse"
       id="clipPath52">
      <path
         d="m 46.95,37.54375 h 357.12 v 266.112 H 46.95 Z"
         id="path52" />
    </clipPath>
    <clipPath
       clipPathUnits="userSpaceOnUse"
       id="clipPath54">
      <path
         d="m 46.95,37.54375 h 357.12 v 266.112 H 46.95 Z"
         id="path54" />
    </clipPath>
  </defs>
  <g
     id="g1">
    <path
       id="path1"
       d="M 0,0 H 413.55342 V 325.98075 H 0 Z"
       style="fill:#ffffff;fill-opacity:1;fill-rule:nonzero;stroke:none"
       transform="matrix(1.3333333,0,0,-1.3333333,0,434.641)" />
    <path
       id="path2"
       d="m 46.95,37.54375 h 357.12 v 266.112 H 46.95 Z"
       style="fill:#ffffff;fill-opacity:1;fill-rule:nonzero;stroke:none"
       transform="matrix(1.3333333,0,0,-1.3333333,0,434.641)" />
    <path
       id="path3"
       d="m 62.354527,37.54375 v 266.112"
       style="fill:none;stroke:#b0b0b0;stroke-width:0.8;stroke-linecap:square;stroke-linejoin:round;stroke-miterlimit:10;stroke-dasharray:none;stroke-opacity:1"
       transform="matrix(1.3333333,0,0,-1.3333333,0,434.641)"
       clip-path="url(#clipPath4)" />
    <path
       id="path5"
       d="m 62.354527,37.54375 v -3.5"
       style="fill:#000000;fill-opacity:1;fill-rule:nonzero;stroke:#000000;stroke-width:0.8;stroke-linecap:butt;stroke-linejoin:round;stroke-miterlimit:10;stroke-dasharray:none;stroke-opacity:1"
       transform="matrix(1.3333333,0,0,-1.3333333,0,434.641)" />
    <text
       id="text5"
       xml:space="preserve"
       transform="matrix(1.3333333,0,0,1.3333333,78.899786,404.041)"><tspan
         id="tspan5"
         style="font-variant:normal;font-weight:normal;font-size:10px;font-family:'DejaVu Sans';writing-mode:lr-tb;fill:#000000;fill-opacity:1;fill-rule:nonzero;stroke:none"
         x="0"
         y="0">0</tspan></text>
    <path
       id="path6"
       d="m 117.56789,37.54375 v 266.112"
       style="fill:none;stroke:#b0b0b0;stroke-width:0.8;stroke-linecap:square;stroke-linejoin:round;stroke-miterlimit:10;stroke-dasharray:none;stroke-opacity:1"
       transform="matrix(1.3333333,0,0,-1.3333333,0,434.641)"
       clip-path="url(#clipPath7)" />
    <path
       id="path8"
       d="m 117.56789,37.54375 v -3.5"
       style="fill:#000000;fill-opacity:1;fill-rule:nonzero;stroke:#000000;stroke-width:0.8;stroke-linecap:butt;stroke-linejoin:round;stroke-miterlimit:10;stroke-dasharray:none;stroke-opacity:1"
       transform="matrix(1.3333333,0,0,-1.3333333,0,434.641)" />
    <text
       id="text8"
       xml:space="preserve"
       transform="matrix(1.3333333,0,0,1.3333333,144.03843,404.041)"><tspan
         id="tspan8"
         style="font-variant:normal;font-weight:normal;font-size:10px;font-family:'DejaVu Sans';writing-mode:lr-tb;fill:#000000;fill-opacity:1;fill-rule:nonzero;stroke:none"
         x="0"
         y="0">200</tspan></text>
    <path
       id="path9"
       d="m 172.78124,37.54375 v 266.112"
       style="fill:none;stroke:#b0b0b0;stroke-width:0.8;stroke-linecap:square;stroke-linejoin:round;stroke-miterlimit:10;stroke-dasharray:none;stroke-opacity:1"
       transform="matrix(1.3333333,0,0,-1.3333333,0,434.641)"
       clip-path="url(#clipPath10)" />
    <path
       id="path11"
       d="m 172.78124,37.54375 v -3.5"
       style="fill:#000000;fill-opacity:1;fill-rule:nonzero;stroke:#000000;stroke-width:0.8;stroke-linecap:butt;stroke-linejoin:round;stroke-miterlimit:10;stroke-dasharray:none;stroke-opacity:1"
       transform="matrix(1.3333333,0,0,-1.3333333,0,434.641)" />
    <text
       id="text11"
       xml:space="preserve"
       transform="matrix(1.3333333,0,0,1.3333333,217.65624,404.041)"><tspan
         id="tspan11"
         style="font-variant:normal;font-weight:normal;font-size:10px;font-family:'DejaVu Sans';writing-mode:lr-tb;fill:#000000;fill-opacity:1;fill-rule:nonzero;stroke:none"
         x="0"
         y="0">400</tspan></text>
    <path
       id="path12"
       d="m 227.9946,37.54375 v 266.112"
       style="fill:none;stroke:#b0b0b0;stroke-width:0.8;stroke-linecap:square;stroke-linejoin:round;stroke-miterlimit:10;stroke-dasharray:none;stroke-opacity:1"
       transform="matrix(1.3333333,0,0,-1.3333333,0,434.641)"
       clip-path="url(#clipPath13)" />
    <path
       id="path14"
       d="m 227.9946,37.54375 v -3.5"
       style="fill:#000000;fill-opacity:1;fill-rule:nonzero;stroke:#000000;stroke-width:0.8;stroke-linecap:butt;stroke-linejoin:round;stroke-miterlimit:10;stroke-dasharray:none;stroke-opacity:1"
       transform="matrix(1.3333333,0,0,-1.3333333,0,434.641)" />
    <text
       id="text14"
       xml:space="preserve"
       transform="matrix(1.3333333,0,0,1.3333333,291.27405,404.041)"><tspan
         id="tspan14"
         style="font-variant:normal;font-weight:normal;font-size:10px;font-family:'DejaVu Sans';writing-mode:lr-tb;fill:#000000;fill-opacity:1;fill-rule:nonzero;stroke:none"
         x="0"
         y="0">600</tspan></text>
    <path
       id="path15"
       d="m 283.20796,37.54375 v 266.112"
       style="fill:none;stroke:#b0b0b0;stroke-width:0.8;stroke-linecap:square;stroke-linejoin:round;stroke-miterlimit:10;stroke-dasharray:none;stroke-opacity:1"
       transform="matrix(1.3333333,0,0,-1.3333333,0,434.641)"
       clip-path="url(#clipPath16)" />
    <path
       id="path17"
       d="m 283.20796,37.54375 v -3.5"
       style="fill:#000000;fill-opacity:1;fill-rule:nonzero;stroke:#000000;stroke-width:0.8;stroke-linecap:butt;stroke-linejoin:round;stroke-miterlimit:10;stroke-dasharray:none;stroke-opacity:1"
       transform="matrix(1.3333333,0,0,-1.3333333,0,434.641)" />
    <text
       id="text17"
       xml:space="preserve"
       transform="matrix(1.3333333,0,0,1.3333333,364.89186,404.041)"><tspan
         id="tspan17"
         style="font-variant:normal;font-weight:normal;font-size:10px;font-family:'DejaVu Sans';writing-mode:lr-tb;fill:#000000;fill-opacity:1;fill-rule:nonzero;stroke:none"
         x="0"
         y="0">800</tspan></text>
    <path
       id="path18"
       d="m 338.42132,37.54375 v 266.112"
       style="fill:none;stroke:#b0b0b0;stroke-width:0.8;stroke-linecap:square;stroke-linejoin:round;stroke-miterlimit:10;stroke-dasharray:none;stroke-opacity:1"
       transform="matrix(1.3333333,0,0,-1.3333333,0,434.641)"
       clip-path="url(#clipPath19)" />
    <path
       id="path20"
       d="m 338.42132,37.54375 v -3.5"
       style="fill:#000000;fill-opacity:1;fill-rule:nonzero;stroke:#000000;stroke-width:0.8;stroke-linecap:butt;stroke-linejoin:round;stroke-miterlimit:10;stroke-dasharray:none;stroke-opacity:1"
       transform="matrix(1.3333333,0,0,-1.3333333,0,434.641)" />
    <text
       id="text20"
       xml:space="preserve"
       transform="matrix(1.3333333,0,0,1.3333333,434.27009,404.041)"><tspan
         id="tspan20"
         style="font-variant:normal;font-weight:normal;font-size:10px;font-family:'DejaVu Sans';writing-mode:lr-tb;fill:#000000;fill-opacity:1;fill-rule:nonzero;stroke:none"
         x="0"
         y="0">1000</tspan></text>
    <path
       id="path21"
       d="m 393.63468,37.54375 v 266.112"
       style="fill:none;stroke:#b0b0b0;stroke-width:0.8;stroke-linecap:square;stroke-linejoin:round;stroke-miterlimit:10;stroke-dasharray:none;stroke-opacity:1"
       transform="matrix(1.3333333,0,0,-1.3333333,0,434.641)"
       clip-path="url(#clipPath22)" />
    <path
       id="path23"
       d="m 393.63468,37.54375 v -3.5"
       style="fill:#000000;fill-opacity:1;fill-rule:nonzero;stroke:#000000;stroke-width:0.8;stroke-linecap:butt;stroke-linejoin:round;stroke-miterlimit:10;stroke-dasharray:none;stroke-opacity:1"
       transform="matrix(1.3333333,0,0,-1.3333333,0,434.641)" />
    <text
       id="text23"
       xml:space="preserve"
       transform="matrix(1.3333333,0,0,1.3333333,507.8879,404.041)"><tspan
         id="tspan23"
         style="font-variant:normal;font-weight:normal;font-size:10px;font-family:'DejaVu Sans';writing-mode:lr-tb;fill:#000000;fill-opacity:1;fill-rule:nonzero;stroke:none"
         x="0"
         y="0">1200</tspan></text>
    <text
       id="text24"
       xml:space="preserve"
       transform="matrix(1.3333333,0,0,1.3333333,231.47167,422.27017)"><tspan
         id="tspan24"
         style="font-variant:normal;font-weight:normal;font-size:10px;font-family:'DejaVu Sans';writing-mode:lr-tb;fill:#000000;fill-opacity:1;fill-rule:nonzero;stroke:none"
         x="0"
         y="0">Number of instances</tspan></text>
    <path
       id="path24"
       d="M 46.95,49.024177 H 404.07"
       style="fill:none;stroke:#b0b0b0;stroke-width:0.8;stroke-linecap:square;stroke-linejoin:round;stroke-miterlimit:10;stroke-dasharray:none;stroke-opacity:1"
       transform="matrix(1.3333333,0,0,-1.3333333,0,434.641)"
       clip-path="url(#clipPath25)" />
    <path
       id="path26"
       d="m 46.95,49.024177 h -3.5"
       style="fill:#000000;fill-opacity:1;fill-rule:nonzero;stroke:#000000;stroke-width:0.8;stroke-linecap:butt;stroke-linejoin:round;stroke-miterlimit:10;stroke-dasharray:none;stroke-opacity:1"
       transform="matrix(1.3333333,0,0,-1.3333333,0,434.641)" />
    <text
       id="text26"
       xml:space="preserve"
       transform="matrix(1.3333333,0,0,1.3333333,44.7875,374.33793)"><tspan
         id="tspan26"
         style="font-variant:normal;font-weight:normal;font-size:10px;font-family:'DejaVu Sans';writing-mode:lr-tb;fill:#000000;fill-opacity:1;fill-rule:nonzero;stroke:none"
         x="0"
         y="0">0</tspan></text>
    <path
       id="path27"
       d="M 46.95,79.802803 H 404.07"
       style="fill:none;stroke:#b0b0b0;stroke-width:0.8;stroke-linecap:square;stroke-linejoin:round;stroke-miterlimit:10;stroke-dasharray:none;stroke-opacity:1"
       transform="matrix(1.3333333,0,0,-1.3333333,0,434.641)"
       clip-path="url(#clipPath28)" />
    <path
       id="path29"
       d="m 46.95,79.802803 h -3.5"
       style="fill:#000000;fill-opacity:1;fill-rule:nonzero;stroke:#000000;stroke-width:0.8;stroke-linecap:butt;stroke-linejoin:round;stroke-miterlimit:10;stroke-dasharray:none;stroke-opacity:1"
       transform="matrix(1.3333333,0,0,-1.3333333,0,434.641)" />
    <text
       id="text29"
       xml:space="preserve"
       transform="matrix(1.3333333,0,0,1.3333333,36.308333,333.29976)"><tspan
         id="tspan29"
         style="font-variant:normal;font-weight:normal;font-size:10px;font-family:'DejaVu Sans';writing-mode:lr-tb;fill:#000000;fill-opacity:1;fill-rule:nonzero;stroke:none"
         x="0"
         y="0">50</tspan></text>
    <path
       id="path30"
       d="M 46.95,110.58143 H 404.07"
       style="fill:none;stroke:#b0b0b0;stroke-width:0.8;stroke-linecap:square;stroke-linejoin:round;stroke-miterlimit:10;stroke-dasharray:none;stroke-opacity:1"
       transform="matrix(1.3333333,0,0,-1.3333333,0,434.641)"
       clip-path="url(#clipPath31)" />
    <path
       id="path32"
       d="m 46.95,110.58143 h -3.5"
       style="fill:#000000;fill-opacity:1;fill-rule:nonzero;stroke:#000000;stroke-width:0.8;stroke-linecap:butt;stroke-linejoin:round;stroke-miterlimit:10;stroke-dasharray:none;stroke-opacity:1"
       transform="matrix(1.3333333,0,0,-1.3333333,0,434.641)" />
    <text
       id="text32"
       xml:space="preserve"
       transform="matrix(1.3333333,0,0,1.3333333,27.829167,292.26159)"><tspan
         id="tspan32"
         style="font-variant:normal;font-weight:normal;font-size:10px;font-family:'DejaVu Sans';writing-mode:lr-tb;fill:#000000;fill-opacity:1;fill-rule:nonzero;stroke:none"
         x="0"
         y="0">100</tspan></text>
    <path
       id="path33"
       d="M 46.95,141.36005 H 404.07"
       style="fill:none;stroke:#b0b0b0;stroke-width:0.8;stroke-linecap:square;stroke-linejoin:round;stroke-miterlimit:10;stroke-dasharray:none;stroke-opacity:1"
       transform="matrix(1.3333333,0,0,-1.3333333,0,434.641)"
       clip-path="url(#clipPath34)" />
    <path
       id="path35"
       d="m 46.95,141.36005 h -3.5"
       style="fill:#000000;fill-opacity:1;fill-rule:nonzero;stroke:#000000;stroke-width:0.8;stroke-linecap:butt;stroke-linejoin:round;stroke-miterlimit:10;stroke-dasharray:none;stroke-opacity:1"
       transform="matrix(1.3333333,0,0,-1.3333333,0,434.641)" />
    <text
       id="text35"
       xml:space="preserve"
       transform="matrix(1.3333333,0,0,1.3333333,27.829167,251.22343)"><tspan
         id="tspan35"
         style="font-variant:normal;font-weight:normal;font-size:10px;font-family:'DejaVu Sans';writing-mode:lr-tb;fill:#000000;fill-opacity:1;fill-rule:nonzero;stroke:none"
         x="0"
         y="0">150</tspan></text>
    <path
       id="path36"
       d="M 46.95,172.13868 H 404.07"
       style="fill:none;stroke:#b0b0b0;stroke-width:0.8;stroke-linecap:square;stroke-linejoin:round;stroke-miterlimit:10;stroke-dasharray:none;stroke-opacity:1"
       transform="matrix(1.3333333,0,0,-1.3333333,0,434.641)"
       clip-path="url(#clipPath37)" />
    <path
       id="path38"
       d="m 46.95,172.13868 h -3.5"
       style="fill:#000000;fill-opacity:1;fill-rule:nonzero;stroke:#000000;stroke-width:0.8;stroke-linecap:butt;stroke-linejoin:round;stroke-miterlimit:10;stroke-dasharray:none;stroke-opacity:1"
       transform="matrix(1.3333333,0,0,-1.3333333,0,434.641)" />
    <text
       id="text38"
       xml:space="preserve"
       transform="matrix(1.3333333,0,0,1.3333333,27.829167,210.18526)"><tspan
         id="tspan38"
         style="font-variant:normal;font-weight:normal;font-size:10px;font-family:'DejaVu Sans';writing-mode:lr-tb;fill:#000000;fill-opacity:1;fill-rule:nonzero;stroke:none"
         x="0"
         y="0">200</tspan></text>
    <path
       id="path39"
       d="M 46.95,202.91731 H 404.07"
       style="fill:none;stroke:#b0b0b0;stroke-width:0.8;stroke-linecap:square;stroke-linejoin:round;stroke-miterlimit:10;stroke-dasharray:none;stroke-opacity:1"
       transform="matrix(1.3333333,0,0,-1.3333333,0,434.641)"
       clip-path="url(#clipPath40)" />
    <path
       id="path41"
       d="m 46.95,202.91731 h -3.5"
       style="fill:#000000;fill-opacity:1;fill-rule:nonzero;stroke:#000000;stroke-width:0.8;stroke-linecap:butt;stroke-linejoin:round;stroke-miterlimit:10;stroke-dasharray:none;stroke-opacity:1"
       transform="matrix(1.3333333,0,0,-1.3333333,0,434.641)" />
    <text
       id="text41"
       xml:space="preserve"
       transform="matrix(1.3333333,0,0,1.3333333,27.829167,169.14709)"><tspan
         id="tspan41"
         style="font-variant:normal;font-weight:normal;font-size:10px;font-family:'DejaVu Sans';writing-mode:lr-tb;fill:#000000;fill-opacity:1;fill-rule:nonzero;stroke:none"
         x="0"
         y="0">250</tspan></text>
    <path
       id="path42"
       d="M 46.95,233.69593 H 404.07"
       style="fill:none;stroke:#b0b0b0;stroke-width:0.8;stroke-linecap:square;stroke-linejoin:round;stroke-miterlimit:10;stroke-dasharray:none;stroke-opacity:1"
       transform="matrix(1.3333333,0,0,-1.3333333,0,434.641)"
       clip-path="url(#clipPath43)" />
    <path
       id="path44"
       d="m 46.95,233.69593 h -3.5"
       style="fill:#000000;fill-opacity:1;fill-rule:nonzero;stroke:#000000;stroke-width:0.8;stroke-linecap:butt;stroke-linejoin:round;stroke-miterlimit:10;stroke-dasharray:none;stroke-opacity:1"
       transform="matrix(1.3333333,0,0,-1.3333333,0,434.641)" />
    <text
       id="text44"
       xml:space="preserve"
       transform="matrix(1.3333333,0,0,1.3333333,27.829167,128.10892)"><tspan
         id="tspan44"
         style="font-variant:normal;font-weight:normal;font-size:10px;font-family:'DejaVu Sans';writing-mode:lr-tb;fill:#000000;fill-opacity:1;fill-rule:nonzero;stroke:none"
         x="0"
         y="0">300</tspan></text>
    <path
       id="path45"
       d="M 46.95,264.47456 H 404.07"
       style="fill:none;stroke:#b0b0b0;stroke-width:0.8;stroke-linecap:square;stroke-linejoin:round;stroke-miterlimit:10;stroke-dasharray:none;stroke-opacity:1"
       transform="matrix(1.3333333,0,0,-1.3333333,0,434.641)"
       clip-path="url(#clipPath46)" />
    <path
       id="path47"
       d="m 46.95,264.47456 h -3.5"
       style="fill:#000000;fill-opacity:1;fill-rule:nonzero;stroke:#000000;stroke-width:0.8;stroke-linecap:butt;stroke-linejoin:round;stroke-miterlimit:10;stroke-dasharray:none;stroke-opacity:1"
       transform="matrix(1.3333333,0,0,-1.3333333,0,434.641)" />
    <text
       id="text47"
       xml:space="preserve"
       transform="matrix(1.3333333,0,0,1.3333333,27.829167,87.070754)"><tspan
         id="tspan47"
         style="font-variant:normal;font-weight:normal;font-size:10px;font-family:'DejaVu Sans';writing-mode:lr-tb;fill:#000000;fill-opacity:1;fill-rule:nonzero;stroke:none"
         x="0"
         y="0">350</tspan></text>
    <path
       id="path48"
       d="M 46.95,295.25318 H 404.07"
       style="fill:none;stroke:#b0b0b0;stroke-width:0.8;stroke-linecap:square;stroke-linejoin:round;stroke-miterlimit:10;stroke-dasharray:none;stroke-opacity:1"
       transform="matrix(1.3333333,0,0,-1.3333333,0,434.641)"
       clip-path="url(#clipPath49)" />
    <path
       id="path50"
       d="m 46.95,295.25318 h -3.5"
       style="fill:#000000;fill-opacity:1;fill-rule:nonzero;stroke:#000000;stroke-width:0.8;stroke-linecap:butt;stroke-linejoin:round;stroke-miterlimit:10;stroke-dasharray:none;stroke-opacity:1"
       transform="matrix(1.3333333,0,0,-1.3333333,0,434.641)" />
    <text
       id="text50"
       xml:space="preserve"
       transform="matrix(1.3333333,0,0,1.3333333,27.829167,46.032587)"><tspan
         id="tspan50"
         style="font-variant:normal;font-weight:normal;font-size:10px;font-family:'DejaVu Sans';writing-mode:lr-tb;fill:#000000;fill-opacity:1;fill-rule:nonzero;stroke:none"
         x="0"
         y="0">400</tspan></text>
    <text
       id="text51"
       xml:space="preserve"
       transform="matrix(0,-1.3333333,1.3333333,0,19.725,304.96633)"><tspan
         id="tspan51"
         style="font-variant:normal;font-weight:normal;font-size:10px;font-family:'DejaVu Sans';writing-mode:lr-tb;fill:#000000;fill-opacity:1;fill-rule:nonzero;stroke:none"
         x="0"
         y="0">Minority class instances used</tspan></text>
    <path
       id="path51"
       d="m 63.182727,49.63975 h 16.287941 l 0.552133,1.231145 h 0.828201 l 0.8282,1.846718 h 0.552134 l 1.932467,4.309007 h 0.276067 l 0.276067,0.615573 h 0.552134 l 0.276066,0.615572 h 0.828201 l 0.8282,1.846718 h 1.104267 l 1.104267,2.46229 h 0.828201 l 0.276067,0.615572 h 0.276066 l 0.552134,1.231145 h 0.276067 l 0.276066,0.615573 h 0.552134 l 0.276067,0.615572 h 0.552133 l 0.276067,0.615573 h 0.552134 l 0.8282,1.846718 h 0.276067 l 0.276067,0.615572 h 1.104267 l 2.208534,4.92458 h 1.932467 l 0.27607,0.615573 h 0.55213 l 1.10427,2.46229 h 0.55213 l 1.10427,2.46229 h 0.55213 l 0.55214,1.231145 h 0.27606 l 0.27607,0.615572 h 0.8282 l 0.27607,0.615573 h 0.27606 l 0.27607,0.615573 h 0.55213 l 0.55214,1.231145 h 1.10427 l 0.8282,1.846717 h 0.55213 l 0.27607,0.615573 h 0.55213 l 1.10427,2.46229 h 0.55213 l 0.27607,0.615572 h 1.6564 l 0.27606,0.615573 h 1.65641 l 0.55213,1.231145 h 0.27607 l 0.55213,1.231145 h 0.55213 l 0.27607,0.615572 h 0.27607 l 0.27606,0.615573 h 1.93247 l 0.27607,0.615572 h 1.10426 l 0.27607,0.615573 h 0.27607 l 0.27607,0.615572 h 3.86493 l 0.27607,0.615573 h 1.93246 l 0.27607,0.615572 h 0.8282 l 0.27607,0.615573 h 1.38033 l 0.27607,0.615572 h 4.41707 l 0.27606,0.615573 h 0.55214 l 0.55213,1.231145 h 0.27607 l 0.27606,0.615576 h 1.38034 l 0.27607,0.61557 h 3.3128 l 0.55213,1.23114 h 1.10427 l 0.27606,0.61558 h 2.76067 l 0.27607,0.61557 h 1.93247 l 0.27606,0.61557 h 1.38034 l 0.27606,0.61557 h 4.96921 l 0.27606,0.61558 h 7.17774 l 0.55213,1.23114 h 3.58887 l 0.27607,0.61557 h 1.6564 l 0.55213,1.23115 h 6.34954 l 0.27607,0.61557 h 0.8282 l 0.27606,0.61557 h 4.69314 l 0.27607,0.61558 h 4.69313 l 0.27607,0.61557 h 2.4846 l 0.27607,0.61557 h 2.20853 l 0.27607,0.61557 h 1.93246 l 0.27607,0.61558 h 7.4538 l 0.27607,0.61557 h 0.8282 l 0.27607,0.61557 h 5.24527 l 0.27606,0.61558 h 4.69314 l 0.27607,0.61557 h 1.38033 l 0.27607,0.61557 h 0.55213 l 0.27607,0.61557 h 0.8282 l 0.27606,0.61558 h 0.55214 l 0.27606,0.61557 h 1.38034 l 0.27607,0.61557 h 0.27606 l 0.27607,0.61557 h 2.4846 l 0.27607,0.61557 h 0.27606 l 0.27607,0.61558 h 0.8282 l 0.27607,0.61557 h 4.141 l 0.27607,0.61557 h 0.27606 l 0.27607,0.61557 h 0.27607 l 0.55213,1.23115 h 3.3128 l 0.27607,0.61557 h 0.8282 l 0.27607,0.61558 h 0.55213 l 0.27607,0.61557 h 4.141 l 0.27606,0.61557 h 1.38034 l 0.55213,1.23115 h 0.8282 l 0.55214,1.23114 h 0.27606 l 0.27607,0.61557 h 1.6564 l 0.27607,0.61557 h 1.93246 l 0.27607,0.61558 h 0.55213 l 0.27607,0.61557 h 2.76067 l 0.27607,0.61557 h 4.141 l 0.27607,0.61557 h 2.76066 l 0.27607,0.61558 h 3.86493 l 0.27607,0.61557 h 1.10427 l 0.27607,0.61557 h 2.76066 l 0.27607,0.61557 h 1.10427 l 0.55213,1.23115 h 1.6564 l 0.27607,0.61557 h 1.10427 l 0.27606,0.61557 h 2.20854 l 0.27606,0.61558 h 0.8282 l 0.27607,0.61557 h 0.27607 l 0.27606,0.61557 h 1.10427 l 0.27607,0.61557 h 1.93247 l 0.27606,0.61558 h 0.55214 l 0.27606,0.61557 h 3.3128 l 0.55214,1.23114 h 0.55213 l 0.27607,0.61558 h 0.27607 l 0.27606,0.61557 h 0.8282 l 0.27607,0.61557 h 0.55213 l 0.27607,0.61558 h 0.27607 l 0.55213,1.23114 h 0.55213 l 0.27607,0.61557 h 1.10427 l 1.93246,4.30901 h 1.38034 l 0.27607,0.61557 h 0.27606 l 0.27607,0.61558 h 0.27607 l 0.27606,0.61557 h 1.10427 l 0.27607,0.61557 h 1.10426 l 0.27607,0.61557 h 1.10427 l 0.27606,0.61558 h 0.82821 l 1.38033,3.07786 h 1.38033 l 0.55214,1.23114 h 0.27606 l 0.27607,0.61558 h 1.10427 l 0.8282,1.84671 h 0.27606 l 0.8282,1.84672 h 0.27607 l 0.27607,0.61557 h 2.76067 l 0.27606,0.61558 h 0.27607 l 0.27607,0.61557 h 0.55213 l 0.27607,0.61557 h 1.38033 l 0.27607,0.61557 h 0.55213 l 0.27607,0.61558 h 0.27607 l 1.10426,2.46229 h 6.62561 l 0.27606,0.61557 h 3.03674 l 0.27606,0.61557 h 0.27607 l 0.27607,0.61557 h 1.10426 l 0.8282,1.84672 h 0.27607 l 1.38034,3.07786 h 0.27606 l 0.55214,1.23115 h 0.27606 l 4.14101,9.23359 h 0.27606 l 47.20742,105.2629 v 0"
       style="fill:none;stroke:#1f77b4;stroke-width:1.5;stroke-linecap:square;stroke-linejoin:round;stroke-miterlimit:10;stroke-dasharray:none;stroke-opacity:1"
       transform="matrix(1.3333333,0,0,-1.3333333,0,434.641)"
       clip-path="url(#clipPath52)" />
    <path
       id="path53"
       d="m 63.182727,49.63975 h 0.552134 l 0.8282,1.846718 h 1.380334 l 0.276067,0.615572 h 1.104267 l 0.276067,0.615573 h 1.104267 l 0.276067,0.615572 h 0.276067 l 0.276066,0.615573 h 0.276067 l 0.276067,0.615572 h 0.276067 l 0.276067,0.615573 h 1.380334 l 0.8282,1.846717 h 0.276067 l 0.276067,0.615573 h 0.8282 l 0.276067,0.615572 h 0.8282 l 0.8282,1.846718 h 0.276067 L 76.71,60.720055 h 2.208534 l 0.276067,0.615573 h 0.552134 l 0.276066,0.615572 h 0.276067 l 0.552134,1.231145 h 0.8282 l 0.276067,0.615573 h 0.552134 l 0.276066,0.615572 h 0.552134 l 0.276067,0.615573 h 0.552133 l 0.276067,0.615572 h 0.276067 l 0.552134,1.231146 h 0.276066 l 0.276067,0.615572 h 0.552134 l 0.276066,0.615573 h 3.312802 l 0.276067,0.615572 h 0.8282 l 0.552134,1.231145 h 0.276066 l 0.276067,0.615573 h 0.828201 l 0.276066,0.615572 h 0.276067 l 0.552134,1.231145 h 1.104267 l 0.552134,1.231145 h 1.932467 l 0.276067,0.615573 h 0.8282 l 0.276067,0.615572 h 0.276067 l 0.276067,0.615573 h 2.208536 l 0.55213,1.231145 h 1.93247 l 0.55213,1.231145 h 0.27607 l 0.27607,0.615572 h 0.55213 l 0.55213,1.231145 h 0.55214 l 0.27606,0.615573 h 1.93247 l 1.38034,3.077863 h 0.27606 l 0.8282,1.846717 h 0.27607 l 0.27607,0.615573 h 0.8282 l 0.27606,0.615572 h 1.93247 l 0.27607,0.615573 h 0.55213 l 0.27607,0.615572 h 0.27607 l 0.55213,1.231145 h 0.27607 l 0.8282,1.846718 h 0.55213 l 0.27607,0.615572 h 1.38033 l 0.27607,0.615573 h 1.6564 l 0.27606,0.615572 h 0.8282 l 0.27607,0.615573 h 0.8282 l 0.27607,0.615572 h 0.27607 l 0.27606,0.615573 h 0.8282 l 0.27607,0.615572 h 0.55213 l 0.8282,1.846718 h 1.38034 l 0.27606,0.615572 h 2.20854 l 0.55213,1.231146 h 1.38034 l 0.55213,1.231148 h 0.27607 l 0.27606,0.61557 h 1.10427 l 0.27607,0.61557 h 1.93246 l 0.55214,1.23115 h 0.55213 l 0.27607,0.61557 h 2.20853 l 0.27607,0.61557 h 0.55213 l 0.27607,0.61557 h 2.20853 l 0.8282,1.84672 h 1.93247 l 0.27607,0.61557 h 0.8282 l 0.27607,0.61558 h 0.27606 l 0.27607,0.61557 h 1.6564 l 0.8282,1.84672 h 0.8282 l 0.55213,1.23114 h 0.8282 l 0.27607,0.61557 h 1.10427 l 0.55213,1.23115 h 0.55214 l 0.55213,1.23115 h 0.55213 l 0.55214,1.23114 h 1.10426 l 0.27607,0.61557 h 0.27607 l 0.27606,0.61558 h 2.76067 l 0.27607,0.61557 h 0.27607 l 0.55213,1.23114 h 0.27607 l 0.27606,0.61557 h 0.27607 l 0.27607,0.61558 h 0.55213 l 0.8282,1.84671 h 0.8282 l 0.8282,1.84672 h 0.27607 l 0.27606,0.61558 h 0.8282 l 0.27607,0.61557 h 1.10427 l 0.55213,1.23114 h 0.8282 l 0.27607,0.61558 h 1.10427 l 0.27606,0.61557 h 0.8282 l 0.27607,0.61557 h 0.8282 l 0.27607,0.61557 h 0.8282 l 0.55213,1.23115 h 1.38034 l 0.27606,0.61557 h 1.6564 l 0.27607,0.61557 h 1.10427 l 0.55213,1.23115 h 0.8282 l 0.55213,1.23114 h 0.55214 l 0.27607,0.61557 h 0.8282 l 0.27606,0.61558 h 0.27607 l 0.55213,1.23114 h 0.27607 l 0.27607,0.61557 h 0.8282 l 0.55213,1.23115 h 0.27607 l 0.55213,1.23114 h 0.8282 l 1.10427,2.46229 h 1.38033 l 0.27607,0.61558 h 0.27607 l 0.27606,0.61557 h 0.27607 l 0.55213,1.23115 h 0.55214 l 0.55213,1.23114 h 0.55213 l 0.55214,1.23114 h 0.27606 l 0.27607,0.61558 h 1.38033 l 0.27607,0.61557 h 0.55213 l 0.55214,1.23115 h 0.27607 l 0.55213,1.23114 h 1.10427 l 0.27606,0.61557 h 0.8282 l 0.27607,0.61558 h 1.6564 l 0.27607,0.61557 h 1.10426 l 1.10427,2.46229 h 0.27607 l 0.27607,0.61557 h 1.93246 l 0.27607,0.61557 h 0.27607 l 0.27606,0.61558 h 0.27607 l 0.27607,0.61557 h 0.27606 l 0.27607,0.61557 h 0.55213 l 0.27607,0.61557 h 0.27607 l 0.27606,0.61558 h 0.27607 l 0.27607,0.61557 h 2.20853 l 0.55214,1.23114 h 0.27606 l 0.27607,0.61558 h 0.27607 l 0.27606,0.61557 h 0.27607 l 0.27607,0.61557 h 0.27606 l 0.27607,0.61557 h 1.38033 l 0.27607,0.61558 h 0.27607 l 0.27606,0.61557 h 0.27607 l 0.27607,0.61557 h 0.27606 l 0.82821,1.84672 h 1.6564 l 0.55213,1.23114 h 0.27607 l 0.27606,0.61558 h 0.8282 l 0.55214,1.23114 h 0.8282 l 0.55213,1.23115 h 0.27607 l 0.27606,0.61557 h 0.27607 l 0.8282,1.84672 h 0.27607 l 0.27607,0.61557 h 1.38033 l 0.55213,1.23114 h 0.27607 l 0.27607,0.61558 h 0.27606 l 0.55214,1.23114 h 0.55213 l 0.55213,1.23115 h 1.10427 l 0.27607,0.61557 h 0.27606 l 0.82821,1.84672 h 1.38033 l 0.27607,0.61557 h 0.55213 l 0.55213,1.23114 h 1.6564 l 0.27607,0.61558 h 1.10427 l 0.27606,0.61557 h 0.55214 l 0.27606,0.61557 h 0.27607 l 0.55214,1.23115 h 0.8282 l 0.27606,0.61557 h 1.6564 l 0.27607,0.61557 h 0.27607 l 0.27606,0.61557 h 1.38034 l 0.27607,0.61558 h 0.55213 l 0.27606,0.61557 h 0.55214 l 0.55213,1.23114 h 0.27607 l 0.27607,0.61558 h 0.27606 l 0.27607,0.61557 h 0.55213 l 0.55214,1.23114 h 0.27606 l 0.27607,0.61558 h 0.27607 l 0.8282,1.84671 h 0.55213 l 0.27607,0.61558 h 0.8282 l 0.27606,0.61557 h 0.55214 l 0.27606,0.61557 h 0.27607 l 0.55214,1.23115 h 0.27606 l 1.10427,2.46229 h 1.38033 l 0.55214,1.23114 h 0.55213 l 0.27607,0.61557 h 0.27606 l 0.55214,1.23115 h 0.27607 l 0.27606,0.61557 h 0.27607 l 0.27607,0.61557 h 1.93246 l 0.55214,1.23115 h 2.20853 l 0.27607,0.61557 h 0.27606 l 0.8282,1.84672 h 0.27607 l 0.27607,0.61557 h 0.27606 l 0.55214,1.23115 h 0.27606 l 0.27607,0.61557 h 0.8282 l 0.27607,0.61557 h 1.10427 l 0.27606,0.61557 h 0.27607 l 0.55213,1.23115 h 0.55214 l 0.55213,1.23114 h 0.27607 l 0.27606,0.61558 h 0.27607 l 0.27607,0.61557 h 0.27606 l 0.27607,0.61557 h 0.27607 l 0.27606,0.61557 h 0.27607 l 0.27607,0.61558 h 0.27606 l 0.55214,1.23114 h 0.27607 l 0.27606,0.61557 h 0.8282 l 0.27607,0.61558 h 0.27607 l 0.27606,0.61557 h 1.93247 l 0.55213,1.23114 h 0.27607 l 0.27607,0.61558 h 3.58887 l 0.27606,0.61557 h 0.27607 l 0.27607,0.61557 h 0.8282 l 0.27606,0.61558 h 1.6564 l 0.55214,1.23114 h 0.55213 l 0.27607,0.61557 h 0.27606 l 0.27607,0.61557 h 1.10427 l 0.27607,0.61558 h 0.55213 l 0.55213,1.23114 h 1.38034 l 0.27606,0.61558 h 0.8282 l 0.27607,0.61557 h 0.27607 l 0.27606,0.61557 h 0.27607 l 0.55213,1.23115 h 0.8282 l 0.27607,0.61557 h 0.8282 l 0.27607,0.61557 h 1.93247 l 0.27606,0.61557 h 2.76067 l 1.10427,2.46229 h 1.10427 l 0.27606,0.61558 h 0.27607 l 0.55213,1.23114 h 0.27607 l 0.27607,0.61557 h 0.8282 l 0.8282,1.84672 h 2.76066 l 0.27607,0.61557 h 1.38034 l 0.27606,0.61558 h 0.55214 l 0.55213,1.23114 h 3.58887 l 0.27606,0.61557 h 1.65641 l 0.27606,0.61558 h 0.55214 l 0.27606,0.61557 h 1.10427 l 0.27607,0.61557 h 1.6564 l 0.55213,1.23115 h 2.20853 l 0.27607,0.61557 h 1.10427 l 0.27607,0.61557 h 0.27606 l 0.27607,0.61557 h 0.27607 l 0.27606,0.61558 h 0.27607 l 0.27607,0.61557 h 0.27606 l 0.27607,0.61557 h 0.27607 l 0.27606,0.61557 h 0.27607 l 0.27607,0.61558 h 0.27606 l 0.27607,0.61557 h 0.55214 l 0.27606,0.61557 h 0.55213 l 0.82821,1.84672 h 1.10426 l 0.27607,0.61557 h 0.8282 l 0.27607,0.61557 h 0.27606 l 0.27607,0.61558 h 0.8282 l 0.55213,1.23114 h 1.6564 l 0.55214,1.23115 h 0.27606 l 0.27607,0.61557 h 0.55214 l 0.55213,1.23114 h 0.55213 l 0.55214,1.23115 h 0.27606 l 0.27607,0.61557 h 0.27607 l 0.27606,0.61557 h 1.10427 l 0.27607,0.61558 h 0.8282 l 0.27606,0.61557 h 1.10427 l 0.27607,0.61557 h 0.8282 l 0.8282,1.84672 h 0.8282 l 0.27607,0.61557 h 0.55213 l 0.8282,1.84672 h 0.8282 l 1.10427,2.46229 h 0.27606 l 0.27607,0.61557 h 0.27607 l 0.27606,0.61557 h 0.27607 l 0.27607,0.61558 h 0.27607 l 0.27606,0.61557 h 0.27607 l 0.27607,0.61557 h 1.10426 l 0.27607,0.61558 h 0.8282 l 0.27607,0.61557 h 0.55213 l 0.55213,1.23114 h 0.27607 l 0.27607,0.61557 h 0.27607 l 0.55213,1.23115 h 1.38033 l 0.27607,0.61557 h 0.27607 l 0.27606,0.61557 h 0.8282 l 0.8282,1.84672 H 374.31 l 0.27607,0.61557 h 0.55213 l 0.55213,1.23115 h 0.55214 l 0.8282,1.84672 h 1.93246 l 0.27607,0.61557 h 2.4846 l 0.27607,0.61557 h 0.27607 l 0.27606,0.61557 h 0.27607 l 0.27607,0.61558 h 1.6564 l 0.27606,0.61557 h 0.27607 l 0.27607,0.61557 h 0.27606 l 0.27607,0.61557 h 0.55214 l 0.27606,0.61558 h 0.27607 l 0.27607,0.61557 h 0.27606 v 0"
       style="fill:none;stroke:#ff7f0e;stroke-width:1.5;stroke-linecap:square;stroke-linejoin:round;stroke-miterlimit:10;stroke-dasharray:none;stroke-opacity:1"
       transform="matrix(1.3333333,0,0,-1.3333333,0,434.641)"
       clip-path="url(#clipPath54)" />
    <path
       id="path55"
       d="m 46.95,37.54375 v 266.112"
       style="fill:none;stroke:#000000;stroke-width:0.8;stroke-linecap:square;stroke-linejoin:miter;stroke-miterlimit:10;stroke-dasharray:none;stroke-opacity:1"
       transform="matrix(1.3333333,0,0,-1.3333333,0,434.641)" />
    <path
       id="path56"
       d="m 404.07,37.54375 v 266.112"
       style="fill:none;stroke:#000000;stroke-width:0.8;stroke-linecap:square;stroke-linejoin:miter;stroke-miterlimit:10;stroke-dasharray:none;stroke-opacity:1"
       transform="matrix(1.3333333,0,0,-1.3333333,0,434.641)" />
    <path
       id="path57"
       d="M 46.95,37.54375 H 404.07"
       style="fill:none;stroke:#000000;stroke-width:0.8;stroke-linecap:square;stroke-linejoin:miter;stroke-miterlimit:10;stroke-dasharray:none;stroke-opacity:1"
       transform="matrix(1.3333333,0,0,-1.3333333,0,434.641)" />
    <path
       id="path58"
       d="M 46.95,303.65575 H 404.07"
       style="fill:none;stroke:#000000;stroke-width:0.8;stroke-linecap:square;stroke-linejoin:miter;stroke-miterlimit:10;stroke-dasharray:none;stroke-opacity:1"
       transform="matrix(1.3333333,0,0,-1.3333333,0,434.641)" />
    <text
       id="text58"
       xml:space="preserve"
       transform="matrix(1.3333333,0,0,1.3333333,174.4925,21.766667)"><tspan
         id="tspan58"
         style="font-variant:normal;font-weight:normal;font-size:12px;font-family:'DejaVu Sans';writing-mode:lr-tb;fill:#000000;fill-opacity:1;fill-rule:nonzero;stroke:none"
         x="0"
         dx="0 0 -0.359375"
         y="0">IR: 2, minorities in dataset: 393</tspan></text>
    <path
       id="path59"
       d="m 53.95,266.312 h 115.67187 c 1.33334,0 2,0.66667 2,2 v 28.34375 c 0,1.33333 -0.66666,2 -2,2 H 53.95 c -1.333333,0 -2,-0.66667 -2,-2 V 268.312 c 0,-1.33333 0.666667,-2 2,-2 z"
       style="fill:#ffffff;fill-opacity:0.8;fill-rule:nonzero;stroke:#cccccc;stroke-width:1;stroke-linecap:butt;stroke-linejoin:miter;stroke-miterlimit:10;stroke-dasharray:none;stroke-opacity:0.8"
       transform="matrix(1.3333333,0,0,-1.3333333,0,434.641)" />
    <path
       id="path60"
       d="m 55.95,290.562 h 10 10"
       style="fill:none;stroke:#1f77b4;stroke-width:1.5;stroke-linecap:square;stroke-linejoin:round;stroke-miterlimit:10;stroke-dasharray:none;stroke-opacity:1"
       transform="matrix(1.3333333,0,0,-1.3333333,0,434.641)" />
    <text
       id="text60"
       xml:space="preserve"
       transform="matrix(1.3333333,0,0,1.3333333,111.93333,51.891667)"><tspan
         id="tspan60"
         style="font-variant:normal;font-weight:normal;font-size:10px;font-family:'DejaVu Sans';writing-mode:lr-tb;fill:#000000;fill-opacity:1;fill-rule:nonzero;stroke:none"
         x="0"
         dx="0 -0.171875 0 0 0 0 0 0 -0.171875 0 0 -0.171875"
         y="0">Active Learning</tspan></text>
    <path
       id="path61"
       d="m 55.95,275.89012 h 10 10"
       style="fill:none;stroke:#ff7f0e;stroke-width:1.5;stroke-linecap:square;stroke-linejoin:round;stroke-miterlimit:10;stroke-dasharray:none;stroke-opacity:1"
       transform="matrix(1.3333333,0,0,-1.3333333,0,434.641)" />
    <text
       id="text61"
       xml:space="preserve"
       transform="matrix(1.3333333,0,0,1.3333333,111.93333,71.454167)"><tspan
         id="tspan61"
         style="font-variant:normal;font-weight:normal;font-size:10px;font-family:'DejaVu Sans';writing-mode:lr-tb;fill:#000000;fill-opacity:1;fill-rule:nonzero;stroke:none"
         x="0"
         dx="0 -0.4375 0 0 0 0 0 0 0 -0.171875 0 0 -0.171875"
         y="0">Passive Learning</tspan></text>
  </g>
</svg>
