<?xml version="1.0" encoding="UTF-8" standalone="no"?>
<!-- Created with Inkscape (http://www.inkscape.org/) -->

<svg
   version="1.1"
   id="svg1"
   width="663.17084"
   height="523.34497"
   viewBox="0 0 663.17084 523.34497"
   xmlns="http://www.w3.org/2000/svg"
   xmlns:svg="http://www.w3.org/2000/svg">
  <defs
     id="defs1">
    <clipPath
       clipPathUnits="userSpaceOnUse"
       id="clipPath4">
      <path
         d="M 43.778125,37.54375 H 490.17812 v 332.64 H 43.778125 Z"
         id="path4" />
    </clipPath>
    <clipPath
       clipPathUnits="userSpaceOnUse"
       id="clipPath7">
      <path
         d="M 43.778125,37.54375 H 490.17812 v 332.64 H 43.778125 Z"
         id="path7" />
    </clipPath>
    <clipPath
       clipPathUnits="userSpaceOnUse"
       id="clipPath10">
      <path
         d="M 43.778125,37.54375 H 490.17812 v 332.64 H 43.778125 Z"
         id="path10" />
    </clipPath>
    <clipPath
       clipPathUnits="userSpaceOnUse"
       id="clipPath13">
      <path
         d="M 43.778125,37.54375 H 490.17812 v 332.64 H 43.778125 Z"
         id="path13" />
    </clipPath>
    <clipPath
       clipPathUnits="userSpaceOnUse"
       id="clipPath16">
      <path
         d="M 43.778125,37.54375 H 490.17812 v 332.64 H 43.778125 Z"
         id="path16" />
    </clipPath>
    <clipPath
       clipPathUnits="userSpaceOnUse"
       id="clipPath19">
      <path
         d="M 43.778125,37.54375 H 490.17812 v 332.64 H 43.778125 Z"
         id="path19" />
    </clipPath>
    <clipPath
       clipPathUnits="userSpaceOnUse"
       id="clipPath22">
      <path
         d="M 43.778125,37.54375 H 490.17812 v 332.64 H 43.778125 Z"
         id="path22" />
    </clipPath>
    <clipPath
       clipPathUnits="userSpaceOnUse"
       id="clipPath25">
      <path
         d="M 43.778125,37.54375 H 490.17812 v 332.64 H 43.778125 Z"
         id="path25" />
    </clipPath>
    <clipPath
       clipPathUnits="userSpaceOnUse"
       id="clipPath28">
      <path
         d="M 43.778125,37.54375 H 490.17812 v 332.64 H 43.778125 Z"
         id="path28" />
    </clipPath>
    <clipPath
       clipPathUnits="userSpaceOnUse"
       id="clipPath31">
      <path
         d="M 43.778125,37.54375 H 490.17812 v 332.64 H 43.778125 Z"
         id="path31" />
    </clipPath>
    <clipPath
       clipPathUnits="userSpaceOnUse"
       id="clipPath34">
      <path
         d="M 43.778125,37.54375 H 490.17812 v 332.64 H 43.778125 Z"
         id="path34" />
    </clipPath>
    <clipPath
       clipPathUnits="userSpaceOnUse"
       id="clipPath37">
      <path
         d="M 43.778125,37.54375 H 490.17812 v 332.64 H 43.778125 Z"
         id="path37" />
    </clipPath>
    <clipPath
       clipPathUnits="userSpaceOnUse"
       id="clipPath40">
      <path
         d="M 43.778125,37.54375 H 490.17812 v 332.64 H 43.778125 Z"
         id="path40" />
    </clipPath>
    <clipPath
       clipPathUnits="userSpaceOnUse"
       id="clipPath42">
      <path
         d="M 43.778125,37.54375 H 490.17812 v 332.64 H 43.778125 Z"
         id="path42" />
    </clipPath>
    <clipPath
       clipPathUnits="userSpaceOnUse"
       id="clipPath44">
      <path
         d="M 43.778125,37.54375 H 490.17812 v 332.64 H 43.778125 Z"
         id="path44" />
    </clipPath>
    <clipPath
       clipPathUnits="userSpaceOnUse"
       id="clipPath46">
      <path
         d="M 43.778125,37.54375 H 490.17812 v 332.64 H 43.778125 Z"
         id="path46" />
    </clipPath>
    <clipPath
       clipPathUnits="userSpaceOnUse"
       id="clipPath48">
      <path
         d="M 43.778125,37.54375 H 490.17812 v 332.64 H 43.778125 Z"
         id="path48" />
    </clipPath>
    <clipPath
       clipPathUnits="userSpaceOnUse"
       id="clipPath50">
      <path
         d="M 43.778125,37.54375 H 490.17812 v 332.64 H 43.778125 Z"
         id="path50" />
    </clipPath>
    <clipPath
       clipPathUnits="userSpaceOnUse"
       id="clipPath52">
      <path
         d="M 43.778125,37.54375 H 490.17812 v 332.64 H 43.778125 Z"
         id="path52" />
    </clipPath>
    <clipPath
       clipPathUnits="userSpaceOnUse"
       id="clipPath54">
      <path
         d="M 43.778125,37.54375 H 490.17812 v 332.64 H 43.778125 Z"
         id="path54" />
    </clipPath>
  </defs>
  <g
     id="g1">
    <path
       id="path1"
       d="M 0,0 H 497.37812 V 392.50875 H 0 Z"
       style="fill:#ffffff;fill-opacity:1;fill-rule:nonzero;stroke:none"
       transform="matrix(1.3333333,0,0,-1.3333333,0,523.345)" />
    <path
       id="path2"
       d="M 43.778125,37.54375 H 490.17812 v 332.64 H 43.778125 Z"
       style="fill:#ffffff;fill-opacity:1;fill-rule:nonzero;stroke:none"
       transform="matrix(1.3333333,0,0,-1.3333333,0,523.345)" />
    <path
       id="path3"
       d="m 64.069034,37.54375 v 332.64"
       style="fill:none;stroke:#b0b0b0;stroke-width:0.8;stroke-linecap:square;stroke-linejoin:round;stroke-miterlimit:10;stroke-dasharray:none;stroke-opacity:0.3"
       transform="matrix(1.3333333,0,0,-1.3333333,0,523.345)"
       clip-path="url(#clipPath4)" />
    <path
       id="path5"
       d="m 64.069034,37.54375 v -3.5"
       style="fill:#000000;fill-opacity:1;fill-rule:nonzero;stroke:#000000;stroke-width:0.8;stroke-linecap:butt;stroke-linejoin:round;stroke-miterlimit:10;stroke-dasharray:none;stroke-opacity:1"
       transform="matrix(1.3333333,0,0,-1.3333333,0,523.345)" />
    <text
       id="text5"
       xml:space="preserve"
       transform="matrix(1.3333333,0,0,1.3333333,74.821212,492.745)"><tspan
         id="tspan5"
         style="font-variant:normal;font-weight:normal;font-size:10px;font-family:'DejaVu Sans';writing-mode:lr-tb;fill:#000000;fill-opacity:1;fill-rule:nonzero;stroke:none"
         x="0"
         y="0">0.0</tspan></text>
    <path
       id="path6"
       d="m 145.23267,37.54375 v 332.64"
       style="fill:none;stroke:#b0b0b0;stroke-width:0.8;stroke-linecap:square;stroke-linejoin:round;stroke-miterlimit:10;stroke-dasharray:none;stroke-opacity:0.3"
       transform="matrix(1.3333333,0,0,-1.3333333,0,523.345)"
       clip-path="url(#clipPath7)" />
    <path
       id="path8"
       d="m 145.23267,37.54375 v -3.5"
       style="fill:#000000;fill-opacity:1;fill-rule:nonzero;stroke:#000000;stroke-width:0.8;stroke-linecap:butt;stroke-linejoin:round;stroke-miterlimit:10;stroke-dasharray:none;stroke-opacity:1"
       transform="matrix(1.3333333,0,0,-1.3333333,0,523.345)" />
    <text
       id="text8"
       xml:space="preserve"
       transform="matrix(1.3333333,0,0,1.3333333,183.03939,492.745)"><tspan
         id="tspan8"
         style="font-variant:normal;font-weight:normal;font-size:10px;font-family:'DejaVu Sans';writing-mode:lr-tb;fill:#000000;fill-opacity:1;fill-rule:nonzero;stroke:none"
         x="0"
         y="0">0.2</tspan></text>
    <path
       id="path9"
       d="m 226.39631,37.54375 v 332.64"
       style="fill:none;stroke:#b0b0b0;stroke-width:0.8;stroke-linecap:square;stroke-linejoin:round;stroke-miterlimit:10;stroke-dasharray:none;stroke-opacity:0.3"
       transform="matrix(1.3333333,0,0,-1.3333333,0,523.345)"
       clip-path="url(#clipPath10)" />
    <path
       id="path11"
       d="m 226.39631,37.54375 v -3.5"
       style="fill:#000000;fill-opacity:1;fill-rule:nonzero;stroke:#000000;stroke-width:0.8;stroke-linecap:butt;stroke-linejoin:round;stroke-miterlimit:10;stroke-dasharray:none;stroke-opacity:1"
       transform="matrix(1.3333333,0,0,-1.3333333,0,523.345)" />
    <text
       id="text11"
       xml:space="preserve"
       transform="matrix(1.3333333,0,0,1.3333333,291.25758,492.745)"><tspan
         id="tspan11"
         style="font-variant:normal;font-weight:normal;font-size:10px;font-family:'DejaVu Sans';writing-mode:lr-tb;fill:#000000;fill-opacity:1;fill-rule:nonzero;stroke:none"
         x="0"
         y="0">0.4</tspan></text>
    <path
       id="path12"
       d="m 307.55994,37.54375 v 332.64"
       style="fill:none;stroke:#b0b0b0;stroke-width:0.8;stroke-linecap:square;stroke-linejoin:round;stroke-miterlimit:10;stroke-dasharray:none;stroke-opacity:0.3"
       transform="matrix(1.3333333,0,0,-1.3333333,0,523.345)"
       clip-path="url(#clipPath13)" />
    <path
       id="path14"
       d="m 307.55994,37.54375 v -3.5"
       style="fill:#000000;fill-opacity:1;fill-rule:nonzero;stroke:#000000;stroke-width:0.8;stroke-linecap:butt;stroke-linejoin:round;stroke-miterlimit:10;stroke-dasharray:none;stroke-opacity:1"
       transform="matrix(1.3333333,0,0,-1.3333333,0,523.345)" />
    <text
       id="text14"
       xml:space="preserve"
       transform="matrix(1.3333333,0,0,1.3333333,399.47576,492.745)"><tspan
         id="tspan14"
         style="font-variant:normal;font-weight:normal;font-size:10px;font-family:'DejaVu Sans';writing-mode:lr-tb;fill:#000000;fill-opacity:1;fill-rule:nonzero;stroke:none"
         x="0"
         y="0">0.6</tspan></text>
    <path
       id="path15"
       d="m 388.72358,37.54375 v 332.64"
       style="fill:none;stroke:#b0b0b0;stroke-width:0.8;stroke-linecap:square;stroke-linejoin:round;stroke-miterlimit:10;stroke-dasharray:none;stroke-opacity:0.3"
       transform="matrix(1.3333333,0,0,-1.3333333,0,523.345)"
       clip-path="url(#clipPath16)" />
    <path
       id="path17"
       d="m 388.72358,37.54375 v -3.5"
       style="fill:#000000;fill-opacity:1;fill-rule:nonzero;stroke:#000000;stroke-width:0.8;stroke-linecap:butt;stroke-linejoin:round;stroke-miterlimit:10;stroke-dasharray:none;stroke-opacity:1"
       transform="matrix(1.3333333,0,0,-1.3333333,0,523.345)" />
    <text
       id="text17"
       xml:space="preserve"
       transform="matrix(1.3333333,0,0,1.3333333,507.69394,492.745)"><tspan
         id="tspan17"
         style="font-variant:normal;font-weight:normal;font-size:10px;font-family:'DejaVu Sans';writing-mode:lr-tb;fill:#000000;fill-opacity:1;fill-rule:nonzero;stroke:none"
         x="0"
         y="0">0.8</tspan></text>
    <path
       id="path18"
       d="m 469.88722,37.54375 v 332.64"
       style="fill:none;stroke:#b0b0b0;stroke-width:0.8;stroke-linecap:square;stroke-linejoin:round;stroke-miterlimit:10;stroke-dasharray:none;stroke-opacity:0.3"
       transform="matrix(1.3333333,0,0,-1.3333333,0,523.345)"
       clip-path="url(#clipPath19)" />
    <path
       id="path20"
       d="m 469.88722,37.54375 v -3.5"
       style="fill:#000000;fill-opacity:1;fill-rule:nonzero;stroke:#000000;stroke-width:0.8;stroke-linecap:butt;stroke-linejoin:round;stroke-miterlimit:10;stroke-dasharray:none;stroke-opacity:1"
       transform="matrix(1.3333333,0,0,-1.3333333,0,523.345)" />
    <text
       id="text20"
       xml:space="preserve"
       transform="matrix(1.3333333,0,0,1.3333333,615.91212,492.745)"><tspan
         id="tspan20"
         style="font-variant:normal;font-weight:normal;font-size:10px;font-family:'DejaVu Sans';writing-mode:lr-tb;fill:#000000;fill-opacity:1;fill-rule:nonzero;stroke:none"
         x="0"
         y="0">1.0</tspan></text>
    <text
       id="text21"
       xml:space="preserve"
       transform="matrix(1.3333333,0,0,1.3333333,336.10625,510.97417)"><tspan
         id="tspan21"
         style="font-variant:normal;font-weight:normal;font-size:10px;font-family:'DejaVu Sans';writing-mode:lr-tb;fill:#000000;fill-opacity:1;fill-rule:nonzero;stroke:none"
         x="0"
         dx="0 -0.4375"
         y="0">Recall</tspan></text>
    <path
       id="path21"
       d="M 43.778125,51.378832 H 490.17812"
       style="fill:none;stroke:#b0b0b0;stroke-width:0.8;stroke-linecap:square;stroke-linejoin:round;stroke-miterlimit:10;stroke-dasharray:none;stroke-opacity:0.3"
       transform="matrix(1.3333333,0,0,-1.3333333,0,523.345)"
       clip-path="url(#clipPath22)" />
    <path
       id="path23"
       d="m 43.778125,51.378832 h -3.5"
       style="fill:#000000;fill-opacity:1;fill-rule:nonzero;stroke:#000000;stroke-width:0.8;stroke-linecap:butt;stroke-linejoin:round;stroke-miterlimit:10;stroke-dasharray:none;stroke-opacity:1"
       transform="matrix(1.3333333,0,0,-1.3333333,0,523.345)" />
    <text
       id="text23"
       xml:space="preserve"
       transform="matrix(1.3333333,0,0,1.3333333,27.829167,459.90239)"><tspan
         id="tspan23"
         style="font-variant:normal;font-weight:normal;font-size:10px;font-family:'DejaVu Sans';writing-mode:lr-tb;fill:#000000;fill-opacity:1;fill-rule:nonzero;stroke:none"
         x="0"
         y="0">0.0</tspan></text>
    <path
       id="path24"
       d="M 43.778125,112.11582 H 490.17812"
       style="fill:none;stroke:#b0b0b0;stroke-width:0.8;stroke-linecap:square;stroke-linejoin:round;stroke-miterlimit:10;stroke-dasharray:none;stroke-opacity:0.3"
       transform="matrix(1.3333333,0,0,-1.3333333,0,523.345)"
       clip-path="url(#clipPath25)" />
    <path
       id="path26"
       d="m 43.778125,112.11582 h -3.5"
       style="fill:#000000;fill-opacity:1;fill-rule:nonzero;stroke:#000000;stroke-width:0.8;stroke-linecap:butt;stroke-linejoin:round;stroke-miterlimit:10;stroke-dasharray:none;stroke-opacity:1"
       transform="matrix(1.3333333,0,0,-1.3333333,0,523.345)" />
    <text
       id="text26"
       xml:space="preserve"
       transform="matrix(1.3333333,0,0,1.3333333,27.829167,378.91975)"><tspan
         id="tspan26"
         style="font-variant:normal;font-weight:normal;font-size:10px;font-family:'DejaVu Sans';writing-mode:lr-tb;fill:#000000;fill-opacity:1;fill-rule:nonzero;stroke:none"
         x="0"
         y="0">0.2</tspan></text>
    <path
       id="path27"
       d="M 43.778125,172.8528 H 490.17812"
       style="fill:none;stroke:#b0b0b0;stroke-width:0.8;stroke-linecap:square;stroke-linejoin:round;stroke-miterlimit:10;stroke-dasharray:none;stroke-opacity:0.3"
       transform="matrix(1.3333333,0,0,-1.3333333,0,523.345)"
       clip-path="url(#clipPath28)" />
    <path
       id="path29"
       d="m 43.778125,172.8528 h -3.5"
       style="fill:#000000;fill-opacity:1;fill-rule:nonzero;stroke:#000000;stroke-width:0.8;stroke-linecap:butt;stroke-linejoin:round;stroke-miterlimit:10;stroke-dasharray:none;stroke-opacity:1"
       transform="matrix(1.3333333,0,0,-1.3333333,0,523.345)" />
    <text
       id="text29"
       xml:space="preserve"
       transform="matrix(1.3333333,0,0,1.3333333,27.829167,297.9371)"><tspan
         id="tspan29"
         style="font-variant:normal;font-weight:normal;font-size:10px;font-family:'DejaVu Sans';writing-mode:lr-tb;fill:#000000;fill-opacity:1;fill-rule:nonzero;stroke:none"
         x="0"
         y="0">0.4</tspan></text>
    <path
       id="path30"
       d="M 43.778125,233.58978 H 490.17812"
       style="fill:none;stroke:#b0b0b0;stroke-width:0.8;stroke-linecap:square;stroke-linejoin:round;stroke-miterlimit:10;stroke-dasharray:none;stroke-opacity:0.3"
       transform="matrix(1.3333333,0,0,-1.3333333,0,523.345)"
       clip-path="url(#clipPath31)" />
    <path
       id="path32"
       d="m 43.778125,233.58978 h -3.5"
       style="fill:#000000;fill-opacity:1;fill-rule:nonzero;stroke:#000000;stroke-width:0.8;stroke-linecap:butt;stroke-linejoin:round;stroke-miterlimit:10;stroke-dasharray:none;stroke-opacity:1"
       transform="matrix(1.3333333,0,0,-1.3333333,0,523.345)" />
    <text
       id="text32"
       xml:space="preserve"
       transform="matrix(1.3333333,0,0,1.3333333,27.829167,216.95446)"><tspan
         id="tspan32"
         style="font-variant:normal;font-weight:normal;font-size:10px;font-family:'DejaVu Sans';writing-mode:lr-tb;fill:#000000;fill-opacity:1;fill-rule:nonzero;stroke:none"
         x="0"
         y="0">0.6</tspan></text>
    <path
       id="path33"
       d="M 43.778125,294.32677 H 490.17812"
       style="fill:none;stroke:#b0b0b0;stroke-width:0.8;stroke-linecap:square;stroke-linejoin:round;stroke-miterlimit:10;stroke-dasharray:none;stroke-opacity:0.3"
       transform="matrix(1.3333333,0,0,-1.3333333,0,523.345)"
       clip-path="url(#clipPath34)" />
    <path
       id="path35"
       d="m 43.778125,294.32677 h -3.5"
       style="fill:#000000;fill-opacity:1;fill-rule:nonzero;stroke:#000000;stroke-width:0.8;stroke-linecap:butt;stroke-linejoin:round;stroke-miterlimit:10;stroke-dasharray:none;stroke-opacity:1"
       transform="matrix(1.3333333,0,0,-1.3333333,0,523.345)" />
    <text
       id="text35"
       xml:space="preserve"
       transform="matrix(1.3333333,0,0,1.3333333,27.829167,135.97181)"><tspan
         id="tspan35"
         style="font-variant:normal;font-weight:normal;font-size:10px;font-family:'DejaVu Sans';writing-mode:lr-tb;fill:#000000;fill-opacity:1;fill-rule:nonzero;stroke:none"
         x="0"
         y="0">0.8</tspan></text>
    <path
       id="path36"
       d="M 43.778125,355.06375 H 490.17812"
       style="fill:none;stroke:#b0b0b0;stroke-width:0.8;stroke-linecap:square;stroke-linejoin:round;stroke-miterlimit:10;stroke-dasharray:none;stroke-opacity:0.3"
       transform="matrix(1.3333333,0,0,-1.3333333,0,523.345)"
       clip-path="url(#clipPath37)" />
    <path
       id="path38"
       d="m 43.778125,355.06375 h -3.5"
       style="fill:#000000;fill-opacity:1;fill-rule:nonzero;stroke:#000000;stroke-width:0.8;stroke-linecap:butt;stroke-linejoin:round;stroke-miterlimit:10;stroke-dasharray:none;stroke-opacity:1"
       transform="matrix(1.3333333,0,0,-1.3333333,0,523.345)" />
    <text
       id="text38"
       xml:space="preserve"
       transform="matrix(1.3333333,0,0,1.3333333,27.829167,54.989167)"><tspan
         id="tspan38"
         style="font-variant:normal;font-weight:normal;font-size:10px;font-family:'DejaVu Sans';writing-mode:lr-tb;fill:#000000;fill-opacity:1;fill-rule:nonzero;stroke:none"
         x="0"
         y="0">1.0</tspan></text>
    <text
       id="text39"
       xml:space="preserve"
       transform="matrix(0,-1.3333333,1.3333333,0,19.725,281.30792)"><tspan
         id="tspan39"
         style="font-variant:normal;font-weight:normal;font-size:10px;font-family:'DejaVu Sans';writing-mode:lr-tb;fill:#000000;fill-opacity:1;fill-rule:nonzero;stroke:none"
         x="0"
         dx="0 -0.171875 -0.21875"
         y="0">Precision</tspan></text>
    <path
       id="path39"
       d="m 469.88722,151.92316 -12.42301,46.64989 -8.282,7.13746 v 8.92091 12.16789 3.33077 4.64289 l -4.14101,1.63243 v 2.48358 1.26696 2.58599 2.65782 1.35679 4.18667 1.43571 2.93431 1.49952 1.52173 l -4.141,2.40289 v 1.59816 1.62274 l -4.141,-0.70624 v 1.65526 1.68133 1.70801 3.49867 1.79201 1.82138 1.85149 1.88234 1.91398 1.94642 3.99352 2.04885 2.08479 2.1217 2.15957 2.1985 2.23846 2.27954 2.32175 2.36514 2.40978 2.45567 l -4.141,-0.41715 v 2.52315 l -4.141,-0.40468 v 2.59408 2.64597 2.69942 2.75451 2.81131 2.86987 2.9303 l -4.141,-0.23805 v 3.02225 3.08796 3.15583 3.22596 3.29845 l -4.14101,-0.0776 -4.141,-0.0793 -4.141,-0.0812 v 3.48968 3.57276 H 64.069034"
       style="fill:none;stroke:#1f77b4;stroke-width:2;stroke-linecap:square;stroke-linejoin:round;stroke-miterlimit:10;stroke-dasharray:none;stroke-opacity:1"
       transform="matrix(1.3333333,0,0,-1.3333333,0,523.345)"
       clip-path="url(#clipPath40)" />
    <path
       id="path41"
       d="m 469.88722,113.10341 -12.17455,80.58188 v 16.92293 6.26183 l -4.05818,3.02758 v 3.98861 1.02683 3.15517 3.27202 4.55599 2.36561 1.20569 2.45868 1.2536 2.55735 1.30442 1.32204 1.34004 1.35839 1.37712 1.39625 1.41578 1.43573 1.45608 1.47689 3.01798 1.54204 1.56472 1.58789 1.6116 1.63583 1.66061 1.68597 3.45035 1.76561 l -4.05818,-0.5978 v 1.8029 1.83175 1.86129 1.89156 1.92257 1.95435 1.98692 2.02031 2.05456 2.08967 2.12571 2.16267 2.20062 2.23956 2.27956 2.32063 2.36282 2.40618 2.45073 2.49655 2.54365 2.5921 l -4.05819,-0.2781 v 2.66489 2.71715 2.77096 l -4.05818,-0.21047 v 2.85279 2.91102 2.97104 3.03294 3.09678 3.16268 l -4.05818,-0.0347 -4.05818,-0.0355 -4.05818,-0.0363 -8.11637,3.3372 H 64.069034"
       style="fill:none;stroke:#ff7f0e;stroke-width:2;stroke-linecap:square;stroke-linejoin:round;stroke-miterlimit:10;stroke-dasharray:none;stroke-opacity:1"
       transform="matrix(1.3333333,0,0,-1.3333333,0,523.345)"
       clip-path="url(#clipPath42)" />
    <path
       id="path43"
       d="m 469.88722,84.626504 -29.28585,56.364266 v 14.70731 8.15665 11.75884 5.91594 7.19426 3.53982 3.72711 2.33245 2.40892 l -4.1837,0.80208 v 1.68714 3.49063 0.89788 0.90832 0.91894 1.87052 0.95195 0.96336 0.97496 1.9856 1.01107 2.05983 3.18751 1.08957 2.22132 1.1323 1.1471 1.16219 1.17759 1.19329 1.2093 1.22565 1.24232 l -4.18369,-0.82069 v 1.26236 1.2799 1.2978 1.31608 1.33474 1.35381 1.3733 1.39319 1.41354 1.43432 1.45557 1.47729 l -4.18369,-0.78383 v 1.50493 1.52791 1.55141 1.57547 1.60008 1.62529 1.65108 1.67749 1.70456 1.73227 1.76067 1.78977 1.8196 1.85018 1.88154 1.9137 1.9467 1.98055 2.0153 2.05097 2.0876 2.12521 l -4.18369,-0.59693 v 2.17823 l -4.1837,-0.59334 v 2.23375 l -4.18369,-0.58906 v 2.29197 2.33603 l -4.18369,-0.567 v 2.39919 2.44669 l -4.18369,-0.54122 v 2.51537 l -4.1837,-0.53212 v 2.58768 2.64159 2.6972 2.75459 2.81383 2.875 l -4.18369,-0.39902 v 2.9664 3.03306 3.10199 l -4.18369,-0.31733 v 3.20651 l -4.18369,-0.29081 v 3.31757 l -4.1837,-0.26135 v 3.43576 3.52058 3.60861 l -4.18369,-0.14416 -4.18369,-0.14785 v 3.79227 3.89207 l -4.18369,-0.0533 -4.1837,-0.0547 v 4.10385 H 64.069034"
       style="fill:none;stroke:#2ca02c;stroke-width:2;stroke-linecap:square;stroke-linejoin:round;stroke-miterlimit:10;stroke-dasharray:none;stroke-opacity:1"
       transform="matrix(1.3333333,0,0,-1.3333333,0,523.345)"
       clip-path="url(#clipPath44)" />
    <path
       id="path45"
       d="m 469.88722,70.257034 -15.6084,43.480096 -3.90209,13.75514 v 6.48218 l -3.9021,5.45504 v 5.53778 4.95832 5.51311 4.16239 4.08386 1.28595 3.5777 2.83476 2.46922 1.01638 l -3.9021,1.32952 v 1.60712 1.64904 1.69264 0.57419 1.16378 1.18474 0.60041 3.08545 l -3.9021,2.45037 v 0.66425 0.67063 0.67711 1.37405 0.69712 0.70399 0.71097 2.17576 1.48732 0.75504 0.76279 0.77065 2.36038 2.4357 1.66745 2.56952 1.76034 0.89483 1.81984 2.80774 0.95743 1.94826 1.9941 1.01475 3.1176 1.0644 1.07737 1.0906 1.10405 1.11778 1.13174 1.14598 1.16049 1.17527 1.19034 2.42705 1.23732 1.2536 1.27021 1.28714 1.30442 1.32204 1.34004 1.35839 l -3.9021,0.66445 v 1.40103 1.42077 1.44092 1.4615 1.48253 1.50402 1.52597 1.54842 1.57135 1.59481 1.61879 1.64332 1.6684 1.69408 1.72033 1.74722 1.77474 1.8029 1.83175 1.86129 1.89156 l -3.90209,-0.56665 v 1.93378 1.966 1.99905 4.1006 2.10333 2.13991 2.17745 2.21599 2.25556 2.29621 2.33795 2.38085 2.42494 2.47026 2.51687 2.56482 2.61414 2.66489 l -3.9021,-0.26015 -3.9021,-0.2653 v 2.76624 2.82212 2.87972 l -3.9021,-0.19168 v 2.96771 3.03019 3.09466 3.16121 l -3.90209,-0.071 -3.9021,-0.0725 -347.286716,6.67439"
       style="fill:none;stroke:#d62728;stroke-width:2;stroke-linecap:square;stroke-linejoin:round;stroke-miterlimit:10;stroke-dasharray:none;stroke-opacity:1"
       transform="matrix(1.3333333,0,0,-1.3333333,0,523.345)"
       clip-path="url(#clipPath46)" />
    <path
       id="path47"
       d="m 469.88722,60.261242 -8.54354,16.289335 -8.54355,8.244613 v 7.22383 l -4.27177,4.91255 v 14.64912 l -4.27177,2.80038 v 10.64342 l -4.27177,0.58843 v 13.10014 l -4.27177,0.7344 v 48.11997 l -4.27177,-0.86786 v 36.50099 l -4.27177,-0.87326 v 16.10384 l -4.27177,-0.85134 v 10.02621 l -4.27177,-0.83301 v 3.07708 l -4.27177,-0.83503 v 51.38541 l -4.27177,-0.55215 v 27.91792 l -12.81531,-0.95224 v 3.24041 l -8.54354,-0.60263 v 6.866 l -8.54354,-0.47458 v 7.38868 l -42.7177,-1.76595 -8.54355,-0.4184 v 4.52608 l -8.54354,-0.30614 -4.27177,4.73487 -34.17416,-0.77868 -12.81531,-0.35755 v 6.19765 H 64.069034 v 0"
       style="fill:none;stroke:#9467bd;stroke-width:2;stroke-linecap:square;stroke-linejoin:round;stroke-miterlimit:10;stroke-dasharray:none;stroke-opacity:1"
       transform="matrix(1.3333333,0,0,-1.3333333,0,523.345)"
       clip-path="url(#clipPath48)" />
    <path
       id="path49"
       d="m 469.88722,55.41467 -19.09733,6.200732 v 4.106566 l -4.77433,3.08498 V 176.60973 l -4.77433,-0.92464 v 38.89856 l -4.77434,-0.96219 v 14.52919 l -4.77433,0.37772 v 49.87705 l -4.77433,-0.75155 v 16.6729 l -4.77433,-0.64614 v 7.98797 l -4.77433,-0.59328 v 17.83546 l -4.77433,-0.43557 v 3.25727 l -4.77433,-0.4115 v 6.83398 l -4.77434,-0.34499 v 14.94223 l -33.42032,-1.28628 v 8.92575 l -42.96898,-0.75086 -28.64599,-0.65076 -33.42032,-0.98874 -19.09733,-0.72435 -23.87166,-1.14512 -4.77433,-0.27066 -23.87165,-1.64332 -23.87166,-2.3578 -9.54867,-1.2575 -19.09732,14.46119 H 64.069034 v 0"
       style="fill:none;stroke:#8c564b;stroke-width:2;stroke-linecap:square;stroke-linejoin:round;stroke-miterlimit:10;stroke-dasharray:none;stroke-opacity:1"
       transform="matrix(1.3333333,0,0,-1.3333333,0,523.345)"
       clip-path="url(#clipPath50)" />
    <path
       id="path51"
       d="m 469.88722,53.747259 -12.29753,2.446396 v 6.663032 l -4.09917,1.623901 v 3.206931 l -4.09917,1.862149 v 22.263133 l -4.09918,0.796246 v 79.465073 l -4.09917,-0.78536 v 4.26346 l -4.09917,-0.80139 v 2.81671 l -4.09918,-0.8142 v 19.23736 l -4.09917,-0.84614 v 70.74187 l -4.09917,-0.71342 v 3.47633 l -4.09918,-0.70831 v 11.20149 l -4.09917,-0.66018 v 10.32288 l -4.09917,-0.60787 v 32.06917 l -4.09918,-0.36629 v 11.80314 l -8.19835,-0.52495 v 6.43217 l -4.09917,-0.20294 v 3.36504 l -20.49587,-0.89319 v 3.65191 l -4.09917,-0.14785 v 3.79227 l -36.89256,-1.04399 -28.69422,-1.02497 -24.59504,-1.08621 v 5.41929 l -28.69421,-0.83758 -24.59504,-0.94557 -12.29752,-0.58476 v 7.99171 H 64.069034 v 0"
       style="fill:none;stroke:#e377c2;stroke-width:2;stroke-linecap:square;stroke-linejoin:round;stroke-miterlimit:10;stroke-dasharray:none;stroke-opacity:1"
       transform="matrix(1.3333333,0,0,-1.3333333,0,523.345)"
       clip-path="url(#clipPath52)" />
    <path
       id="path53"
       d="m 469.88722,52.66375 -11.37808,1.488948 -3.7927,1.851233 -11.37808,1.645496 v 11.656496 l -3.79269,1.222468 v 5.413192 l -7.58539,0.614546 v 3.646027 l -3.79269,0.714419 v 8.521986 l -3.79269,0.613284 v 3.260224 l -3.7927,0.232764 v 5.1746 l -3.79269,0.609649 -3.79269,0.723988 v 12.46146 l -3.7927,0.5503 v 134.30923 l -3.79269,-0.76921 v 1.4045 l -3.79269,-0.77575 v 5.84641 l -3.7927,-0.7668 v 1.52223 l -3.79269,-0.77273 v 59.9061 l -3.79269,-0.42095 v 13.74574 l -3.7927,-0.30607 v 5.96976 l -7.58538,-0.51348 v 3.1468 l -3.7927,-0.23265 v 3.25263 l -3.79269,-0.20294 v 3.36504 l -7.58539,-0.34436 v 7.13703 l -34.13424,-0.9373 -30.34154,-1.05446 -26.54886,-1.16546 -18.96346,-1.02458 -18.96347,-1.24257 -15.17077,-1.20212 v 6.89429 l -18.96347,-0.97711 -15.17077,-0.99487 -11.37808,-0.92026 -11.37808,-1.12476 -11.37808,-1.40595 -7.58539,-1.15032 -7.58538,-1.38039 v 15.18425 H 64.069034 v 0"
       style="fill:none;stroke:#7f7f7f;stroke-width:2;stroke-linecap:square;stroke-linejoin:round;stroke-miterlimit:10;stroke-dasharray:none;stroke-opacity:1"
       transform="matrix(1.3333333,0,0,-1.3333333,0,523.345)"
       clip-path="url(#clipPath54)" />
    <path
       id="path55"
       d="m 43.778125,37.54375 v 332.64"
       style="fill:none;stroke:#000000;stroke-width:0.8;stroke-linecap:square;stroke-linejoin:miter;stroke-miterlimit:10;stroke-dasharray:none;stroke-opacity:1"
       transform="matrix(1.3333333,0,0,-1.3333333,0,523.345)" />
    <path
       id="path56"
       d="m 490.17812,37.54375 v 332.64"
       style="fill:none;stroke:#000000;stroke-width:0.8;stroke-linecap:square;stroke-linejoin:miter;stroke-miterlimit:10;stroke-dasharray:none;stroke-opacity:1"
       transform="matrix(1.3333333,0,0,-1.3333333,0,523.345)" />
    <path
       id="path57"
       d="M 43.778125,37.54375 H 490.17812"
       style="fill:none;stroke:#000000;stroke-width:0.8;stroke-linecap:square;stroke-linejoin:miter;stroke-miterlimit:10;stroke-dasharray:none;stroke-opacity:1"
       transform="matrix(1.3333333,0,0,-1.3333333,0,523.345)" />
    <path
       id="path58"
       d="M 43.778125,370.18375 H 490.17812"
       style="fill:none;stroke:#000000;stroke-width:0.8;stroke-linecap:square;stroke-linejoin:miter;stroke-miterlimit:10;stroke-dasharray:none;stroke-opacity:1"
       transform="matrix(1.3333333,0,0,-1.3333333,0,523.345)" />
    <text
       id="text58"
       xml:space="preserve"
       transform="matrix(1.3333333,0,0,1.3333333,345.58542,21.766667)"><tspan
         id="tspan58"
         style="font-variant:normal;font-weight:normal;font-size:12px;font-family:'DejaVu Sans';writing-mode:lr-tb;fill:#000000;fill-opacity:1;fill-rule:nonzero;stroke:none"
         x="0"
         y="0">PR</tspan></text>
    <path
       id="path59"
       d="M 50.778125,42.54375 H 219.95 c 1.33333,0 2,0.666667 2,2 v 116.375 c 0,1.33333 -0.66667,2 -2,2 H 50.778125 c -1.333333,0 -2,-0.66667 -2,-2 v -116.375 c 0,-1.333333 0.666667,-2 2,-2 z"
       style="fill:#ffffff;fill-opacity:0.8;fill-rule:nonzero;stroke:#cccccc;stroke-width:1;stroke-linecap:butt;stroke-linejoin:miter;stroke-miterlimit:10;stroke-dasharray:none;stroke-opacity:0.8"
       transform="matrix(1.3333333,0,0,-1.3333333,0,523.345)" />
    <path
       id="path60"
       d="m 52.778125,154.825 h 10 10"
       style="fill:none;stroke:#1f77b4;stroke-width:2;stroke-linecap:square;stroke-linejoin:round;stroke-miterlimit:10;stroke-dasharray:none;stroke-opacity:1"
       transform="matrix(1.3333333,0,0,-1.3333333,0,523.345)" />
    <text
       id="text60"
       xml:space="preserve"
       transform="matrix(1.3333333,0,0,1.3333333,107.70417,321.57833)"><tspan
         id="tspan60"
         style="font-variant:normal;font-weight:normal;font-size:10px;font-family:'DejaVu Sans';writing-mode:lr-tb;fill:#000000;fill-opacity:1;fill-rule:nonzero;stroke:none"
         x="0"
         y="0">PR AUC = 0.9570, IR = 2</tspan></text>
    <path
       id="path61"
       d="m 52.778125,140.15312 h 10 10"
       style="fill:none;stroke:#ff7f0e;stroke-width:2;stroke-linecap:square;stroke-linejoin:round;stroke-miterlimit:10;stroke-dasharray:none;stroke-opacity:1"
       transform="matrix(1.3333333,0,0,-1.3333333,0,523.345)" />
    <text
       id="text61"
       xml:space="preserve"
       transform="matrix(1.3333333,0,0,1.3333333,107.70417,341.14083)"><tspan
         id="tspan61"
         style="font-variant:normal;font-weight:normal;font-size:10px;font-family:'DejaVu Sans';writing-mode:lr-tb;fill:#000000;fill-opacity:1;fill-rule:nonzero;stroke:none"
         x="0"
         y="0">PR AUC = 0.9710, IR = 4</tspan></text>
    <path
       id="path62"
       d="m 52.778125,125.48125 h 10 10"
       style="fill:none;stroke:#2ca02c;stroke-width:2;stroke-linecap:square;stroke-linejoin:round;stroke-miterlimit:10;stroke-dasharray:none;stroke-opacity:1"
       transform="matrix(1.3333333,0,0,-1.3333333,0,523.345)" />
    <text
       id="text62"
       xml:space="preserve"
       transform="matrix(1.3333333,0,0,1.3333333,107.70417,360.70333)"><tspan
         id="tspan62"
         style="font-variant:normal;font-weight:normal;font-size:10px;font-family:'DejaVu Sans';writing-mode:lr-tb;fill:#000000;fill-opacity:1;fill-rule:nonzero;stroke:none"
         x="0"
         y="0">PR AUC = 0.9126, IR = 8</tspan></text>
    <path
       id="path63"
       d="m 52.778125,110.80937 h 10 10"
       style="fill:none;stroke:#d62728;stroke-width:2;stroke-linecap:square;stroke-linejoin:round;stroke-miterlimit:10;stroke-dasharray:none;stroke-opacity:1"
       transform="matrix(1.3333333,0,0,-1.3333333,0,523.345)" />
    <text
       id="text63"
       xml:space="preserve"
       transform="matrix(1.3333333,0,0,1.3333333,107.70417,380.26583)"><tspan
         id="tspan63"
         style="font-variant:normal;font-weight:normal;font-size:10px;font-family:'DejaVu Sans';writing-mode:lr-tb;fill:#000000;fill-opacity:1;fill-rule:nonzero;stroke:none"
         x="0"
         y="0">PR AUC = 0.9238, IR = 16</tspan></text>
    <path
       id="path64"
       d="m 52.778125,96.1375 h 10 10"
       style="fill:none;stroke:#9467bd;stroke-width:2;stroke-linecap:square;stroke-linejoin:round;stroke-miterlimit:10;stroke-dasharray:none;stroke-opacity:1"
       transform="matrix(1.3333333,0,0,-1.3333333,0,523.345)" />
    <text
       id="text64"
       xml:space="preserve"
       transform="matrix(1.3333333,0,0,1.3333333,107.70417,399.82833)"><tspan
         id="tspan64"
         style="font-variant:normal;font-weight:normal;font-size:10px;font-family:'DejaVu Sans';writing-mode:lr-tb;fill:#000000;fill-opacity:1;fill-rule:nonzero;stroke:none"
         x="0"
         y="0">PR AUC = 0.8901, IR = 32</tspan></text>
    <path
       id="path65"
       d="m 52.778125,81.465625 h 10 10"
       style="fill:none;stroke:#8c564b;stroke-width:2;stroke-linecap:square;stroke-linejoin:round;stroke-miterlimit:10;stroke-dasharray:none;stroke-opacity:1"
       transform="matrix(1.3333333,0,0,-1.3333333,0,523.345)" />
    <text
       id="text65"
       xml:space="preserve"
       transform="matrix(1.3333333,0,0,1.3333333,107.70417,419.39083)"><tspan
         id="tspan65"
         style="font-variant:normal;font-weight:normal;font-size:10px;font-family:'DejaVu Sans';writing-mode:lr-tb;fill:#000000;fill-opacity:1;fill-rule:nonzero;stroke:none"
         x="0"
         y="0">PR AUC = 0.8965, IR = 64</tspan></text>
    <path
       id="path66"
       d="m 52.778125,66.79375 h 10 10"
       style="fill:none;stroke:#e377c2;stroke-width:2;stroke-linecap:square;stroke-linejoin:round;stroke-miterlimit:10;stroke-dasharray:none;stroke-opacity:1"
       transform="matrix(1.3333333,0,0,-1.3333333,0,523.345)" />
    <text
       id="text66"
       xml:space="preserve"
       transform="matrix(1.3333333,0,0,1.3333333,107.70417,438.95333)"><tspan
         id="tspan66"
         style="font-variant:normal;font-weight:normal;font-size:10px;font-family:'DejaVu Sans';writing-mode:lr-tb;fill:#000000;fill-opacity:1;fill-rule:nonzero;stroke:none"
         x="0"
         y="0">PR AUC = 0.8917, IR = 128</tspan></text>
    <path
       id="path67"
       d="m 52.778125,52.121875 h 10 10"
       style="fill:none;stroke:#7f7f7f;stroke-width:2;stroke-linecap:square;stroke-linejoin:round;stroke-miterlimit:10;stroke-dasharray:none;stroke-opacity:1"
       transform="matrix(1.3333333,0,0,-1.3333333,0,523.345)" />
    <text
       id="text67"
       xml:space="preserve"
       transform="matrix(1.3333333,0,0,1.3333333,107.70417,458.51583)"><tspan
         id="tspan67"
         style="font-variant:normal;font-weight:normal;font-size:10px;font-family:'DejaVu Sans';writing-mode:lr-tb;fill:#000000;fill-opacity:1;fill-rule:nonzero;stroke:none"
         x="0"
         y="0">PR AUC = 0.8242, IR = 256</tspan></text>
  </g>
</svg>
