<?xml version="1.0" encoding="UTF-8" standalone="no"?>
<!-- Created with Inkscape (http://www.inkscape.org/) -->

<svg
   version="1.1"
   id="svg1"
   width="663.17084"
   height="523.34497"
   viewBox="0 0 663.17084 523.34497"
   xmlns="http://www.w3.org/2000/svg"
   xmlns:svg="http://www.w3.org/2000/svg">
  <defs
     id="defs1">
    <clipPath
       clipPathUnits="userSpaceOnUse"
       id="clipPath4">
      <path
         d="M 43.778125,37.54375 H 490.17812 v 332.64 H 43.778125 Z"
         id="path4" />
    </clipPath>
    <clipPath
       clipPathUnits="userSpaceOnUse"
       id="clipPath7">
      <path
         d="M 43.778125,37.54375 H 490.17812 v 332.64 H 43.778125 Z"
         id="path7" />
    </clipPath>
    <clipPath
       clipPathUnits="userSpaceOnUse"
       id="clipPath10">
      <path
         d="M 43.778125,37.54375 H 490.17812 v 332.64 H 43.778125 Z"
         id="path10" />
    </clipPath>
    <clipPath
       clipPathUnits="userSpaceOnUse"
       id="clipPath13">
      <path
         d="M 43.778125,37.54375 H 490.17812 v 332.64 H 43.778125 Z"
         id="path13" />
    </clipPath>
    <clipPath
       clipPathUnits="userSpaceOnUse"
       id="clipPath16">
      <path
         d="M 43.778125,37.54375 H 490.17812 v 332.64 H 43.778125 Z"
         id="path16" />
    </clipPath>
    <clipPath
       clipPathUnits="userSpaceOnUse"
       id="clipPath19">
      <path
         d="M 43.778125,37.54375 H 490.17812 v 332.64 H 43.778125 Z"
         id="path19" />
    </clipPath>
    <clipPath
       clipPathUnits="userSpaceOnUse"
       id="clipPath22">
      <path
         d="M 43.778125,37.54375 H 490.17812 v 332.64 H 43.778125 Z"
         id="path22" />
    </clipPath>
    <clipPath
       clipPathUnits="userSpaceOnUse"
       id="clipPath25">
      <path
         d="M 43.778125,37.54375 H 490.17812 v 332.64 H 43.778125 Z"
         id="path25" />
    </clipPath>
    <clipPath
       clipPathUnits="userSpaceOnUse"
       id="clipPath28">
      <path
         d="M 43.778125,37.54375 H 490.17812 v 332.64 H 43.778125 Z"
         id="path28" />
    </clipPath>
    <clipPath
       clipPathUnits="userSpaceOnUse"
       id="clipPath31">
      <path
         d="M 43.778125,37.54375 H 490.17812 v 332.64 H 43.778125 Z"
         id="path31" />
    </clipPath>
    <clipPath
       clipPathUnits="userSpaceOnUse"
       id="clipPath34">
      <path
         d="M 43.778125,37.54375 H 490.17812 v 332.64 H 43.778125 Z"
         id="path34" />
    </clipPath>
    <clipPath
       clipPathUnits="userSpaceOnUse"
       id="clipPath37">
      <path
         d="M 43.778125,37.54375 H 490.17812 v 332.64 H 43.778125 Z"
         id="path37" />
    </clipPath>
    <clipPath
       clipPathUnits="userSpaceOnUse"
       id="clipPath40">
      <path
         d="M 43.778125,37.54375 H 490.17812 v 332.64 H 43.778125 Z"
         id="path40" />
    </clipPath>
    <clipPath
       clipPathUnits="userSpaceOnUse"
       id="clipPath42">
      <path
         d="M 43.778125,37.54375 H 490.17812 v 332.64 H 43.778125 Z"
         id="path42" />
    </clipPath>
    <clipPath
       clipPathUnits="userSpaceOnUse"
       id="clipPath44">
      <path
         d="M 43.778125,37.54375 H 490.17812 v 332.64 H 43.778125 Z"
         id="path44" />
    </clipPath>
    <clipPath
       clipPathUnits="userSpaceOnUse"
       id="clipPath46">
      <path
         d="M 43.778125,37.54375 H 490.17812 v 332.64 H 43.778125 Z"
         id="path46" />
    </clipPath>
    <clipPath
       clipPathUnits="userSpaceOnUse"
       id="clipPath48">
      <path
         d="M 43.778125,37.54375 H 490.17812 v 332.64 H 43.778125 Z"
         id="path48" />
    </clipPath>
    <clipPath
       clipPathUnits="userSpaceOnUse"
       id="clipPath50">
      <path
         d="M 43.778125,37.54375 H 490.17812 v 332.64 H 43.778125 Z"
         id="path50" />
    </clipPath>
    <clipPath
       clipPathUnits="userSpaceOnUse"
       id="clipPath52">
      <path
         d="M 43.778125,37.54375 H 490.17812 v 332.64 H 43.778125 Z"
         id="path52" />
    </clipPath>
    <clipPath
       clipPathUnits="userSpaceOnUse"
       id="clipPath54">
      <path
         d="M 43.778125,37.54375 H 490.17812 v 332.64 H 43.778125 Z"
         id="path54" />
    </clipPath>
    <clipPath
       clipPathUnits="userSpaceOnUse"
       id="clipPath56">
      <path
         d="M 43.778125,37.54375 H 490.17812 v 332.64 H 43.778125 Z"
         id="path56" />
    </clipPath>
    <clipPath
       clipPathUnits="userSpaceOnUse"
       id="clipPath58">
      <path
         d="M 43.778125,37.54375 H 490.17812 v 332.64 H 43.778125 Z"
         id="path58" />
    </clipPath>
    <clipPath
       clipPathUnits="userSpaceOnUse"
       id="clipPath60">
      <path
         d="M 43.778125,37.54375 H 490.17812 v 332.64 H 43.778125 Z"
         id="path60" />
    </clipPath>
    <clipPath
       clipPathUnits="userSpaceOnUse"
       id="clipPath62">
      <path
         d="M 43.778125,37.54375 H 490.17812 v 332.64 H 43.778125 Z"
         id="path62" />
    </clipPath>
    <clipPath
       clipPathUnits="userSpaceOnUse"
       id="clipPath64">
      <path
         d="M 43.778125,37.54375 H 490.17812 v 332.64 H 43.778125 Z"
         id="path64" />
    </clipPath>
    <clipPath
       clipPathUnits="userSpaceOnUse"
       id="clipPath66">
      <path
         d="M 43.778125,37.54375 H 490.17812 v 332.64 H 43.778125 Z"
         id="path66" />
    </clipPath>
    <clipPath
       clipPathUnits="userSpaceOnUse"
       id="clipPath68">
      <path
         d="M 43.778125,37.54375 H 490.17812 v 332.64 H 43.778125 Z"
         id="path68" />
    </clipPath>
    <clipPath
       clipPathUnits="userSpaceOnUse"
       id="clipPath70">
      <path
         d="M 43.778125,37.54375 H 490.17812 v 332.64 H 43.778125 Z"
         id="path70" />
    </clipPath>
  </defs>
  <g
     id="g1">
    <path
       id="path1"
       d="M 0,0 H 497.37812 V 392.50875 H 0 Z"
       style="fill:#ffffff;fill-opacity:1;fill-rule:nonzero;stroke:none"
       transform="matrix(1.3333333,0,0,-1.3333333,0,523.345)" />
    <path
       id="path2"
       d="M 43.778125,37.54375 H 490.17812 v 332.64 H 43.778125 Z"
       style="fill:#ffffff;fill-opacity:1;fill-rule:nonzero;stroke:none"
       transform="matrix(1.3333333,0,0,-1.3333333,0,523.345)" />
    <path
       id="path3"
       d="m 64.069034,37.54375 v 332.64"
       style="fill:none;stroke:#b0b0b0;stroke-width:0.8;stroke-linecap:square;stroke-linejoin:round;stroke-miterlimit:10;stroke-dasharray:none;stroke-opacity:0.3"
       transform="matrix(1.3333333,0,0,-1.3333333,0,523.345)"
       clip-path="url(#clipPath4)" />
    <path
       id="path5"
       d="m 64.069034,37.54375 v -3.5"
       style="fill:#000000;fill-opacity:1;fill-rule:nonzero;stroke:#000000;stroke-width:0.8;stroke-linecap:butt;stroke-linejoin:round;stroke-miterlimit:10;stroke-dasharray:none;stroke-opacity:1"
       transform="matrix(1.3333333,0,0,-1.3333333,0,523.345)" />
    <text
       id="text5"
       xml:space="preserve"
       transform="matrix(1.3333333,0,0,1.3333333,74.821212,492.745)"><tspan
         id="tspan5"
         style="font-variant:normal;font-weight:normal;font-size:10px;font-family:'DejaVu Sans';writing-mode:lr-tb;fill:#000000;fill-opacity:1;fill-rule:nonzero;stroke:none"
         x="0"
         y="0">0.0</tspan></text>
    <path
       id="path6"
       d="m 145.23267,37.54375 v 332.64"
       style="fill:none;stroke:#b0b0b0;stroke-width:0.8;stroke-linecap:square;stroke-linejoin:round;stroke-miterlimit:10;stroke-dasharray:none;stroke-opacity:0.3"
       transform="matrix(1.3333333,0,0,-1.3333333,0,523.345)"
       clip-path="url(#clipPath7)" />
    <path
       id="path8"
       d="m 145.23267,37.54375 v -3.5"
       style="fill:#000000;fill-opacity:1;fill-rule:nonzero;stroke:#000000;stroke-width:0.8;stroke-linecap:butt;stroke-linejoin:round;stroke-miterlimit:10;stroke-dasharray:none;stroke-opacity:1"
       transform="matrix(1.3333333,0,0,-1.3333333,0,523.345)" />
    <text
       id="text8"
       xml:space="preserve"
       transform="matrix(1.3333333,0,0,1.3333333,183.03939,492.745)"><tspan
         id="tspan8"
         style="font-variant:normal;font-weight:normal;font-size:10px;font-family:'DejaVu Sans';writing-mode:lr-tb;fill:#000000;fill-opacity:1;fill-rule:nonzero;stroke:none"
         x="0"
         y="0">0.2</tspan></text>
    <path
       id="path9"
       d="m 226.39631,37.54375 v 332.64"
       style="fill:none;stroke:#b0b0b0;stroke-width:0.8;stroke-linecap:square;stroke-linejoin:round;stroke-miterlimit:10;stroke-dasharray:none;stroke-opacity:0.3"
       transform="matrix(1.3333333,0,0,-1.3333333,0,523.345)"
       clip-path="url(#clipPath10)" />
    <path
       id="path11"
       d="m 226.39631,37.54375 v -3.5"
       style="fill:#000000;fill-opacity:1;fill-rule:nonzero;stroke:#000000;stroke-width:0.8;stroke-linecap:butt;stroke-linejoin:round;stroke-miterlimit:10;stroke-dasharray:none;stroke-opacity:1"
       transform="matrix(1.3333333,0,0,-1.3333333,0,523.345)" />
    <text
       id="text11"
       xml:space="preserve"
       transform="matrix(1.3333333,0,0,1.3333333,291.25758,492.745)"><tspan
         id="tspan11"
         style="font-variant:normal;font-weight:normal;font-size:10px;font-family:'DejaVu Sans';writing-mode:lr-tb;fill:#000000;fill-opacity:1;fill-rule:nonzero;stroke:none"
         x="0"
         y="0">0.4</tspan></text>
    <path
       id="path12"
       d="m 307.55994,37.54375 v 332.64"
       style="fill:none;stroke:#b0b0b0;stroke-width:0.8;stroke-linecap:square;stroke-linejoin:round;stroke-miterlimit:10;stroke-dasharray:none;stroke-opacity:0.3"
       transform="matrix(1.3333333,0,0,-1.3333333,0,523.345)"
       clip-path="url(#clipPath13)" />
    <path
       id="path14"
       d="m 307.55994,37.54375 v -3.5"
       style="fill:#000000;fill-opacity:1;fill-rule:nonzero;stroke:#000000;stroke-width:0.8;stroke-linecap:butt;stroke-linejoin:round;stroke-miterlimit:10;stroke-dasharray:none;stroke-opacity:1"
       transform="matrix(1.3333333,0,0,-1.3333333,0,523.345)" />
    <text
       id="text14"
       xml:space="preserve"
       transform="matrix(1.3333333,0,0,1.3333333,399.47576,492.745)"><tspan
         id="tspan14"
         style="font-variant:normal;font-weight:normal;font-size:10px;font-family:'DejaVu Sans';writing-mode:lr-tb;fill:#000000;fill-opacity:1;fill-rule:nonzero;stroke:none"
         x="0"
         y="0">0.6</tspan></text>
    <path
       id="path15"
       d="m 388.72358,37.54375 v 332.64"
       style="fill:none;stroke:#b0b0b0;stroke-width:0.8;stroke-linecap:square;stroke-linejoin:round;stroke-miterlimit:10;stroke-dasharray:none;stroke-opacity:0.3"
       transform="matrix(1.3333333,0,0,-1.3333333,0,523.345)"
       clip-path="url(#clipPath16)" />
    <path
       id="path17"
       d="m 388.72358,37.54375 v -3.5"
       style="fill:#000000;fill-opacity:1;fill-rule:nonzero;stroke:#000000;stroke-width:0.8;stroke-linecap:butt;stroke-linejoin:round;stroke-miterlimit:10;stroke-dasharray:none;stroke-opacity:1"
       transform="matrix(1.3333333,0,0,-1.3333333,0,523.345)" />
    <text
       id="text17"
       xml:space="preserve"
       transform="matrix(1.3333333,0,0,1.3333333,507.69394,492.745)"><tspan
         id="tspan17"
         style="font-variant:normal;font-weight:normal;font-size:10px;font-family:'DejaVu Sans';writing-mode:lr-tb;fill:#000000;fill-opacity:1;fill-rule:nonzero;stroke:none"
         x="0"
         y="0">0.8</tspan></text>
    <path
       id="path18"
       d="m 469.88722,37.54375 v 332.64"
       style="fill:none;stroke:#b0b0b0;stroke-width:0.8;stroke-linecap:square;stroke-linejoin:round;stroke-miterlimit:10;stroke-dasharray:none;stroke-opacity:0.3"
       transform="matrix(1.3333333,0,0,-1.3333333,0,523.345)"
       clip-path="url(#clipPath19)" />
    <path
       id="path20"
       d="m 469.88722,37.54375 v -3.5"
       style="fill:#000000;fill-opacity:1;fill-rule:nonzero;stroke:#000000;stroke-width:0.8;stroke-linecap:butt;stroke-linejoin:round;stroke-miterlimit:10;stroke-dasharray:none;stroke-opacity:1"
       transform="matrix(1.3333333,0,0,-1.3333333,0,523.345)" />
    <text
       id="text20"
       xml:space="preserve"
       transform="matrix(1.3333333,0,0,1.3333333,615.91212,492.745)"><tspan
         id="tspan20"
         style="font-variant:normal;font-weight:normal;font-size:10px;font-family:'DejaVu Sans';writing-mode:lr-tb;fill:#000000;fill-opacity:1;fill-rule:nonzero;stroke:none"
         x="0"
         y="0">1.0</tspan></text>
    <text
       id="text21"
       xml:space="preserve"
       transform="matrix(1.3333333,0,0,1.3333333,293.97083,510.97417)"><tspan
         id="tspan21"
         style="font-variant:normal;font-weight:normal;font-size:10px;font-family:'DejaVu Sans';writing-mode:lr-tb;fill:#000000;fill-opacity:1;fill-rule:nonzero;stroke:none"
         x="0"
         dx="0 -0.90625 0 0 0 0 0 -0.34375 0 0 0 0 0 0 0 0 -0.21875"
         y="0">False Positive Rate</tspan></text>
    <path
       id="path21"
       d="M 43.778125,52.66375 H 490.17812"
       style="fill:none;stroke:#b0b0b0;stroke-width:0.8;stroke-linecap:square;stroke-linejoin:round;stroke-miterlimit:10;stroke-dasharray:none;stroke-opacity:0.3"
       transform="matrix(1.3333333,0,0,-1.3333333,0,523.345)"
       clip-path="url(#clipPath22)" />
    <path
       id="path23"
       d="m 43.778125,52.66375 h -3.5"
       style="fill:#000000;fill-opacity:1;fill-rule:nonzero;stroke:#000000;stroke-width:0.8;stroke-linecap:butt;stroke-linejoin:round;stroke-miterlimit:10;stroke-dasharray:none;stroke-opacity:1"
       transform="matrix(1.3333333,0,0,-1.3333333,0,523.345)" />
    <text
       id="text23"
       xml:space="preserve"
       transform="matrix(1.3333333,0,0,1.3333333,27.829167,458.18917)"><tspan
         id="tspan23"
         style="font-variant:normal;font-weight:normal;font-size:10px;font-family:'DejaVu Sans';writing-mode:lr-tb;fill:#000000;fill-opacity:1;fill-rule:nonzero;stroke:none"
         x="0"
         y="0">0.0</tspan></text>
    <path
       id="path24"
       d="M 43.778125,113.14375 H 490.17812"
       style="fill:none;stroke:#b0b0b0;stroke-width:0.8;stroke-linecap:square;stroke-linejoin:round;stroke-miterlimit:10;stroke-dasharray:none;stroke-opacity:0.3"
       transform="matrix(1.3333333,0,0,-1.3333333,0,523.345)"
       clip-path="url(#clipPath25)" />
    <path
       id="path26"
       d="m 43.778125,113.14375 h -3.5"
       style="fill:#000000;fill-opacity:1;fill-rule:nonzero;stroke:#000000;stroke-width:0.8;stroke-linecap:butt;stroke-linejoin:round;stroke-miterlimit:10;stroke-dasharray:none;stroke-opacity:1"
       transform="matrix(1.3333333,0,0,-1.3333333,0,523.345)" />
    <text
       id="text26"
       xml:space="preserve"
       transform="matrix(1.3333333,0,0,1.3333333,27.829167,377.54917)"><tspan
         id="tspan26"
         style="font-variant:normal;font-weight:normal;font-size:10px;font-family:'DejaVu Sans';writing-mode:lr-tb;fill:#000000;fill-opacity:1;fill-rule:nonzero;stroke:none"
         x="0"
         y="0">0.2</tspan></text>
    <path
       id="path27"
       d="M 43.778125,173.62375 H 490.17812"
       style="fill:none;stroke:#b0b0b0;stroke-width:0.8;stroke-linecap:square;stroke-linejoin:round;stroke-miterlimit:10;stroke-dasharray:none;stroke-opacity:0.3"
       transform="matrix(1.3333333,0,0,-1.3333333,0,523.345)"
       clip-path="url(#clipPath28)" />
    <path
       id="path29"
       d="m 43.778125,173.62375 h -3.5"
       style="fill:#000000;fill-opacity:1;fill-rule:nonzero;stroke:#000000;stroke-width:0.8;stroke-linecap:butt;stroke-linejoin:round;stroke-miterlimit:10;stroke-dasharray:none;stroke-opacity:1"
       transform="matrix(1.3333333,0,0,-1.3333333,0,523.345)" />
    <text
       id="text29"
       xml:space="preserve"
       transform="matrix(1.3333333,0,0,1.3333333,27.829167,296.90917)"><tspan
         id="tspan29"
         style="font-variant:normal;font-weight:normal;font-size:10px;font-family:'DejaVu Sans';writing-mode:lr-tb;fill:#000000;fill-opacity:1;fill-rule:nonzero;stroke:none"
         x="0"
         y="0">0.4</tspan></text>
    <path
       id="path30"
       d="M 43.778125,234.10375 H 490.17812"
       style="fill:none;stroke:#b0b0b0;stroke-width:0.8;stroke-linecap:square;stroke-linejoin:round;stroke-miterlimit:10;stroke-dasharray:none;stroke-opacity:0.3"
       transform="matrix(1.3333333,0,0,-1.3333333,0,523.345)"
       clip-path="url(#clipPath31)" />
    <path
       id="path32"
       d="m 43.778125,234.10375 h -3.5"
       style="fill:#000000;fill-opacity:1;fill-rule:nonzero;stroke:#000000;stroke-width:0.8;stroke-linecap:butt;stroke-linejoin:round;stroke-miterlimit:10;stroke-dasharray:none;stroke-opacity:1"
       transform="matrix(1.3333333,0,0,-1.3333333,0,523.345)" />
    <text
       id="text32"
       xml:space="preserve"
       transform="matrix(1.3333333,0,0,1.3333333,27.829167,216.26917)"><tspan
         id="tspan32"
         style="font-variant:normal;font-weight:normal;font-size:10px;font-family:'DejaVu Sans';writing-mode:lr-tb;fill:#000000;fill-opacity:1;fill-rule:nonzero;stroke:none"
         x="0"
         y="0">0.6</tspan></text>
    <path
       id="path33"
       d="M 43.778125,294.58375 H 490.17812"
       style="fill:none;stroke:#b0b0b0;stroke-width:0.8;stroke-linecap:square;stroke-linejoin:round;stroke-miterlimit:10;stroke-dasharray:none;stroke-opacity:0.3"
       transform="matrix(1.3333333,0,0,-1.3333333,0,523.345)"
       clip-path="url(#clipPath34)" />
    <path
       id="path35"
       d="m 43.778125,294.58375 h -3.5"
       style="fill:#000000;fill-opacity:1;fill-rule:nonzero;stroke:#000000;stroke-width:0.8;stroke-linecap:butt;stroke-linejoin:round;stroke-miterlimit:10;stroke-dasharray:none;stroke-opacity:1"
       transform="matrix(1.3333333,0,0,-1.3333333,0,523.345)" />
    <text
       id="text35"
       xml:space="preserve"
       transform="matrix(1.3333333,0,0,1.3333333,27.829167,135.62917)"><tspan
         id="tspan35"
         style="font-variant:normal;font-weight:normal;font-size:10px;font-family:'DejaVu Sans';writing-mode:lr-tb;fill:#000000;fill-opacity:1;fill-rule:nonzero;stroke:none"
         x="0"
         y="0">0.8</tspan></text>
    <path
       id="path36"
       d="M 43.778125,355.06375 H 490.17812"
       style="fill:none;stroke:#b0b0b0;stroke-width:0.8;stroke-linecap:square;stroke-linejoin:round;stroke-miterlimit:10;stroke-dasharray:none;stroke-opacity:0.3"
       transform="matrix(1.3333333,0,0,-1.3333333,0,523.345)"
       clip-path="url(#clipPath37)" />
    <path
       id="path38"
       d="m 43.778125,355.06375 h -3.5"
       style="fill:#000000;fill-opacity:1;fill-rule:nonzero;stroke:#000000;stroke-width:0.8;stroke-linecap:butt;stroke-linejoin:round;stroke-miterlimit:10;stroke-dasharray:none;stroke-opacity:1"
       transform="matrix(1.3333333,0,0,-1.3333333,0,523.345)" />
    <text
       id="text38"
       xml:space="preserve"
       transform="matrix(1.3333333,0,0,1.3333333,27.829167,54.989167)"><tspan
         id="tspan38"
         style="font-variant:normal;font-weight:normal;font-size:10px;font-family:'DejaVu Sans';writing-mode:lr-tb;fill:#000000;fill-opacity:1;fill-rule:nonzero;stroke:none"
         x="0"
         y="0">1.0</tspan></text>
    <text
       id="text39"
       xml:space="preserve"
       transform="matrix(0,-1.3333333,1.3333333,0,19.725,310.90167)"><tspan
         id="tspan39"
         style="font-variant:normal;font-weight:normal;font-size:10px;font-family:'DejaVu Sans';writing-mode:lr-tb;fill:#000000;fill-opacity:1;fill-rule:nonzero;stroke:none"
         x="0"
         dx="0 -1.46875 0 0 0 0 -0.34375 0 0 0 0 0 0 0 0 -0.21875"
         y="0">True Positive Rate</tspan></text>
    <path
       id="path39"
       d="m 64.069034,52.66375 v 259.2 h 4.099174 v 9.25714 h 10.247934 v 3.08572 h 14.347107 v 3.08571 h 2.049587 v 3.08572 h 22.545454 4.09917 12.29752 4.09918 6.14876 v 3.08571 h 4.09917 l 4.09917,3.08571 h 4.09918 4.09917 2.04959 6.14876 2.04959 8.19834 2.04959 4.09917 l 4.09918,3.08572 h 8.19834 6.14876 24.59505 20.49586 l 22.54546,6.17143 198.80992,9.25714"
       style="fill:none;stroke:#1f77b4;stroke-width:2;stroke-linecap:square;stroke-linejoin:round;stroke-miterlimit:10;stroke-dasharray:none;stroke-opacity:1"
       transform="matrix(1.3333333,0,0,-1.3333333,0,523.345)"
       clip-path="url(#clipPath40)" />
    <path
       id="path41"
       d="m 64.069034,52.66375 405.818186,302.4"
       style="fill:none;stroke:#000000;stroke-width:1;stroke-linecap:butt;stroke-linejoin:round;stroke-miterlimit:10;stroke-dasharray:3.7, 1.6;stroke-dashoffset:0;stroke-opacity:1"
       transform="matrix(1.3333333,0,0,-1.3333333,0,523.345)"
       clip-path="url(#clipPath42)" />
    <path
       id="path43"
       d="m 64.069034,52.66375 v 266.112 l 1.035251,6.048 v 9.072 h 6.211502 v 3.024 h 3.105752 v 3.024 h 22.77551 v 3.024 h 1.03525 2.070501 7.24675 2.0705 10.35251 2.0705 1.03525 2.0705 1.03525 2.0705 4.141 6.21151 1.03525 4.141 l 4.141,3.024 h 7.24675 22.77551 l 291.94064,9.072"
       style="fill:none;stroke:#ff7f0e;stroke-width:2;stroke-linecap:square;stroke-linejoin:round;stroke-miterlimit:10;stroke-dasharray:none;stroke-opacity:1"
       transform="matrix(1.3333333,0,0,-1.3333333,0,523.345)"
       clip-path="url(#clipPath44)" />
    <path
       id="path45"
       d="m 64.069034,52.66375 405.818186,302.4"
       style="fill:none;stroke:#000000;stroke-width:1;stroke-linecap:butt;stroke-linejoin:round;stroke-miterlimit:10;stroke-dasharray:3.7, 1.6;stroke-dashoffset:0;stroke-opacity:1"
       transform="matrix(1.3333333,0,0,-1.3333333,0,523.345)"
       clip-path="url(#clipPath46)" />
    <path
       id="path47"
       d="m 64.069034,52.66375 v 227.57938 h 0.514345 v 6.23505 h 1.02869 v 6.23505 h 1.543035 v 3.11753 h 0.514345 v 3.11753 h 0.514345 v 3.11752 h 1.543035 v 3.11753 h 3.08607 v 3.11752 h 0.514345 v 3.11753 h 1.02869 v 3.11752 h 1.028689 v 3.11753 h 0.514345 v 3.11753 h 0.514345 v 3.11752 h 11.31559 v 3.11753 h 6.172139 v 3.11752 h 4.11476 1.02869 0.514345 1.543033 1.02869 0.51435 1.02869 1.54303 1.02869 1.54304 2.05738 1.02869 l 1.02869,3.11753 h 3.08607 5.14345 5.65779 5.14345 11.82993 9.77256 22.11683 l 295.23402,21.82268"
       style="fill:none;stroke:#2ca02c;stroke-width:2;stroke-linecap:square;stroke-linejoin:round;stroke-miterlimit:10;stroke-dasharray:none;stroke-opacity:1"
       transform="matrix(1.3333333,0,0,-1.3333333,0,523.345)"
       clip-path="url(#clipPath48)" />
    <path
       id="path49"
       d="m 64.069034,52.66375 405.818186,302.4"
       style="fill:none;stroke:#000000;stroke-width:1;stroke-linecap:butt;stroke-linejoin:round;stroke-miterlimit:10;stroke-dasharray:3.7, 1.6;stroke-dashoffset:0;stroke-opacity:1"
       transform="matrix(1.3333333,0,0,-1.3333333,0,523.345)"
       clip-path="url(#clipPath50)" />
    <path
       id="path51"
       d="m 64.069034,52.66375 0.517295,258.78461 v 5.81539 h 1.034591 v 2.90769 h 0.775943 v 5.81539 h 3.621067 0.517296 0.775943 v 2.90769 h 5.431601 l 0.258647,2.90769 h 2.069181 0.517296 2.586476 0.775943 0.258648 1.034591 0.258647 0.775943 0.517296 0.258647 0.517296 0.775943 0.517295 1.551886 0.775943 0.517295 0.775943 0.775943 0.517296 0.775943 l 1.293238,2.90769 h 1.293238 0.258648 1.034591 0.258647 2.32783 l 1.03459,2.9077 h 0.51729 1.29324 1.55189 2.06918 0.77594 2.58648 2.84513 8.27672 5.17295 l 6.46619,2.90769 h 8.01808 l 23.53694,2.90769 305.72154,11.63077"
       style="fill:none;stroke:#d62728;stroke-width:2;stroke-linecap:square;stroke-linejoin:round;stroke-miterlimit:10;stroke-dasharray:none;stroke-opacity:1"
       transform="matrix(1.3333333,0,0,-1.3333333,0,523.345)"
       clip-path="url(#clipPath52)" />
    <path
       id="path53"
       d="m 64.069034,52.66375 405.818186,302.4"
       style="fill:none;stroke:#000000;stroke-width:1;stroke-linecap:butt;stroke-linejoin:round;stroke-miterlimit:10;stroke-dasharray:3.7, 1.6;stroke-dashoffset:0;stroke-opacity:1"
       transform="matrix(1.3333333,0,0,-1.3333333,0,523.345)"
       clip-path="url(#clipPath54)" />
    <path
       id="path55"
       d="m 64.069034,52.66375 v 108.22737 25.46526 9.54947 9.54948 h 0.128709 v 35.01474 l 0.128708,3.18315 v 6.36632 h 0.128709 v 19.09895 19.09894 h 0.257417 v 6.36632 h 0.257417 v 6.36632 h 0.128709 v 9.54947 h 1.287086 v 3.18316 h 3.346423 v 3.18315 h 0.257417 v 3.18316 h 0.90096 v 3.18316 h 1.158378 0.257417 0.257417 v 3.18316 h 1.930629 0.257417 0.514834 0.257418 0.128708 0.257417 0.257417 0.257418 1.029668 0.257418 0.128708 v 3.18316 h 0.257417 0.514835 0.514834 0.128709 0.386125 0.257418 0.386125 1.029669 0.386126 0.514834 0.386126 0.128709 0.772251 0.128709 0.643543 0.772251 0.514834 1.158378 0.128708 0.257418 0.643543 0.386125 0.772252 0.257417 1.029669 0.257417 1.029669 l 0.643543,3.18315 h 1.287085 0.772252 1.415794 1.029669 1.287086 1.158377 l 0.772252,3.18316 h 1.287088 1.80192 4.89092 l 3.08901,3.18316 h 3.08901 4.89092 4.76222 6.0493 l 10.16798,3.18316 h 18.92017 l 37.71161,6.36631 273.37705,6.36632"
       style="fill:none;stroke:#9467bd;stroke-width:2;stroke-linecap:square;stroke-linejoin:round;stroke-miterlimit:10;stroke-dasharray:none;stroke-opacity:1"
       transform="matrix(1.3333333,0,0,-1.3333333,0,523.345)"
       clip-path="url(#clipPath56)" />
    <path
       id="path57"
       d="m 64.069034,52.66375 405.818186,302.4"
       style="fill:none;stroke:#000000;stroke-width:1;stroke-linecap:butt;stroke-linejoin:round;stroke-miterlimit:10;stroke-dasharray:3.7, 1.6;stroke-dashoffset:0;stroke-opacity:1"
       transform="matrix(1.3333333,0,0,-1.3333333,0,523.345)"
       clip-path="url(#clipPath58)" />
    <path
       id="path59"
       d="m 64.069034,52.66375 0.0643,227.68941 h 0.128607 v 24.90353 h 0.257213 v 3.55765 h 0.128607 l 0.0643,7.11529 h 0.38582 v 3.55765 h 0.19291 v 3.55765 h 0.450123 v 3.55764 h 1.864796 l 0.0643,3.55765 h 0.77164 v 3.55765 h 2.957952 v 3.55764 h 77.163968 l 20.57706,3.55765 h 44.24068 l 256.5059,14.23059 v 0"
       style="fill:none;stroke:#8c564b;stroke-width:2;stroke-linecap:square;stroke-linejoin:round;stroke-miterlimit:10;stroke-dasharray:none;stroke-opacity:1"
       transform="matrix(1.3333333,0,0,-1.3333333,0,523.345)"
       clip-path="url(#clipPath60)" />
    <path
       id="path61"
       d="m 64.069034,52.66375 405.818186,302.4"
       style="fill:none;stroke:#000000;stroke-width:1;stroke-linecap:butt;stroke-linejoin:round;stroke-miterlimit:10;stroke-dasharray:3.7, 1.6;stroke-dashoffset:0;stroke-opacity:1"
       transform="matrix(1.3333333,0,0,-1.3333333,0,523.345)"
       clip-path="url(#clipPath62)" />
    <path
       id="path63"
       d="m 64.069034,52.66375 0.09666,232.14546 h 0.03222 l 0.09666,24.43636 h 0.128882 v 3.05454 h 0.418868 v 3.05455 h 0.09666 0.06444 v 3.05454 h 0.193323 l 0.06444,6.10909 h 1.997676 v 3.05455 h 0.934397 v 3.05455 h 0.09666 0.06444 v 3.05454 h 0.257765 v 3.05455 h 0.06444 14.467039 l 0.644412,3.05454 h 27.870804 l 6.34745,3.05455 h 13.95151 l 10.85834,3.05454 h 113.25533 l 213.81576,9.16364 v 0"
       style="fill:none;stroke:#e377c2;stroke-width:2;stroke-linecap:square;stroke-linejoin:round;stroke-miterlimit:10;stroke-dasharray:none;stroke-opacity:1"
       transform="matrix(1.3333333,0,0,-1.3333333,0,523.345)"
       clip-path="url(#clipPath64)" />
    <path
       id="path65"
       d="m 64.069034,52.66375 405.818186,302.4"
       style="fill:none;stroke:#000000;stroke-width:1;stroke-linecap:butt;stroke-linejoin:round;stroke-miterlimit:10;stroke-dasharray:3.7, 1.6;stroke-dashoffset:0;stroke-opacity:1"
       transform="matrix(1.3333333,0,0,-1.3333333,0,523.345)"
       clip-path="url(#clipPath66)" />
    <path
       id="path67"
       d="m 64.069034,52.66375 0.09669,234.57196 h 0.01611 l 0.03223,8.47851 h 0.08058 v 2.82617 h 0.483462 l 0.09669,11.30467 h 4.94743 l 0.128924,2.82617 h 1.885502 l 0.435116,5.65233 h 1.19254 l 0.161155,2.82617 h 0.934693 l 0.306193,2.82617 h 3.561505 l 0.547924,2.82617 h 2.38508 l 0.838001,5.65233 h 5.575931 l 1.982195,2.82617 H 140.5044 l 30.89323,8.47851 298.48958,11.30467 v 0"
       style="fill:none;stroke:#7f7f7f;stroke-width:2;stroke-linecap:square;stroke-linejoin:round;stroke-miterlimit:10;stroke-dasharray:none;stroke-opacity:1"
       transform="matrix(1.3333333,0,0,-1.3333333,0,523.345)"
       clip-path="url(#clipPath68)" />
    <path
       id="path69"
       d="m 64.069034,52.66375 405.818186,302.4"
       style="fill:none;stroke:#000000;stroke-width:1;stroke-linecap:butt;stroke-linejoin:round;stroke-miterlimit:10;stroke-dasharray:3.7, 1.6;stroke-dashoffset:0;stroke-opacity:1"
       transform="matrix(1.3333333,0,0,-1.3333333,0,523.345)"
       clip-path="url(#clipPath70)" />
    <path
       id="path71"
       d="m 43.778125,37.54375 v 332.64"
       style="fill:none;stroke:#000000;stroke-width:0.8;stroke-linecap:square;stroke-linejoin:miter;stroke-miterlimit:10;stroke-dasharray:none;stroke-opacity:1"
       transform="matrix(1.3333333,0,0,-1.3333333,0,523.345)" />
    <path
       id="path72"
       d="m 490.17812,37.54375 v 332.64"
       style="fill:none;stroke:#000000;stroke-width:0.8;stroke-linecap:square;stroke-linejoin:miter;stroke-miterlimit:10;stroke-dasharray:none;stroke-opacity:1"
       transform="matrix(1.3333333,0,0,-1.3333333,0,523.345)" />
    <path
       id="path73"
       d="M 43.778125,37.54375 H 490.17812"
       style="fill:none;stroke:#000000;stroke-width:0.8;stroke-linecap:square;stroke-linejoin:miter;stroke-miterlimit:10;stroke-dasharray:none;stroke-opacity:1"
       transform="matrix(1.3333333,0,0,-1.3333333,0,523.345)" />
    <path
       id="path74"
       d="M 43.778125,370.18375 H 490.17812"
       style="fill:none;stroke:#000000;stroke-width:0.8;stroke-linecap:square;stroke-linejoin:miter;stroke-miterlimit:10;stroke-dasharray:none;stroke-opacity:1"
       transform="matrix(1.3333333,0,0,-1.3333333,0,523.345)" />
    <text
       id="text74"
       xml:space="preserve"
       transform="matrix(1.3333333,0,0,1.3333333,338.52292,21.766667)"><tspan
         id="tspan74"
         style="font-variant:normal;font-weight:normal;font-size:12px;font-family:'DejaVu Sans';writing-mode:lr-tb;fill:#000000;fill-opacity:1;fill-rule:nonzero;stroke:none"
         x="0"
         y="0">ROC</tspan></text>
    <path
       id="path75"
       d="m 305.17812,42.54375 h 178 c 1.33334,0 2,0.666667 2,2 v 116.375 c 0,1.33333 -0.66666,2 -2,2 h -178 c -1.33333,0 -2,-0.66667 -2,-2 v -116.375 c 0,-1.333333 0.66667,-2 2,-2 z"
       style="fill:#ffffff;fill-opacity:0.8;fill-rule:nonzero;stroke:#cccccc;stroke-width:1;stroke-linecap:butt;stroke-linejoin:miter;stroke-miterlimit:10;stroke-dasharray:none;stroke-opacity:0.8"
       transform="matrix(1.3333333,0,0,-1.3333333,0,523.345)" />
    <path
       id="path76"
       d="m 307.17812,154.825 h 10 10"
       style="fill:none;stroke:#1f77b4;stroke-width:2;stroke-linecap:square;stroke-linejoin:round;stroke-miterlimit:10;stroke-dasharray:none;stroke-opacity:1"
       transform="matrix(1.3333333,0,0,-1.3333333,0,523.345)" />
    <text
       id="text76"
       xml:space="preserve"
       transform="matrix(1.3333333,0,0,1.3333333,446.90417,321.57833)"><tspan
         id="tspan76"
         style="font-variant:normal;font-weight:normal;font-size:10px;font-family:'DejaVu Sans';writing-mode:lr-tb;fill:#000000;fill-opacity:1;fill-rule:nonzero;stroke:none"
         x="0"
         y="0">ROC AUC = 0.9576, IR = 2</tspan></text>
    <path
       id="path77"
       d="m 307.17812,140.15312 h 10 10"
       style="fill:none;stroke:#ff7f0e;stroke-width:2;stroke-linecap:square;stroke-linejoin:round;stroke-miterlimit:10;stroke-dasharray:none;stroke-opacity:1"
       transform="matrix(1.3333333,0,0,-1.3333333,0,523.345)" />
    <text
       id="text77"
       xml:space="preserve"
       transform="matrix(1.3333333,0,0,1.3333333,446.90417,341.14083)"><tspan
         id="tspan77"
         style="font-variant:normal;font-weight:normal;font-size:10px;font-family:'DejaVu Sans';writing-mode:lr-tb;fill:#000000;fill-opacity:1;fill-rule:nonzero;stroke:none"
         x="0"
         y="0">ROC AUC = 0.9774, IR = 4</tspan></text>
    <path
       id="path78"
       d="m 307.17812,125.48125 h 10 10"
       style="fill:none;stroke:#2ca02c;stroke-width:2;stroke-linecap:square;stroke-linejoin:round;stroke-miterlimit:10;stroke-dasharray:none;stroke-opacity:1"
       transform="matrix(1.3333333,0,0,-1.3333333,0,523.345)" />
    <text
       id="text78"
       xml:space="preserve"
       transform="matrix(1.3333333,0,0,1.3333333,446.90417,360.70333)"><tspan
         id="tspan78"
         style="font-variant:normal;font-weight:normal;font-size:10px;font-family:'DejaVu Sans';writing-mode:lr-tb;fill:#000000;fill-opacity:1;fill-rule:nonzero;stroke:none"
         x="0"
         y="0">ROC AUC = 0.9494, IR = 8</tspan></text>
    <path
       id="path79"
       d="m 307.17812,110.80937 h 10 10"
       style="fill:none;stroke:#d62728;stroke-width:2;stroke-linecap:square;stroke-linejoin:round;stroke-miterlimit:10;stroke-dasharray:none;stroke-opacity:1"
       transform="matrix(1.3333333,0,0,-1.3333333,0,523.345)" />
    <text
       id="text79"
       xml:space="preserve"
       transform="matrix(1.3333333,0,0,1.3333333,446.90417,380.26583)"><tspan
         id="tspan79"
         style="font-variant:normal;font-weight:normal;font-size:10px;font-family:'DejaVu Sans';writing-mode:lr-tb;fill:#000000;fill-opacity:1;fill-rule:nonzero;stroke:none"
         x="0"
         y="0">ROC AUC = 0.9696, IR = 16</tspan></text>
    <path
       id="path80"
       d="m 307.17812,96.1375 h 10 10"
       style="fill:none;stroke:#9467bd;stroke-width:2;stroke-linecap:square;stroke-linejoin:round;stroke-miterlimit:10;stroke-dasharray:none;stroke-opacity:1"
       transform="matrix(1.3333333,0,0,-1.3333333,0,523.345)" />
    <text
       id="text80"
       xml:space="preserve"
       transform="matrix(1.3333333,0,0,1.3333333,446.90417,399.82833)"><tspan
         id="tspan80"
         style="font-variant:normal;font-weight:normal;font-size:10px;font-family:'DejaVu Sans';writing-mode:lr-tb;fill:#000000;fill-opacity:1;fill-rule:nonzero;stroke:none"
         x="0"
         y="0">ROC AUC = 0.9740, IR = 32</tspan></text>
    <path
       id="path81"
       d="m 307.17812,81.465625 h 10 10"
       style="fill:none;stroke:#8c564b;stroke-width:2;stroke-linecap:square;stroke-linejoin:round;stroke-miterlimit:10;stroke-dasharray:none;stroke-opacity:1"
       transform="matrix(1.3333333,0,0,-1.3333333,0,523.345)" />
    <text
       id="text81"
       xml:space="preserve"
       transform="matrix(1.3333333,0,0,1.3333333,446.90417,419.39083)"><tspan
         id="tspan81"
         style="font-variant:normal;font-weight:normal;font-size:10px;font-family:'DejaVu Sans';writing-mode:lr-tb;fill:#000000;fill-opacity:1;fill-rule:nonzero;stroke:none"
         x="0"
         y="0">ROC AUC = 0.9643, IR = 64</tspan></text>
    <path
       id="path82"
       d="m 307.17812,66.79375 h 10 10"
       style="fill:none;stroke:#e377c2;stroke-width:2;stroke-linecap:square;stroke-linejoin:round;stroke-miterlimit:10;stroke-dasharray:none;stroke-opacity:1"
       transform="matrix(1.3333333,0,0,-1.3333333,0,523.345)" />
    <text
       id="text82"
       xml:space="preserve"
       transform="matrix(1.3333333,0,0,1.3333333,446.90417,438.95333)"><tspan
         id="tspan82"
         style="font-variant:normal;font-weight:normal;font-size:10px;font-family:'DejaVu Sans';writing-mode:lr-tb;fill:#000000;fill-opacity:1;fill-rule:nonzero;stroke:none"
         x="0"
         y="0">ROC AUC = 0.9735, IR = 128</tspan></text>
    <path
       id="path83"
       d="m 307.17812,52.121875 h 10 10"
       style="fill:none;stroke:#7f7f7f;stroke-width:2;stroke-linecap:square;stroke-linejoin:round;stroke-miterlimit:10;stroke-dasharray:none;stroke-opacity:1"
       transform="matrix(1.3333333,0,0,-1.3333333,0,523.345)" />
    <text
       id="text83"
       xml:space="preserve"
       transform="matrix(1.3333333,0,0,1.3333333,446.90417,458.51583)"><tspan
         id="tspan83"
         style="font-variant:normal;font-weight:normal;font-size:10px;font-family:'DejaVu Sans';writing-mode:lr-tb;fill:#000000;fill-opacity:1;fill-rule:nonzero;stroke:none"
         x="0"
         y="0">ROC AUC = 0.9672, IR = 256</tspan></text>
  </g>
</svg>
